<?xml version="1.0" standalone="no"?>
<!DOCTYPE svg PUBLIC "-//W3C//DTD SVG 1.1//EN" "http://www.w3.org/Graphics/SVG/1.1/DTD/svg11.dtd" >
<svg>
<metadata>
Created by FontForge 20090622 at Wed Feb  3 06:44:59 2016
 By deploy user
Copyright &#194;&#169; 2015 Rogers Communications
</metadata>
<defs>
<font id="TedNext-SemiBold" horiz-adv-x="387" >
  <font-face 
    font-family="Ted Next SemiBold"
    font-weight="600"
    font-stretch="normal"
    units-per-em="1000"
    panose-1="2 0 5 7 0 0 0 0 0 4"
    ascent="800"
    descent="-200"
    x-height="479"
    cap-height="708"
    bbox="-223 -250 1084 954"
    underline-thickness="50"
    underline-position="-50"
    unicode-range="U+000D-U+FB04"
  />
<missing-glyph horiz-adv-x="512" 
d="M0 0v718h512v-718h-512zM50 50h412v617h-412v-617zM225 234l-2 17q0 56 13 81q15 28 46 59q31 29 40.5 46t9.5 37q0 36 -22.5 60.5t-53.5 24.5q-71 0 -82 -95l-50 8q7 69 43 103t92 34q54 0 89 -36t35 -95q0 -34 -13 -60t-50 -60q-37 -33 -43 -52q-6 -20 -6 -72h-46z
M222 117v67h56v-67h-56z" />
    <glyph glyph-name="f_f" unicode="ff" horiz-adv-x="663" 
d="M622 692q-85 0 -85 -109v-104h126l-16 -74h-110v-405h-97v405h-231v-405h-97v405h-99l15 74h83v104q0 89 43 138.5t128 49.5q51 0 91 -10l-9 -78q-40 9 -71 9q-84 0 -84 -109v-104h231v104q0 89 43 138.5t128 49.5q50 0 90 -10l-8 -78q-41 9 -71 9z" />
    <glyph glyph-name="fi" unicode="fi" horiz-adv-x="583" 
d="M112 0v405h-99l15 74h83v104q0 89 41 138.5t121 49.5q50 0 90 -10l-8 -78q-38 9 -66 9q-80 0 -80 -109v-104h120l-15 -74h-105v-405h-97zM452 596q-25 0 -43 17.5t-18 42.5t18 42.5t43 17.5q24 0 42 -17.5t18 -42.5t-17.5 -42.5t-42.5 -17.5zM403 0v479h97v-479h-97z" />
    <glyph glyph-name="fl" unicode="fl" horiz-adv-x="588" 
d="M502 160q0 -40 11.5 -60.5t39.5 -38.5l-52 -76q-97 44 -97 159v533q-43 15 -85 15q-58 0 -84 -35.5t-26 -93.5v-84h120l-15 -74h-105v-405h-97v405h-99l15 74h83v84q0 98 51.5 153t149.5 55q47 0 107 -16l83 12v-607z" />
    <glyph glyph-name="f_f_i" unicode="ffi" horiz-adv-x="892" 
d="M439 583q0 89 41 138.5t121 49.5q50 0 90 -10l-8 -78q-38 9 -66 9q-80 0 -80 -109v-104h120l-15 -74h-105v-405h-97v405h-231v-405h-97v405h-99l15 74h83v104q0 89 43 138.5t128 49.5q51 0 91 -10l-9 -78q-40 9 -71 9q-84 0 -84 -109v-104h230v104zM780 596
q-25 0 -43 17.5t-18 42.5t18 42.5t43 17.5t43 -17.5t18 -42.5t-17.5 -42.5t-43.5 -17.5zM732 0v479h97v-479h-97z" />
    <glyph glyph-name="f_f_l" unicode="ffl" horiz-adv-x="901" 
d="M814 160q0 -40 11.5 -60.5t40.5 -38.5l-53 -76q-97 45 -97 159v533q-41 15 -85 15q-57 0 -83 -35.5t-26 -93.5v-84h120l-16 -74h-104v-405h-97v405h-216v-405h-97v405h-99l15 74h83v104q0 89 43 138.5t128 49.5q51 0 91 -10l-9 -78q-40 9 -71 9q-84 0 -84 -109v-104h215
v84q0 98 51.5 153t149.5 55q47 0 107 -16l82 12v-607z" />
    <glyph glyph-name=".notdef" horiz-adv-x="512" 
d="M0 0v718h512v-718h-512zM50 50h412v617h-412v-617zM225 234l-2 17q0 56 13 81q15 28 46 59q31 29 40.5 46t9.5 37q0 36 -22.5 60.5t-53.5 24.5q-71 0 -82 -95l-50 8q7 69 43 103t92 34q54 0 89 -36t35 -95q0 -34 -13 -60t-50 -60q-37 -33 -43 -52q-6 -20 -6 -72h-46z
M222 117v67h56v-67h-56z" />
    <glyph glyph-name=".null" horiz-adv-x="0" 
 />
    <glyph glyph-name="nonmarkingreturn" horiz-adv-x="333" 
 />
    <glyph glyph-name="CR" unicode="&#xd;" horiz-adv-x="250" 
 />
    <glyph glyph-name="space" unicode=" " horiz-adv-x="250" 
 />
    <glyph glyph-name="exclam" unicode="!" horiz-adv-x="323" 
d="M116 215l-7 493h104l-6 -493h-91zM161 -8q-26 0 -44.5 18.5t-18.5 44.5t18.5 44.5t44.5 18.5t45 -18.5t19 -44.5t-19 -44.5t-45 -18.5z" />
    <glyph glyph-name="quotedbl" unicode="&#x22;" horiz-adv-x="449" 
d="M100 458v250h80v-250h-80zM268 458v250h80v-250h-80z" />
    <glyph glyph-name="numbersign" unicode="#" horiz-adv-x="576" 
d="M106 0l29 217h-97v65h106l20 145h-98v65h107l29 216h70l-30 -216h121l30 216h69l-29 -216h95v-65h-104l-20 -145h96v-65h-105l-30 -217h-69l30 217h-122l-29 -217h-69zM214 282h121l19 145h-121z" />
    <glyph glyph-name="dollar" unicode="$" horiz-adv-x="604" 
d="M531 190q0 -88 -60.5 -140t-148.5 -62v-72h-54l1 71q-61 3 -118.5 22t-95.5 49l18 94q86 -73 196 -80l1 246q-49 17 -77.5 30.5t-61 37t-48 57.5t-15.5 79q0 86 58.5 136.5t144.5 60.5v71h51v-69q55 -1 108.5 -17.5t87.5 -39.5l-25 -85q-29 23 -77 41.5t-94 20.5v-244
l9 -3l59.5 -22.5t52.5 -26.5t47 -37t28.5 -49.5t12.5 -68.5zM169 531q0 -43 24.5 -67.5t76.5 -46.5l1 220q-44 -8 -73 -35t-29 -71zM322 75q47 9 77 36.5t30 72.5q0 44 -27 69t-80 46v-224z" />
    <glyph glyph-name="percent" unicode="%" horiz-adv-x="866" 
d="M247 -31l-57 29l429 740l58 -29zM215 367q-73 0 -124.5 51t-51.5 125q0 73 51.5 124t124.5 51t124 -51t51 -124q0 -74 -51 -125t-124 -51zM215 437q43 0 73.5 30.5t30.5 75.5q0 44 -30.5 75t-73.5 31q-44 0 -74.5 -31t-30.5 -75q0 -45 30.5 -75.5t74.5 -30.5zM654 -10
q-73 0 -124 51t-51 124t51 124.5t124 51.5t124.5 -51.5t51.5 -124.5t-51.5 -124t-124.5 -51zM654 59q43 0 74 30.5t31 75.5q0 44 -31 75t-74 31q-44 0 -74.5 -31t-30.5 -75q0 -45 30.5 -75.5t74.5 -30.5z" />
    <glyph glyph-name="ampersand" unicode="&#x26;" horiz-adv-x="741" 
d="M285 -15q-96 0 -162 54t-66 150q0 129 159 204q-82 87 -82 166t55.5 123t133.5 44q77 0 130.5 -43.5t53.5 -118.5q0 -63 -40.5 -106.5t-115.5 -82.5l146 -155l92 156h108l-138 -214l158 -162h-126l-90 95q-82 -110 -216 -110zM298 428q57 28 88.5 58.5t31.5 73.5
q0 41 -26.5 67t-67.5 26q-42 0 -70 -27t-28 -69q0 -60 72 -129zM290 63q93 0 152 93l-171 180q-116 -54 -116 -145q0 -57 40 -92.5t95 -35.5z" />
    <glyph glyph-name="quotesingle" unicode="'" horiz-adv-x="281" 
d="M100 458v250h80v-250h-80z" />
    <glyph glyph-name="parenleft" unicode="(" horiz-adv-x="320" 
d="M186 -161q-66 93 -103 210t-37 239t37 239t103 210l69 -35q-61 -84 -95 -194t-34 -220t34 -220t95 -194z" />
    <glyph glyph-name="parenright" unicode=")" horiz-adv-x="320" 
d="M133 -161l-69 35q61 84 95 194t34 220t-34 220t-95 194l69 35q67 -93 104 -210.5t37 -238.5t-37 -238.5t-104 -210.5z" />
    <glyph glyph-name="asterisk" unicode="*" horiz-adv-x="465" 
d="M322 337l-90 124l-89 -122l-55 40l90 120l-144 46l23 63l142 -47v147h68v-147l142 45l22 -63l-143 -44l90 -122z" />
    <glyph glyph-name="plus" unicode="+" horiz-adv-x="666" 
d="M295 46v219h-220v77h219v219h79v-219h218v-77h-217v-219h-79z" />
    <glyph glyph-name="comma" unicode="," horiz-adv-x="272" 
d="M201 61q0 -58 -33.5 -109t-89.5 -89l-33 27q64 52 80 119q-23 4 -38.5 21.5t-15.5 41.5q0 27 19 46t46 19q28 0 46.5 -21t18.5 -55z" />
    <glyph glyph-name="hyphen" unicode="-" horiz-adv-x="316" 
d="M46 217v78h223v-78h-223z" />
    <glyph glyph-name="period" unicode="." horiz-adv-x="272" 
d="M136 -8q-27 0 -46 19t-19 46q0 26 19 45.5t46 19.5t46 -19t19 -46q0 -28 -19 -46.5t-46 -18.5z" />
    <glyph glyph-name="slash" unicode="/" horiz-adv-x="391" 
d="M76 -33l-70 23l307 754l70 -24z" />
    <glyph glyph-name="zero" unicode="0" horiz-adv-x="604" 
d="M303 -16q-55 0 -99 21t-72 56t-46 83.5t-25.5 100.5t-7.5 110t7.5 109.5t25.5 100t46 83t72 55.5t99 21q68 0 118 -31t77.5 -85t40 -117t12.5 -136q0 -58 -7.5 -110t-25.5 -100.5t-46 -83.5t-71 -56t-98 -21zM303 70q45 0 76 28.5t45 76t19.5 90.5t5.5 90t-5.5 89.5
t-19.5 90t-45 76t-76 28.5q-37 0 -65 -20t-43 -49.5t-24.5 -70t-12.5 -74.5t-3 -70q0 -37 3 -70.5t12.5 -74.5t24.5 -70.5t43 -49.5t65 -20z" />
    <glyph glyph-name="one" unicode="1" horiz-adv-x="604" 
d="M286 0v595l-148 -122l-45 79l201 156h92v-708h-100z" />
    <glyph glyph-name="two" unicode="2" horiz-adv-x="604" 
d="M58 0v85l246 257q97 102 97 180q0 52 -34.5 84.5t-88.5 32.5q-46 0 -90 -24.5t-74 -62.5l-44 74q80 98 220 98q94 0 155 -53.5t61 -139.5q0 -68 -34.5 -124.5t-109.5 -129.5l-180 -190h362l-15 -87h-471z" />
    <glyph glyph-name="three" unicode="3" horiz-adv-x="604" 
d="M294 -16q-146 0 -237 80l22 94q39 -39 93.5 -64.5t110.5 -25.5q64 0 103.5 35.5t39.5 97.5q0 66 -51.5 98t-120.5 32h-26v76h28q62 0 106 31.5t44 91.5q0 52 -34 82t-85 30q-45 0 -90.5 -21.5t-78.5 -55.5l-43 73q86 86 219 86q87 0 149.5 -49t62.5 -133
q0 -63 -34.5 -107t-93.5 -61v-3q69 -13 109 -61.5t40 -112.5q0 -98 -65.5 -155.5t-167.5 -57.5z" />
    <glyph glyph-name="four" unicode="4" horiz-adv-x="604" 
d="M365 0v160h-331v88l301 460h124v-466h121l-15 -82h-106v-160h-94zM132 242h234v362h-3z" />
    <glyph glyph-name="five" unicode="5" horiz-adv-x="604" 
d="M284 -16q-141 0 -229 73l19 89q37 -34 91.5 -56t109.5 -22q63 0 109.5 41t46.5 111q0 72 -48.5 112t-123.5 40t-149 -33l15 369h373l-14 -86h-270l-9 -188q41 15 88 15q105 0 171.5 -61t66.5 -163q0 -113 -72.5 -177t-174.5 -64z" />
    <glyph glyph-name="six" unicode="6" horiz-adv-x="604" 
d="M312 -16q-113 0 -184.5 81.5t-71.5 228.5q0 196 82 309t235 113q77 0 131 -23l-22 -82q-48 22 -111 22q-90 0 -145.5 -70t-62.5 -196h3q26 35 69 55.5t94 20.5q92 0 155.5 -63t63.5 -161q0 -106 -65.5 -170.5t-170.5 -64.5zM307 67q64 0 102.5 42t38.5 108
q0 65 -39.5 107.5t-101.5 42.5q-65 0 -107.5 -41t-42.5 -98q0 -63 42 -112t108 -49z" />
    <glyph glyph-name="seven" unicode="7" horiz-adv-x="604" 
d="M125 0l292 622h-357l15 86h447v-84l-282 -624h-115z" />
    <glyph glyph-name="eight" unicode="8" horiz-adv-x="604" 
d="M302 -16q-101 0 -170 56t-69 154q0 64 37 113t99 67v2q-53 20 -83 62t-30 97q0 86 62.5 137.5t153.5 51.5t153.5 -51t62.5 -137q0 -54 -30.5 -97.5t-82.5 -61.5v-3q63 -19 99.5 -67.5t36.5 -112.5q0 -98 -68.5 -154t-170.5 -56zM302 412q51 0 85.5 34.5t34.5 83.5
q0 50 -34.5 83t-85.5 33t-85 -32.5t-34 -83.5q0 -49 33.5 -83.5t85.5 -34.5zM302 64q62 0 100.5 38t38.5 97q0 58 -39.5 96.5t-99.5 38.5t-100 -38.5t-40 -96.5q0 -59 39 -97t101 -38z" />
    <glyph glyph-name="nine" unicode="9" horiz-adv-x="604" 
d="M298 716q112 0 181 -85t69 -237q0 -201 -79 -305.5t-223 -104.5q-94 0 -150 29l16 81q62 -27 137 -27q81 0 134 68.5t59 200.5h-2q-24 -33 -71 -56t-101 -23q-91 0 -151.5 63t-60.5 161q0 106 68 170.5t174 64.5zM298 633q-62 0 -102.5 -42.5t-40.5 -107.5t39.5 -107.5
t101.5 -42.5q63 0 107.5 40.5t44.5 86.5q0 71 -42 122t-108 51z" />
    <glyph glyph-name="colon" unicode=":" horiz-adv-x="308" 
d="M154 357q-26 0 -45 18t-19 45q0 26 19 44.5t45 18.5t45 -18.5t19 -44.5t-19 -44.5t-45 -18.5zM154 -6q-26 0 -45 18t-19 45q0 26 19 45t45 19t45 -18.5t19 -44.5q0 -27 -19 -45.5t-45 -18.5z" />
    <glyph glyph-name="semicolon" unicode=";" horiz-adv-x="308" 
d="M154 357q-26 0 -44.5 18.5t-18.5 44.5t18.5 45t44.5 19t45 -18.5t19 -45.5q0 -26 -19 -44.5t-45 -18.5zM218 61q0 -115 -124 -198l-33 27q65 53 81 119q-24 4 -39.5 21.5t-15.5 41.5q0 27 19.5 46t46.5 19q28 0 46.5 -20.5t18.5 -55.5z" />
    <glyph glyph-name="less" unicode="&#x3c;" horiz-adv-x="666" 
d="M580 49l-494 221v65l494 222v-82l-379 -173l379 -171v-82z" />
    <glyph glyph-name="equal" unicode="=" horiz-adv-x="666" 
d="M81 353v76h504v-76h-504zM81 179v75h504v-75h-504z" />
    <glyph glyph-name="greater" unicode="&#x3e;" horiz-adv-x="666" 
d="M86 49v82l380 171l-380 173v82l494 -222v-65z" />
    <glyph glyph-name="question" unicode="?" horiz-adv-x="509" 
d="M197 211v29q0 46 17.5 83t61.5 81q33 33 46 47.5t25 38.5t12 51q0 45 -32.5 72t-83.5 27q-89 0 -161 -78l-46 73q86 90 217 90q88 0 147.5 -47t59.5 -132q0 -32 -6.5 -57t-23 -48t-29.5 -36.5t-40 -38.5q-44 -40 -57.5 -66t-13.5 -72v-17h-93zM246 -8q-26 0 -45 18.5
t-19 44.5t19 44.5t45 18.5t44.5 -18.5t18.5 -44.5t-18 -44.5t-45 -18.5z" />
    <glyph glyph-name="at" unicode="@" horiz-adv-x="800" 
d="M418 -19q-169 0 -275.5 105.5t-106.5 267.5q0 158 110.5 265.5t268.5 107.5q150 0 251.5 -86.5t101.5 -233.5q0 -109 -54 -178t-142 -69q-41 0 -65.5 20t-26.5 54h-3q-17 -30 -49.5 -52t-76.5 -22q-63 0 -98 43t-35 110q0 92 55.5 166t140.5 74q40 0 66 -19t33 -50h3
l12 51h69l-46 -191q-11 -46 -11 -75q0 -45 47 -45q52 0 83 50.5t31 129.5q0 120 -79.5 191t-206.5 71q-134 0 -220 -90.5t-86 -222.5q0 -137 88 -223.5t227 -86.5q151 0 255 106l42 -45q-117 -123 -303 -123zM368 224q57 0 90 59t33 116q0 39 -17.5 64.5t-55.5 25.5
q-54 0 -88.5 -56t-34.5 -121q0 -37 18 -62.5t55 -25.5z" />
    <glyph glyph-name="A" unicode="A" horiz-adv-x="702" 
d="M2 0l301 708h101l296 -708h-112l-92 227h-293l-91 -227h-110zM234 309h232l-114 291z" />
    <glyph glyph-name="B" unicode="B" horiz-adv-x="605" 
d="M88 0v708h201q44 0 82.5 -8.5t73.5 -27.5t55 -55t20 -85q0 -62 -35 -102t-92 -55v-2q65 -9 111.5 -54.5t46.5 -120.5q0 -102 -73 -150t-181 -48h-209zM187 406h91q62 0 102.5 28.5t40.5 84.5q0 107 -152 107h-82v-220zM187 83h96q73 0 120 29t47 93q0 63 -45 93.5
t-116 30.5h-102v-246z" />
    <glyph glyph-name="C" unicode="C" horiz-adv-x="710" 
d="M426 -19q-162 0 -267 105t-105 268q0 165 106 269t268 104q71 0 137 -22.5t107 -55.5l-27 -95q-39 35 -95.5 58t-118.5 23q-118 0 -193 -80.5t-75 -200.5q0 -121 74.5 -200.5t195.5 -79.5q130 0 224 87l18 -91q-39 -37 -106.5 -63t-142.5 -26z" />
    <glyph glyph-name="D" unicode="D" horiz-adv-x="770" 
d="M88 0v708h233q80 0 148.5 -20t125 -60.5t89 -110.5t32.5 -162q0 -89 -32.5 -158.5t-88 -111.5t-124.5 -63.5t-146 -21.5h-237zM188 88h124q133 0 215.5 67.5t82.5 199.5t-82 199t-214 67h-126v-533z" />
    <glyph glyph-name="E" unicode="E" horiz-adv-x="557" 
d="M88 0v708h408l-15 -87h-295v-215h284l-15 -83h-269v-236h325l-14 -87h-409z" />
    <glyph glyph-name="F" unicode="F" horiz-adv-x="522" 
d="M88 0v708h394l-10 -87h-283v-222h274l-15 -85h-259v-314h-101z" />
    <glyph glyph-name="G" unicode="G" horiz-adv-x="780" 
d="M434 -19q-168 0 -274 105t-106 269t106.5 268t269.5 104q73 0 142 -21.5t117 -54.5l-37 -85q-98 72 -219 72q-120 0 -196 -81.5t-76 -201.5q0 -123 75 -204t204 -81q93 0 165 35v198h-158l15 83h237v-342q-114 -63 -265 -63z" />
    <glyph glyph-name="H" unicode="H" horiz-adv-x="769" 
d="M88 0v708h102v-297h390v297h101v-708h-101v324h-390v-324h-102z" />
    <glyph glyph-name="I" unicode="I" horiz-adv-x="278" 
d="M88 0v708h102v-708h-102z" />
    <glyph glyph-name="J" unicode="J" horiz-adv-x="393" 
d="M24 82q27 -9 58 -9q64 0 95 40t31 107v488h101v-494q0 -103 -52.5 -167.5t-158.5 -64.5q-33 0 -57 4z" />
    <glyph glyph-name="K" unicode="K" horiz-adv-x="645" 
d="M88 0v708h100v-327l306 327h130l-330 -339l348 -369h-134l-320 348v-348h-100z" />
    <glyph glyph-name="L" unicode="L" horiz-adv-x="513" 
d="M88 0v708h102v-619h302l-15 -89h-389z" />
    <glyph glyph-name="M" unicode="M" horiz-adv-x="926" 
d="M88 0v708h148l228 -555l224 555h150v-708h-99l1 589l-245 -589h-70l-242 589l2 -589h-97z" />
    <glyph glyph-name="N" unicode="N" horiz-adv-x="781" 
d="M88 0v708h119l386 -563h3l-2 563h99v-708h-119l-386 565h-3l2 -565h-99z" />
    <glyph glyph-name="O" unicode="O" horiz-adv-x="858" 
d="M429 -19q-162 0 -268.5 105t-106.5 269q0 165 106 268.5t269 103.5t269 -103.5t106 -268.5q0 -164 -106.5 -269t-268.5 -105zM429 73q118 0 192.5 81t74.5 201t-74.5 200.5t-192.5 80.5t-192.5 -80.5t-74.5 -200.5t74.5 -201t192.5 -81z" />
    <glyph glyph-name="P" unicode="P" horiz-adv-x="596" 
d="M88 0v708h217q110 0 179.5 -50.5t69.5 -156.5q0 -104 -70.5 -162t-176.5 -58h-117v-281h-102zM190 363h111q64 0 108 35.5t44 101.5q0 65 -43.5 95t-109.5 30h-110v-262z" />
    <glyph glyph-name="Q" unicode="Q" horiz-adv-x="858" 
d="M421 0q-163 0 -266 99.5t-103 262.5q0 158 105.5 261.5t267.5 103.5q160 0 265.5 -102.5t105.5 -260.5q0 -93 -47.5 -171t-117.5 -109v-3l207 2l-15 -83h-402zM428 83q114 0 189.5 79.5t75.5 197.5t-75 197t-191 79q-115 0 -190 -79t-75 -197q0 -119 75 -198t191 -79z
" />
    <glyph glyph-name="R" unicode="R" horiz-adv-x="628" 
d="M88 0v708h216q50 0 92 -10t78.5 -31.5t57 -62t20.5 -96.5q0 -75 -45 -129t-110 -71l199 -308h-119l-179 293h-110v-293h-100zM188 370h105q69 0 114 35t45 101q0 63 -45.5 91t-114.5 28h-104v-255z" />
    <glyph glyph-name="S" unicode="S" horiz-adv-x="579" 
d="M286 -19q-63 0 -125 20t-104 52l19 93q43 -37 97.5 -58t106.5 -21q60 0 101 30t41 87q0 29 -11 50t-38.5 37.5t-48.5 25t-66 23.5q-43 15 -71.5 28t-59 36t-46 57.5t-15.5 80.5q0 67 36.5 115t90 69t115.5 21q56 0 111 -16.5t92 -41.5l-30 -85q-31 24 -78.5 41t-92.5 17
q-57 0 -100 -29t-43 -85q0 -23 8.5 -41t19 -29.5t33 -23.5t38 -18t46.5 -16l61 -21.5t55 -26t51 -37t31 -50t14 -69.5q0 -102 -70.5 -158.5t-167.5 -56.5z" />
    <glyph glyph-name="T" unicode="T" horiz-adv-x="543" 
d="M221 0v621h-220l15 87h527l-15 -87h-206v-621h-101z" />
    <glyph glyph-name="U" unicode="U" horiz-adv-x="731" 
d="M365 -19q-140 0 -212 80t-72 206v441h101v-432q0 -39 8.5 -72.5t28 -64.5t57 -49t90.5 -18q52 0 89.5 18t57 48.5t28.5 64.5t9 73v432h101v-441q0 -126 -73 -206t-213 -80z" />
    <glyph glyph-name="V" unicode="V" horiz-adv-x="645" 
d="M268 0l-268 708h113l208 -587h3l210 587h111l-271 -708h-106z" />
    <glyph glyph-name="W" unicode="W" horiz-adv-x="992" 
d="M219 0l-206 708h108l155 -572h3l161 572h111l164 -572h2l157 572h105l-207 -708h-106l-170 575h-2l-168 -575h-107z" />
    <glyph glyph-name="X" unicode="X" horiz-adv-x="653" 
d="M11 0l250 372l-228 336h122l171 -267l170 267h118l-226 -336l255 -372h-125l-194 299l-192 -299h-121z" />
    <glyph glyph-name="Y" unicode="Y" horiz-adv-x="611" 
d="M253 0v304l-257 404h123l189 -316l189 316h118l-260 -404v-304h-102z" />
    <glyph glyph-name="Z" unicode="Z" horiz-adv-x="610" 
d="M43 0v90l387 531h-367v87h490v-86l-390 -534h424l-15 -88h-529z" />
    <glyph glyph-name="bracketleft" unicode="[" horiz-adv-x="320" 
d="M63 -156v888h180v-64h-100v-760h100v-64h-180z" />
    <glyph glyph-name="backslash" unicode="\" horiz-adv-x="391" 
d="M316 -33l-307 753l71 24l306 -754z" />
    <glyph glyph-name="bracketright" unicode="]" horiz-adv-x="320" 
d="M77 -156v64h100v760h-100v64h180v-888h-180z" />
    <glyph glyph-name="asciicircum" unicode="^" horiz-adv-x="677" 
d="M83 295l219 413h73l219 -413h-88l-168 324l-167 -324h-88z" />
    <glyph glyph-name="underscore" unicode="_" horiz-adv-x="500" 
d="M0 -139v57h500v-57h-500z" />
    <glyph glyph-name="grave" unicode="`" horiz-adv-x="269" 
d="M118 568l-131 144h104l103 -144h-76z" />
    <glyph glyph-name="a" unicode="a" horiz-adv-x="532" 
d="M199 -13q-61 0 -105.5 36t-44.5 110q0 158 275 160h40v19q0 54 -31 81t-85 27q-37 0 -78.5 -16t-69.5 -39l-25 72q81 57 190 57q92 0 142 -49t50 -146v-200q0 -62 7 -99h-88q-8 42 -8 77h-3q-20 -43 -66.5 -66.5t-99.5 -23.5zM225 56q65 0 103.5 42.5t38.5 98.5v37h-40
q-187 0 -187 -99q0 -41 24.5 -60t60.5 -19z" />
    <glyph glyph-name="b" unicode="b" horiz-adv-x="643" 
d="M358 -13q-57 0 -106.5 27t-74.5 75h-3q-1 -39 -8 -89h-88q5 58 5 117v639l97 14v-374h3q26 44 72.5 70.5t103.5 26.5q104 0 169 -72.5t65 -179.5t-65 -180.5t-170 -73.5zM338 68q73 0 116.5 50.5t43.5 122.5q0 71 -43.5 121.5t-116.5 50.5q-70 0 -116 -51t-46 -122
t46 -121.5t116 -50.5z" />
    <glyph glyph-name="c" unicode="c" horiz-adv-x="494" 
d="M301 -14q-108 0 -179.5 70.5t-71.5 183.5q0 112 73 183t185 71q46 0 91 -15t72 -39l-36 -73q-53 46 -126 46q-71 0 -115.5 -50.5t-44.5 -122.5q0 -73 45.5 -122.5t121.5 -49.5q81 0 142 52l13 -77q-62 -57 -170 -57z" />
    <glyph glyph-name="d" unicode="d" horiz-adv-x="643" 
d="M285 -13q-105 0 -170 73.5t-65 180.5q0 106 65 179t169 73q57 0 103.5 -26t73.5 -71h2v360l97 15v-652q0 -39 4 -119h-91q-4 60 -4 89h-2q-26 -48 -75.5 -75t-106.5 -27zM305 68q70 0 115.5 50.5t45.5 121.5t-45.5 122t-115.5 51q-73 0 -116.5 -50.5t-43.5 -121.5
q0 -72 43.5 -122.5t116.5 -50.5z" />
    <glyph glyph-name="e" unicode="e" horiz-adv-x="578" 
d="M303 -14q-110 0 -181.5 70t-71.5 185q0 112 70.5 182.5t174.5 70.5q107 0 170 -68.5t63 -177.5q0 -20 -1 -30h-384q3 -66 51.5 -111t119.5 -45q93 0 170 54l14 -75q-81 -55 -195 -55zM144 282h293q-1 63 -39 102.5t-102 39.5q-66 0 -107.5 -45t-44.5 -97z" />
    <glyph glyph-name="f" unicode="f" horiz-adv-x="335" 
d="M112 0v405h-99l15 74h83v104q0 89 43 138.5t128 49.5q51 0 91 -10l-9 -78q-40 9 -71 9q-84 0 -84 -109v-104h125l-16 -74h-109v-405h-97z" />
    <glyph glyph-name="g" unicode="g" horiz-adv-x="642" 
d="M299 -244q-121 0 -218 59l16 85q91 -64 196 -64q87 0 129 48.5t42 130.5v74h-3q-25 -45 -72 -71t-103 -26q-106 0 -171 71.5t-65 177.5t65 179t170 73q56 0 104.5 -26.5t75.5 -75.5h2q0 30 6 88h90q-3 -48 -3 -105v-352q0 -124 -66.5 -195t-194.5 -71zM305 71
q71 0 116.5 49.5t45.5 121.5q0 71 -45.5 121t-116.5 50q-73 0 -116 -49.5t-43 -121.5q0 -71 43.5 -121t115.5 -50z" />
    <glyph glyph-name="h" unicode="h" horiz-adv-x="594" 
d="M83 0v754l97 14v-375h2q19 45 62.5 72.5t97.5 27.5q90 0 132.5 -57t42.5 -142v-294h-98v271q0 141 -107 141q-58 0 -95 -45.5t-37 -123.5v-243h-97z" />
    <glyph glyph-name="i" unicode="i" horiz-adv-x="263" 
d="M132 596q-25 0 -43 17.5t-18 42.5t18 42.5t43 17.5q24 0 42 -17.5t18 -42.5t-18 -42.5t-42 -17.5zM83 0v479h97v-479h-97z" />
    <glyph glyph-name="j" unicode="j" horiz-adv-x="265" 
d="M133 596q-25 0 -43 17.5t-18 42.5t18 42.5t43 17.5t43 -17.5t18 -42.5t-18 -42.5t-43 -17.5zM-6 -158q48 0 69.5 27t21.5 85v525h97v-526q0 -90 -36 -140.5t-128 -53.5z" />
    <glyph glyph-name="k" unicode="k" horiz-adv-x="527" 
d="M83 0v754l97 14v-502h3l196 213h119l-212 -219l229 -260h-117l-215 244h-3v-244h-97z" />
    <glyph glyph-name="l" unicode="l" horiz-adv-x="267" 
d="M180 -14q-97 43 -97 159v608l98 14v-607q0 -39 11.5 -60t40.5 -38z" />
    <glyph glyph-name="m" unicode="m" horiz-adv-x="905" 
d="M83 0v375q0 56 -5 104h94q5 -40 5 -89h2q19 46 61 74.5t96 28.5q111 0 152 -107q23 51 66 79t100 28q89 0 131 -58.5t42 -143.5v-291h-97v269q0 144 -104 144q-56 0 -89.5 -45.5t-33.5 -115.5v-252h-98v279q0 134 -101 134q-54 0 -88.5 -45.5t-34.5 -121.5v-246h-98z" />
    <glyph glyph-name="n" unicode="n" horiz-adv-x="595" 
d="M83 0v376q0 55 -5 103h94q5 -60 5 -89h2q19 46 63.5 74.5t98.5 28.5q90 0 133 -57t43 -142v-294h-97v271q0 61 -25 101.5t-83 40.5t-94.5 -44.5t-36.5 -117.5v-251h-98z" />
    <glyph glyph-name="o" unicode="o" horiz-adv-x="619" 
d="M309 -14q-111 0 -185 71t-74 184q0 112 74 182.5t185 70.5q112 0 185.5 -70t73.5 -183t-73.5 -184t-185.5 -71zM309 68q75 0 119.5 50.5t44.5 122.5t-44.5 122t-119.5 50t-119 -50t-44 -122t44.5 -122.5t118.5 -50.5z" />
    <glyph glyph-name="p" unicode="p" horiz-adv-x="642" 
d="M82 -240v628q0 44 -3 91h94q3 -75 3 -87h3q26 47 73.5 74t104.5 27q105 0 170 -72.5t65 -179.5t-65 -180.5t-170 -73.5q-55 0 -102.5 25.5t-72.5 71.5h-3v-324h-97zM337 68q73 0 116.5 50.5t43.5 122.5q0 71 -43.5 121.5t-116.5 50.5q-70 0 -116 -51t-46 -122t46 -121.5
t116 -50.5z" />
    <glyph glyph-name="q" unicode="q" horiz-adv-x="642" 
d="M574 -242q-111 42 -111 173v153h-3q-25 -46 -72.5 -71.5t-102.5 -25.5q-105 0 -170 73.5t-65 180.5t65 179.5t169 72.5q58 0 106 -27t74 -74h3q0 44 3 87h92q-2 -54 -2 -84v-453q0 -44 15 -67t52 -41zM305 68q70 0 115.5 50.5t45.5 121.5t-45.5 122t-115.5 51
q-73 0 -116.5 -50.5t-43.5 -121.5q0 -72 43.5 -122.5t116.5 -50.5z" />
    <glyph glyph-name="r" unicode="r" horiz-adv-x="362" 
d="M83 0v361q0 78 -5 118h93q6 -36 6 -91h2q17 49 52.5 77t75.5 28q31 0 52 -7l-15 -85q-19 7 -42 7q-58 0 -90 -50t-32 -117v-241h-97z" />
    <glyph glyph-name="s" unicode="s" horiz-adv-x="447" 
d="M225 -14q-110 0 -179 50l14 78q72 -55 156 -55q40 0 67.5 18t27.5 53q0 30 -27 48t-91 37q-66 19 -102 49.5t-36 87.5q0 68 52.5 105t119.5 37q98 0 163 -51l-37 -66q-59 45 -120 45q-37 0 -62 -16.5t-25 -48.5q0 -30 23.5 -45.5t84.5 -33.5q73 -22 111.5 -54.5
t38.5 -89.5q0 -72 -53.5 -110t-125.5 -38z" />
    <glyph glyph-name="t" unicode="t" horiz-adv-x="347" 
d="M221 -11q-62 0 -94.5 37.5t-32.5 105.5v273h-86l15 74h70v108l96 25v-133h133l-15 -74h-118v-260q0 -79 64 -79q33 0 71 19l12 -70q-54 -26 -115 -26z" />
    <glyph glyph-name="u" unicode="u" horiz-adv-x="594" 
d="M251 -13q-90 0 -132.5 57t-42.5 142v293h98v-270q0 -142 107 -142q58 0 95 45.5t37 120.5v246h97v-377q0 -51 7 -102l-94 -1q-6 32 -8 90q-20 -46 -65.5 -74t-98.5 -28z" />
    <glyph glyph-name="v" unicode="v" horiz-adv-x="487" 
d="M191 0l-186 479h106l134 -378l133 378h102l-182 -479h-107z" />
    <glyph glyph-name="w" unicode="w" horiz-adv-x="788" 
d="M171 0l-154 479h104l105 -370h2l117 370h100l118 -370h2l106 370h101l-156 -479h-101l-121 366h-2l-120 -366h-101z" />
    <glyph glyph-name="x" unicode="x" horiz-adv-x="525" 
d="M11 0l191 252l-171 227h115l117 -165l118 165h112l-170 -227l191 -252h-117l-136 187l-136 -187h-114z" />
    <glyph glyph-name="y" unicode="y" horiz-adv-x="504" 
d="M55 -158q53 7 84.5 27.5t49.5 62.5l26 69l-204 478h108l146 -375l125 375h103l-210 -563q-28 -77 -75 -112.5t-123 -43.5z" />
    <glyph glyph-name="z" unicode="z" horiz-adv-x="474" 
d="M39 0v76l268 327h-266l15 76h368v-74l-270 -328h289l-14 -77h-390z" />
    <glyph glyph-name="braceleft" unicode="{" horiz-adv-x="320" 
d="M196 -156q-55 0 -87.5 34.5t-32.5 101.5v179q0 95 -73 95v68q73 0 73 93v181q0 67 32.5 101.5t87.5 34.5h67v-66h-47q-62 0 -62 -80v-179q0 -56 -26 -84.5t-57 -33.5v-2q32 -5 57.5 -33t25.5 -87v-177q0 -80 62 -80h47v-66h-67z" />
    <glyph glyph-name="bar" unicode="|" horiz-adv-x="231" 
d="M75 -250v1000h81v-1000h-81z" />
    <glyph glyph-name="braceright" unicode="}" horiz-adv-x="320" 
d="M57 -156v66h47q62 0 62 80v177q0 59 25.5 87t57.5 33v2q-31 5 -57 33.5t-26 84.5v179q0 80 -62 80h-47v66h67q55 0 87.5 -34.5t32.5 -101.5v-181q0 -93 73 -93v-68q-73 0 -73 -95v-179q0 -67 -32.5 -101.5t-87.5 -34.5h-67z" />
    <glyph glyph-name="asciitilde" unicode="~" horiz-adv-x="666" 
d="M133 220l-44 61q54 96 135 96q55 0 111 -36q68 -44 107 -44q49 0 99 76l43 -61q-59 -95 -136 -95q-52 0 -108 36q-64 43 -109 43q-58 0 -98 -76z" />
    <glyph glyph-name="uni00A0" unicode="&#xa0;" horiz-adv-x="250" 
 />
    <glyph glyph-name="exclamdown" unicode="&#xa1;" horiz-adv-x="323" 
d="M162 377q-26 0 -45 18.5t-19 44.5t19 44.5t45 18.5t44.5 -18.5t18.5 -43.5q0 -27 -18.5 -45.5t-44.5 -18.5zM110 -213l7 494h90l7 -494h-104z" />
    <glyph glyph-name="cent" unicode="&#xa2;" horiz-adv-x="604" 
d="M507 120l13 -77q-56 -50 -152 -57v-61h-52v62q-99 10 -163 79t-64 174q0 103 63.5 172t163.5 80v65h52v-63q96 -7 152 -54l-36 -73q-50 40 -116 45v-344q78 1 139 52zM188 240q0 -62 33.5 -107.5t94.5 -59.5v336q-59 -12 -93.5 -59t-34.5 -110z" />
    <glyph glyph-name="sterling" unicode="&#xa3;" horiz-adv-x="604" 
d="M74 0v84h12q43 0 66 31.5t23 75.5v137h-111l15 71h96v94q0 97 56.5 165t167.5 68q91 0 157 -48l-37 -76q-53 40 -116 40q-69 0 -99.5 -45t-30.5 -111v-87h178l-15 -71h-163v-129q0 -87 -63 -115h327l-15 -84h-448z" />
    <glyph glyph-name="currency" unicode="&#xa4;" horiz-adv-x="882" 
d="M654 466q49 -65 49 -156q0 -96 -52 -162l93 -94l-52 -53l-96 96q-66 -49 -154 -49q-86 0 -155 51l-98 -98l-53 53l96 96q-50 64 -50 160q0 88 47 154l-93 92l54 52l93 -92q69 51 159 51q91 0 158 -50l91 91l53 -52zM442 483q-75 0 -122 -50t-47 -123q0 -75 47 -126
t122 -51t122 51t47 126q0 73 -47 123t-122 50z" />
    <glyph glyph-name="yen" unicode="&#xa5;" horiz-adv-x="604" 
d="M255 0v170h-187l15 65h172v95h-187l15 65h142l-208 313h112l176 -292l175 292h109l-206 -313h155l-15 -65h-173v-95h188l-15 -65h-173v-170h-95z" />
    <glyph glyph-name="brokenbar" unicode="&#xa6;" horiz-adv-x="231" 
d="M76 326v349h79v-349h-79zM76 -173v349h79v-349h-79z" />
    <glyph glyph-name="section" unicode="&#xa7;" horiz-adv-x="586" 
d="M276 -141q-64 0 -121.5 26.5t-90.5 74.5l74 53q23 -35 61 -53.5t79 -18.5q44 0 76 22.5t32 63.5q0 39 -30 60.5t-127 60.5q-77 31 -112.5 63t-35.5 94q0 51 30 86t75 51q-75 43 -75 122q0 77 60 120t141 43q133 0 189 -87l-71 -53q-17 28 -48 44.5t-68 16.5
q-42 0 -73.5 -22.5t-31.5 -62.5q0 -38 28 -59t116 -56q78 -31 118 -67.5t40 -97.5q0 -48 -28 -82.5t-72 -49.5q75 -40 75 -120q0 -83 -62.5 -127.5t-147.5 -44.5zM344 189q32 6 54.5 28t22.5 56q0 38 -26 60t-76 42l-66 27q-34 -7 -58.5 -28.5t-24.5 -58.5q0 -20 7.5 -35.5
t24.5 -27t30.5 -18t39.5 -16.5z" />
    <glyph glyph-name="dieresis" unicode="&#xa8;" horiz-adv-x="269" 
d="M39 600q-23 0 -39.5 16.5t-16.5 39.5t16.5 39.5t39.5 16.5t40 -16.5t17 -39.5t-17 -39.5t-40 -16.5zM230 600q-24 0 -40.5 16.5t-16.5 39.5t17 39.5t40 16.5t39.5 -16.5t16.5 -39.5t-16.5 -39.5t-39.5 -16.5z" />
    <glyph glyph-name="copyright" unicode="&#xa9;" horiz-adv-x="800" 
d="M401 -22q-158 0 -269.5 109.5t-111.5 265.5q0 157 111.5 267t269.5 110q157 0 268 -110t111 -267q0 -156 -111 -265.5t-268 -109.5zM400 22q138 0 236 97t98 234q0 138 -98 235.5t-235 97.5q-138 0 -236.5 -97.5t-98.5 -235.5q0 -137 98 -234t236 -97zM417 125
q-99 0 -163.5 62.5t-64.5 165.5q0 101 65 164t163 63q41 0 83 -14.5t67 -35.5l-21 -65q-54 50 -130 50q-67 0 -108.5 -46t-41.5 -116q0 -69 41.5 -115t111.5 -46q80 0 129 44l10 -65q-53 -46 -141 -46z" />
    <glyph glyph-name="ordfeminine" unicode="&#xaa;" horiz-adv-x="368" 
d="M146 424q-39 0 -69.5 22t-30.5 65q0 31 17 51t48.5 29.5t62 12.5t72.5 3v8q0 28 -18.5 43t-49.5 15q-54 0 -97 -33l-17 46q49 35 119 35q65 0 95.5 -31t30.5 -84v-118q0 -25 4 -57h-60q-4 26 -4 46h-1q-31 -53 -102 -53zM165 470q37 0 59.5 22.5t22.5 56.5v18h-13
q-125 0 -125 -53q0 -23 16.5 -33.5t39.5 -10.5z" />
    <glyph glyph-name="guillemotleft" unicode="&#xab;" horiz-adv-x="511" 
d="M194 30l-144 216l143 215l60 -40l-114 -175l115 -176zM391 30l-144 216l144 215l59 -40l-114 -175l115 -176z" />
    <glyph glyph-name="logicalnot" unicode="&#xac;" horiz-adv-x="666" 
d="M512 139v211h-441v75h520v-286h-79z" />
    <glyph glyph-name="uni00AD" unicode="&#xad;" horiz-adv-x="316" 
d="M46 217v78h223v-78h-223z" />
    <glyph glyph-name="registered" unicode="&#xae;" horiz-adv-x="600" 
d="M301 268q-95 0 -162 65.5t-67 159.5t67 160.5t162 66.5q94 0 160.5 -66.5t66.5 -160.5t-66.5 -159.5t-160.5 -65.5zM301 296q81 0 138.5 58t57.5 139q0 82 -57 139.5t-139 57.5t-140 -57.5t-58 -139.5q0 -81 58 -139t140 -58zM206 367v259h100q44 0 73 -19t29 -59
q0 -57 -57 -71l69 -110h-66l-58 102h-33v-102h-57zM263 511h36q50 0 50 37q0 32 -44 32h-42v-69z" />
    <glyph glyph-name="overscore" unicode="&#xaf;" horiz-adv-x="269" 
d="M-10 608v57h288v-57h-288z" />
    <glyph glyph-name="degree" unicode="&#xb0;" horiz-adv-x="408" 
d="M204 408q-66 0 -111.5 45.5t-45.5 111.5t45.5 111t111.5 45t111 -45t45 -111t-45 -111.5t-111 -45.5zM204 461q43 0 73.5 30.5t30.5 73.5t-30.5 73t-73.5 30t-73.5 -30t-30.5 -73t30 -73.5t74 -30.5z" />
    <glyph glyph-name="plusminus" unicode="&#xb1;" horiz-adv-x="666" 
d="M295 181v157h-219v77h219v159h80v-159h221v-77h-221v-157h-80zM77 40v77h518v-77h-518z" />
    <glyph glyph-name="uni00B2" unicode="&#xb2;" horiz-adv-x="369" 
d="M35 449v56l162 166q47 50 47 90q0 29 -19.5 45.5t-51.5 16.5q-53 0 -103 -54l-30 56q57 61 144 61q59 0 97 -31.5t38 -85.5q0 -40 -19 -72t-59 -72l-113 -113h207l-15 -63h-285z" />
    <glyph glyph-name="uni00B3" unicode="&#xb3;" horiz-adv-x="376" 
d="M178 440q-87 0 -139 43l20 61q17 -17 50 -30t64 -13q37 0 58.5 18.5t21.5 52.5q0 36 -28 53.5t-68 17.5h-27v55h28q38 0 60.5 18.5t22.5 50.5q0 28 -19 43.5t-49 15.5q-55 0 -97 -40l-26 53q52 47 129 47q59 0 96.5 -30t37.5 -84q0 -34 -19 -60t-51 -38q38 -9 60 -37
t22 -68q0 -62 -43.5 -95.5t-103.5 -33.5z" />
    <glyph glyph-name="acute" unicode="&#xb4;" horiz-adv-x="269" 
d="M75 568l103 144h104l-131 -144h-76z" />
    <glyph glyph-name="uni00B5" unicode="&#xb5;" horiz-adv-x="624" 
d="M545 479v-479h-79l-14 84h-5q-40 -94 -144 -94q-90 0 -123 62h-2q3 -40 3 -102v-190h-102v719h102v-266q0 -137 123 -137q74 0 106 47.5t32 138.5v217h103z" />
    <glyph glyph-name="paragraph" unicode="&#xb6;" horiz-adv-x="609" 
d="M260 -127v461q-96 1 -155 52.5t-59 129.5q0 98 62.5 145t171.5 47h244v-835h-73v773h-117v-773h-74z" />
    <glyph glyph-name="middot" unicode="&#xb7;" horiz-adv-x="272" 
d="M136 217q-27 0 -46 18.5t-19 45.5t19 46t46 19t46 -18.5t19 -45.5q0 -28 -19 -46.5t-46 -18.5z" />
    <glyph glyph-name="cedilla" unicode="&#xb8;" horiz-adv-x="269" 
d="M121 -233q-58 0 -105 22l18 41q38 -18 83 -18q66 0 66 45q0 38 -57 38q-30 0 -51 -9l-21 19l67 95h54l-52 -72q16 4 34 4q39 0 66.5 -17.5t27.5 -58.5q0 -47 -40 -68t-90 -21z" />
    <glyph glyph-name="uni00B9" unicode="&#xb9;" 
d="M175 449v346l-90 -68l-26 61l123 89h67v-428h-74z" />
    <glyph glyph-name="ordmasculine" unicode="&#xba;" horiz-adv-x="368" 
d="M184 424q-65 0 -107.5 42t-42.5 108q0 65 42.5 106.5t107.5 41.5t107.5 -41.5t42.5 -106.5q0 -66 -42.5 -108t-107.5 -42zM184 479q41 0 64.5 27.5t23.5 67.5q0 39 -23.5 66t-64.5 27t-64.5 -27t-23.5 -66q0 -40 23.5 -67.5t64.5 -27.5z" />
    <glyph glyph-name="guillemotright" unicode="&#xbb;" horiz-adv-x="511" 
d="M121 30l-60 40l114 175l-115 176l60 40l144 -216zM317 30l-60 40l115 175l-115 176l60 40l145 -216z" />
    <glyph glyph-name="onequarter" unicode="&#xbc;" horiz-adv-x="873" 
d="M247 -29l-55 27l416 740l56 -27zM177 280v346l-90 -68l-26 61l123 89h66v-428h-73zM685 0v94h-196v61l178 273h85v-274h62v-60h-62v-94h-67zM685 347h-2l-124 -193h126v193z" />
    <glyph glyph-name="onehalf" unicode="&#xbd;" horiz-adv-x="873" 
d="M247 -29l-56 27l417 740l55 -27zM175 280v346l-91 -68l-26 61l124 89h66v-428h-73zM514 0v55l162 167q47 50 47 89q0 29 -19.5 46t-51.5 17q-55 0 -103 -54l-30 55q57 62 144 62q59 0 97 -31.5t38 -85.5q0 -41 -19 -72.5t-59 -71.5l-113 -113h206l-15 -63h-284z" />
    <glyph glyph-name="threequarters" unicode="&#xbe;" horiz-adv-x="873" 
d="M246 -29l-56 27l417 740l55 -27zM178 273q-87 0 -139 43l20 61q17 -17 50 -30t64 -13q37 0 58.5 18.5t21.5 52.5q0 36 -28 53.5t-68 17.5h-27v55h28q38 0 60.5 18.5t22.5 50.5q0 28 -19 43.5t-49 15.5q-55 0 -97 -40l-26 53q52 47 129 47q59 0 96.5 -30t37.5 -84
q0 -34 -19 -60t-51 -38q38 -9 60 -37t22 -68q0 -62 -43.5 -95.5t-103.5 -33.5zM686 0v94h-196v61l178 273h84v-274h62v-60h-62v-94h-66zM560 154h126v193h-2z" />
    <glyph glyph-name="questiondown" unicode="&#xbf;" horiz-adv-x="509" 
d="M265 503q26 0 45 -18.5t19 -43.5q0 -27 -18.5 -45.5t-45.5 -18.5q-26 0 -44.5 18.5t-18.5 44.5t18.5 44.5t44.5 18.5zM314 284v-28q0 -47 -17 -84t-62 -81q-32 -31 -45.5 -46.5t-25 -39t-11.5 -50.5q0 -45 32 -72.5t83 -27.5q89 0 161 78l47 -73q-86 -90 -217 -90
q-88 0 -147.5 47.5t-59.5 132.5q0 41 15 75.5t32 53t52 50.5q44 41 57 67t13 71v17h93z" />
    <glyph glyph-name="Agrave" unicode="&#xc0;" horiz-adv-x="702" 
d="M2 0l301 708h101l296 -708h-112l-92 227h-293l-91 -227h-110zM234 309h232l-114 291zM322 764l-131 144h104l103 -144h-76z" />
    <glyph glyph-name="Aacute" unicode="&#xc1;" horiz-adv-x="702" 
d="M2 0l301 708h101l296 -708h-112l-92 227h-293l-91 -227h-110zM234 309h232l-114 291zM309 764l103 144h104l-131 -144h-76z" />
    <glyph glyph-name="Acircumflex" unicode="&#xc2;" horiz-adv-x="702" 
d="M2 0l301 708h101l296 -708h-112l-92 227h-293l-91 -227h-110zM234 309h232l-114 291zM194 764l114 144h94l113 -144h-81l-80 104l-80 -104h-80z" />
    <glyph glyph-name="Atilde" unicode="&#xc3;" horiz-adv-x="702" 
d="M2 0l301 708h101l296 -708h-112l-92 227h-293l-91 -227h-110zM234 309h232l-114 291zM421 780q-33 0 -73 22q-38 22 -62 22q-33 0 -43 -46h-47q6 47 28 76t61 29q32 0 73 -22t63 -22q33 0 43 45h47q-14 -104 -90 -104z" />
    <glyph glyph-name="Adieresis" unicode="&#xc4;" horiz-adv-x="702" 
d="M2 0l301 708h101l296 -708h-112l-92 227h-293l-91 -227h-110zM234 309h232l-114 291zM258 796q-23 0 -39.5 16.5t-16.5 40.5q0 23 16.5 39.5t39.5 16.5t40 -16.5t17 -39.5q0 -24 -17 -40.5t-40 -16.5zM449 796q-24 0 -40.5 16.5t-16.5 40.5q0 23 16.5 39.5t40.5 16.5
q23 0 39.5 -16.5t16.5 -39.5q0 -24 -16.5 -40.5t-39.5 -16.5z" />
    <glyph glyph-name="Aring" unicode="&#xc5;" horiz-adv-x="702" 
d="M2 0l301 708h101l296 -708h-112l-92 227h-293l-91 -227h-110zM234 309h232l-114 291zM354 752q-42 0 -72 29t-30 71q0 43 30 72.5t72 29.5t72.5 -29.5t30.5 -71.5q0 -43 -30 -72t-73 -29zM354 788q28 0 47 18.5t19 46.5t-19 46.5t-47 18.5t-46.5 -19t-18.5 -47
q0 -27 19 -45.5t46 -18.5z" />
    <glyph glyph-name="AE" unicode="&#xc6;" horiz-adv-x="983" 
d="M7 0l438 708h477l-15 -87h-303v-215h287l-15 -83h-272v-236h334l-15 -87h-416v220h-245l-138 -220h-117zM305 303h202v318h-8z" />
    <glyph glyph-name="Ccedilla" unicode="&#xc7;" horiz-adv-x="710" 
d="M426 -68q39 0 66 -17.5t27 -58.5q0 -47 -39.5 -68t-89.5 -21q-58 0 -105 22l17 41q38 -18 83 -18q67 0 67 45q0 38 -57 38q-30 0 -51 -9l-21 19l55 79q-144 16 -234 118t-90 252q0 165 106 269t268 104q71 0 137 -22.5t107 -55.5l-27 -95q-39 35 -95.5 58t-118.5 23
q-118 0 -193 -80.5t-75 -200.5q0 -121 74.5 -200.5t195.5 -79.5q130 0 224 87l18 -91q-39 -37 -105 -62.5t-140 -26.5l-38 -53q16 4 34 4z" />
    <glyph glyph-name="Egrave" unicode="&#xc8;" horiz-adv-x="557" 
d="M88 0v708h408l-15 -87h-295v-215h284l-15 -83h-269v-236h325l-14 -87h-409zM282 765l-131 144h104l103 -144h-76z" />
    <glyph glyph-name="Eacute" unicode="&#xc9;" horiz-adv-x="557" 
d="M88 0v708h408l-15 -87h-295v-215h284l-15 -83h-269v-236h325l-14 -87h-409zM237 763l103 144h104l-131 -144h-76z" />
    <glyph glyph-name="Ecircumflex" unicode="&#xca;" horiz-adv-x="557" 
d="M88 0v708h408l-15 -87h-295v-215h284l-15 -83h-269v-236h325l-14 -87h-409zM140 763l114 144h94l113 -144h-81l-80 104l-80 -104h-80z" />
    <glyph glyph-name="Edieresis" unicode="&#xcb;" horiz-adv-x="557" 
d="M88 0v708h408l-15 -87h-295v-215h284l-15 -83h-269v-236h325l-14 -87h-409zM198 796q-23 0 -39.5 16.5t-16.5 40.5q0 23 16.5 39.5t39.5 16.5t40 -16.5t17 -39.5q0 -24 -17 -40.5t-40 -16.5zM389 796q-24 0 -40.5 16.5t-16.5 40.5q0 23 16.5 39.5t40.5 16.5
q23 0 39.5 -16.5t16.5 -39.5q0 -24 -16.5 -40.5t-39.5 -16.5z" />
    <glyph glyph-name="Igrave" unicode="&#xcc;" horiz-adv-x="278" 
d="M88 0v708h102v-708h-102zM114 764l-131 144h104l103 -144h-76z" />
    <glyph glyph-name="Iacute" unicode="&#xcd;" horiz-adv-x="278" 
d="M88 0v708h102v-708h-102zM88 764l103 144h104l-131 -144h-76z" />
    <glyph glyph-name="Icircumflex" unicode="&#xce;" horiz-adv-x="278" 
d="M88 0v708h102v-708h-102zM-22 764l114 144h94l113 -144h-81l-80 104l-80 -104h-80z" />
    <glyph glyph-name="Idieresis" unicode="&#xcf;" horiz-adv-x="278" 
d="M88 0v708h102v-708h-102zM44 796q-23 0 -39.5 16.5t-16.5 40.5q0 23 16.5 39.5t39.5 16.5t40 -16.5t17 -39.5q0 -24 -17 -40.5t-40 -16.5zM235 796q-24 0 -40.5 16.5t-16.5 40.5q0 23 16.5 39.5t40.5 16.5q23 0 39.5 -16.5t16.5 -39.5q0 -24 -16.5 -40.5t-39.5 -16.5z
" />
    <glyph glyph-name="Eth" unicode="&#xd0;" horiz-adv-x="770" 
d="M88 0v333h-70v67h70v308h240q79 0 147 -21t122 -62.5t85 -110.5t31 -159q0 -88 -32 -157.5t-87 -111.5t-122.5 -64t-143.5 -22h-240zM187 89h121q137 0 219 68t82 198q0 128 -80 196t-214 68h-128v-219h225v-67h-225v-244z" />
    <glyph glyph-name="Ntilde" unicode="&#xd1;" horiz-adv-x="781" 
d="M88 0v708h119l386 -563h3l-2 563h99v-708h-119l-386 565h-3l2 -565h-99zM462 780q-33 0 -73 22q-38 22 -62 22q-33 0 -43 -46h-47q6 47 28 76t61 29q32 0 73 -22t63 -22q33 0 43 45h47q-14 -104 -90 -104z" />
    <glyph glyph-name="Ograve" unicode="&#xd2;" horiz-adv-x="858" 
d="M429 -19q-162 0 -268.5 105t-106.5 269q0 165 106 268.5t269 103.5t269 -103.5t106 -268.5q0 -164 -106.5 -269t-268.5 -105zM429 73q118 0 192.5 81t74.5 201t-74.5 200.5t-192.5 80.5t-192.5 -80.5t-74.5 -200.5t74.5 -201t192.5 -81zM427 764l-131 144h104l103 -144
h-76z" />
    <glyph glyph-name="Oacute" unicode="&#xd3;" horiz-adv-x="858" 
d="M429 -19q-162 0 -268.5 105t-106.5 269q0 165 106 268.5t269 103.5t269 -103.5t106 -268.5q0 -164 -106.5 -269t-268.5 -105zM429 73q118 0 192.5 81t74.5 201t-74.5 200.5t-192.5 80.5t-192.5 -80.5t-74.5 -200.5t74.5 -201t192.5 -81zM368 764l103 144h104l-131 -144
h-76z" />
    <glyph glyph-name="Ocircumflex" unicode="&#xd4;" horiz-adv-x="858" 
d="M429 -19q-162 0 -268.5 105t-106.5 269q0 165 106 268.5t269 103.5t269 -103.5t106 -268.5q0 -164 -106.5 -269t-268.5 -105zM429 73q118 0 192.5 81t74.5 201t-74.5 200.5t-192.5 80.5t-192.5 -80.5t-74.5 -200.5t74.5 -201t192.5 -81zM270 764l114 144h94l113 -144h-81
l-80 104l-80 -104h-80z" />
    <glyph glyph-name="Otilde" unicode="&#xd5;" horiz-adv-x="858" 
d="M429 -19q-162 0 -268.5 105t-106.5 269q0 165 106 268.5t269 103.5t269 -103.5t106 -268.5q0 -164 -106.5 -269t-268.5 -105zM429 73q118 0 192.5 81t74.5 201t-74.5 200.5t-192.5 80.5t-192.5 -80.5t-74.5 -200.5t74.5 -201t192.5 -81zM498 780q-33 0 -73 22
q-38 22 -62 22q-33 0 -43 -46h-47q6 47 28 76t61 29q32 0 73 -22t63 -22q33 0 43 45h47q-14 -104 -90 -104z" />
    <glyph glyph-name="Odieresis" unicode="&#xd6;" horiz-adv-x="858" 
d="M429 -19q-162 0 -268.5 105t-106.5 269q0 165 106 268.5t269 103.5t269 -103.5t106 -268.5q0 -164 -106.5 -269t-268.5 -105zM429 73q118 0 192.5 81t74.5 201t-74.5 200.5t-192.5 80.5t-192.5 -80.5t-74.5 -200.5t74.5 -201t192.5 -81zM335 796q-23 0 -39.5 16.5
t-16.5 40.5q0 23 16.5 39.5t39.5 16.5t40 -16.5t17 -39.5q0 -24 -17 -40.5t-40 -16.5zM526 796q-24 0 -40.5 16.5t-16.5 40.5q0 23 16.5 39.5t40.5 16.5q23 0 39.5 -16.5t16.5 -39.5q0 -24 -16.5 -40.5t-39.5 -16.5z" />
    <glyph glyph-name="multiply" unicode="&#xd7;" horiz-adv-x="666" 
d="M159 76l-56 54l175 174l-176 174l57 55l175 -173l173 172l55 -53l-173 -173l176 -174l-57 -56l-174 172z" />
    <glyph glyph-name="Oslash" unicode="&#xd8;" horiz-adv-x="858" 
d="M424 -19q-140 0 -235 78l-79 -87l-43 38l79 87q-97 102 -97 258q0 165 106 268.5t269 103.5q130 0 227 -69l78 87l43 -38l-77 -86q105 -105 105 -266q0 -164 -106.5 -268.5t-269.5 -105.5zM215 172l371 415q-67 52 -162 52q-121 0 -196 -82t-75 -203q0 -111 62 -182z
M424 70q121 0 196 82t75 203q0 117 -68 191l-373 -417q69 -59 170 -59z" />
    <glyph glyph-name="Ugrave" unicode="&#xd9;" horiz-adv-x="731" 
d="M365 -19q-140 0 -212 80t-72 206v441h101v-432q0 -39 8.5 -72.5t28 -64.5t57 -49t90.5 -18q52 0 89.5 18t57 48.5t28.5 64.5t9 73v432h101v-441q0 -126 -73 -206t-213 -80zM360 764l-131 144h104l103 -144h-76z" />
    <glyph glyph-name="Uacute" unicode="&#xda;" horiz-adv-x="731" 
d="M365 -19q-140 0 -212 80t-72 206v441h101v-432q0 -39 8.5 -72.5t28 -64.5t57 -49t90.5 -18q52 0 89.5 18t57 48.5t28.5 64.5t9 73v432h101v-441q0 -126 -73 -206t-213 -80zM297 764l103 144h104l-131 -144h-76z" />
    <glyph glyph-name="Ucircumflex" unicode="&#xdb;" horiz-adv-x="731" 
d="M365 -19q-140 0 -212 80t-72 206v441h101v-432q0 -39 8.5 -72.5t28 -64.5t57 -49t90.5 -18q52 0 89.5 18t57 48.5t28.5 64.5t9 73v432h101v-441q0 -126 -73 -206t-213 -80zM206 764l114 144h94l113 -144h-81l-80 104l-80 -104h-80z" />
    <glyph glyph-name="Udieresis" unicode="&#xdc;" horiz-adv-x="731" 
d="M365 -19q-140 0 -212 80t-72 206v441h101v-432q0 -39 8.5 -72.5t28 -64.5t57 -49t90.5 -18q52 0 89.5 18t57 48.5t28.5 64.5t9 73v432h101v-441q0 -126 -73 -206t-213 -80zM271 796q-23 0 -39.5 16.5t-16.5 40.5q0 23 16.5 39.5t39.5 16.5t40 -16.5t17 -39.5
q0 -24 -17 -40.5t-40 -16.5zM462 796q-24 0 -40.5 16.5t-16.5 40.5q0 23 16.5 39.5t40.5 16.5q23 0 39.5 -16.5t16.5 -39.5q0 -24 -16.5 -40.5t-39.5 -16.5z" />
    <glyph glyph-name="Yacute" unicode="&#xdd;" horiz-adv-x="611" 
d="M253 0v304l-257 404h123l189 -316l189 316h118l-260 -404v-304h-102zM266 764l103 144h104l-131 -144h-76z" />
    <glyph glyph-name="Thorn" unicode="&#xde;" horiz-adv-x="606" 
d="M88 0v708h102v-140h124q111 0 180.5 -47.5t69.5 -150.5q0 -101 -70 -152.5t-178 -51.5h-126v-166h-102zM190 249h119q67 0 110 29t43 92q0 62 -43.5 89t-109.5 27h-119v-237z" />
    <glyph glyph-name="germandbls" unicode="&#xdf;" horiz-adv-x="627" 
d="M337 -12q-33 0 -71 8v84q30 -8 59 -8q71 0 113 39t42 111q0 77 -47.5 117t-123.5 40h-17v79h17q51 0 87.5 28.5t36.5 87.5q0 51 -33 82.5t-86 31.5q-72 0 -103.5 -49t-31.5 -120v-519h-97v521q0 109 59.5 178t176.5 69q91 0 151.5 -51t60.5 -135q0 -60 -32.5 -101.5
t-84.5 -56.5v-1q74 -13 120 -66t46 -140q0 -105 -66 -167t-176 -62z" />
    <glyph glyph-name="agrave" unicode="&#xe0;" horiz-adv-x="532" 
d="M199 -13q-61 0 -105.5 36t-44.5 110q0 158 275 160h40v19q0 54 -31 81t-85 27q-37 0 -78.5 -16t-69.5 -39l-25 72q81 57 190 57q92 0 142 -49t50 -146v-200q0 -62 7 -99h-88q-8 42 -8 77h-3q-20 -43 -66.5 -66.5t-99.5 -23.5zM225 56q65 0 103.5 42.5t38.5 98.5v37h-40
q-187 0 -187 -99q0 -41 24.5 -60t60.5 -19zM267 568l-131 144h104l103 -144h-76z" />
    <glyph glyph-name="aacute" unicode="&#xe1;" horiz-adv-x="532" 
d="M199 -13q-61 0 -105.5 36t-44.5 110q0 158 275 160h40v19q0 54 -31 81t-85 27q-37 0 -78.5 -16t-69.5 -39l-25 72q81 57 190 57q92 0 142 -49t50 -146v-200q0 -62 7 -99h-88q-8 42 -8 77h-3q-20 -43 -66.5 -66.5t-99.5 -23.5zM225 56q65 0 103.5 42.5t38.5 98.5v37h-40
q-187 0 -187 -99q0 -41 24.5 -60t60.5 -19zM209 568l103 144h104l-131 -144h-76z" />
    <glyph glyph-name="acircumflex" unicode="&#xe2;" horiz-adv-x="532" 
d="M199 -13q-61 0 -105.5 36t-44.5 110q0 158 275 160h40v19q0 54 -31 81t-85 27q-37 0 -78.5 -16t-69.5 -39l-25 72q81 57 190 57q92 0 142 -49t50 -146v-200q0 -62 7 -99h-88q-8 42 -8 77h-3q-20 -43 -66.5 -66.5t-99.5 -23.5zM225 56q65 0 103.5 42.5t38.5 98.5v37h-40
q-187 0 -187 -99q0 -41 24.5 -60t60.5 -19zM109 568l114 144h94l113 -144h-81l-80 104l-80 -104h-80z" />
    <glyph glyph-name="atilde" unicode="&#xe3;" horiz-adv-x="541" 
d="M199 -13q-61 0 -105.5 36t-44.5 110q0 158 275 160h40v19q0 54 -31 81t-85 27q-37 0 -78.5 -16t-69.5 -39l-25 72q81 57 190 57q92 0 142 -49t50 -146v-200q0 -62 7 -99h-88q-8 42 -8 77h-3q-20 -43 -66.5 -66.5t-99.5 -23.5zM225 56q65 0 103.5 42.5t38.5 98.5v37h-40
q-187 0 -187 -99q0 -41 24.5 -60t60.5 -19zM113 582q6 47 28 76t61 29q32 0 73 -22q41 -23 63 -23q33 0 43 46h47q-14 -105 -90 -105q-32 0 -73 23q-38 22 -62 22q-32 0 -43 -46h-47z" />
    <glyph glyph-name="adieresis" unicode="&#xe4;" horiz-adv-x="532" 
d="M199 -13q-61 0 -105.5 36t-44.5 110q0 158 275 160h40v19q0 54 -31 81t-85 27q-37 0 -78.5 -16t-69.5 -39l-25 72q81 57 190 57q92 0 142 -49t50 -146v-200q0 -62 7 -99h-88q-8 42 -8 77h-3q-20 -43 -66.5 -66.5t-99.5 -23.5zM225 56q65 0 103.5 42.5t38.5 98.5v37h-40
q-187 0 -187 -99q0 -41 24.5 -60t60.5 -19zM175 600q-23 0 -39.5 16.5t-16.5 39.5t16.5 39.5t39.5 16.5t40 -16.5t17 -39.5t-17 -39.5t-40 -16.5zM366 600q-24 0 -40.5 16.5t-16.5 39.5t17 39.5t40 16.5t39.5 -16.5t16.5 -39.5t-16.5 -39.5t-39.5 -16.5z" />
    <glyph glyph-name="aring" unicode="&#xe5;" horiz-adv-x="532" 
d="M199 -13q-61 0 -105.5 36t-44.5 110q0 158 275 160h40v19q0 54 -31 81t-85 27q-37 0 -78.5 -16t-69.5 -39l-25 72q81 57 190 57q92 0 142 -49t50 -146v-200q0 -62 7 -99h-88q-8 42 -8 77h-3q-20 -43 -66.5 -66.5t-99.5 -23.5zM225 56q65 0 103.5 42.5t38.5 98.5v37h-40
q-187 0 -187 -99q0 -41 24.5 -60t60.5 -19zM270 556q-42 0 -72 29t-30 71q0 43 30 72t72 29t72.5 -29t30.5 -71q0 -43 -30 -72t-73 -29zM270 591q28 0 47 19t19 47q0 27 -19 46t-47 19t-46.5 -19t-18.5 -47q0 -27 19 -46t46 -19z" />
    <glyph glyph-name="ae" unicode="&#xe6;" horiz-adv-x="882" 
d="M224 -13q-70 0 -122.5 35.5t-52.5 106.5q0 46 24 77.5t68 47t90.5 21.5t106.5 6h36v23q0 116 -115 116q-74 0 -146 -58l-30 66q72 66 185 66q64 0 105 -27.5t56 -72.5q27 46 73 73t105 27q100 0 162.5 -67.5t62.5 -178.5q0 -21 -1 -31h-370q2 -64 45.5 -109.5
t117.5 -45.5q87 0 165 51l14 -73q-77 -54 -192 -54q-64 0 -114.5 31t-76.5 86q-19 -54 -68 -85t-128 -31zM461 282h280q-2 63 -37.5 102.5t-96.5 39.5q-64 0 -103.5 -45t-42.5 -97zM241 56q67 0 101 37t34 96v30h-35q-94 0 -147.5 -18t-53.5 -69q0 -40 30 -58t71 -18z" />
    <glyph glyph-name="ccedilla" unicode="&#xe7;" horiz-adv-x="494" 
d="M471 43q-61 -56 -163 -57l-41 -58q16 4 34 4q39 0 66 -17.5t27 -58.5q0 -47 -39.5 -68t-89.5 -21q-58 0 -105 22l17 41q37 -18 83 -18q67 0 67 45q0 38 -57 38q-30 0 -51 -9l-21 19l59 84q-91 15 -149 82.5t-58 168.5q0 112 73 183t185 71q46 0 91 -15t72 -39l-36 -73
q-53 46 -126 46q-71 0 -115.5 -50.5t-44.5 -122.5q0 -73 45.5 -122.5t121.5 -49.5q81 0 142 52z" />
    <glyph glyph-name="egrave" unicode="&#xe8;" horiz-adv-x="578" 
d="M303 -14q-110 0 -181.5 70t-71.5 185q0 112 70.5 182.5t174.5 70.5q107 0 170 -68.5t63 -177.5q0 -20 -1 -30h-384q3 -66 51.5 -111t119.5 -45q93 0 170 54l14 -75q-81 -55 -195 -55zM144 282h293q-1 63 -39 102.5t-102 39.5q-66 0 -107.5 -45t-44.5 -97zM285 568
l-131 144h104l103 -144h-76z" />
    <glyph glyph-name="eacute" unicode="&#xe9;" horiz-adv-x="578" 
d="M303 -14q-110 0 -181.5 70t-71.5 185q0 112 70.5 182.5t174.5 70.5q107 0 170 -68.5t63 -177.5q0 -20 -1 -30h-384q3 -66 51.5 -111t119.5 -45q93 0 170 54l14 -75q-81 -55 -195 -55zM144 282h293q-1 63 -39 102.5t-102 39.5q-66 0 -107.5 -45t-44.5 -97zM232 568
l103 144h104l-131 -144h-76z" />
    <glyph glyph-name="ecircumflex" unicode="&#xea;" horiz-adv-x="578" 
d="M303 -14q-110 0 -181.5 70t-71.5 185q0 112 70.5 182.5t174.5 70.5q107 0 170 -68.5t63 -177.5q0 -20 -1 -30h-384q3 -66 51.5 -111t119.5 -45q93 0 170 54l14 -75q-81 -55 -195 -55zM144 282h293q-1 63 -39 102.5t-102 39.5q-66 0 -107.5 -45t-44.5 -97zM141 568
l114 144h94l113 -144h-81l-80 104l-80 -104h-80z" />
    <glyph glyph-name="edieresis" unicode="&#xeb;" horiz-adv-x="578" 
d="M303 -14q-110 0 -181.5 70t-71.5 185q0 112 70.5 182.5t174.5 70.5q107 0 170 -68.5t63 -177.5q0 -20 -1 -30h-384q3 -66 51.5 -111t119.5 -45q93 0 170 54l14 -75q-81 -55 -195 -55zM144 282h293q-1 63 -39 102.5t-102 39.5q-66 0 -107.5 -45t-44.5 -97zM205 600
q-23 0 -39.5 16.5t-16.5 39.5t16.5 39.5t39.5 16.5t40 -16.5t17 -39.5t-17 -39.5t-40 -16.5zM396 600q-24 0 -40.5 16.5t-16.5 39.5t17 39.5t40 16.5t39.5 -16.5t16.5 -39.5t-16.5 -39.5t-39.5 -16.5z" />
    <glyph glyph-name="igrave" unicode="&#xec;" horiz-adv-x="263" 
d="M83 0v479h97v-479h-97zM103 568l-131 144h104l103 -144h-76z" />
    <glyph glyph-name="iacute" unicode="&#xed;" horiz-adv-x="263" 
d="M83 0v479h97v-479h-97zM83 568l103 144h104l-131 -144h-76z" />
    <glyph glyph-name="icircumflex" unicode="&#xee;" horiz-adv-x="263" 
d="M83 0v479h97v-479h-97zM-27 568l114 144h94l113 -144h-81l-80 104l-80 -104h-80z" />
    <glyph glyph-name="idieresis" unicode="&#xef;" horiz-adv-x="263" 
d="M83 0v479h97v-479h-97zM38 600q-23 0 -39.5 16.5t-16.5 39.5t16.5 39.5t39.5 16.5t40 -16.5t17 -39.5t-17 -39.5t-40 -16.5zM229 600q-24 0 -40.5 16.5t-16.5 39.5t17 39.5t40 16.5t39.5 -16.5t16.5 -39.5t-16.5 -39.5t-39.5 -16.5z" />
    <glyph glyph-name="eth" unicode="&#xf0;" horiz-adv-x="619" 
d="M307 -14q-111 0 -184.5 71t-73.5 184q0 111 71.5 181t180.5 70q76 0 129 -49l4 2q-57 110 -135 180l-110 -54l-48 44l110 54q-41 39 -87 69l76 45q48 -36 93 -77l108 53l54 -44l-112 -55q76 -80 130 -183.5t54 -215.5q0 -122 -70.5 -198.5t-189.5 -76.5zM308 68
q75 0 119.5 50t44.5 123q0 71 -45 121t-120 50q-74 0 -118.5 -50t-44.5 -121q0 -73 44.5 -123t119.5 -50z" />
    <glyph glyph-name="ntilde" unicode="&#xf1;" horiz-adv-x="595" 
d="M83 0v376q0 55 -5 103h94q5 -60 5 -89h2q19 46 63.5 74.5t98.5 28.5q90 0 133 -57t43 -142v-294h-97v271q0 61 -25 101.5t-83 40.5t-94.5 -44.5t-36.5 -117.5v-251h-98zM144 582q6 47 28 76t61 29q32 0 73 -22q41 -23 63 -23q33 0 43 46h47q-14 -105 -90 -105
q-32 0 -73 23q-38 22 -62 22q-32 0 -43 -46h-47z" />
    <glyph glyph-name="ograve" unicode="&#xf2;" horiz-adv-x="619" 
d="M309 -14q-111 0 -185 71t-74 184q0 112 74 182.5t185 70.5q112 0 185.5 -70t73.5 -183t-73.5 -184t-185.5 -71zM309 68q75 0 119.5 50.5t44.5 122.5t-44.5 122t-119.5 50t-119 -50t-44 -122t44.5 -122.5t118.5 -50.5zM293 568l-131 144h104l103 -144h-76z" />
    <glyph glyph-name="oacute" unicode="&#xf3;" horiz-adv-x="619" 
d="M309 -14q-111 0 -185 71t-74 184q0 112 74 182.5t185 70.5q112 0 185.5 -70t73.5 -183t-73.5 -184t-185.5 -71zM309 68q75 0 119.5 50.5t44.5 122.5t-44.5 122t-119.5 50t-119 -50t-44 -122t44.5 -122.5t118.5 -50.5zM249 568l103 144h104l-131 -144h-76z" />
    <glyph glyph-name="ocircumflex" unicode="&#xf4;" horiz-adv-x="619" 
d="M309 -14q-111 0 -185 71t-74 184q0 112 74 182.5t185 70.5q112 0 185.5 -70t73.5 -183t-73.5 -184t-185.5 -71zM309 68q75 0 119.5 50.5t44.5 122.5t-44.5 122t-119.5 50t-119 -50t-44 -122t44.5 -122.5t118.5 -50.5zM150 568l114 144h94l113 -144h-81l-80 104l-80 -104
h-80z" />
    <glyph glyph-name="otilde" unicode="&#xf5;" horiz-adv-x="619" 
d="M309 -14q-111 0 -185 71t-74 184q0 112 74 182.5t185 70.5q112 0 185.5 -70t73.5 -183t-73.5 -184t-185.5 -71zM309 68q75 0 119.5 50.5t44.5 122.5t-44.5 122t-119.5 50t-119 -50t-44 -122t44.5 -122.5t118.5 -50.5zM152 582q6 47 28 76t61 29q32 0 73 -22
q41 -23 63 -23q33 0 43 46h47q-14 -105 -90 -105q-32 0 -73 23q-38 22 -62 22q-32 0 -43 -46h-47z" />
    <glyph glyph-name="odieresis" unicode="&#xf6;" horiz-adv-x="619" 
d="M309 -14q-111 0 -185 71t-74 184q0 112 74 182.5t185 70.5q112 0 185.5 -70t73.5 -183t-73.5 -184t-185.5 -71zM309 68q75 0 119.5 50.5t44.5 122.5t-44.5 122t-119.5 50t-119 -50t-44 -122t44.5 -122.5t118.5 -50.5zM214 600q-23 0 -39.5 16.5t-16.5 39.5t16.5 39.5
t39.5 16.5t40 -16.5t17 -39.5t-17 -39.5t-40 -16.5zM405 600q-24 0 -40.5 16.5t-16.5 39.5t17 39.5t40 16.5t39.5 -16.5t16.5 -39.5t-16.5 -39.5t-39.5 -16.5z" />
    <glyph glyph-name="divide" unicode="&#xf7;" horiz-adv-x="666" 
d="M333 416q-26 0 -44.5 18.5t-18.5 43.5q0 26 18.5 44.5t44.5 18.5t44.5 -18.5t18.5 -44.5q0 -25 -18.5 -43.5t-44.5 -18.5zM84 265v77h498v-77h-498zM333 65q-26 0 -44.5 18.5t-18.5 44.5t18.5 44t44.5 18t44.5 -18.5t18.5 -43.5q0 -26 -18.5 -44.5t-44.5 -18.5z" />
    <glyph glyph-name="oslash" unicode="&#xf8;" horiz-adv-x="619" 
d="M76 -29l-38 37l69 69q-57 65 -57 164q0 112 73.5 183t185.5 71q94 0 161 -53l66 66l39 -37l-66 -66q59 -64 59 -164q0 -112 -73.5 -183.5t-185.5 -71.5q-99 0 -162 55zM172 143l237 238q-40 35 -101 35q-75 0 -120.5 -50t-45.5 -123q0 -61 30 -100zM309 65q75 0 120.5 51
t45.5 124q0 62 -33 103l-237 -239q41 -39 104 -39z" />
    <glyph glyph-name="ugrave" unicode="&#xf9;" horiz-adv-x="594" 
d="M251 -13q-90 0 -132.5 57t-42.5 142v293h98v-270q0 -142 107 -142q58 0 95 45.5t37 120.5v246h97v-377q0 -51 7 -102l-94 -1q-6 32 -8 90q-20 -46 -65.5 -74t-98.5 -28zM278 568l-131 144h104l103 -144h-76z" />
    <glyph glyph-name="uacute" unicode="&#xfa;" horiz-adv-x="594" 
d="M251 -13q-90 0 -132.5 57t-42.5 142v293h98v-270q0 -142 107 -142q58 0 95 45.5t37 120.5v246h97v-377q0 -51 7 -102l-94 -1q-6 32 -8 90q-20 -46 -65.5 -74t-98.5 -28zM228 568l103 144h104l-131 -144h-76z" />
    <glyph glyph-name="ucircumflex" unicode="&#xfb;" horiz-adv-x="594" 
d="M251 -13q-90 0 -132.5 57t-42.5 142v293h98v-270q0 -142 107 -142q58 0 95 45.5t37 120.5v246h97v-377q0 -51 7 -102l-94 -1q-6 32 -8 90q-20 -46 -65.5 -74t-98.5 -28zM133 568l114 144h94l113 -144h-81l-80 104l-80 -104h-80z" />
    <glyph glyph-name="udieresis" unicode="&#xfc;" horiz-adv-x="594" 
d="M251 -13q-90 0 -132.5 57t-42.5 142v293h98v-270q0 -142 107 -142q58 0 95 45.5t37 120.5v246h97v-377q0 -51 7 -102l-94 -1q-6 32 -8 90q-20 -46 -65.5 -74t-98.5 -28zM199 600q-23 0 -39.5 16.5t-16.5 39.5t16.5 39.5t39.5 16.5t40 -16.5t17 -39.5t-17 -39.5t-40 -16.5
zM390 600q-24 0 -40.5 16.5t-16.5 39.5t17 39.5t40 16.5t39.5 -16.5t16.5 -39.5t-16.5 -39.5t-39.5 -16.5z" />
    <glyph glyph-name="yacute" unicode="&#xfd;" horiz-adv-x="504" 
d="M55 -158q53 7 84.5 27.5t49.5 62.5l26 69l-204 478h108l146 -375l125 375h103l-210 -563q-28 -77 -75 -112.5t-123 -43.5zM208 568l103 144h104l-131 -144h-76z" />
    <glyph glyph-name="thorn" unicode="&#xfe;" horiz-adv-x="643" 
d="M83 -240v996h97v-360h2q27 45 73 71t103 26q104 0 169 -72.5t65 -179.5q0 -108 -65 -181t-170 -73q-56 0 -103.5 25.5t-71.5 71.5h-2v-324h-97zM337 68q73 0 117 50t44 123q0 71 -44 121.5t-117 50.5q-71 0 -116.5 -51t-45.5 -122t45.5 -121.5t116.5 -50.5z" />
    <glyph glyph-name="ydieresis" unicode="&#xff;" horiz-adv-x="504" 
d="M55 -158q53 7 84.5 27.5t49.5 62.5l26 69l-204 478h108l146 -375l125 375h103l-210 -563q-28 -77 -75 -112.5t-123 -43.5zM164 600q-23 0 -39.5 16.5t-16.5 39.5t16.5 39.5t39.5 16.5t40 -16.5t17 -39.5t-17 -39.5t-40 -16.5zM355 600q-24 0 -40.5 16.5t-16.5 39.5
t17 39.5t40 16.5t39.5 -16.5t16.5 -39.5t-16.5 -39.5t-39.5 -16.5z" />
    <glyph glyph-name="Amacron" unicode="&#x100;" horiz-adv-x="702" 
d="M2 0l301 708h101l296 -708h-112l-92 227h-293l-91 -227h-110zM234 309h232l-114 291zM208 805v56h288v-56h-288z" />
    <glyph glyph-name="amacron" unicode="&#x101;" horiz-adv-x="532" 
d="M199 -13q-61 0 -105.5 36t-44.5 110q0 158 275 160h40v19q0 54 -31 81t-85 27q-37 0 -78.5 -16t-69.5 -39l-25 72q81 57 190 57q92 0 142 -49t50 -146v-200q0 -62 7 -99h-88q-8 42 -8 77h-3q-20 -43 -66.5 -66.5t-99.5 -23.5zM225 56q65 0 103.5 42.5t38.5 98.5v37h-40
q-187 0 -187 -99q0 -41 24.5 -60t60.5 -19zM131 608v57h288v-57h-288z" />
    <glyph glyph-name="Abreve" unicode="&#x102;" horiz-adv-x="702" 
d="M2 0l301 708h101l296 -708h-112l-92 227h-293l-91 -227h-110zM234 309h232l-114 291zM351 769q-63 0 -104 34t-47 101h54q7 -39 33.5 -58t64.5 -19q83 0 99 77h53q-7 -67 -48 -101t-105 -34z" />
    <glyph glyph-name="abreve" unicode="&#x103;" horiz-adv-x="532" 
d="M199 -13q-61 0 -105.5 36t-44.5 110q0 158 275 160h40v19q0 54 -31 81t-85 27q-37 0 -78.5 -16t-69.5 -39l-25 72q81 57 190 57q92 0 142 -49t50 -146v-200q0 -62 7 -99h-88q-8 42 -8 77h-3q-20 -43 -66.5 -66.5t-99.5 -23.5zM225 56q65 0 103.5 42.5t38.5 98.5v37h-40
q-187 0 -187 -99q0 -41 24.5 -60t60.5 -19zM274 573q-63 0 -104 34t-47 101h54q7 -39 33.5 -58t64.5 -19q83 0 99 77h53q-7 -67 -48 -101t-105 -34z" />
    <glyph glyph-name="Aogonek" unicode="&#x104;" horiz-adv-x="702" 
d="M608 -175q32 0 59 24l22 -42q-43 -36 -98 -36q-41 0 -70 22.5t-29 63.5q0 65 97 143h-1l-92 227h-293l-91 -227h-110l301 708h101l296 -708h-51q-90 -79 -90 -127q0 -21 14 -34.5t35 -13.5zM234 309h232l-114 291z" />
    <glyph glyph-name="aogonek" unicode="&#x105;" horiz-adv-x="532" 
d="M455 -151l22 -42q-43 -36 -99 -36q-41 0 -69.5 22.5t-28.5 63.5q0 65 97 143h-1q-8 42 -8 77h-3q-20 -43 -66.5 -66.5t-99.5 -23.5q-61 0 -105.5 36t-44.5 110q0 158 275 160h40v19q0 54 -31 81t-85 27q-37 0 -78.5 -16t-69.5 -39l-25 72q81 57 190 57q92 0 142 -49
t50 -146v-200q0 -62 7 -99h-28q-89 -79 -89 -127q0 -21 14 -34.5t35 -13.5q32 0 59 24zM367 197v37h-40q-187 0 -187 -99q0 -41 24.5 -60t60.5 -19q65 0 103.5 42.5t38.5 98.5z" />
    <glyph glyph-name="Cacute" unicode="&#x106;" horiz-adv-x="710" 
d="M426 -19q-162 0 -267 105t-105 268q0 165 106 269t268 104q71 0 137 -22.5t107 -55.5l-27 -95q-39 35 -95.5 58t-118.5 23q-118 0 -193 -80.5t-75 -200.5q0 -121 74.5 -200.5t195.5 -79.5q130 0 224 87l18 -91q-39 -37 -106.5 -63t-142.5 -26zM358 764l103 144h104
l-131 -144h-76z" />
    <glyph glyph-name="cacute" unicode="&#x107;" horiz-adv-x="494" 
d="M301 -14q-108 0 -179.5 70.5t-71.5 183.5q0 112 73 183t185 71q46 0 91 -15t72 -39l-36 -73q-53 46 -126 46q-71 0 -115.5 -50.5t-44.5 -122.5q0 -73 45.5 -122.5t121.5 -49.5q81 0 142 52l13 -77q-62 -57 -170 -57zM238 568l103 144h104l-131 -144h-76z" />
    <glyph glyph-name="Ccircumflex" unicode="&#x108;" horiz-adv-x="710" 
d="M426 -19q-162 0 -267 105t-105 268q0 165 106 269t268 104q71 0 137 -22.5t107 -55.5l-27 -95q-39 35 -95.5 58t-118.5 23q-118 0 -193 -80.5t-75 -200.5q0 -121 74.5 -200.5t195.5 -79.5q130 0 224 87l18 -91q-39 -37 -106.5 -63t-142.5 -26zM269 764l114 144h94
l113 -144h-81l-80 104l-80 -104h-80z" />
    <glyph glyph-name="ccircumflex" unicode="&#x109;" horiz-adv-x="494" 
d="M301 -14q-108 0 -179.5 70.5t-71.5 183.5q0 112 73 183t185 71q46 0 91 -15t72 -39l-36 -73q-53 46 -126 46q-71 0 -115.5 -50.5t-44.5 -122.5q0 -73 45.5 -122.5t121.5 -49.5q81 0 142 52l13 -77q-62 -57 -170 -57zM137 568l114 144h94l113 -144h-81l-80 104l-80 -104
h-80z" />
    <glyph glyph-name="Cdotaccent" unicode="&#x10a;" horiz-adv-x="710" 
d="M426 -19q-162 0 -267 105t-105 268q0 165 106 269t268 104q71 0 137 -22.5t107 -55.5l-27 -95q-39 35 -95.5 58t-118.5 23q-118 0 -193 -80.5t-75 -200.5q0 -121 74.5 -200.5t195.5 -79.5q130 0 224 87l18 -91q-39 -37 -106.5 -63t-142.5 -26zM426 795q-24 0 -41 16.5
t-17 41.5q0 23 17 40t41 17q25 0 42 -16.5t17 -40.5q0 -25 -17.5 -41.5t-41.5 -16.5z" />
    <glyph glyph-name="cdotaccent" unicode="&#x10b;" horiz-adv-x="494" 
d="M301 -14q-108 0 -179.5 70.5t-71.5 183.5q0 112 73 183t185 71q46 0 91 -15t72 -39l-36 -73q-53 46 -126 46q-71 0 -115.5 -50.5t-44.5 -122.5q0 -73 45.5 -122.5t121.5 -49.5q81 0 142 52l13 -77q-62 -57 -170 -57zM301 599q-24 0 -41 16.5t-17 40.5t17 41t41 17
q25 0 42 -16.5t17 -41.5q0 -24 -17.5 -40.5t-41.5 -16.5z" />
    <glyph glyph-name="Ccaron" unicode="&#x10c;" horiz-adv-x="710" 
d="M426 -19q-162 0 -267 105t-105 268q0 165 106 269t268 104q71 0 137 -22.5t107 -55.5l-27 -95q-39 35 -95.5 58t-118.5 23q-118 0 -193 -80.5t-75 -200.5q0 -121 74.5 -200.5t195.5 -79.5q130 0 224 87l18 -91q-39 -37 -106.5 -63t-142.5 -26zM382 764l-114 144h81
l80 -104l80 104h80l-114 -144h-93z" />
    <glyph glyph-name="ccaron" unicode="&#x10d;" horiz-adv-x="494" 
d="M301 -14q-108 0 -179.5 70.5t-71.5 183.5q0 112 73 183t185 71q46 0 91 -15t72 -39l-36 -73q-53 46 -126 46q-71 0 -115.5 -50.5t-44.5 -122.5q0 -73 45.5 -122.5t121.5 -49.5q81 0 142 52l13 -77q-62 -57 -170 -57zM254 568l-114 144h81l80 -104l80 104h80l-114 -144
h-93z" />
    <glyph glyph-name="Dcaron" unicode="&#x10e;" horiz-adv-x="770" 
d="M88 0v708h233q80 0 148.5 -20t125 -60.5t89 -110.5t32.5 -162q0 -89 -32.5 -158.5t-88 -111.5t-124.5 -63.5t-146 -21.5h-237zM188 88h124q133 0 215.5 67.5t82.5 199.5t-82 199t-214 67h-126v-533zM309 764l-114 144h81l80 -104l80 104h80l-114 -144h-93z" />
    <glyph glyph-name="dcaron" unicode="&#x10f;" horiz-adv-x="723" 
d="M285 -13q-105 0 -170 73.5t-65 180.5q0 106 65 179t169 73q57 0 103.5 -26t73.5 -71h2v360l97 15v-652q0 -39 4 -119h-91q-4 60 -4 89h-2q-26 -48 -75.5 -75t-106.5 -27zM305 68q70 0 115.5 50.5t45.5 121.5t-45.5 122t-115.5 51q-73 0 -116.5 -50.5t-43.5 -121.5
q0 -72 43.5 -122.5t116.5 -50.5zM604 518l60 190h90l-75 -190h-75z" />
    <glyph glyph-name="Dcroat" unicode="&#x110;" horiz-adv-x="770" 
d="M88 0v333h-70v67h70v308h240q79 0 147 -21t122 -62.5t85 -110.5t31 -159q0 -88 -32 -157.5t-87 -111.5t-122.5 -64t-143.5 -22h-240zM187 89h121q137 0 219 68t82 198q0 128 -80 196t-214 68h-128v-219h225v-67h-225v-244z" />
    <glyph glyph-name="dslash" unicode="&#x111;" horiz-adv-x="643" 
d="M285 -13q-105 0 -170 73.5t-65 180.5q0 106 65 179t169 73q57 0 103.5 -26t73.5 -71h2v174h-174v57h174v129h97v-129h56v-57h-56v-463q0 -53 3 -107h-91q-3 45 -3 89h-2q-26 -48 -75.5 -75t-106.5 -27zM305 68q71 0 116.5 50.5t45.5 121.5t-45.5 122t-116.5 51
q-73 0 -116.5 -50.5t-43.5 -121.5q0 -72 43.5 -122.5t116.5 -50.5z" />
    <glyph glyph-name="Emacron" unicode="&#x112;" horiz-adv-x="557" 
d="M88 0v708h408l-15 -87h-295v-215h284l-15 -83h-269v-236h325l-14 -87h-409zM146 806v56h288v-56h-288z" />
    <glyph glyph-name="emacron" unicode="&#x113;" horiz-adv-x="578" 
d="M303 -14q-110 0 -181.5 70t-71.5 185q0 112 70.5 182.5t174.5 70.5q107 0 170 -68.5t63 -177.5q0 -20 -1 -30h-384q3 -66 51.5 -111t119.5 -45q93 0 170 54l14 -75q-81 -55 -195 -55zM144 282h293q-1 63 -39 102.5t-102 39.5q-66 0 -107.5 -45t-44.5 -97zM156 608v57h288
v-57h-288z" />
    <glyph glyph-name="Ebreve" unicode="&#x114;" horiz-adv-x="557" 
d="M88 0v708h408l-15 -87h-295v-215h284l-15 -83h-269v-236h325l-14 -87h-409zM295 762q-63 0 -104 34t-47 101h54q7 -39 33.5 -58t64.5 -19q83 0 99 77h53q-7 -67 -48 -101t-105 -34z" />
    <glyph glyph-name="ebreve" unicode="&#x115;" horiz-adv-x="578" 
d="M303 -14q-110 0 -181.5 70t-71.5 185q0 112 70.5 182.5t174.5 70.5q107 0 170 -68.5t63 -177.5q0 -20 -1 -30h-384q3 -66 51.5 -111t119.5 -45q93 0 170 54l14 -75q-81 -55 -195 -55zM144 282h293q-1 63 -39 102.5t-102 39.5q-66 0 -107.5 -45t-44.5 -97zM299 573
q-63 0 -104 34t-47 101h54q7 -39 33.5 -58t64.5 -19q83 0 99 77h53q-7 -67 -48 -101t-105 -34z" />
    <glyph glyph-name="Edotaccent" unicode="&#x116;" horiz-adv-x="557" 
d="M88 0v708h408l-15 -87h-295v-215h284l-15 -83h-269v-236h325l-14 -87h-409zM294 783q-24 0 -41 16.5t-17 41.5q0 23 17 40t41 17q25 0 42 -16.5t17 -40.5q0 -25 -17.5 -41.5t-41.5 -16.5z" />
    <glyph glyph-name="edotaccent" unicode="&#x117;" horiz-adv-x="578" 
d="M303 -14q-110 0 -181.5 70t-71.5 185q0 112 70.5 182.5t174.5 70.5q107 0 170 -68.5t63 -177.5q0 -20 -1 -30h-384q3 -66 51.5 -111t119.5 -45q93 0 170 54l14 -75q-81 -55 -195 -55zM144 282h293q-1 63 -39 102.5t-102 39.5q-66 0 -107.5 -45t-44.5 -97zM299 599
q-24 0 -41 16.5t-17 40.5t17 41t41 17q25 0 42 -16.5t17 -41.5q0 -24 -17.5 -40.5t-41.5 -16.5z" />
    <glyph glyph-name="Eogonek" unicode="&#x118;" horiz-adv-x="557" 
d="M440 0q-89 -79 -89 -127q0 -21 14 -34.5t35 -13.5q32 0 59 24l22 -42q-43 -36 -98 -36q-41 0 -70 22.5t-29 63.5q0 65 97 143h-293v708h408l-15 -87h-295v-215h284l-15 -83h-269v-236h325l-14 -87h-57z" />
    <glyph glyph-name="eogonek" unicode="&#x119;" horiz-adv-x="578" 
d="M528 248q0 -20 -1 -30h-384q3 -66 51.5 -111t119.5 -45q93 0 170 54l14 -75q-53 -38 -126 -50q-79 -72 -79 -118q0 -21 14 -34.5t35 -13.5q32 0 59 24l22 -42q-45 -36 -99 -36q-41 0 -70 22.5t-29 63.5q0 59 80 129h-2q-110 0 -181.5 70t-71.5 185q0 112 70.5 182.5
t174.5 70.5q107 0 170 -68.5t63 -177.5zM144 282h293q-1 63 -39 102.5t-102 39.5q-66 0 -107.5 -45t-44.5 -97z" />
    <glyph glyph-name="Ecaron" unicode="&#x11a;" horiz-adv-x="557" 
d="M88 0v708h408l-15 -87h-295v-215h284l-15 -83h-269v-236h325l-14 -87h-409zM252 763l-114 144h81l80 -104l80 104h80l-114 -144h-93z" />
    <glyph glyph-name="ecaron" unicode="&#x11b;" horiz-adv-x="578" 
d="M303 -14q-110 0 -181.5 70t-71.5 185q0 112 70.5 182.5t174.5 70.5q107 0 170 -68.5t63 -177.5q0 -20 -1 -30h-384q3 -66 51.5 -111t119.5 -45q93 0 170 54l14 -75q-81 -55 -195 -55zM144 282h293q-1 63 -39 102.5t-102 39.5q-66 0 -107.5 -45t-44.5 -97zM253 568
l-114 144h81l80 -104l80 104h80l-114 -144h-93z" />
    <glyph glyph-name="Gcircumflex" unicode="&#x11c;" horiz-adv-x="780" 
d="M434 -19q-168 0 -274 105t-106 269t106.5 268t269.5 104q73 0 142 -21.5t117 -54.5l-37 -85q-98 72 -219 72q-120 0 -196 -81.5t-76 -201.5q0 -123 75 -204t204 -81q93 0 165 35v198h-158l15 83h237v-342q-114 -63 -265 -63zM273 764l114 144h94l113 -144h-81l-80 104
l-80 -104h-80z" />
    <glyph glyph-name="gcircumflex" unicode="&#x11d;" horiz-adv-x="642" 
d="M299 -244q-121 0 -218 59l16 85q91 -64 196 -64q87 0 129 48.5t42 130.5v74h-3q-25 -45 -72 -71t-103 -26q-106 0 -171 71.5t-65 177.5t65 179t170 73q56 0 104.5 -26.5t75.5 -75.5h2q0 30 6 88h90q-3 -48 -3 -105v-352q0 -124 -66.5 -195t-194.5 -71zM305 71
q71 0 116.5 49.5t45.5 121.5q0 71 -45.5 121t-116.5 50q-73 0 -116 -49.5t-43 -121.5q0 -71 43.5 -121t115.5 -50zM153 568l114 144h94l113 -144h-81l-80 104l-80 -104h-80z" />
    <glyph glyph-name="Gbreve" unicode="&#x11e;" horiz-adv-x="780" 
d="M434 -19q-168 0 -274 105t-106 269t106.5 268t269.5 104q73 0 142 -21.5t117 -54.5l-37 -85q-98 72 -219 72q-120 0 -196 -81.5t-76 -201.5q0 -123 75 -204t204 -81q93 0 165 35v198h-158l15 83h237v-342q-114 -63 -265 -63zM434 769q-63 0 -104 34t-47 101h54
q7 -39 33.5 -58t64.5 -19q83 0 99 77h53q-7 -67 -48 -101t-105 -34z" />
    <glyph glyph-name="gbreve" unicode="&#x11f;" horiz-adv-x="642" 
d="M299 -244q-121 0 -218 59l16 85q91 -64 196 -64q87 0 129 48.5t42 130.5v74h-3q-25 -45 -72 -71t-103 -26q-106 0 -171 71.5t-65 177.5t65 179t170 73q56 0 104.5 -26.5t75.5 -75.5h2q0 30 6 88h90q-3 -48 -3 -105v-352q0 -124 -66.5 -195t-194.5 -71zM305 71
q71 0 116.5 49.5t45.5 121.5q0 71 -45.5 121t-116.5 50q-73 0 -116 -49.5t-43 -121.5q0 -71 43.5 -121t115.5 -50zM314 573q-63 0 -104 34t-47 101h54q7 -39 33.5 -58t64.5 -19q83 0 99 77h53q-7 -67 -48 -101t-105 -34z" />
    <glyph glyph-name="Gdotaccent" unicode="&#x120;" horiz-adv-x="780" 
d="M434 -19q-168 0 -274 105t-106 269t106.5 268t269.5 104q73 0 142 -21.5t117 -54.5l-37 -85q-98 72 -219 72q-120 0 -196 -81.5t-76 -201.5q0 -123 75 -204t204 -81q93 0 165 35v198h-158l15 83h237v-342q-114 -63 -265 -63zM431 795q-24 0 -41 16.5t-17 41.5q0 23 17 40
t41 17q25 0 42 -16.5t17 -40.5q0 -25 -17.5 -41.5t-41.5 -16.5z" />
    <glyph glyph-name="gdotaccent" unicode="&#x121;" horiz-adv-x="642" 
d="M299 -244q-121 0 -218 59l16 85q91 -64 196 -64q87 0 129 48.5t42 130.5v74h-3q-25 -45 -72 -71t-103 -26q-106 0 -171 71.5t-65 177.5t65 179t170 73q56 0 104.5 -26.5t75.5 -75.5h2q0 30 6 88h90q-3 -48 -3 -105v-352q0 -124 -66.5 -195t-194.5 -71zM305 71
q71 0 116.5 49.5t45.5 121.5q0 71 -45.5 121t-116.5 50q-73 0 -116 -49.5t-43 -121.5q0 -71 43.5 -121t115.5 -50zM312 599q-24 0 -41 16.5t-17 40.5t17 41t41 17q25 0 42 -16.5t17 -41.5q0 -24 -17.5 -40.5t-41.5 -16.5z" />
    <glyph glyph-name="Gcommaaccent" unicode="&#x122;" horiz-adv-x="780" 
d="M434 -19q-168 0 -274 105t-106 269t106.5 268t269.5 104q73 0 142 -21.5t117 -54.5l-37 -85q-98 72 -219 72q-120 0 -196 -81.5t-76 -201.5q0 -123 75 -204t204 -81q93 0 165 35v198h-158l15 83h237v-342q-114 -63 -265 -63zM335 -234l60 190h90l-75 -190h-75z" />
    <glyph glyph-name="gcommaaccent" unicode="&#x123;" horiz-adv-x="642" 
d="M299 -244q-121 0 -218 59l16 85q91 -64 196 -64q87 0 129 48.5t42 130.5v74h-3q-25 -45 -72 -71t-103 -26q-106 0 -171 71.5t-65 177.5t65 179t170 73q56 0 104.5 -26.5t75.5 -75.5h2q0 30 6 88h90q-3 -48 -3 -105v-352q0 -124 -66.5 -195t-194.5 -71zM305 71
q71 0 116.5 49.5t45.5 121.5q0 71 -45.5 121t-116.5 50q-73 0 -116 -49.5t-43 -121.5q0 -71 43.5 -121t115.5 -50zM263 568l74 190h76l-61 -190h-89z" />
    <glyph glyph-name="Hcircumflex" unicode="&#x124;" horiz-adv-x="769" 
d="M88 0v708h102v-297h390v297h101v-708h-101v324h-390v-324h-102zM214 764l114 144h94l113 -144h-81l-80 104l-80 -104h-80z" />
    <glyph glyph-name="hcircumflex" unicode="&#x125;" horiz-adv-x="594" 
d="M83 0v754l97 14v-375h2q19 45 62.5 72.5t97.5 27.5q90 0 132.5 -57t42.5 -142v-294h-98v271q0 141 -107 141q-58 0 -95 -45.5t-37 -123.5v-243h-97zM137 793l114 144h94l113 -144h-81l-80 104l-80 -104h-80z" />
    <glyph glyph-name="Hbar" unicode="&#x126;" horiz-adv-x="769" 
d="M88 0v708h102v-151h390v151h101v-708h-101v324h-390v-324h-102zM190 411h390v89h-390v-89z" />
    <glyph glyph-name="hbar" unicode="&#x127;" horiz-adv-x="594" 
d="M83 0v570h-57v57h57v129h97v-129h173v-57h-173v-177h2q19 45 62.5 72.5t97.5 27.5q90 0 132.5 -57t42.5 -142v-294h-98v271q0 141 -107 141q-58 0 -95 -44.5t-37 -117.5v-250h-97z" />
    <glyph glyph-name="Itilde" unicode="&#x128;" horiz-adv-x="278" 
d="M88 0v708h102v-708h-102zM208 780q-33 0 -73 22q-38 22 -62 22q-33 0 -43 -46h-47q6 47 28 76t61 29q32 0 73 -22t63 -22q33 0 43 45h47q-14 -104 -90 -104z" />
    <glyph glyph-name="itilde" unicode="&#x129;" horiz-adv-x="263" 
d="M83 0v479h97v-479h-97zM-24 582q6 47 28 76t61 29q32 0 73 -22q41 -23 63 -23q33 0 43 46h47q-14 -105 -90 -105q-32 0 -73 23q-38 22 -62 22q-32 0 -43 -46h-47z" />
    <glyph glyph-name="Imacron" unicode="&#x12a;" horiz-adv-x="278" 
d="M88 0v708h102v-708h-102zM-5 805v56h288v-56h-288z" />
    <glyph glyph-name="imacron" unicode="&#x12b;" horiz-adv-x="263" 
d="M83 0v479h97v-479h-97zM-11 608v57h288v-57h-288z" />
    <glyph glyph-name="Ibreve" unicode="&#x12c;" horiz-adv-x="278" 
d="M88 0v708h102v-708h-102zM138 769q-63 0 -104 34t-47 101h54q7 -39 33.5 -58t64.5 -19q83 0 99 77h53q-7 -67 -48 -101t-105 -34z" />
    <glyph glyph-name="ibreve" unicode="&#x12d;" horiz-adv-x="263" 
d="M83 0v479h97v-479h-97zM130 573q-63 0 -104 34t-47 101h54q7 -39 33.5 -58t64.5 -19q83 0 99 77h53q-7 -67 -48 -101t-105 -34z" />
    <glyph glyph-name="Iogonek" unicode="&#x12e;" horiz-adv-x="278" 
d="M204 -151l22 -42q-45 -36 -99 -36q-41 0 -70 22.5t-29 63.5q0 65 97 143h-37v708h102v-708h-5q-90 -80 -90 -127q0 -21 14 -34.5t35 -13.5q33 0 60 24z" />
    <glyph glyph-name="iogonek" unicode="&#x12f;" horiz-adv-x="263" 
d="M132 596q-25 0 -43 17.5t-18 42.5t18 42.5t43 17.5q24 0 42 -17.5t18 -42.5t-18 -42.5t-42 -17.5zM197 -151l22 -42q-45 -36 -99 -36q-41 0 -70 22.5t-29 63.5q0 65 97 143h-35v479h97v-479h-2q-89 -79 -89 -127q0 -22 13.5 -35t35.5 -13q32 0 59 24z" />
    <glyph glyph-name="Idot" unicode="&#x130;" horiz-adv-x="278" 
d="M88 0v708h102v-708h-102zM139 795q-24 0 -41 16.5t-17 41.5q0 23 17 40t41 17q25 0 42 -16.5t17 -40.5q0 -25 -17.5 -41.5t-41.5 -16.5z" />
    <glyph glyph-name="dotlessi" unicode="&#x131;" horiz-adv-x="263" 
d="M83 0v479h97v-479h-97z" />
    <glyph glyph-name="IJ" unicode="&#x132;" horiz-adv-x="661" 
d="M88 0v708h102v-708h-102zM292 82q27 -9 58 -9q64 0 95 40t31 107v488h101v-494q0 -103 -52.5 -167.5t-158.5 -64.5q-33 0 -57 4z" />
    <glyph glyph-name="ij" unicode="&#x133;" horiz-adv-x="526" 
d="M132 596q-25 0 -43 17.5t-18 42.5t18 42.5t43 17.5q24 0 42 -17.5t18 -42.5t-18 -42.5t-42 -17.5zM83 0v479h97v-479h-97zM394 596q-25 0 -43 17.5t-18 42.5t18 42.5t43 17.5t43 -17.5t18 -42.5t-18 -42.5t-43 -17.5zM255 -158q48 0 69.5 27t21.5 85v525h97v-526
q0 -90 -36 -140.5t-128 -53.5z" />
    <glyph glyph-name="Jcircumflex" unicode="&#x134;" horiz-adv-x="393" 
d="M24 82q27 -9 58 -9q64 0 95 40t31 107v488h101v-494q0 -103 -52.5 -167.5t-158.5 -64.5q-33 0 -57 4zM89 764l114 144h94l113 -144h-81l-80 104l-80 -104h-80z" />
    <glyph glyph-name="jcircumflex" unicode="&#x135;" horiz-adv-x="265" 
d="M25 -241q-28 0 -53 7l8 81q18 -5 33 -5q43 0 57.5 26.5t14.5 76.5v534h97v-535q0 -88 -34 -136.5t-123 -48.5zM-29 568l114 144h94l113 -144h-81l-80 104l-80 -104h-80z" />
    <glyph glyph-name="Kcommaaccent" unicode="&#x136;" horiz-adv-x="645" 
d="M88 0v708h100v-327l306 327h130l-330 -339l348 -369h-134l-320 348v-348h-100zM241 -235l60 190h90l-75 -190h-75z" />
    <glyph glyph-name="kcommaaccent" unicode="&#x137;" horiz-adv-x="527" 
d="M83 0v754l97 14v-502h3l196 213h119l-212 -219l229 -260h-117l-215 244h-3v-244h-97zM183 -235l60 190h90l-75 -190h-75z" />
    <glyph glyph-name="kgreenlandic" unicode="&#x138;" horiz-adv-x="527" 
d="M519 0h-125l-211 242h-3v-242h-97v479h97v-207h3l196 207h123l-218 -219z" />
    <glyph glyph-name="Lacute" unicode="&#x139;" horiz-adv-x="513" 
d="M88 0v708h102v-619h302l-15 -89h-389zM100 744l103 144h104l-131 -144h-76z" />
    <glyph glyph-name="lacute" unicode="&#x13a;" horiz-adv-x="267" 
d="M180 -14q-97 43 -97 159v608l98 14v-607q0 -39 11.5 -60t40.5 -38zM85 783l103 144h104l-131 -144h-76z" />
    <glyph glyph-name="Lcommaaccent" unicode="&#x13b;" horiz-adv-x="513" 
d="M88 0v708h102v-619h302l-15 -89h-389zM190 -235l60 190h90l-75 -190h-75z" />
    <glyph glyph-name="lcommaaccent" unicode="&#x13c;" horiz-adv-x="267" 
d="M180 -14q-97 43 -97 159v608l98 14v-607q0 -39 11.5 -60t40.5 -38zM40 -235l60 190h90l-75 -190h-75z" />
    <glyph glyph-name="Lcaron" unicode="&#x13d;" horiz-adv-x="513" 
d="M88 0v708h102v-619h302l-15 -89h-389zM264 519l60 190h90l-75 -190h-75z" />
    <glyph glyph-name="lcaron" unicode="&#x13e;" horiz-adv-x="342" 
d="M180 -14q-97 43 -97 159v608l98 14v-607q0 -39 11.5 -60t40.5 -38zM224 518l61 190h89l-74 -190h-76z" />
    <glyph glyph-name="Ldot" unicode="&#x13f;" horiz-adv-x="513" 
d="M88 0v708h102v-619h302l-15 -89h-389zM341 309q-24 0 -41 16.5t-17 40.5t17 41t41 17q25 0 42 -16.5t17 -41.5q0 -24 -17.5 -40.5t-41.5 -16.5z" />
    <glyph glyph-name="ldot" unicode="&#x140;" horiz-adv-x="352" 
d="M180 -14q-97 43 -97 159v608l98 14v-607q0 -39 11.5 -60t40.5 -38zM285 346q-24 0 -41 16.5t-17 40.5t17 41t41 17q25 0 42 -16.5t17 -41.5q0 -24 -17.5 -40.5t-41.5 -16.5z" />
    <glyph glyph-name="Lslash" unicode="&#x141;" horiz-adv-x="513" 
d="M88 0v217l-67 -60v89l67 59v403h102v-327l201 177v-88l-201 -178v-203h311l-15 -89h-398z" />
    <glyph glyph-name="lslash" unicode="&#x142;" horiz-adv-x="267" 
d="M250 453l-69 -65v-228q0 -39 11.5 -60t40.5 -38l-53 -76q-97 43 -97 159v165l-62 -60v90l62 60v353l98 14v-290l69 65v-89z" />
    <glyph glyph-name="Nacute" unicode="&#x143;" horiz-adv-x="781" 
d="M88 0v708h119l386 -563h3l-2 563h99v-708h-119l-386 565h-3l2 -565h-99zM340 764l103 144h104l-131 -144h-76z" />
    <glyph glyph-name="nacute" unicode="&#x144;" horiz-adv-x="595" 
d="M83 0v376q0 55 -5 103h94q5 -60 5 -89h2q19 46 63.5 74.5t98.5 28.5q90 0 133 -57t43 -142v-294h-97v271q0 61 -25 101.5t-83 40.5t-94.5 -44.5t-36.5 -117.5v-251h-98zM238 568l103 144h104l-131 -144h-76z" />
    <glyph glyph-name="Ncommaaccent" unicode="&#x145;" horiz-adv-x="781" 
d="M88 0v708h119l386 -563h3l-2 563h99v-708h-119l-386 565h-3l2 -565h-99zM286 -235l60 190h90l-75 -190h-75z" />
    <glyph glyph-name="ncommaaccent" unicode="&#x146;" horiz-adv-x="595" 
d="M83 0v376q0 55 -5 103h94q5 -60 5 -89h2q19 46 63.5 74.5t98.5 28.5q90 0 133 -57t43 -142v-294h-97v271q0 61 -25 101.5t-83 40.5t-94.5 -44.5t-36.5 -117.5v-251h-98zM199 -236l60 190h90l-75 -190h-75z" />
    <glyph glyph-name="Ncaron" unicode="&#x147;" horiz-adv-x="781" 
d="M88 0v708h119l386 -563h3l-2 563h99v-708h-119l-386 565h-3l2 -565h-99zM346 764l-114 144h81l80 -104l80 104h80l-114 -144h-93z" />
    <glyph glyph-name="ncaron" unicode="&#x148;" horiz-adv-x="595" 
d="M83 0v376q0 55 -5 103h94q5 -60 5 -89h2q19 46 63.5 74.5t98.5 28.5q90 0 133 -57t43 -142v-294h-97v271q0 61 -25 101.5t-83 40.5t-94.5 -44.5t-36.5 -117.5v-251h-98zM255 568l-114 144h81l80 -104l80 104h80l-114 -144h-93z" />
    <glyph glyph-name="napostrophe" unicode="&#x149;" horiz-adv-x="638" 
d="M126 0v376q0 55 -5 103h94q5 -60 5 -89h2q19 46 63.5 74.5t98.5 28.5q90 0 133 -57t43 -142v-294h-97v271q0 61 -25 101.5t-83 40.5t-94.5 -44.5t-36.5 -117.5v-251h-98zM13 526l60 190h89l-74 -190h-75z" />
    <glyph glyph-name="Eng" unicode="&#x14a;" horiz-adv-x="781" 
d="M88 708h119l386 -545h3l-2 545h99v-764q0 -88 -34 -136.5t-123 -48.5q-29 0 -53 7l8 81q18 -5 33 -5q42 0 56.5 26.5t14.5 76.5v46l-407 574h-3l2 -565h-99v708z" />
    <glyph glyph-name="eng" unicode="&#x14b;" horiz-adv-x="595" 
d="M360 -241q-28 0 -53 7l9 81q18 -5 32 -5q43 0 57.5 26.5t14.5 76.5v326q0 61 -25 101.5t-83 40.5t-94.5 -44.5t-36.5 -117.5v-251h-98v383q0 61 -4 96h94q4 -48 4 -89h2q19 46 64 74.5t99 28.5q90 0 132.5 -57t42.5 -142v-350q0 -88 -34 -136.5t-123 -48.5z" />
    <glyph glyph-name="Omacron" unicode="&#x14c;" horiz-adv-x="858" 
d="M429 -19q-162 0 -268.5 105t-106.5 269q0 165 106 268.5t269 103.5t269 -103.5t106 -268.5q0 -164 -106.5 -269t-268.5 -105zM429 73q118 0 192.5 81t74.5 201t-74.5 200.5t-192.5 80.5t-192.5 -80.5t-74.5 -200.5t74.5 -201t192.5 -81zM285 805v56h288v-56h-288z" />
    <glyph glyph-name="omacron" unicode="&#x14d;" horiz-adv-x="619" 
d="M309 -14q-111 0 -185 71t-74 184q0 112 74 182.5t185 70.5q112 0 185.5 -70t73.5 -183t-73.5 -184t-185.5 -71zM309 68q75 0 119.5 50.5t44.5 122.5t-44.5 122t-119.5 50t-119 -50t-44 -122t44.5 -122.5t118.5 -50.5zM164 608v57h288v-57h-288z" />
    <glyph glyph-name="Obreve" unicode="&#x14e;" horiz-adv-x="858" 
d="M429 -19q-162 0 -268.5 105t-106.5 269q0 165 106 268.5t269 103.5t269 -103.5t106 -268.5q0 -164 -106.5 -269t-268.5 -105zM429 73q118 0 192.5 81t74.5 201t-74.5 200.5t-192.5 80.5t-192.5 -80.5t-74.5 -200.5t74.5 -201t192.5 -81zM427 769q-63 0 -104 34t-47 101
h54q7 -39 33.5 -58t64.5 -19q83 0 99 77h53q-7 -67 -48 -101t-105 -34z" />
    <glyph glyph-name="obreve" unicode="&#x14f;" horiz-adv-x="619" 
d="M309 -14q-111 0 -185 71t-74 184q0 112 74 182.5t185 70.5q112 0 185.5 -70t73.5 -183t-73.5 -184t-185.5 -71zM309 68q75 0 119.5 50.5t44.5 122.5t-44.5 122t-119.5 50t-119 -50t-44 -122t44.5 -122.5t118.5 -50.5zM307 573q-63 0 -104 34t-47 101h54q7 -39 33.5 -58
t64.5 -19q83 0 99 77h53q-7 -67 -48 -101t-105 -34z" />
    <glyph glyph-name="Ohungarumlaut" unicode="&#x150;" horiz-adv-x="858" 
d="M429 -19q-162 0 -268.5 105t-106.5 269q0 165 106 268.5t269 103.5t269 -103.5t106 -268.5q0 -164 -106.5 -269t-268.5 -105zM429 73q118 0 192.5 81t74.5 201t-74.5 200.5t-192.5 80.5t-192.5 -80.5t-74.5 -200.5t74.5 -201t192.5 -81zM298 763l103 145h104l-131 -145
h-76zM474 763l103 145h104l-132 -145h-75z" />
    <glyph glyph-name="ohungarumlaut" unicode="&#x151;" horiz-adv-x="619" 
d="M309 -14q-111 0 -185 71t-74 184q0 112 74 182.5t185 70.5q112 0 185.5 -70t73.5 -183t-73.5 -184t-185.5 -71zM309 68q75 0 119.5 50.5t44.5 122.5t-44.5 122t-119.5 50t-119 -50t-44 -122t44.5 -122.5t118.5 -50.5zM183 569l103 145h104l-131 -145h-76zM359 569
l103 145h104l-132 -145h-75z" />
    <glyph glyph-name="OE" unicode="&#x152;" horiz-adv-x="1008" 
d="M450 0q-79 0 -148 21t-124.5 62.5t-88 111t-32.5 159.5q0 91 32.5 160.5t88 111t124.5 62t148 20.5h497l-15 -87h-318v-215h303l-14 -83h-289v-236h349l-15 -87h-498zM459 87h58v534h-56q-133 0 -215 -67t-82 -201q0 -130 82.5 -198t212.5 -68z" />
    <glyph glyph-name="oe" unicode="&#x153;" horiz-adv-x="990" 
d="M308 -14q-111 0 -184.5 71t-73.5 184t73 183t185 70q69 0 123.5 -32t81.5 -85q29 53 80.5 85t115.5 32q107 0 169.5 -69t62.5 -177q0 -21 -1 -31h-383q3 -65 49 -110t122 -45q96 0 170 51l14 -72q-77 -55 -197 -55q-69 0 -122 31.5t-80 84.5q-27 -54 -81 -85t-124 -31z
M558 281h292q-2 64 -39.5 103.5t-102.5 39.5t-106 -45.5t-44 -97.5zM309 68q75 0 119.5 50t44.5 123q0 72 -44.5 122t-119.5 50t-119.5 -50t-44.5 -122q0 -73 44.5 -123t119.5 -50z" />
    <glyph glyph-name="Racute" unicode="&#x154;" horiz-adv-x="628" 
d="M88 0v708h216q50 0 92 -10t78.5 -31.5t57 -62t20.5 -96.5q0 -75 -45 -129t-110 -71l199 -308h-119l-179 293h-110v-293h-100zM188 370h105q69 0 114 35t45 101q0 63 -45.5 91t-114.5 28h-104v-255zM227 765l103 144h104l-131 -144h-76z" />
    <glyph glyph-name="racute" unicode="&#x155;" horiz-adv-x="362" 
d="M83 0v361q0 78 -5 118h93q6 -36 6 -91h2q17 49 52.5 77t75.5 28q31 0 52 -7l-15 -85q-19 7 -42 7q-58 0 -90 -50t-32 -117v-241h-97zM115 568l103 144h104l-131 -144h-76z" />
    <glyph glyph-name="Rcommaaccent" unicode="&#x156;" horiz-adv-x="628" 
d="M88 0v708h216q50 0 92 -10t78.5 -31.5t57 -62t20.5 -96.5q0 -75 -45 -129t-110 -71l199 -308h-119l-179 293h-110v-293h-100zM188 370h105q69 0 114 35t45 101q0 63 -45.5 91t-114.5 28h-104v-255zM215 -235l60 190h90l-75 -190h-75z" />
    <glyph glyph-name="rcommaaccent" unicode="&#x157;" horiz-adv-x="362" 
d="M83 0v361q0 78 -5 118h93q6 -36 6 -91h2q17 49 52.5 77t75.5 28q31 0 52 -7l-15 -85q-19 7 -42 7q-58 0 -90 -50t-32 -117v-241h-97zM37 -235l60 190h90l-75 -190h-75z" />
    <glyph glyph-name="Rcaron" unicode="&#x158;" horiz-adv-x="628" 
d="M88 0v708h216q50 0 92 -10t78.5 -31.5t57 -62t20.5 -96.5q0 -75 -45 -129t-110 -71l199 -308h-119l-179 293h-110v-293h-100zM188 370h105q69 0 114 35t45 101q0 63 -45.5 91t-114.5 28h-104v-255zM253 762l-114 144h81l80 -104l80 104h80l-114 -144h-93z" />
    <glyph glyph-name="rcaron" unicode="&#x159;" horiz-adv-x="362" 
d="M83 0v361q0 78 -5 118h93q6 -36 6 -91h2q17 49 52.5 77t75.5 28q31 0 52 -7l-15 -85q-19 7 -42 7q-58 0 -90 -50t-32 -117v-241h-97zM168 568l-114 144h81l80 -104l80 104h80l-114 -144h-93z" />
    <glyph glyph-name="Sacute" unicode="&#x15a;" horiz-adv-x="579" 
d="M286 -19q-63 0 -125 20t-104 52l19 93q43 -37 97.5 -58t106.5 -21q60 0 101 30t41 87q0 29 -11 50t-38.5 37.5t-48.5 25t-66 23.5q-43 15 -71.5 28t-59 36t-46 57.5t-15.5 80.5q0 67 36.5 115t90 69t115.5 21q56 0 111 -16.5t92 -41.5l-30 -85q-31 24 -78.5 41t-92.5 17
q-57 0 -100 -29t-43 -85q0 -23 8.5 -41t19 -29.5t33 -23.5t38 -18t46.5 -16l61 -21.5t55 -26t51 -37t31 -50t14 -69.5q0 -102 -70.5 -158.5t-167.5 -56.5zM238 764l103 144h104l-131 -144h-76z" />
    <glyph glyph-name="sacute" unicode="&#x15b;" horiz-adv-x="447" 
d="M225 -14q-110 0 -179 50l14 78q72 -55 156 -55q40 0 67.5 18t27.5 53q0 30 -27 48t-91 37q-66 19 -102 49.5t-36 87.5q0 68 52.5 105t119.5 37q98 0 163 -51l-37 -66q-59 45 -120 45q-37 0 -62 -16.5t-25 -48.5q0 -30 23.5 -45.5t84.5 -33.5q73 -22 111.5 -54.5
t38.5 -89.5q0 -72 -53.5 -110t-125.5 -38zM169 568l103 144h104l-131 -144h-76z" />
    <glyph glyph-name="Scircumflex" unicode="&#x15c;" horiz-adv-x="579" 
d="M286 -19q-63 0 -125 20t-104 52l19 93q43 -37 97.5 -58t106.5 -21q60 0 101 30t41 87q0 29 -11 50t-38.5 37.5t-48.5 25t-66 23.5q-43 15 -71.5 28t-59 36t-46 57.5t-15.5 80.5q0 67 36.5 115t90 69t115.5 21q56 0 111 -16.5t92 -41.5l-30 -85q-31 24 -78.5 41t-92.5 17
q-57 0 -100 -29t-43 -85q0 -23 8.5 -41t19 -29.5t33 -23.5t38 -18t46.5 -16l61 -21.5t55 -26t51 -37t31 -50t14 -69.5q0 -102 -70.5 -158.5t-167.5 -56.5zM149 764l114 144h94l113 -144h-81l-80 104l-80 -104h-80z" />
    <glyph glyph-name="scircumflex" unicode="&#x15d;" horiz-adv-x="447" 
d="M225 -14q-110 0 -179 50l14 78q72 -55 156 -55q40 0 67.5 18t27.5 53q0 30 -27 48t-91 37q-66 19 -102 49.5t-36 87.5q0 68 52.5 105t119.5 37q98 0 163 -51l-37 -66q-59 45 -120 45q-37 0 -62 -16.5t-25 -48.5q0 -30 23.5 -45.5t84.5 -33.5q73 -22 111.5 -54.5
t38.5 -89.5q0 -72 -53.5 -110t-125.5 -38zM71 568l114 144h94l113 -144h-81l-80 104l-80 -104h-80z" />
    <glyph glyph-name="Scedilla" unicode="&#x15e;" horiz-adv-x="579" 
d="M524 196q0 -94 -60.5 -149t-147.5 -64l-39 -55q16 4 34 4q39 0 66 -17.5t27 -58.5q0 -47 -39.5 -68t-90.5 -21q-57 0 -104 22l17 41q37 -18 83 -18q67 0 67 45q0 38 -57 38q-32 0 -51 -9l-22 19l54 77q-121 8 -204 71l19 93q43 -37 97.5 -58t106.5 -21q60 0 101 30t41 87
q0 29 -11 50t-38.5 37.5t-48.5 25t-66 23.5q-43 15 -71.5 28t-59 36t-46 57.5t-15.5 80.5q0 67 36.5 115t90 69t115.5 21q56 0 111 -16.5t92 -41.5l-30 -85q-31 24 -78.5 41t-92.5 17q-57 0 -100 -29t-43 -85q0 -23 8.5 -41t19 -29.5t33 -23.5t38 -18t46.5 -16l61 -21.5
t55 -26t51 -37t31 -50t14 -69.5z" />
    <glyph glyph-name="scedilla" unicode="&#x15f;" horiz-adv-x="447" 
d="M404 134q0 -65 -43.5 -102t-107.5 -44l-42 -60q16 4 34 4q39 0 66 -17.5t27 -58.5q0 -47 -39.5 -68t-90.5 -21q-57 0 -104 22l17 41q37 -18 83 -18q67 0 67 45q0 38 -57 38q-32 0 -51 -9l-22 19l58 82q-98 8 -153 49l14 78q72 -55 156 -55q40 0 67.5 18t27.5 53
q0 30 -27 48t-91 37q-66 19 -102 49.5t-36 87.5q0 68 52.5 105t119.5 37q98 0 163 -51l-37 -66q-59 45 -120 45q-37 0 -62 -16.5t-25 -48.5q0 -30 23.5 -45.5t84.5 -33.5q73 -22 111.5 -54.5t38.5 -89.5z" />
    <glyph glyph-name="Scaron" unicode="&#x160;" horiz-adv-x="579" 
d="M286 -19q-63 0 -125 20t-104 52l19 93q43 -37 97.5 -58t106.5 -21q60 0 101 30t41 87q0 29 -11 50t-38.5 37.5t-48.5 25t-66 23.5q-43 15 -71.5 28t-59 36t-46 57.5t-15.5 80.5q0 67 36.5 115t90 69t115.5 21q56 0 111 -16.5t92 -41.5l-30 -85q-31 24 -78.5 41t-92.5 17
q-57 0 -100 -29t-43 -85q0 -23 8.5 -41t19 -29.5t33 -23.5t38 -18t46.5 -16l61 -21.5t55 -26t51 -37t31 -50t14 -69.5q0 -102 -70.5 -158.5t-167.5 -56.5zM262 764l-114 144h81l80 -104l80 104h80l-114 -144h-93z" />
    <glyph glyph-name="scaron" unicode="&#x161;" horiz-adv-x="447" 
d="M225 -14q-110 0 -179 50l14 78q72 -55 156 -55q40 0 67.5 18t27.5 53q0 30 -27 48t-91 37q-66 19 -102 49.5t-36 87.5q0 68 52.5 105t119.5 37q98 0 163 -51l-37 -66q-59 45 -120 45q-37 0 -62 -16.5t-25 -48.5q0 -30 23.5 -45.5t84.5 -33.5q73 -22 111.5 -54.5
t38.5 -89.5q0 -72 -53.5 -110t-125.5 -38zM184 568l-114 144h81l80 -104l80 104h80l-114 -144h-93z" />
    <glyph glyph-name="uni0162" unicode="&#x162;" horiz-adv-x="543" 
d="M221 0v621h-220l15 87h527l-15 -87h-206v-621h-101zM175 -235l60 190h90l-75 -190h-75z" />
    <glyph glyph-name="uni0163" unicode="&#x163;" horiz-adv-x="342" 
d="M216 -11q-62 0 -94.5 37.5t-32.5 105.5v273h-86l15 74h70v108l96 25v-133h133l-15 -74h-118v-260q0 -79 64 -79q33 0 71 19l12 -70q-54 -26 -115 -26zM105 -235l60 190h90l-75 -190h-75z" />
    <glyph glyph-name="Tcaron" unicode="&#x164;" horiz-adv-x="543" 
d="M221 0v621h-220l15 87h527l-15 -87h-206v-621h-101zM236 764l-114 144h81l80 -104l80 104h80l-114 -144h-93z" />
    <glyph glyph-name="tcaron" unicode="&#x165;" horiz-adv-x="372" 
d="M216 -11q-62 0 -94.5 37.5t-32.5 105.5v273h-86l15 74h70v108l96 25v-133h133l-15 -74h-118v-260q0 -79 64 -79q33 0 71 19l12 -70q-54 -26 -115 -26zM248 541l60 190h90l-75 -190h-75z" />
    <glyph glyph-name="Tbar" unicode="&#x166;" horiz-adv-x="543" 
d="M221 0v455h-152v57h152v109h-220l15 87h527l-15 -87h-206v-109h153v-57h-153v-455h-101z" />
    <glyph glyph-name="tbar" unicode="&#x167;" horiz-adv-x="347" 
d="M221 -11q-62 0 -94.5 37.5t-32.5 105.5v107h-67v57h67v109h-86l15 74h70v108l96 25v-133h133l-15 -74h-118v-109h114v-57h-114v-94q0 -79 64 -79q33 0 71 19l12 -70q-54 -26 -115 -26z" />
    <glyph glyph-name="Utilde" unicode="&#x168;" horiz-adv-x="731" 
d="M365 -19q-140 0 -212 80t-72 206v441h101v-432q0 -39 8.5 -72.5t28 -64.5t57 -49t90.5 -18q52 0 89.5 18t57 48.5t28.5 64.5t9 73v432h101v-441q0 -126 -73 -206t-213 -80zM436 780q-33 0 -73 22q-38 22 -62 22q-33 0 -43 -46h-47q6 47 28 76t61 29q32 0 73 -22t63 -22
q33 0 43 45h47q-14 -104 -90 -104z" />
    <glyph glyph-name="utilde" unicode="&#x169;" horiz-adv-x="594" 
d="M251 -13q-90 0 -132.5 57t-42.5 142v293h98v-270q0 -142 107 -142q58 0 95 45.5t37 120.5v246h97v-377q0 -51 7 -102l-94 -1q-6 32 -8 90q-20 -46 -65.5 -74t-98.5 -28zM137 582q6 47 28 76t61 29q32 0 73 -22q41 -23 63 -23q33 0 43 46h47q-14 -105 -90 -105
q-32 0 -73 23q-38 22 -62 22q-32 0 -43 -46h-47z" />
    <glyph glyph-name="Umacron" unicode="&#x16a;" horiz-adv-x="731" 
d="M365 -19q-140 0 -212 80t-72 206v441h101v-432q0 -39 8.5 -72.5t28 -64.5t57 -49t90.5 -18q52 0 89.5 18t57 48.5t28.5 64.5t9 73v432h101v-441q0 -126 -73 -206t-213 -80zM224 805v56h288v-56h-288z" />
    <glyph glyph-name="umacron" unicode="&#x16b;" horiz-adv-x="594" 
d="M251 -13q-90 0 -132.5 57t-42.5 142v293h98v-270q0 -142 107 -142q58 0 95 45.5t37 120.5v246h97v-377q0 -51 7 -102l-94 -1q-6 32 -8 90q-20 -46 -65.5 -74t-98.5 -28zM148 608v57h288v-57h-288z" />
    <glyph glyph-name="Ubreve" unicode="&#x16c;" horiz-adv-x="731" 
d="M365 -19q-140 0 -212 80t-72 206v441h101v-432q0 -39 8.5 -72.5t28 -64.5t57 -49t90.5 -18q52 0 89.5 18t57 48.5t28.5 64.5t9 73v432h101v-441q0 -126 -73 -206t-213 -80zM365 769q-63 0 -104 34t-47 101h54q7 -39 33.5 -58t64.5 -19q83 0 99 77h53q-7 -67 -48 -101
t-105 -34z" />
    <glyph glyph-name="ubreve" unicode="&#x16d;" horiz-adv-x="594" 
d="M251 -13q-90 0 -132.5 57t-42.5 142v293h98v-270q0 -142 107 -142q58 0 95 45.5t37 120.5v246h97v-377q0 -51 7 -102l-94 -1q-6 32 -8 90q-20 -46 -65.5 -74t-98.5 -28zM291 573q-63 0 -104 34t-47 101h54q7 -39 33.5 -58t64.5 -19q83 0 99 77h53q-7 -67 -48 -101
t-105 -34z" />
    <glyph glyph-name="Uring" unicode="&#x16e;" horiz-adv-x="731" 
d="M365 -19q-140 0 -212 80t-72 206v441h101v-432q0 -39 8.5 -72.5t28 -64.5t57 -49t90.5 -18q52 0 89.5 18t57 48.5t28.5 64.5t9 73v432h101v-441q0 -126 -73 -206t-213 -80zM369 752q-42 0 -72 29t-30 71q0 43 30 72.5t72 29.5t72.5 -29.5t30.5 -71.5q0 -43 -30 -72
t-73 -29zM369 788q28 0 47 18.5t19 46.5t-19 46.5t-47 18.5t-46.5 -19t-18.5 -47q0 -27 19 -45.5t46 -18.5z" />
    <glyph glyph-name="uring" unicode="&#x16f;" horiz-adv-x="594" 
d="M251 -13q-90 0 -132.5 57t-42.5 142v293h98v-270q0 -142 107 -142q58 0 95 45.5t37 120.5v246h97v-377q0 -51 7 -102l-94 -1q-6 32 -8 90q-20 -46 -65.5 -74t-98.5 -28zM293 556q-42 0 -72 29t-30 71q0 43 30 72t72 29t72.5 -29t30.5 -71q0 -43 -30 -72t-73 -29zM293 591
q28 0 47 19t19 47q0 27 -19 46t-47 19t-46.5 -19t-18.5 -47q0 -27 19 -46t46 -19z" />
    <glyph glyph-name="Uhungarumlaut" unicode="&#x170;" horiz-adv-x="731" 
d="M365 -19q-140 0 -212 80t-72 206v441h101v-432q0 -39 8.5 -72.5t28 -64.5t57 -49t90.5 -18q52 0 89.5 18t57 48.5t28.5 64.5t9 73v432h101v-441q0 -126 -73 -206t-213 -80zM237 763l103 145h104l-131 -145h-76zM413 763l103 145h104l-132 -145h-75z" />
    <glyph glyph-name="uhungarumlaut" unicode="&#x171;" horiz-adv-x="594" 
d="M251 -13q-90 0 -132.5 57t-42.5 142v293h98v-270q0 -142 107 -142q58 0 95 45.5t37 120.5v246h97v-377q0 -51 7 -102l-94 -1q-6 32 -8 90q-20 -46 -65.5 -74t-98.5 -28zM153 569l103 145h104l-131 -145h-76zM329 569l103 145h104l-132 -145h-75z" />
    <glyph glyph-name="Uogonek" unicode="&#x172;" horiz-adv-x="731" 
d="M550 708h101v-441q0 -109 -56.5 -186t-164.5 -95q-74 -69 -74 -113q0 -21 14 -34.5t35 -13.5q32 0 59 24l22 -42q-45 -36 -99 -36q-41 0 -70 22.5t-29 63.5q0 57 75 124q-139 1 -210.5 81t-71.5 205v441h101v-432q0 -39 8.5 -72.5t28 -64.5t57 -49t90.5 -18q52 0 89.5 18
t57 48.5t28.5 64.5t9 73v432z" />
    <glyph glyph-name="uogonek" unicode="&#x173;" horiz-adv-x="594" 
d="M519 -151l22 -42q-45 -36 -99 -36q-41 0 -70 22.5t-29 63.5q0 64 96 143l-16 -1q-6 32 -8 90q-20 -46 -65.5 -74t-98.5 -28q-90 0 -132.5 57t-42.5 142v293h98v-270q0 -142 107 -142q58 0 95 45.5t37 120.5v246h97v-377q0 -51 7 -102h-17q-89 -79 -89 -127
q0 -22 13.5 -35t35.5 -13q32 0 59 24z" />
    <glyph glyph-name="Wcircumflex" unicode="&#x174;" horiz-adv-x="992" 
d="M219 0l-206 708h108l155 -572h3l161 572h111l164 -572h2l157 572h105l-207 -708h-106l-170 575h-2l-168 -575h-107zM336 764l114 144h94l113 -144h-81l-80 104l-80 -104h-80z" />
    <glyph glyph-name="wcircumflex" unicode="&#x175;" horiz-adv-x="788" 
d="M171 0l-154 479h104l105 -370h2l117 370h100l118 -370h2l106 370h101l-156 -479h-101l-121 366h-2l-120 -366h-101zM235 568l114 144h94l113 -144h-81l-80 104l-80 -104h-80z" />
    <glyph glyph-name="Ycircumflex" unicode="&#x176;" horiz-adv-x="611" 
d="M253 0v304l-257 404h123l189 -316l189 316h118l-260 -404v-304h-102zM147 764l114 144h94l113 -144h-81l-80 104l-80 -104h-80z" />
    <glyph glyph-name="ycircumflex" unicode="&#x177;" horiz-adv-x="504" 
d="M55 -158q53 7 84.5 27.5t49.5 62.5l26 69l-204 478h108l146 -375l125 375h103l-210 -563q-28 -77 -75 -112.5t-123 -43.5zM99 568l114 144h94l113 -144h-81l-80 104l-80 -104h-80z" />
    <glyph glyph-name="Ydieresis" unicode="&#x178;" horiz-adv-x="611" 
d="M253 0v304l-257 404h123l189 -316l189 316h118l-260 -404v-304h-102zM213 796q-23 0 -39.5 16.5t-16.5 40.5q0 23 16.5 39.5t39.5 16.5t40 -16.5t17 -39.5q0 -24 -17 -40.5t-40 -16.5zM404 796q-24 0 -40.5 16.5t-16.5 40.5q0 23 16.5 39.5t40.5 16.5q23 0 39.5 -16.5
t16.5 -39.5q0 -24 -16.5 -40.5t-39.5 -16.5z" />
    <glyph glyph-name="Zacute" unicode="&#x179;" horiz-adv-x="610" 
d="M43 0v90l387 531h-367v87h490v-86l-390 -534h424l-15 -88h-529zM258 764l103 144h104l-131 -144h-76z" />
    <glyph glyph-name="zacute" unicode="&#x17a;" horiz-adv-x="474" 
d="M39 0v76l268 327h-266l15 76h368v-74l-270 -328h289l-14 -77h-390zM175 568l103 144h104l-131 -144h-76z" />
    <glyph glyph-name="Zdotaccent" unicode="&#x17b;" horiz-adv-x="610" 
d="M43 0v90l387 531h-367v87h490v-86l-390 -534h424l-15 -88h-529zM313 795q-24 0 -41 16.5t-17 41.5q0 23 17 40t41 17q25 0 42 -16.5t17 -40.5q0 -25 -17.5 -41.5t-41.5 -16.5z" />
    <glyph glyph-name="zdotaccent" unicode="&#x17c;" horiz-adv-x="474" 
d="M39 0v76l268 327h-266l15 76h368v-74l-270 -328h289l-14 -77h-390zM240 599q-24 0 -41 16.5t-17 40.5t17 41t41 17q25 0 42 -16.5t17 -41.5q0 -24 -17.5 -40.5t-41.5 -16.5z" />
    <glyph glyph-name="Zcaron" unicode="&#x17d;" horiz-adv-x="610" 
d="M43 0v90l387 531h-367v87h490v-86l-390 -534h424l-15 -88h-529zM262 764l-114 144h81l80 -104l80 104h80l-114 -144h-93z" />
    <glyph glyph-name="zcaron" unicode="&#x17e;" horiz-adv-x="474" 
d="M39 0v76l268 327h-266l15 76h368v-74l-270 -328h289l-14 -77h-390zM194 568l-114 144h81l80 -104l80 104h80l-114 -144h-93z" />
    <glyph glyph-name="florin" unicode="&#x192;" horiz-adv-x="604" 
d="M104 -141q-52 0 -92 21l36 73q25 -14 50 -14q39 0 56.5 27t27.5 79l58 309h-117l15 69h115l23 123q7 37 17.5 65.5t29.5 55t50 40.5t73 14q62 0 105 -27l-38 -72q-28 17 -56 17q-70 0 -88 -99l-22 -117h130l-14 -69h-130l-63 -336q-15 -77 -54 -118t-112 -41z" />
    <glyph glyph-name="AEacute" unicode="&#x1fc;" horiz-adv-x="983" 
d="M7 0l438 708h477l-15 -87h-303v-215h287l-15 -83h-272v-236h334l-15 -87h-416v220h-245l-138 -220h-117zM305 303h202v318h-8zM579 764l103 144h104l-131 -144h-76z" />
    <glyph glyph-name="aeacute" unicode="&#x1fd;" horiz-adv-x="882" 
d="M224 -13q-70 0 -122.5 35.5t-52.5 106.5q0 46 24 77.5t68 47t90.5 21.5t106.5 6h36v23q0 116 -115 116q-74 0 -146 -58l-30 66q72 66 185 66q64 0 105 -27.5t56 -72.5q27 46 73 73t105 27q100 0 162.5 -67.5t62.5 -178.5q0 -21 -1 -31h-370q2 -64 45.5 -109.5
t117.5 -45.5q87 0 165 51l14 -73q-77 -54 -192 -54q-64 0 -114.5 31t-76.5 86q-19 -54 -68 -85t-128 -31zM461 282h280q-2 63 -37.5 102.5t-96.5 39.5q-64 0 -103.5 -45t-42.5 -97zM241 56q67 0 101 37t34 96v30h-35q-94 0 -147.5 -18t-53.5 -69q0 -40 30 -58t71 -18z
M399 568l103 144h104l-131 -144h-76z" />
    <glyph glyph-name="Oslashacute" unicode="&#x1fe;" horiz-adv-x="858" 
d="M424 -19q-140 0 -235 78l-79 -87l-43 38l79 87q-97 102 -97 258q0 165 106 268.5t269 103.5q130 0 227 -69l78 87l43 -38l-77 -86q105 -105 105 -266q0 -164 -106.5 -268.5t-269.5 -105.5zM215 172l371 415q-67 52 -162 52q-121 0 -196 -82t-75 -203q0 -111 62 -182z
M424 70q121 0 196 82t75 203q0 117 -68 191l-373 -417q69 -59 170 -59zM369 764l103 144h104l-131 -144h-76z" />
    <glyph glyph-name="oslashacute" unicode="&#x1ff;" horiz-adv-x="619" 
d="M76 -29l-38 37l69 69q-57 65 -57 164q0 112 73.5 183t185.5 71q94 0 161 -53l66 66l39 -37l-66 -66q59 -64 59 -164q0 -112 -73.5 -183.5t-185.5 -71.5q-99 0 -162 55zM172 143l237 238q-40 35 -101 35q-75 0 -120.5 -50t-45.5 -123q0 -61 30 -100zM309 65q75 0 120.5 51
t45.5 124q0 62 -33 103l-237 -239q41 -39 104 -39zM252 568l103 144h104l-131 -144h-76z" />
    <glyph glyph-name="Scommaaccent" unicode="&#x218;" horiz-adv-x="579" 
d="M286 -19q-63 0 -125 20t-104 52l19 93q43 -37 97.5 -58t106.5 -21q60 0 101 30t41 87q0 29 -11 50t-38.5 37.5t-48.5 25t-66 23.5q-43 15 -71.5 28t-59 36t-46 57.5t-15.5 80.5q0 67 36.5 115t90 69t115.5 21q56 0 111 -16.5t92 -41.5l-30 -85q-31 24 -78.5 41t-92.5 17
q-57 0 -100 -29t-43 -85q0 -23 8.5 -41t19 -29.5t33 -23.5t38 -18t46.5 -16l61 -21.5t55 -26t51 -37t31 -50t14 -69.5q0 -102 -70.5 -158.5t-167.5 -56.5zM191 -235l60 190h90l-75 -190h-75z" />
    <glyph glyph-name="scommaaccent" unicode="&#x219;" horiz-adv-x="447" 
d="M225 -14q-110 0 -179 50l14 78q72 -55 156 -55q40 0 67.5 18t27.5 53q0 30 -27 48t-91 37q-66 19 -102 49.5t-36 87.5q0 68 52.5 105t119.5 37q98 0 163 -51l-37 -66q-59 45 -120 45q-37 0 -62 -16.5t-25 -48.5q0 -30 23.5 -45.5t84.5 -33.5q73 -22 111.5 -54.5
t38.5 -89.5q0 -72 -53.5 -110t-125.5 -38zM122 -235l60 190h90l-75 -190h-75z" />
    <glyph glyph-name="uni021A" unicode="&#x21a;" horiz-adv-x="543" 
d="M221 0v621h-220l15 87h527l-15 -87h-206v-621h-101zM173 -235l60 190h90l-75 -190h-75z" />
    <glyph glyph-name="uni021B" unicode="&#x21b;" horiz-adv-x="347" 
d="M216 -11q-62 0 -94.5 37.5t-32.5 105.5v273h-86l15 74h70v108l96 25v-133h133l-15 -74h-118v-260q0 -79 64 -79q33 0 71 19l12 -70q-54 -26 -115 -26zM105 -235l60 190h90l-75 -190h-75z" />
    <glyph glyph-name="uni0237" unicode="&#x237;" horiz-adv-x="265" 
d="M25 -241q-28 0 -53 7l8 81q18 -5 33 -5q43 0 57.5 26.5t14.5 76.5v534h97v-535q0 -88 -34 -136.5t-123 -48.5z" />
    <glyph glyph-name="circumflex" unicode="&#x2c6;" horiz-adv-x="269" 
d="M-26 568l114 144h94l113 -144h-81l-80 104l-80 -104h-80z" />
    <glyph glyph-name="caron" unicode="&#x2c7;" horiz-adv-x="269" 
d="M88 568l-114 144h81l80 -104l80 104h80l-114 -144h-93z" />
    <glyph glyph-name="uni02C9" unicode="&#x2c9;" horiz-adv-x="269" 
d="M-10 804v57h288v-57h-288z" />
    <glyph glyph-name="breve" unicode="&#x2d8;" horiz-adv-x="269" 
d="M133 573q-63 0 -104 34t-47 101h54q7 -39 33.5 -58t64.5 -19q83 0 99 77h53q-7 -67 -48 -101t-105 -34z" />
    <glyph glyph-name="dotaccent" unicode="&#x2d9;" horiz-adv-x="269" 
d="M134 599q-24 0 -41 16.5t-17 40.5t17 41t41 17q25 0 42 -16.5t17 -41.5q0 -24 -17.5 -40.5t-41.5 -16.5z" />
    <glyph glyph-name="ring" unicode="&#x2da;" horiz-adv-x="269" 
d="M134 556q-42 0 -72 29t-30 71q0 43 30 72t72 29t72.5 -29t30.5 -71q0 -43 -30 -72t-73 -29zM134 591q28 0 47 19t19 47q0 27 -19 46t-47 19t-46.5 -19t-18.5 -47q0 -27 19 -46t46 -19z" />
    <glyph glyph-name="ogonek" unicode="&#x2db;" horiz-adv-x="269" 
d="M124 -229q-41 0 -70 22.5t-29 63.5q0 65 99 145h60q-46 -41 -69 -71t-23 -58q0 -22 14 -35t36 -13q32 0 59 24l22 -42q-45 -36 -99 -36z" />
    <glyph glyph-name="tilde" unicode="&#x2dc;" horiz-adv-x="269" 
d="M-23 582q6 47 28 76t61 29q32 0 73 -22q41 -23 63 -23q33 0 43 46h47q-14 -105 -90 -105q-32 0 -73 23q-38 22 -62 22q-32 0 -43 -46h-47z" />
    <glyph glyph-name="hungarumlaut" unicode="&#x2dd;" horiz-adv-x="269" 
d="M-12 569l103 145h104l-131 -145h-76zM164 569l103 145h104l-132 -145h-75z" />
    <glyph glyph-name="uni0326" unicode="&#x326;" horiz-adv-x="0" 
d="M-223 -235l60 190h90l-75 -190h-75z" />
    <glyph glyph-name="uni0374" unicode="&#x374;" horiz-adv-x="228" 
d="M146 544h-71l48 189h107z" />
    <glyph glyph-name="uni0375" unicode="&#x375;" horiz-adv-x="228" 
d="M160 22h70l-48 -188h-107z" />
    <glyph glyph-name="uni0394" unicode="&#x394;" horiz-adv-x="669" 
d="M378 711l245 -653v-58h-613v59l246 652h122zM514 82l-165 451q-26 68 -33 98q-14 -50 -31 -94l-167 -455h396z" />
    <glyph glyph-name="uni03A9" unicode="&#x3a9;" horiz-adv-x="764" 
d="M391 637q-98 0 -161 -67t-63 -183q0 -107 40.5 -174.5t123.5 -121.5v-91h-298v83h205q-85 48 -132.5 128t-47.5 187q0 146 92 234t241 88q151 0 242 -86t91 -236q0 -214 -181 -315h207v-83h-300v91q86 51 125.5 120t39.5 177q0 118 -62.5 183.5t-161.5 65.5z" />
    <glyph glyph-name="uni03BC" unicode="&#x3bc;" horiz-adv-x="624" 
d="M545 479v-479h-79l-14 84h-5q-40 -94 -144 -94q-90 0 -123 62h-2q3 -40 3 -102v-190h-102v719h102v-266q0 -137 123 -137q74 0 106 47.5t32 138.5v217h103z" />
    <glyph glyph-name="pi" unicode="&#x3c0;" horiz-adv-x="685" 
d="M592 67q30 0 57 11v-68q-40 -20 -93 -20q-122 0 -122 140v272h-202v-402h-103v402h-117v48l91 29h550v-77h-116v-266q0 -69 55 -69z" />
    <glyph glyph-name="Wgrave" unicode="&#x1e80;" horiz-adv-x="992" 
d="M219 0l-206 708h108l155 -572h3l161 572h111l164 -572h2l157 572h105l-207 -708h-106l-170 575h-2l-168 -575h-107zM466 764l-131 144h104l103 -144h-76z" />
    <glyph glyph-name="wgrave" unicode="&#x1e81;" horiz-adv-x="788" 
d="M171 0l-154 479h104l105 -370h2l117 370h100l118 -370h2l106 370h101l-156 -479h-101l-121 366h-2l-120 -366h-101zM360 568l-131 144h104l103 -144h-76z" />
    <glyph glyph-name="Wacute" unicode="&#x1e82;" horiz-adv-x="992" 
d="M219 0l-206 708h108l155 -572h3l161 572h111l164 -572h2l157 572h105l-207 -708h-106l-170 575h-2l-168 -575h-107zM450 764l103 144h104l-131 -144h-76z" />
    <glyph glyph-name="wacute" unicode="&#x1e83;" horiz-adv-x="788" 
d="M171 0l-154 479h104l105 -370h2l117 370h100l118 -370h2l106 370h101l-156 -479h-101l-121 366h-2l-120 -366h-101zM354 568l103 144h104l-131 -144h-76z" />
    <glyph glyph-name="Wdieresis" unicode="&#x1e84;" horiz-adv-x="992" 
d="M219 0l-206 708h108l155 -572h3l161 572h111l164 -572h2l157 572h105l-207 -708h-106l-170 575h-2l-168 -575h-107zM400 796q-23 0 -39.5 16.5t-16.5 40.5q0 23 16.5 39.5t39.5 16.5t40 -16.5t17 -39.5q0 -24 -17 -40.5t-40 -16.5zM591 796q-24 0 -40.5 16.5t-16.5 40.5
q0 23 16.5 39.5t40.5 16.5q23 0 39.5 -16.5t16.5 -39.5q0 -24 -16.5 -40.5t-39.5 -16.5z" />
    <glyph glyph-name="wdieresis" unicode="&#x1e85;" horiz-adv-x="788" 
d="M171 0l-154 479h104l105 -370h2l117 370h100l118 -370h2l106 370h101l-156 -479h-101l-121 366h-2l-120 -366h-101zM298 600q-23 0 -39.5 16.5t-16.5 39.5t16.5 39.5t39.5 16.5t40 -16.5t17 -39.5t-17 -39.5t-40 -16.5zM489 600q-24 0 -40.5 16.5t-16.5 39.5t17 39.5
t40 16.5t39.5 -16.5t16.5 -39.5t-16.5 -39.5t-39.5 -16.5z" />
    <glyph glyph-name="Ygrave" unicode="&#x1ef2;" horiz-adv-x="611" 
d="M253 0v304l-257 404h123l189 -316l189 316h118l-260 -404v-304h-102zM280 764l-131 144h104l103 -144h-76z" />
    <glyph glyph-name="ygrave" unicode="&#x1ef3;" horiz-adv-x="504" 
d="M55 -158q53 7 84.5 27.5t49.5 62.5l26 69l-204 478h108l146 -375l125 375h103l-210 -563q-28 -77 -75 -112.5t-123 -43.5zM227 568l-131 144h104l103 -144h-76z" />
    <glyph glyph-name="uni2010" unicode="&#x2010;" horiz-adv-x="316" 
d="M46 217v78h223v-78h-223z" />
    <glyph glyph-name="endash" unicode="&#x2013;" horiz-adv-x="400" 
d="M30 223v65h340v-65h-340z" />
    <glyph glyph-name="emdash" unicode="&#x2014;" horiz-adv-x="600" 
d="M30 223v65h540v-65h-540z" />
    <glyph glyph-name="uni2015" unicode="&#x2015;" horiz-adv-x="600" 
d="M30 223v65h540v-65h-540z" />
    <glyph glyph-name="quoteleft" unicode="&#x2018;" horiz-adv-x="274" 
d="M123 562q23 -4 38.5 -21.5t15.5 -41.5q0 -27 -19 -46t-46 -19t-46 20.5t-19 53.5q0 115 124 200l33 -27q-65 -51 -81 -119z" />
    <glyph glyph-name="quoteright" unicode="&#x2019;" horiz-adv-x="274" 
d="M80 434l-33 27q65 51 81 119q-24 4 -39.5 21.5t-15.5 41.5q0 27 19.5 46t46.5 19t46 -20.5t19 -53.5q0 -113 -124 -200z" />
    <glyph glyph-name="quotesinglbase" unicode="&#x201a;" horiz-adv-x="272" 
d="M201 61q0 -58 -33.5 -109t-89.5 -89l-33 27q64 52 80 119q-23 4 -38.5 21.5t-15.5 41.5q0 27 19 46t46 19q28 0 46.5 -21t18.5 -55z" />
    <glyph glyph-name="quotedblleft" unicode="&#x201c;" horiz-adv-x="473" 
d="M121 562q23 -4 38.5 -21.5t15.5 -41.5q0 -27 -19 -46t-46 -19q-28 0 -46.5 20t-18.5 54q0 115 123 200l33 -27q-64 -52 -80 -119zM322 562q23 -4 38.5 -21.5t15.5 -41.5q0 -27 -19 -46t-46 -19t-46 20.5t-19 53.5q0 115 124 200l33 -27q-65 -51 -81 -119z" />
    <glyph glyph-name="quotedblright" unicode="&#x201d;" horiz-adv-x="476" 
d="M139 708q27 0 46 -20.5t19 -53.5q0 -113 -124 -200l-33 27q65 51 81 119q-24 4 -39.5 21.5t-15.5 41.5q0 27 19.5 46t46.5 19zM340 708q27 0 46 -20.5t19 -53.5q0 -113 -123 -200l-34 27q65 51 81 119q-23 4 -38.5 21.5t-15.5 41.5q0 27 19 46t46 19z" />
    <glyph glyph-name="quotedblbase" unicode="&#x201e;" horiz-adv-x="473" 
d="M78 -137l-33 27q64 52 80 119q-23 4 -38.5 21.5t-15.5 41.5q0 27 19 46t46 19q28 0 46.5 -20t18.5 -54q0 -115 -123 -200zM279 -137l-33 27q65 51 81 119q-24 4 -39.5 21.5t-15.5 41.5q0 27 19.5 46t46.5 19t46 -20.5t19 -53.5q0 -115 -124 -200z" />
    <glyph glyph-name="dagger" unicode="&#x2020;" horiz-adv-x="565" 
d="M239 -127v555h-195v76h195v204h87v-204h195v-76h-195v-555h-87z" />
    <glyph glyph-name="daggerdbl" unicode="&#x2021;" horiz-adv-x="565" 
d="M240 -127v191h-192v76h192v301h-192v76h191v191h87v-191h192v-76h-192v-301h192v-76h-192v-191h-86z" />
    <glyph glyph-name="bullet" unicode="&#x2022;" horiz-adv-x="500" 
d="M250 177q-74 0 -125.5 51.5t-51.5 125.5t51.5 125.5t125.5 51.5t125.5 -51.5t51.5 -125.5t-51.5 -125.5t-125.5 -51.5z" />
    <glyph glyph-name="ellipsis" unicode="&#x2026;" horiz-adv-x="1000" 
d="M166 -8q-27 0 -46 19t-19 46q0 26 19.5 45.5t45.5 19.5q27 0 46 -19t19 -46q0 -28 -19 -46.5t-46 -18.5zM501 -8q-27 0 -46.5 19t-19.5 46t19.5 46t46.5 19q26 0 45 -19t19 -46t-19 -46t-45 -19zM834 -8q-27 0 -46.5 19t-19.5 46t19 46t47 19q26 0 45.5 -19t19.5 -46
t-19 -46t-46 -19z" />
    <glyph glyph-name="perthousand" unicode="&#x2030;" horiz-adv-x="1117" 
d="M188 -29l-56 27l417 740l56 -27zM199 393q-68 0 -115.5 47.5t-47.5 115.5t47.5 115.5t115.5 47.5q67 0 115 -47.5t48 -115.5t-48 -115.5t-115 -47.5zM199 459q40 0 68 28t28 69t-28 69.5t-68 28.5t-68 -28.5t-28 -69.5t27.5 -69t68.5 -28zM550 -9q-68 0 -115.5 47.5
t-47.5 114.5q0 69 47.5 116.5t115.5 47.5t116 -47.5t48 -116.5q0 -67 -48 -114.5t-116 -47.5zM920 -9q-67 0 -115 47.5t-48 114.5q0 69 48 116.5t115 47.5q68 0 116 -47.5t48 -116.5q0 -67 -48 -114.5t-116 -47.5zM550 56q40 0 68 28t28 69q0 42 -28 70t-68 28
q-41 0 -68 -28t-27 -70q0 -41 27.5 -69t67.5 -28zM920 56q41 0 68.5 28t27.5 69q0 42 -27.5 70t-68.5 28q-40 0 -67.5 -28t-27.5 -70q0 -41 27.5 -69t67.5 -28z" />
    <glyph glyph-name="guilsinglleft" unicode="&#x2039;" horiz-adv-x="316" 
d="M195 30l-144 216l143 215l60 -40l-114 -175l115 -176z" />
    <glyph glyph-name="guilsinglright" unicode="&#x203a;" horiz-adv-x="316" 
d="M122 30l-60 40l115 175l-116 176l61 40l143 -216z" />
    <glyph glyph-name="uni203D" unicode="&#x203d;" horiz-adv-x="509" 
d="M253 725q88 0 147.5 -47t59.5 -132q0 -32 -6.5 -57t-23 -48t-29.5 -36.5t-40 -38.5q-44 -40 -57.5 -66t-13.5 -72v-17h-93v318h81l-2 -125q33 33 46 47.5t25 38.5t12 51q0 45 -32.5 72t-83.5 27q-89 0 -161 -78l-46 73q86 90 217 90zM246 118q26 0 44.5 -18.5t18.5 -44.5
t-18 -44.5t-45 -18.5q-26 0 -45 18.5t-19 44.5t19 44.5t45 18.5z" />
    <glyph glyph-name="fraction" unicode="&#x2044;" horiz-adv-x="100" 
d="M-140 -29l-56 27l417 740l56 -27z" />
    <glyph glyph-name="zero.superior" unicode="&#x2070;" 
d="M347 663q0 -95 -36 -159t-117 -64q-57 0 -93 34t-49 81.5t-13 107.5q0 44 7.5 82t24.5 70.5t48.5 51.5t74.5 19q42 0 73 -19t48 -51.5t24.5 -70.5t7.5 -82zM274 663q0 27 -3 52t-11 51.5t-25 42t-41 15.5q-32 0 -51.5 -29t-24.5 -61.5t-5 -70.5q0 -28 3 -52.5t11 -51
t25.5 -42t41.5 -15.5t41 15.5t25 42t11 51.5t3 52z" />
    <glyph glyph-name="four.superior" unicode="&#x2074;" 
d="M227 449v94h-196v61l178 273h85v-274h66l-15 -60h-51v-94h-67zM227 796h-2l-124 -193h126v193z" />
    <glyph glyph-name="five.superior" unicode="&#x2075;" 
d="M340 587q0 -69 -44 -108t-107 -39q-97 0 -146 49l18 64q50 -52 122 -52q38 0 62 22t24 61t-25 61.5t-69 22.5q-47 0 -98 -22l6 231h240l-10 -63h-168l-3 -97q26 8 53 8q64 0 104.5 -38t40.5 -100z" />
    <glyph glyph-name="six.superior" unicode="&#x2076;" 
d="M200 440q-69 0 -113.5 48.5t-44.5 139.5q0 116 51.5 184t145.5 68q47 0 79 -15l-15 -55q-36 13 -65 13q-52 0 -85.5 -41t-37.5 -114h2q32 41 94 41q56 0 93.5 -37t37.5 -94q0 -63 -39 -100.5t-103 -37.5zM195 496q36 0 57 22.5t21 58.5q0 34 -22.5 57.5t-55.5 23.5
q-35 0 -59 -21.5t-24 -53.5q0 -34 23 -60.5t60 -26.5z" />
    <glyph glyph-name="seven.superior" unicode="&#x2077;" 
d="M86 449l172 365h-210l15 63h273v-56l-167 -372h-83z" />
    <glyph glyph-name="eight.superior" unicode="&#x2078;" 
d="M341 569q0 -60 -42.5 -94.5t-104.5 -34.5q-63 0 -105.5 34.5t-42.5 94.5q0 36 20 64.5t54 41.5v2q-61 27 -61 92q0 53 39 85t96 32q56 0 95 -31.5t39 -84.5q0 -66 -60 -93v-2q34 -13 53.5 -42t19.5 -64zM194 828q-28 0 -46.5 -17.5t-18.5 -44.5t18.5 -45.5t46.5 -18.5
q27 0 45.5 19t18.5 45q0 27 -18.5 44.5t-45.5 17.5zM194 646q-33 0 -55.5 -21.5t-22.5 -52.5q0 -32 22 -52.5t56 -20.5t55.5 20.5t21.5 52.5q0 31 -22.5 52.5t-54.5 21.5z" />
    <glyph glyph-name="nine.superior" unicode="&#x2079;" 
d="M185 880q69 0 113.5 -49t44.5 -139q0 -116 -51.5 -184t-145.5 -68q-47 0 -79 15l15 55q36 -13 65 -13q53 0 86 41t37 114h-2q-32 -42 -94 -42q-56 0 -93.5 37t-37.5 95q0 63 39 100.5t103 37.5zM190 824q-36 0 -57 -22.5t-21 -58.5q0 -34 22.5 -57.5t55.5 -23.5
q35 0 59 21.5t24 53.5q0 34 -23 60.5t-60 26.5z" />
    <glyph glyph-name="uni207A" unicode="&#x207a;" 
d="M171 352v129h-129v45h129v129h46v-129h128v-45h-128v-129h-46z" />
    <glyph glyph-name="uni207B" unicode="&#x207b;" 
d="M45 480v44h296v-44h-296z" />
    <glyph glyph-name="uni207C" unicode="&#x207c;" horiz-adv-x="388" 
d="M45 539v44h296v-44h-296zM45 436v44h296v-44h-296z" />
    <glyph glyph-name="uni207D" unicode="&#x207d;" horiz-adv-x="277" 
d="M113 496q0 -82 26.5 -165t72.5 -147l-52 -34q-111 154 -111 346q0 190 111 345l52 -34q-46 -64 -72.5 -147t-26.5 -164z" />
    <glyph glyph-name="uni207E" unicode="&#x207e;" horiz-adv-x="273" 
d="M212 505q0 -190 -110 -346l-52 34q46 65 72.5 148t26.5 164t-26.5 164t-72.5 147l52 35q110 -156 110 -346z" />
    <glyph glyph-name="zero.inferior" unicode="&#x2080;" 
d="M347 73q0 -95 -36 -159t-117 -64q-57 0 -93 34t-49 81.5t-13 107.5q0 44 7.5 82t24.5 70.5t48.5 51.5t74.5 19q42 0 73 -19t48 -51.5t24.5 -70.5t7.5 -82zM274 73q0 27 -3 52t-11 51.5t-25 42t-41 15.5q-32 0 -51.5 -29t-24.5 -61.5t-5 -70.5q0 -28 3 -52.5t11 -51
t25.5 -42t41.5 -15.5t41 15.5t25 42t11 51.5t3 52z" />
    <glyph glyph-name="one.inferior" unicode="&#x2081;" 
d="M178 -141v346l-90 -68l-26 61l123 89h67v-428h-74z" />
    <glyph glyph-name="two.inferior" unicode="&#x2082;" 
d="M35 -141v56l162 166q47 50 47 90q0 29 -19.5 45.5t-51.5 16.5q-53 0 -103 -54l-30 56q57 61 144 61q59 0 97 -31.5t38 -85.5q0 -40 -19 -72t-59 -72l-113 -113h207l-15 -63h-285z" />
    <glyph glyph-name="three.inferior" unicode="&#x2083;" 
d="M178 -150q-87 0 -139 43l20 61q17 -17 50 -30t64 -13q37 0 58.5 18.5t21.5 52.5q0 36 -28 53.5t-68 17.5h-27v55h28q38 0 60.5 18.5t22.5 50.5q0 28 -19 43.5t-49 15.5q-55 0 -97 -40l-26 53q52 47 129 47q59 0 96.5 -30t37.5 -84q0 -34 -19 -60t-51 -38q38 -9 60 -37
t22 -68q0 -62 -43.5 -95.5t-103.5 -33.5z" />
    <glyph glyph-name="four.inferior" unicode="&#x2084;" 
d="M227 -141v94h-196v61l178 273h85v-274h66l-15 -60h-51v-94h-67zM227 206h-2l-124 -193h126v193z" />
    <glyph glyph-name="five.inferior" unicode="&#x2085;" 
d="M340 -3q0 -69 -44 -108t-107 -39q-97 0 -146 49l18 64q50 -52 122 -52q38 0 62 22t24 61t-25 61.5t-69 22.5q-47 0 -98 -22l6 231h240l-10 -63h-168l-3 -97q26 8 53 8q64 0 104.5 -38t40.5 -100z" />
    <glyph glyph-name="six.inferior" unicode="&#x2086;" 
d="M200 -150q-69 0 -113.5 48.5t-44.5 139.5q0 116 51.5 184t145.5 68q47 0 79 -15l-15 -55q-36 13 -65 13q-52 0 -85.5 -41t-37.5 -114h2q32 41 94 41q56 0 93.5 -37t37.5 -94q0 -63 -39 -100.5t-103 -37.5zM195 -94q36 0 57 22.5t21 58.5q0 34 -22.5 57.5t-55.5 23.5
q-35 0 -59 -21.5t-24 -53.5q0 -34 23 -60.5t60 -26.5z" />
    <glyph glyph-name="seven.inferior" unicode="&#x2087;" 
d="M86 -141l172 365h-210l15 63h273v-56l-167 -372h-83z" />
    <glyph glyph-name="eight.inferior" unicode="&#x2088;" 
d="M341 -21q0 -60 -42.5 -94.5t-104.5 -34.5q-63 0 -105.5 34.5t-42.5 94.5q0 36 20 64.5t54 41.5v2q-61 27 -61 92q0 53 39 85t96 32q56 0 95 -31.5t39 -84.5q0 -66 -60 -93v-2q34 -13 53.5 -42t19.5 -64zM194 238q-28 0 -46.5 -17.5t-18.5 -44.5t18.5 -45.5t46.5 -18.5
q27 0 45.5 19t18.5 45q0 27 -18.5 44.5t-45.5 17.5zM194 56q-33 0 -55.5 -21.5t-22.5 -52.5q0 -32 22 -52.5t56 -20.5t55.5 20.5t21.5 52.5q0 31 -22.5 52.5t-54.5 21.5z" />
    <glyph glyph-name="nine.inferior" unicode="&#x2089;" 
d="M185 290q69 0 113.5 -49t44.5 -139q0 -116 -51.5 -184t-145.5 -68q-47 0 -79 15l15 55q36 -13 65 -13q53 0 86 41t37 114h-2q-32 -42 -94 -42q-56 0 -93.5 37t-37.5 95q0 63 39 100.5t103 37.5zM190 234q-36 0 -57 -22.5t-21 -58.5q0 -34 22.5 -57.5t55.5 -23.5
q35 0 59 21.5t24 53.5q0 34 -23 60.5t-60 26.5z" />
    <glyph glyph-name="uni208A" unicode="&#x208a;" 
d="M171 71v129h-129v45h129v129h46v-129h128v-45h-128v-129h-46z" />
    <glyph glyph-name="uni208B" unicode="&#x208b;" 
d="M45 200v44h296v-44h-296z" />
    <glyph glyph-name="uni208C" unicode="&#x208c;" horiz-adv-x="388" 
d="M46 252v44h296v-44h-296zM46 149v44h296v-44h-296z" />
    <glyph glyph-name="uni208D" unicode="&#x208d;" horiz-adv-x="277" 
d="M113 211q0 -82 26.5 -165t72.5 -147l-52 -34q-111 154 -111 346q0 190 111 345l52 -34q-46 -64 -72.5 -147t-26.5 -164z" />
    <glyph glyph-name="uni208E" unicode="&#x208e;" horiz-adv-x="273" 
d="M212 221q0 -190 -110 -346l-52 34q46 65 72.5 148t26.5 164t-26.5 164t-72.5 147l52 35q110 -156 110 -346z" />
    <glyph glyph-name="Euro" unicode="&#x20ac;" horiz-adv-x="604" 
d="M568 24q-64 -43 -172 -43q-119 0 -196.5 72t-100.5 184h-80l23 65h49q-2 28 -2 49q0 35 4 56h-71l22 65h58q30 121 112.5 188t197.5 67q92 0 154 -31l-31 -77q-50 27 -126 27q-74 0 -130 -46t-77 -128h297l-22 -65h-290q-4 -21 -4 -57q0 -34 2 -48h262l-21 -65h-229
q15 -78 72.5 -126t135.5 -48q82 0 137 37z" />
    <glyph glyph-name="uni2105" unicode="&#x2105;" horiz-adv-x="872" 
d="M242 -31l-57 29l431 740l57 -29zM220 371q-77 0 -127.5 48.5t-50.5 126.5t50 127t126 49q75 0 124 -36l-25 -65q-42 34 -98 34q-45 0 -72 -31t-27 -78q0 -45 29.5 -76.5t75.5 -31.5q53 0 93 33l24 -61q-50 -39 -122 -39zM652 -12q-77 0 -127 49t-50 128q0 77 50 125.5
t127 48.5t127.5 -48.5t50.5 -125.5q0 -79 -50.5 -128t-127.5 -49zM652 55q47 0 74.5 32t27.5 78q0 45 -27.5 76.5t-74.5 31.5t-74 -31.5t-27 -76.5q0 -46 27 -78t74 -32z" />
    <glyph glyph-name="uni2113" unicode="&#x2113;" horiz-adv-x="500" 
d="M429 45q-66 -59 -144 -59q-64 0 -101.5 35.5t-37.5 98.5v90l-58 -57h-2l-33 50l92 84v252q0 82 41.5 132t104.5 50q56 0 89.5 -36.5t33.5 -99.5q0 -143 -177 -314v-136q0 -43 20.5 -61.5t49.5 -18.5q43 0 88 38h2zM339 579q0 35 -13.5 57t-34.5 22q-23 0 -38.5 -26.5
t-15.5 -76.5v-204q102 117 102 228z" />
    <glyph glyph-name="uni2117" unicode="&#x2117;" horiz-adv-x="800" 
d="M20 353q0 157 111.5 267t269.5 110q157 0 268 -110t111 -267q0 -156 -111 -265.5t-268 -109.5q-158 0 -269.5 109.5t-111.5 265.5zM66 353q0 -137 98 -234t236 -97t236 97t98 234q0 138 -98 235.5t-235 97.5q-138 0 -236.5 -97.5t-98.5 -235.5zM277 568h162
q73 0 118.5 -34.5t45.5 -104.5q0 -68 -45 -105.5t-116 -37.5h-90v-159h-75v441zM440 348q41 0 64.5 21t23.5 59t-24.5 58t-64.5 20h-87v-158h88z" />
    <glyph glyph-name="trademark" unicode="&#x2122;" horiz-adv-x="1000" 
d="M193 296v351h-131l10 61h323l-10 -61h-122v-351h-70zM478 296v412h100l123 -311l123 311h100v-412h-68v321h-2l-130 -321h-48l-129 321h-2v-321h-67z" />
    <glyph glyph-name="uni2126" unicode="&#x2126;" horiz-adv-x="764" 
d="M391 637q-98 0 -161 -67t-63 -183q0 -107 40.5 -174.5t123.5 -121.5v-91h-298v83h205q-85 48 -132.5 128t-47.5 187q0 146 92 234t241 88q151 0 242 -86t91 -236q0 -214 -181 -315h207v-83h-300v91q86 51 125.5 120t39.5 177q0 118 -62.5 183.5t-161.5 65.5z" />
    <glyph glyph-name="estimated" unicode="&#x212e;" horiz-adv-x="555" 
d="M157 259v-181q59 -59 145 -59q122 0 193 120l35 -21q-46 -72 -98 -103.5t-130 -31.5q-115 0 -186.5 79t-71.5 197q0 119 71 197.5t187 78.5q115 0 186.5 -77t72.5 -199h-404zM448 295v145q-63 60 -147 60t-144 -60v-145h291z" />
    <glyph glyph-name="uni2153" unicode="&#x2153;" horiz-adv-x="873" 
d="M247 -29l-56 27l417 740l55 -27zM175 280v346l-91 -68l-26 61l124 89h66v-428h-73zM659 -10q-86 0 -139 44l20 61q17 -17 50 -30t64 -13q37 0 58.5 18t21.5 53q0 36 -28 53.5t-68 17.5h-27v55h28q38 0 60.5 18.5t22.5 50.5q0 28 -19 43.5t-49 15.5q-55 0 -97 -40l-26 53
q52 47 129 47q59 0 96.5 -30t37.5 -84q0 -35 -19 -60.5t-51 -37.5q38 -10 60 -38t22 -67q0 -62 -43.5 -96t-103.5 -34z" />
    <glyph glyph-name="uni2154" unicode="&#x2154;" horiz-adv-x="866" 
d="M247 -29l-56 27l417 740l55 -27zM35 280v55l162 167q47 50 47 89q0 29 -19.5 46t-51.5 17q-53 0 -103 -54l-30 55q57 62 144 62q59 0 97 -32t38 -86q0 -40 -19 -71.5t-59 -71.5l-113 -113h207l-15 -63h-285zM659 -10q-86 0 -139 44l20 61q17 -17 50 -30t64 -13
q37 0 58.5 18t21.5 53q0 36 -28 53.5t-68 17.5h-27v55h28q38 0 60.5 18.5t22.5 50.5q0 28 -19 43.5t-49 15.5q-55 0 -97 -40l-26 53q52 47 129 47q59 0 96.5 -30t37.5 -84q0 -35 -19 -60.5t-51 -37.5q38 -10 60 -38t22 -67q0 -62 -43.5 -96t-103.5 -34z" />
    <glyph glyph-name="oneeighth" unicode="&#x215b;" horiz-adv-x="878" 
d="M247 -29l-56 27l417 740l55 -27zM175 280v346l-91 -68l-26 61l124 89h66v-428h-73zM818 120q0 -60 -42.5 -95t-104.5 -35q-63 0 -105.5 35t-42.5 95q0 36 20 64t54 42v1q-61 27 -61 93q0 53 39 85t96 32q56 0 95 -31.5t39 -84.5q0 -30 -16 -55.5t-44 -38.5v-1
q34 -13 53.5 -42t19.5 -64zM671 379q-28 0 -46.5 -17.5t-18.5 -44.5t18.5 -45.5t46.5 -18.5q27 0 45.5 19t18.5 45q0 27 -18.5 44.5t-45.5 17.5zM671 197q-33 0 -55.5 -21.5t-22.5 -52.5q0 -32 22 -52.5t56 -20.5t55.5 20.5t21.5 52.5q0 31 -22.5 52.5t-54.5 21.5z" />
    <glyph glyph-name="threeeighths" unicode="&#x215c;" horiz-adv-x="841" 
d="M228 -29l-56 27l417 740l55 -27zM178 271q-87 0 -139 43l20 61q17 -17 50 -30t64 -13q37 0 58.5 18.5t21.5 52.5q0 36 -28 53.5t-68 17.5h-27v55h28q38 0 60.5 18.5t22.5 50.5q0 28 -19 44t-49 16q-56 0 -97 -41l-26 54q52 47 129 47q59 0 96.5 -30t37.5 -85
q0 -34 -19 -60t-51 -38q38 -9 60 -37t22 -67q0 -63 -43.5 -96.5t-103.5 -33.5zM786 120q0 -60 -42.5 -95t-104.5 -35q-63 0 -105.5 35t-42.5 95q0 36 20 64t54 42v1q-61 27 -61 93q0 53 39 85t96 32q56 0 95 -31.5t39 -84.5q0 -30 -16 -55.5t-44 -38.5v-1q34 -13 53.5 -42
t19.5 -64zM639 379q-28 0 -46.5 -17.5t-18.5 -44.5t18.5 -45.5t46.5 -18.5q27 0 45.5 19t18.5 45q0 27 -18.5 44.5t-45.5 17.5zM639 197q-33 0 -55.5 -21.5t-22.5 -52.5q0 -32 22 -52.5t56 -20.5t55.5 20.5t21.5 52.5q0 31 -22.5 52.5t-54.5 21.5z" />
    <glyph glyph-name="fiveeighths" unicode="&#x215d;" horiz-adv-x="841" 
d="M228 -29l-56 27l417 740l55 -27zM330 418q0 -69 -44 -108t-107 -39q-97 0 -146 49l18 64q50 -52 122 -52q38 0 62 22.5t24 61.5q0 38 -25.5 61t-68.5 23q-49 0 -98 -23l6 231h240l-10 -63h-168l-3 -97q26 8 53 8q65 0 105 -37.5t40 -100.5zM786 120q0 -60 -42.5 -95
t-104.5 -35q-63 0 -105.5 35t-42.5 95q0 36 20 64t54 42v1q-61 27 -61 93q0 53 39 85t96 32q56 0 95 -31.5t39 -84.5q0 -30 -16 -55.5t-44 -38.5v-1q34 -13 53.5 -42t19.5 -64zM639 379q-28 0 -46.5 -17.5t-18.5 -44.5t18.5 -45.5t46.5 -18.5q27 0 45.5 19t18.5 45
q0 27 -18.5 44.5t-45.5 17.5zM639 197q-33 0 -55.5 -21.5t-22.5 -52.5q0 -32 22 -52.5t56 -20.5t55.5 20.5t21.5 52.5q0 31 -22.5 52.5t-54.5 21.5z" />
    <glyph glyph-name="seveneighths" unicode="&#x215e;" horiz-adv-x="841" 
d="M192 -29l-55 27l416 740l56 -27zM86 280l172 365h-210l15 63h273v-56l-167 -372h-83zM781 120q0 -60 -42.5 -95t-104.5 -35q-63 0 -105.5 35t-42.5 95q0 36 20 64t54 42v1q-61 27 -61 93q0 53 39 85t96 32q56 0 95 -31.5t39 -84.5q0 -30 -16 -55.5t-44 -38.5v-1
q34 -13 53.5 -42t19.5 -64zM634 379q-28 0 -46.5 -17.5t-18.5 -44.5t18.5 -45.5t46.5 -18.5q27 0 45.5 19t18.5 45q0 27 -18.5 44.5t-45.5 17.5zM634 197q-33 0 -55.5 -21.5t-22.5 -52.5q0 -32 22 -52.5t56 -20.5t55.5 20.5t21.5 52.5q0 31 -22.5 52.5t-54.5 21.5z" />
    <glyph glyph-name="partialdiff" unicode="&#x2202;" horiz-adv-x="569" 
d="M267 -14q-94 0 -154.5 66t-60.5 165t57.5 159t152.5 60q89 0 150 -69q0 7 0.5 23.5t0.5 25.5q0 94 -43.5 159t-119.5 65q-66 0 -123 -48l-47 61q76 70 169 70q70 0 122 -30.5t80.5 -83t42 -114t13.5 -133.5q0 -171 -58 -273.5t-182 -102.5zM269 66q46 0 78 34t44.5 81
t14.5 103q-60 74 -133 74q-58 0 -90.5 -41.5t-32.5 -102.5q0 -59 32.5 -103.5t86.5 -44.5z" />
    <glyph glyph-name="uni2206" unicode="&#x2206;" horiz-adv-x="669" 
d="M378 711l245 -653v-58h-613v59l246 652h122zM514 82l-165 451q-26 68 -33 98q-14 -50 -31 -94l-167 -455h396z" />
    <glyph glyph-name="product" unicode="&#x220f;" horiz-adv-x="728" 
d="M73 -214v1000h583v-1000h-91v919h-402v-919h-90z" />
    <glyph glyph-name="summation" unicode="&#x2211;" horiz-adv-x="629" 
d="M33 -214v70l315 434l-302 426v70h541v-81h-427l292 -414l-307 -424h454v-81h-566z" />
    <glyph glyph-name="minus" unicode="&#x2212;" horiz-adv-x="666" 
d="M81 267v75h504v-75h-504z" />
    <glyph glyph-name="uni2215" unicode="&#x2215;" horiz-adv-x="100" 
d="M-140 -29l-56 27l417 740l56 -27z" />
    <glyph glyph-name="uni2219" unicode="&#x2219;" horiz-adv-x="272" 
d="M136 217q-27 0 -46 18.5t-19 45.5t19 46t46 19t46 -18.5t19 -45.5q0 -28 -19 -46.5t-46 -18.5z" />
    <glyph glyph-name="radical" unicode="&#x221a;" horiz-adv-x="523" 
d="M234 -215l-157 332l-54 -26l-32 69l129 59l140 -302l180 869h87l-211 -1001h-82z" />
    <glyph glyph-name="infinity" unicode="&#x221e;" horiz-adv-x="780" 
d="M579 94q-84 0 -186 110q-32 -34 -54.5 -54t-58.5 -38t-71 -18q-69 0 -112 46t-43 116t42 116t111 46q85 0 186 -114q101 114 186 114q69 0 111 -45.5t42 -115.5t-42 -116.5t-111 -46.5zM580 166q37 0 58 25.5t21 63.5q0 39 -21.5 65t-59.5 26q-32 0 -64.5 -23.5
t-74.5 -68.5q42 -44 75 -66t66 -22zM209 167q56 0 138 87q-87 91 -140 91q-36 0 -58 -26.5t-22 -63.5q0 -38 22 -63t60 -25z" />
    <glyph glyph-name="integral" unicode="&#x222b;" horiz-adv-x="583" 
d="M182 -210q-33 0 -59 15.5t-26 46.5q0 17 13.5 30t30.5 13q12 0 21 -7t13 -15.5t10 -15.5t13 -7q16 0 25.5 41.5t9.5 107.5v484v20q0 42 0.5 65t3.5 61.5t11.5 60.5t22.5 45.5t37 34.5t55 11t59 -15t27 -46q0 -20 -12.5 -32.5t-32.5 -12.5q-16 0 -25.5 11.5t-16.5 23
t-16 11.5q-35 0 -35 -158v-501q0 -272 -129 -272z" />
    <glyph glyph-name="approxequal" unicode="&#x2248;" horiz-adv-x="666" 
d="M39 282q6 63 39.5 106t99.5 43q43 0 134 -32.5t129 -32.5q62 0 73 73h60q-6 -70 -42 -112t-98 -42q-43 0 -136 34t-124 34q-64 0 -76 -71h-59zM38 82q6 64 39.5 108.5t97.5 44.5q44 0 136 -33t130 -33q58 0 73 69h60q-8 -64 -41 -107t-99 -43q-44 0 -137 34t-124 34
q-63 0 -76 -74h-59z" />
    <glyph glyph-name="notequal" unicode="&#x2260;" horiz-adv-x="666" 
d="M215 -8l-69 35l62 120h-134v77h173l59 116h-232v78h271l75 146l70 -34l-58 -112h139v-78h-179l-58 -116h237v-77h-278z" />
    <glyph glyph-name="lessequal" unicode="&#x2264;" horiz-adv-x="666" 
d="M579 115l-492 214v68l492 213v-82l-378 -166l378 -164v-83zM87 10v75h492v-75h-492z" />
    <glyph glyph-name="greaterequal" unicode="&#x2265;" horiz-adv-x="666" 
d="M87 115v83l378 164l-378 166v82l492 -213v-68zM87 10v75h492v-75h-492z" />
    <glyph glyph-name="lozenge" unicode="&#x25ca;" horiz-adv-x="599" 
d="M260 -35l-171 391l172 391h75l175 -391l-175 -391h-76zM298 52l126 304l-126 304l-124 -304z" />
    <glyph glyph-name="uniF8FF" unicode="&#xf8ff;" horiz-adv-x="512" 
d="M0 0v718h512v-718h-512zM50 50h412v617h-412v-617zM225 234l-2 17q0 52 11.5 78t47.5 62q31 31 40.5 47t9.5 36q0 36 -22.5 60.5t-53.5 24.5q-71 0 -82 -95l-50 8q7 69 43 103t92 34q54 0 89 -36t35 -95q0 -33 -13 -60t-50 -60q-36 -32 -42.5 -50t-6.5 -74h-46zM222 117
v67h56v-67h-56z" />
    <glyph glyph-name="NULL" horiz-adv-x="0" 
 />
    <glyph glyph-name="zero.denominator" 
d="M347 214q0 -95 -36 -159t-117 -64q-57 0 -93 34t-49 81.5t-13 107.5q0 44 7.5 82t24.5 70.5t48.5 51.5t74.5 19q42 0 73 -19t48 -51.5t24.5 -70.5t7.5 -82zM274 214q0 28 -3 52.5t-11 51t-25 42t-41 15.5q-32 0 -51.5 -29t-24.5 -61.5t-5 -70.5q0 -28 3 -52.5t11 -51
t25.5 -42t41.5 -15.5t41 15.5t25 42t11 51t3 52.5z" />
    <glyph glyph-name="one.denominator" 
d="M178 0v346l-90 -68l-26 61l123 89h67v-428h-74z" />
    <glyph glyph-name="two.denominator" 
d="M35 0v56l162 166q47 50 47 90q0 29 -19.5 45.5t-51.5 16.5q-53 0 -103 -54l-30 56q57 61 144 61q59 0 97 -31.5t38 -85.5q0 -40 -19 -72t-59 -72l-113 -113h207l-15 -63h-285z" />
    <glyph glyph-name="three.denominator" 
d="M178 -9q-87 0 -139 43l20 61q17 -17 50 -30t64 -13q37 0 58.5 18.5t21.5 52.5q0 36 -28 53.5t-68 17.5h-27v55h28q38 0 60.5 18.5t22.5 50.5q0 28 -19 43.5t-49 15.5q-55 0 -97 -40l-26 53q52 47 129 47q59 0 96.5 -30t37.5 -84q0 -34 -19 -60t-51 -38q38 -9 60 -37
t22 -68q0 -62 -43.5 -95.5t-103.5 -33.5z" />
    <glyph glyph-name="four.denominator" 
d="M227 0v94h-196v61l178 273h85v-274h66l-15 -60h-51v-94h-67zM227 347h-2l-124 -193h126v193z" />
    <glyph glyph-name="five.denominator" 
d="M340 138q0 -69 -44 -108t-107 -39q-97 0 -146 49l18 64q50 -52 122 -52q38 0 62 22t24 61t-25 61.5t-69 22.5q-47 0 -98 -22l6 231h240l-10 -63h-168l-3 -97q26 8 53 8q64 0 104.5 -38t40.5 -100z" />
    <glyph glyph-name="six.denominator" 
d="M200 -9q-69 0 -113.5 48.5t-44.5 139.5q0 116 51.5 184t145.5 68q47 0 79 -15l-15 -55q-36 13 -65 13q-52 0 -85.5 -41t-37.5 -114h2q32 41 94 41q56 0 93.5 -37t37.5 -94q0 -63 -39 -100.5t-103 -37.5zM195 47q36 0 57 22.5t21 58.5q0 34 -22.5 57.5t-55.5 23.5
q-35 0 -59 -21.5t-24 -53.5q0 -34 23 -60.5t60 -26.5z" />
    <glyph glyph-name="seven.denominator" 
d="M86 0l172 365h-210l15 63h273v-56l-167 -372h-83z" />
    <glyph glyph-name="eight.denominator" 
d="M341 120q0 -60 -42.5 -94.5t-104.5 -34.5q-63 0 -105.5 34.5t-42.5 94.5q0 36 20 64.5t54 41.5v2q-61 27 -61 92q0 53 39 85t96 32q56 0 95 -31.5t39 -84.5q0 -66 -60 -93v-2q34 -13 53.5 -42t19.5 -64zM194 379q-28 0 -46.5 -17.5t-18.5 -44.5t18.5 -45.5t46.5 -18.5
q27 0 45.5 19t18.5 45q0 27 -18.5 44.5t-45.5 17.5zM194 197q-33 0 -55.5 -21.5t-22.5 -52.5q0 -32 22 -52.5t56 -20.5t55.5 20.5t21.5 52.5q0 31 -22.5 52.5t-54.5 21.5z" />
    <glyph glyph-name="nine.denominator" 
d="M185 431q69 0 113.5 -49t44.5 -139q0 -116 -51.5 -184t-145.5 -68q-47 0 -79 15l15 55q36 -13 65 -13q53 0 86 41t37 114h-2q-32 -42 -94 -42q-56 0 -93.5 37t-37.5 95q0 63 39 100.5t103 37.5zM190 375q-36 0 -57 -22.5t-21 -58.5q0 -34 22.5 -57.5t55.5 -23.5
q35 0 59 21.5t24 53.5q0 34 -23 60.5t-60 26.5z" />
    <glyph glyph-name="zero.numerator" 
d="M347 494q0 -95 -36 -159t-117 -64q-57 0 -93 34t-49 81.5t-13 107.5q0 44 7.5 82t24.5 70.5t48.5 51.5t74.5 19q42 0 73 -19t48 -51.5t24.5 -70.5t7.5 -82zM274 494q0 28 -3 52.5t-11 51t-25 42t-41 15.5q-32 0 -51.5 -29t-24.5 -61.5t-5 -70.5q0 -28 3 -52.5t11 -51
t25.5 -42t41.5 -15.5t41 15.5t25 42t11 51t3 52.5z" />
    <glyph glyph-name="one.numerator" 
d="M177 280v346l-85 -67l-34 58l127 91h65v-428h-73z" />
    <glyph glyph-name="two.numerator" 
d="M35 280v56l162 166q47 50 47 90q0 29 -19.5 45.5t-51.5 16.5q-53 0 -103 -54l-30 56q57 61 144 61q59 0 97 -31.5t38 -85.5q0 -40 -19 -72t-59 -72l-113 -113h207l-15 -63h-285z" />
    <glyph glyph-name="three.numerator" 
d="M178 271q-87 0 -139 43l20 61q17 -17 50 -30t64 -13q37 0 58.5 18.5t21.5 52.5q0 36 -28 53.5t-68 17.5h-27v55h28q38 0 60.5 18.5t22.5 50.5q0 28 -19 43.5t-49 15.5q-55 0 -97 -40l-26 53q52 47 129 47q59 0 96.5 -30t37.5 -84q0 -34 -19 -60t-51 -38q38 -9 60 -37
t22 -68q0 -62 -43.5 -95.5t-103.5 -33.5z" />
    <glyph glyph-name="four.numerator" 
d="M227 280v94h-196v61l178 273h85v-274h66l-15 -60h-51v-94h-67zM227 627h-2l-124 -193h126v193z" />
    <glyph glyph-name="five.numerator" 
d="M340 418q0 -69 -44 -108t-107 -39q-97 0 -146 49l18 64q50 -52 122 -52q38 0 62 22t24 61t-25 61.5t-69 22.5q-47 0 -98 -22l6 231h240l-10 -63h-168l-3 -97q26 8 53 8q64 0 104.5 -38t40.5 -100z" />
    <glyph glyph-name="six.numerator" 
d="M200 271q-69 0 -113.5 48.5t-44.5 139.5q0 116 51.5 184t145.5 68q47 0 79 -15l-15 -55q-36 13 -65 13q-52 0 -85.5 -41t-37.5 -114h2q32 41 94 41q56 0 93.5 -37t37.5 -94q0 -63 -39 -100.5t-103 -37.5zM195 327q36 0 57 22.5t21 58.5q0 34 -22.5 57.5t-55.5 23.5
q-35 0 -59 -21.5t-24 -53.5q0 -34 23 -60.5t60 -26.5z" />
    <glyph glyph-name="seven.numerator" 
d="M86 280l172 365h-210l15 63h273v-56l-167 -372h-83z" />
    <glyph glyph-name="eight.numerator" 
d="M341 400q0 -60 -42.5 -94.5t-104.5 -34.5q-63 0 -105.5 34.5t-42.5 94.5q0 36 20 64.5t54 41.5v2q-61 27 -61 92q0 53 39 85t96 32q56 0 95 -31.5t39 -84.5q0 -66 -60 -93v-2q34 -13 53.5 -42t19.5 -64zM194 659q-28 0 -46.5 -17.5t-18.5 -44.5t18.5 -45.5t46.5 -18.5
q27 0 45.5 19t18.5 45q0 27 -18.5 44.5t-45.5 17.5zM194 477q-33 0 -55.5 -21.5t-22.5 -52.5q0 -32 22 -52.5t56 -20.5t55.5 20.5t21.5 52.5q0 31 -22.5 52.5t-54.5 21.5z" />
    <glyph glyph-name="nine.numerator" 
d="M185 711q69 0 113.5 -49t44.5 -139q0 -116 -51.5 -184t-145.5 -68q-47 0 -79 15l15 55q36 -13 65 -13q53 0 86 41t37 114h-2q-32 -42 -94 -42q-56 0 -93.5 37t-37.5 95q0 63 39 100.5t103 37.5zM190 655q-36 0 -57 -22.5t-21 -58.5q0 -34 22.5 -57.5t55.5 -23.5
q35 0 59 21.5t24 53.5q0 34 -23 60.5t-60 26.5z" />
    <glyph glyph-name="zero.onum" horiz-adv-x="699" 
d="M641 274q0 -128 -83 -208.5t-209 -80.5q-125 0 -208 80.5t-83 208.5q0 127 82.5 206t208.5 79t209 -79t83 -206zM541 274q0 85 -53 142t-139 57t-139 -57t-53 -142q0 -86 53 -143.5t139 -57.5q87 0 139.5 57t52.5 144z" />
    <glyph glyph-name="one.onum" horiz-adv-x="416" 
d="M189 0v435l-103 -81l-50 69l159 121h94v-544h-100z" />
    <glyph glyph-name="two.onum" horiz-adv-x="558" 
d="M473 388q0 -72 -57.5 -135t-210.5 -172h294l-14 -81h-424v80l50 35q146 101 201.5 154t55.5 106q0 47 -31.5 73t-82.5 26q-45 0 -87.5 -24.5t-71.5 -63.5l-44 75q78 98 214 98q89 0 148.5 -48t59.5 -123z" />
    <glyph glyph-name="three.onum" horiz-adv-x="548" 
d="M263 -187q-146 0 -237 80l22 94q39 -39 93.5 -64.5t110.5 -25.5q64 0 103.5 35.5t39.5 97.5q0 66 -51.5 98t-120.5 32h-26v76h28q62 0 106 31.5t44 91.5q0 52 -34 82t-85 30q-45 0 -90.5 -21.5t-78.5 -55.5l-43 73q86 86 219 86q87 0 149.5 -49t62.5 -133
q0 -63 -34.5 -107t-93.5 -61v-3q69 -13 109 -61.5t40 -112.5q0 -98 -65.5 -155.5t-167.5 -57.5z" />
    <glyph glyph-name="four.onum" horiz-adv-x="598" 
d="M365 -160v160h-331v88l301 460h124v-466h121l-15 -82h-106v-160h-94zM132 82h234v362h-3z" />
    <glyph glyph-name="five.onum" horiz-adv-x="545" 
d="M254 -181q-141 0 -229 73l19 89q37 -34 91.5 -56t109.5 -22q63 0 109.5 41t46.5 111q0 72 -48.5 112t-123.5 40t-149 -33l15 369h373l-14 -86h-270l-9 -188q41 15 88 15q105 0 171.5 -61t66.5 -163q0 -113 -72.5 -177t-174.5 -64z" />
    <glyph glyph-name="six.onum" horiz-adv-x="610" 
d="M317 -16q-113 0 -184.5 81.5t-71.5 228.5q0 196 82 309t235 113q77 0 131 -23l-22 -82q-48 22 -111 22q-90 0 -145.5 -70t-62.5 -196h3q26 35 69 55.5t94 20.5q92 0 155.5 -63t63.5 -161q0 -106 -65.5 -170.5t-170.5 -64.5zM312 67q64 0 102.5 42t38.5 108
q0 65 -39.5 107.5t-101.5 42.5q-65 0 -107.5 -41t-42.5 -98q0 -63 42 -112t108 -49z" />
    <glyph glyph-name="seven.onum" horiz-adv-x="543" 
d="M99 -166l292 622h-357l15 86h447v-84l-282 -624h-115z" />
    <glyph glyph-name="eight.onum" horiz-adv-x="605" 
d="M542 194q0 -98 -68.5 -154t-170.5 -56t-171 55.5t-69 153.5q0 64 36.5 113t99.5 68v2q-52 19 -83 62.5t-31 96.5q0 86 63 137.5t155 51.5q91 0 154 -51t63 -137q0 -54 -31 -97.5t-84 -61.5v-3q64 -18 100.5 -67t36.5 -113zM303 646q-52 0 -86 -33t-34 -83q0 -49 34 -84
t86 -35q51 0 85.5 35t34.5 84q0 50 -34.5 83t-85.5 33zM442 199q0 59 -39.5 97.5t-99.5 38.5q-61 0 -100.5 -38.5t-39.5 -97.5t38.5 -97t101.5 -38q62 0 100.5 38t38.5 97z" />
    <glyph glyph-name="nine.onum" horiz-adv-x="610" 
d="M300 558q112 0 181 -85t69 -237q0 -201 -79 -305.5t-223 -104.5q-94 0 -150 29l16 81q62 -27 137 -27q81 0 134 68.5t59 200.5h-2q-24 -33 -71 -56t-101 -23q-91 0 -151.5 63t-60.5 161q0 106 68 170.5t174 64.5zM300 475q-62 0 -102.5 -42.5t-40.5 -107.5t39.5 -107.5
t101.5 -42.5q63 0 107.5 40.5t44.5 86.5q0 71 -42 122t-108 51z" />
    <glyph glyph-name="uni0326.alt" horiz-adv-x="0" 
d="M-196 568l74 190h76l-61 -190h-89z" />
    <glyph glyph-name="caron.alt" horiz-adv-x="269" 
d="M85 518l60 190h89l-74 -190h-75z" />
    <glyph glyph-name="acute.cap" horiz-adv-x="269" 
d="M73 764l103 144h104l-131 -144h-76z" />
    <glyph glyph-name="breve.cap" horiz-adv-x="269" 
d="M133 769q-63 0 -104 34t-47 101h54q7 -39 33.5 -58t64.5 -19q83 0 99 77h53q-7 -67 -48 -101t-105 -34z" />
    <glyph glyph-name="caron.cap" horiz-adv-x="269" 
d="M88 764l-114 144h81l80 -104l80 104h80l-114 -144h-93z" />
    <glyph glyph-name="circumflex.cap" horiz-adv-x="269" 
d="M-26 764l114 144h94l113 -144h-81l-80 104l-80 -104h-80z" />
    <glyph glyph-name="dieresis.cap" horiz-adv-x="269" 
d="M39 796q-23 0 -39.5 16.5t-16.5 40.5q0 23 16.5 39.5t39.5 16.5t40 -16.5t17 -39.5q0 -24 -17 -40.5t-40 -16.5zM230 796q-24 0 -40.5 16.5t-16.5 40.5q0 23 16.5 39.5t40.5 16.5q23 0 39.5 -16.5t16.5 -39.5q0 -24 -16.5 -40.5t-39.5 -16.5z" />
    <glyph glyph-name="dotaccent.cap" horiz-adv-x="269" 
d="M134 795q-24 0 -41 16.5t-17 41.5q0 23 17 40t41 17q25 0 42 -16.5t17 -40.5q0 -25 -17.5 -41.5t-41.5 -16.5z" />
    <glyph glyph-name="grave.cap" horiz-adv-x="269" 
d="M120 764l-131 144h104l103 -144h-76z" />
    <glyph glyph-name="hungarumlaut.cap" horiz-adv-x="269" 
d="M-12 763l103 145h104l-131 -145h-76zM164 763l103 145h104l-132 -145h-75z" />
    <glyph glyph-name="macron.cap" horiz-adv-x="269" 
d="M-10 805v56h288v-56h-288z" />
    <glyph glyph-name="ring.cap" horiz-adv-x="269" 
d="M134 752q-42 0 -72 29t-30 71q0 43 30 72.5t72 29.5t72.5 -29.5t30.5 -71.5q0 -43 -30 -72t-73 -29zM134 788q28 0 47 18.5t19 46.5t-19 46.5t-47 18.5t-46.5 -19t-18.5 -47q0 -27 19 -45.5t46 -18.5z" />
    <glyph glyph-name="tilde.cap" horiz-adv-x="269" 
d="M202 780q-33 0 -73 22q-38 22 -62 22q-33 0 -43 -46h-47q6 47 28 76t61 29q32 0 73 -22t63 -22q33 0 43 45h47q-14 -104 -90 -104z" />
    <glyph glyph-name="cyrbreve.cap" horiz-adv-x="269" 
d="M134 769q-62 0 -102.5 34.5t-49.5 95.5l54 11q7 -40 33 -61t65 -21t65 21t33 61l54 -11q-8 -61 -48.5 -95.5t-103.5 -34.5z" />
    </font>
</defs>
</svg>
