<?xml version="1.0" standalone="no"?>
<!DOCTYPE svg PUBLIC "-//W3C//DTD SVG 1.1//EN" "http://www.w3.org/Graphics/SVG/1.1/DTD/svg11.dtd" >
<svg>
<metadata>
Created by FontForge 20090622 at Wed Feb  3 06:45:30 2016
 By deploy user
Copyright &#194;&#169; 2015 Rogers Communications
</metadata>
<defs>
<font id="TedNext-SemiBoldItalic" horiz-adv-x="269" >
  <font-face 
    font-family="Ted Next SemiBold"
    font-weight="600"
    font-style="italic"
    font-stretch="normal"
    units-per-em="1000"
    panose-1="2 0 5 7 0 0 0 0 0 4"
    ascent="800"
    descent="-200"
    x-height="479"
    cap-height="708"
    bbox="-256 -250 1076 953"
    underline-thickness="50"
    underline-position="-50"
    slope="-10"
    unicode-range="U+000D-U+FB04"
  />
<missing-glyph horiz-adv-x="512" 
d="M0 0v718h512v-718h-512zM50 50h412v617h-412v-617zM225 234l-2 17q0 54 11.5 79.5t47.5 60.5q31 31 40.5 47t9.5 36q0 36 -22.5 60.5t-53.5 24.5q-71 0 -82 -95l-50 8q7 69 43 103t92 34q54 0 89 -36t35 -95q0 -33 -13 -60t-50 -60t-43 -50t-6 -74h-46zM222 117v67h56
v-67h-56z" />
    <glyph glyph-name="f_f" unicode="ff" horiz-adv-x="624" 
d="M652 692q-81 0 -99 -108l-19 -105h127l-28 -73h-110l-72 -406h-93l71 406h-208l-72 -406h-94l72 406h-95l28 73h78l18 104q16 97 64.5 142.5t132.5 45.5q53 0 92 -13l-24 -77q-36 11 -71 11q-80 0 -100 -108l-18 -105h208l18 104q16 97 65 142.5t133 45.5q51 0 92 -13
l-25 -77q-36 11 -71 11z" />
    <glyph glyph-name="fi" unicode="fi" horiz-adv-x="581" 
d="M55 0l72 406h-95l28 73h78l18 104q16 97 64.5 142.5t132.5 45.5q53 0 92 -13l-24 -77q-36 11 -71 11q-80 0 -100 -108l-18 -105h126l-27 -73h-110l-72 -406h-94zM508 597q-24 0 -40.5 15t-16.5 39q0 26 18.5 45t43.5 19q24 0 40 -15.5t16 -38.5q0 -26 -17.5 -45
t-43.5 -19zM351 0l85 479h96l-86 -479h-95z" />
    <glyph glyph-name="fl" unicode="fl" horiz-adv-x="581" 
d="M55 0l72 406h-95l28 73h78l18 104q16 97 64.5 142.5t132.5 45.5q53 0 92 -13l-24 -77q-36 11 -71 11q-80 0 -100 -108l-18 -105h126l-27 -73h-110l-72 -406h-94zM445 -14q-73 35 -73 120q0 15 4 39l107 608l101 14l-107 -607q-4 -22 -4 -32q-1 -42 36 -68z" />
    <glyph glyph-name="f_f_i" unicode="ffi" horiz-adv-x="884" 
d="M652 692q-81 0 -99 -108l-19 -105h127l-28 -73h-110l-72 -406h-93l71 406h-208l-72 -406h-94l72 406h-95l28 73h78l18 104q16 97 64.5 142.5t132.5 45.5q53 0 92 -13l-24 -77q-36 11 -71 11q-80 0 -100 -108l-18 -105h208l18 104q16 97 65 142.5t133 45.5q51 0 92 -13
l-25 -77q-36 11 -71 11zM812 597q-24 0 -40.5 15t-16.5 39q0 26 18.5 45t43.5 19q24 0 40 -15.5t16 -38.5q0 -26 -17.5 -45t-43.5 -19zM655 0l85 479h96l-86 -479h-95z" />
    <glyph glyph-name="f_f_l" unicode="ffl" horiz-adv-x="884" 
d="M652 692q-81 0 -99 -108l-19 -105h127l-28 -73h-110l-72 -406h-93l71 406h-208l-72 -406h-94l72 406h-95l28 73h78l18 104q16 97 64.5 142.5t132.5 45.5q53 0 92 -13l-24 -77q-36 11 -71 11q-80 0 -100 -108l-18 -105h208l18 104q16 97 65 142.5t133 45.5q51 0 92 -13
l-25 -77q-36 11 -71 11zM748 -14q-73 35 -73 120q0 15 4 39l107 608l101 14l-107 -607q-4 -22 -4 -32q-1 -42 36 -68z" />
    <glyph glyph-name=".notdef" horiz-adv-x="512" 
d="M0 0v718h512v-718h-512zM50 50h412v617h-412v-617zM225 234l-2 17q0 54 11.5 79.5t47.5 60.5q31 31 40.5 47t9.5 36q0 36 -22.5 60.5t-53.5 24.5q-71 0 -82 -95l-50 8q7 69 43 103t92 34q54 0 89 -36t35 -95q0 -33 -13 -60t-50 -60t-43 -50t-6 -74h-46zM222 117v67h56
v-67h-56z" />
    <glyph glyph-name=".null" horiz-adv-x="0" 
 />
    <glyph glyph-name="nonmarkingreturn" horiz-adv-x="333" 
 />
    <glyph glyph-name="CR" unicode="&#xd;" horiz-adv-x="250" 
 />
    <glyph glyph-name="space" unicode=" " horiz-adv-x="250" 
 />
    <glyph glyph-name="exclam" unicode="!" horiz-adv-x="313" 
d="M95 214l87 494h98l-87 -494h-98zM120 -7q-26 0 -42.5 16t-16.5 41q0 28 19 47.5t46 19.5q25 0 41.5 -16t16.5 -41q0 -28 -18.5 -47.5t-45.5 -19.5z" />
    <glyph glyph-name="quotedbl" unicode="&#x22;" horiz-adv-x="445" 
d="M340 708l-45 -249h-95l44 249h96z" />
    <glyph glyph-name="numbersign" unicode="#" horiz-adv-x="575" 
d="M56 0l68 217h-98l11 65h106l47 145h-98l10 65h108l67 216h69l-68 -216h122l68 216h68l-68 -216h96l-11 -65h-106l-45 -145h96l-11 -65h-105l-67 -217h-68l67 217h-123l-67 -217h-68zM212 282h122l46 145h-122z" />
    <glyph glyph-name="dollar" unicode="$" horiz-adv-x="603" 
d="M533 586q-25 21 -67 38.5t-82 20.5l-43 -246q88 -31 133.5 -75.5t45.5 -117.5q0 -100 -71 -160t-181 -65l-11 -65h-48l12 66q-124 10 -194 71l34 90q32 -33 79 -53.5t95 -24.5l45 261l-7 3q-82 27 -122.5 67.5t-40.5 111.5q0 94 68.5 152.5t171.5 65.5l11 65h48l-11 -65
q106 -8 172 -58zM211 517q0 -38 21 -61t64 -40l39 226q-52 -9 -88 -41.5t-36 -83.5zM417 198q0 71 -92 111l-42 -243q60 7 97 42t37 90z" />
    <glyph glyph-name="percent" unicode="%" horiz-adv-x="864" 
d="M186 -31l-47 30l562 739l47 -30zM238 372q-70 0 -113 40.5t-43 105.5q0 83 54.5 141.5t139.5 58.5q70 0 112.5 -40.5t42.5 -105.5q0 -84 -54.5 -142t-138.5 -58zM243 436q51 0 83.5 37.5t32.5 90.5q0 39 -23.5 64.5t-65.5 25.5q-50 0 -82.5 -37.5t-32.5 -90.5
q0 -39 23 -64.5t65 -25.5zM621 -9q-70 0 -112.5 40.5t-42.5 105.5q0 83 54.5 141.5t138.5 58.5q70 0 112.5 -40.5t42.5 -105.5q0 -84 -54 -142t-139 -58zM625 55q52 0 84.5 37.5t32.5 90.5q0 38 -23.5 63.5t-64.5 25.5q-51 0 -83.5 -37t-32.5 -90q0 -39 23 -64.5t64 -25.5z
" />
    <glyph glyph-name="ampersand" unicode="&#x26;" horiz-adv-x="739" 
d="M248 -15q-92 0 -151.5 46.5t-59.5 137.5q0 151 199 228q-57 74 -57 144q0 81 55.5 133t139.5 52q77 0 124.5 -41t47.5 -111q0 -66 -45.5 -114t-141.5 -87l119 -151l109 154h110l-164 -214l133 -162h-119l-75 96q-104 -111 -224 -111zM318 427q141 55 141 142
q0 38 -23.5 62t-61.5 24q-44 0 -76 -30.5t-32 -80.5q0 -56 52 -117zM255 64q90 0 165 94l-140 180q-147 -54 -147 -162q0 -51 35.5 -81.5t86.5 -30.5z" />
    <glyph glyph-name="quotesingle" unicode="'" horiz-adv-x="276" 
d="M125 459l44 249h78l-44 -249h-78z" />
    <glyph glyph-name="parenleft" unicode="(" horiz-adv-x="320" 
d="M110 -161q-76 138 -76 320q0 153 60 304.5t172 273.5l61 -38q-97 -106 -155.5 -248.5t-58.5 -289.5q0 -169 67 -292z" />
    <glyph glyph-name="parenright" unicode=")" horiz-adv-x="320" 
d="M56 -160l-61 37q97 108 155.5 250t58.5 289q0 169 -67 292l69 29q76 -133 76 -320q0 -153 -59.5 -304t-171.5 -273z" />
    <glyph glyph-name="asterisk" unicode="*" horiz-adv-x="464" 
d="M359 339l-91 125l-89 -124l-53 39l91 121l-146 47l22 60l143 -47v148h67v-148l144 46l21 -61l-145 -45l90 -123z" />
    <glyph glyph-name="plus" unicode="+" horiz-adv-x="666" 
d="M295 46v219h-220v77h219v219h79v-219h218v-77h-217v-219h-79z" />
    <glyph glyph-name="comma" unicode="," horiz-adv-x="272" 
d="M169 74q0 -61 -41 -117.5t-98 -93.5l-32 27q73 52 94 122q-20 3 -32.5 17.5t-12.5 36.5q0 27 19 47t46 20q24 0 40.5 -16.5t16.5 -42.5z" />
    <glyph glyph-name="hyphen" unicode="-" horiz-adv-x="316" 
d="M35 217l14 77h222l-14 -77h-222z" />
    <glyph glyph-name="period" unicode="." horiz-adv-x="272" 
d="M91 -6q-26 0 -43 15.5t-17 41.5q0 28 19.5 48t46.5 20q26 0 42.5 -16.5t16.5 -41.5q0 -28 -18.5 -47.5t-46.5 -19.5z" />
    <glyph glyph-name="slash" unicode="/" horiz-adv-x="391" 
d="M19 -33l-65 23l441 753l64 -23z" />
    <glyph glyph-name="zero" unicode="0" horiz-adv-x="595" 
d="M263 -16q-107 0 -157 68.5t-50 174.5q0 65 10.5 131.5t34.5 133t59 117.5t89 83t120 32q106 0 156 -69t50 -175q0 -83 -17.5 -166t-52.5 -159t-98 -123.5t-144 -47.5zM268 68q61 0 109.5 60t73 150.5t24.5 188.5q0 175 -113 175q-62 0 -111 -61t-73.5 -151.5
t-24.5 -187.5q0 -77 27 -125.5t88 -48.5z" />
    <glyph glyph-name="one" unicode="1" horiz-adv-x="595" 
d="M236 0l105 597l-151 -103l-39 74l216 140h92l-125 -708h-98z" />
    <glyph glyph-name="two" unicode="2" horiz-adv-x="595" 
d="M18 0l16 87l314 271q64 56 91 97.5t27 83.5q0 47 -31.5 74t-81.5 27q-47 0 -93 -25t-76 -63l-44 74q80 98 220 98q90 0 148.5 -47t58.5 -127q0 -75 -37.5 -126.5t-129.5 -131.5l-235 -206h345l-31 -86h-461z" />
    <glyph glyph-name="three" unicode="3" horiz-adv-x="595" 
d="M253 -16q-75 0 -138.5 24.5t-97.5 59.5l37 85q31 -35 87.5 -60.5t112.5 -25.5q71 0 118 41t47 102t-43 91.5t-109 30.5h-34l12 74h37q82 0 127.5 38t45.5 101q0 44 -32.5 71.5t-80.5 27.5q-92 0 -182 -83l-29 78q95 85 224 85q83 0 139.5 -45.5t56.5 -124.5
q0 -71 -42.5 -119t-112.5 -63v-2q56 -13 89 -55.5t33 -98.5q0 -101 -75.5 -166.5t-189.5 -65.5z" />
    <glyph glyph-name="four" unicode="4" horiz-adv-x="595" 
d="M328 0l27 160h-332l16 89l376 459h127l-83 -467h115l-28 -81h-99l-28 -160h-91zM133 241h235l66 369h-3z" />
    <glyph glyph-name="five" unicode="5" horiz-adv-x="595" 
d="M257 -16q-145 0 -221 76l33 83q32 -32 83 -53.5t104 -21.5q78 0 124.5 49t46.5 123q0 62 -41.5 98t-107.5 36q-79 0 -156 -36l75 370h381l-30 -84h-280l-39 -190q41 15 86 15q90 0 150.5 -52.5t60.5 -145.5q0 -120 -76.5 -193.5t-192.5 -73.5z" />
    <glyph glyph-name="six" unicode="6" horiz-adv-x="595" 
d="M270 -16q-99 0 -160.5 64t-61.5 177q0 201 117 346t280 145q88 0 138 -23l-32 -80q-44 20 -109 20q-92 0 -170 -74.5t-107 -196.5q70 76 176 76q90 0 145 -53.5t55 -139.5q0 -110 -74.5 -185.5t-196.5 -75.5zM274 64q76 0 122.5 50t46.5 125q0 56 -35.5 92t-91.5 36
q-75 0 -124 -49.5t-49 -117.5q0 -60 37 -98t94 -38z" />
    <glyph glyph-name="seven" unicode="7" horiz-adv-x="595" 
d="M61 0l412 623h-347l29 85h440l-15 -83l-401 -625h-118z" />
    <glyph glyph-name="eight" unicode="8" horiz-adv-x="595" 
d="M264 -16q-87 0 -150.5 46.5t-63.5 138.5q0 80 50.5 137.5t125.5 73.5v2q-44 17 -68 53.5t-24 81.5q0 95 68 151t162 56q84 0 140 -43.5t56 -126.5q0 -71 -42.5 -117t-104.5 -63v-3q48 -15 80.5 -56.5t32.5 -96.5q0 -110 -75.5 -172t-186.5 -62zM328 411q60 0 99.5 38.5
t39.5 90.5q0 50 -30.5 78t-80.5 28q-57 0 -95 -39t-38 -93q0 -45 28.5 -74t76.5 -29zM268 64q74 0 119 44t45 111q0 50 -35 83.5t-88 33.5q-70 0 -117.5 -44.5t-47.5 -111.5q0 -54 35 -85t89 -31z" />
    <glyph glyph-name="nine" unicode="9" horiz-adv-x="595" 
d="M353 721q100 0 163.5 -65.5t63.5 -182.5q0 -129 -53 -240.5t-145 -178t-199 -66.5q-86 0 -138 24l32 80q46 -21 109 -21q92 0 170 75t107 197q-70 -76 -175 -76q-90 0 -145.5 54.5t-55.5 140.5q0 110 73.5 184.5t192.5 74.5zM354 640q-76 0 -122.5 -50t-46.5 -124
q0 -57 36 -93t91 -36q75 0 124 49.5t49 118.5q0 60 -37 97.5t-94 37.5z" />
    <glyph glyph-name="colon" unicode=":" horiz-adv-x="307" 
d="M171 360q-26 0 -42.5 15.5t-16.5 40.5q0 28 19 47t45 19q25 0 41.5 -15.5t16.5 -40.5q0 -27 -18.5 -46.5t-44.5 -19.5zM110 -5q-25 0 -42 15.5t-17 40.5q0 28 19 47t47 19q25 0 41 -15.5t16 -40.5q0 -27 -18.5 -46.5t-45.5 -19.5z" />
    <glyph glyph-name="semicolon" unicode=";" horiz-adv-x="307" 
d="M176 482q25 0 41.5 -15.5t16.5 -40.5q0 -27 -18.5 -46.5t-44.5 -19.5t-42.5 15.5t-16.5 40.5q0 28 19 47t45 19zM112 133q24 0 40.5 -16.5t16.5 -42.5v-1q0 -61 -41.5 -117t-97.5 -93l-32 27q73 52 94 122q-20 3 -32.5 17.5t-12.5 36.5q0 27 19 47t46 20z" />
    <glyph glyph-name="less" unicode="&#x3c;" horiz-adv-x="666" 
d="M580 49l-494 221v65l494 222v-82l-379 -173l379 -171v-82z" />
    <glyph glyph-name="equal" unicode="=" horiz-adv-x="666" 
d="M81 353v76h504v-76h-504zM81 179v75h504v-75h-504z" />
    <glyph glyph-name="greater" unicode="&#x3e;" horiz-adv-x="666" 
d="M86 49v82l380 171l-380 173v82l494 -222v-65z" />
    <glyph glyph-name="question" unicode="?" horiz-adv-x="507" 
d="M323 725q83 0 139 -42t56 -124q0 -62 -33 -104.5t-98 -86.5q-48 -33 -66.5 -57.5t-25.5 -65.5l-6 -35h-91l8 48q8 49 32 81.5t79 73.5q59 44 80.5 71t21.5 65q0 45 -27.5 69t-73.5 24t-90 -23.5t-74 -59.5l-44 73q81 93 213 93zM226 -7q-26 0 -43 16t-17 41q0 28 19 47.5
t46 19.5q26 0 42.5 -16t16.5 -41q0 -28 -18.5 -47.5t-45.5 -19.5z" />
    <glyph glyph-name="at" unicode="@" horiz-adv-x="800" 
d="M554 160q-35 0 -58 16.5t-24 45.5q0 9 2 15h-3q-18 -29 -54 -53t-79 -24q-58 0 -87.5 32.5t-29.5 85.5q0 58 28 120.5t84.5 108.5t123.5 46q39 0 64 -19.5t28 -49.5h3l20 51h69l-80 -192q-25 -62 -25 -87q0 -33 41 -33q62 0 106.5 64.5t44.5 159.5q0 102 -70.5 161
t-182.5 59q-154 0 -257 -108t-103 -257q0 -119 77.5 -190t205.5 -71q145 0 259 101l34 -44q-127 -117 -300 -117q-158 0 -253 86.5t-95 228.5q0 181 126 306t308 125q139 0 228 -74.5t89 -199.5q0 -124 -67.5 -208.5t-172.5 -84.5zM494 425q0 14 -10 23.5t-23 9.5
q-42 0 -93.5 -51.5t-51.5 -108.5q0 -18 8.5 -30t23.5 -12q48 0 105 66q41 48 41 103z" />
    <glyph glyph-name="A" unicode="A" horiz-adv-x="680" 
d="M-61 0l453 708h100l134 -708h-104l-40 226h-290l-139 -226h-114zM237 307h234l-50 296z" />
    <glyph glyph-name="B" unicode="B" horiz-adv-x="636" 
d="M39 0l125 708h230q84 0 143.5 -38t59.5 -116q0 -71 -42.5 -118t-117.5 -63v-2q56 -9 95.5 -50t39.5 -105q0 -105 -80 -160.5t-209 -55.5h-244zM205 404h131q69 0 116 31.5t47 94.5q0 49 -37.5 73.5t-96.5 24.5h-121zM148 81h132q88 0 140.5 35t52.5 105q0 52 -38.5 81
t-99.5 29h-143z" />
    <glyph glyph-name="C" unicode="C" horiz-adv-x="704" 
d="M382 -19q-150 0 -235.5 84.5t-85.5 222.5q0 185 122 312t297 127q71 0 137.5 -23.5t101.5 -56.5l-40 -89q-32 34 -86 57.5t-116 23.5q-132 0 -221 -102t-89 -237q0 -100 59 -165t169 -65q122 0 228 91l3 -93q-42 -37 -108 -62t-136 -25z" />
    <glyph glyph-name="D" unicode="D" horiz-adv-x="769" 
d="M39 0l125 708h227q66 0 125 -18t106.5 -53t75.5 -93t28 -132q0 -193 -124.5 -302.5t-317.5 -109.5h-245zM152 86h136q151 0 243 86.5t92 227.5q0 101 -66.5 162t-185.5 61h-124z" />
    <glyph glyph-name="E" unicode="E" horiz-adv-x="551" 
d="M39 0l125 708h401l-30 -85h-291l-39 -218h287l-29 -81h-272l-41 -238h334l-30 -86h-415z" />
    <glyph glyph-name="F" unicode="F" horiz-adv-x="531" 
d="M39 0l125 708h401l-30 -85h-289l-40 -225h281l-29 -82h-266l-55 -316h-98z" />
    <glyph glyph-name="G" unicode="G" horiz-adv-x="760" 
d="M387 -19q-152 0 -239 83.5t-87 223.5q0 181 120.5 310t296.5 129q73 0 139.5 -21.5t110.5 -54.5l-38 -81q-39 30 -96 50t-118 20q-131 0 -221.5 -102t-90.5 -238q0 -103 60.5 -168t173.5 -65q96 2 162 37l34 199h-164l30 82h242l-60 -341q-108 -63 -255 -63z" />
    <glyph glyph-name="H" unicode="H" horiz-adv-x="770" 
d="M39 0l125 708h98l-53 -298h395l53 298h99l-125 -708h-99l58 325h-395l-58 -325h-98z" />
    <glyph glyph-name="I" unicode="I" horiz-adv-x="277" 
d="M39 0l125 708h99l-125 -708h-99z" />
    <glyph glyph-name="J" unicode="J" horiz-adv-x="395" 
d="M-7 79q33 -9 71 -9q110 0 137 149l85 489h100l-87 -491q-42 -235 -236 -235q-36 0 -56 6z" />
    <glyph glyph-name="K" unicode="K" horiz-adv-x="609" 
d="M39 0l125 708h97l-55 -310l337 310h129l-372 -332l279 -376h-124l-256 358l-63 -358h-97z" />
    <glyph glyph-name="L" unicode="L" horiz-adv-x="508" 
d="M39 0l125 708h99l-110 -622h308l-30 -86h-392z" />
    <glyph glyph-name="M" unicode="M" horiz-adv-x="923" 
d="M39 0l125 708h141l129 -558l325 558h150l-125 -708h-97l105 589l-349 -589h-68l-141 592l-101 -592h-94z" />
    <glyph glyph-name="N" unicode="N" horiz-adv-x="768" 
d="M39 0l125 708h114l271 -567h2l98 567h98l-125 -708h-113l-271 570h-2l-99 -570h-98z" />
    <glyph glyph-name="O" unicode="O" horiz-adv-x="846" 
d="M392 -19q-154 0 -242.5 86t-88.5 226q0 180 117.5 307t296.5 127q154 0 241.5 -86t87.5 -227q0 -117 -51.5 -216t-146.5 -158t-214 -59zM397 70q135 0 219.5 100.5t84.5 236.5q0 101 -60.5 166.5t-171.5 65.5q-134 0 -219.5 -101t-85.5 -236q0 -101 60.5 -166.5
t172.5 -65.5z" />
    <glyph glyph-name="P" unicode="P" horiz-adv-x="600" 
d="M39 0l125 708h206q104 0 165.5 -45.5t61.5 -132.5q0 -106 -73 -164.5t-206 -58.5h-127l-54 -307h-98zM205 386h117q83 0 129.5 35t46.5 100q0 56 -38 81t-100 25h-112z" />
    <glyph glyph-name="Q" unicode="Q" horiz-adv-x="850" 
d="M389 0q-150 0 -238.5 80t-88.5 218q0 178 117 303.5t293 125.5q149 0 237.5 -83.5t88.5 -221.5q0 -113 -55.5 -207.5t-148.5 -132.5l-1 -3l203 2l-29 -81h-378zM395 86q129 0 215 95.5t86 227.5q0 101 -60.5 165.5t-168.5 64.5q-131 0 -217 -98.5t-86 -230.5
q0 -101 60.5 -162.5t170.5 -61.5z" />
    <glyph glyph-name="R" unicode="R" horiz-adv-x="625" 
d="M39 0l125 708h206q101 0 164 -43.5t63 -127.5q0 -95 -55 -144.5t-141 -62.5l153 -330h-111l-140 318h-112l-55 -318h-97zM204 392h114q179 0 179 131q0 103 -148 103h-103z" />
    <glyph glyph-name="S" unicode="S" horiz-adv-x="576" 
d="M238 -19q-64 0 -126 20t-98 52l33 90q36 -36 89.5 -57.5t105.5 -21.5q70 0 116 36.5t46 97.5q0 50 -36 78.5t-108 52.5q-82 27 -123 67.5t-41 111.5q0 100 77 159.5t188 59.5q56 0 109 -17t86 -42l-37 -82q-26 23 -72.5 41t-88.5 18q-63 0 -111.5 -34t-48.5 -94
q0 -45 28.5 -69t90.5 -45q94 -32 142 -76.5t48 -120.5q0 -105 -76.5 -165t-192.5 -60z" />
    <glyph glyph-name="T" unicode="T" horiz-adv-x="538" 
d="M169 0l109 623h-221l31 85h531l-30 -85h-211l-110 -623h-99z" />
    <glyph glyph-name="U" unicode="U" horiz-adv-x="725" 
d="M330 -19q-122 0 -189.5 59.5t-67.5 163.5q0 32 6 68l77 436h98l-76 -431q-5 -30 -5 -54q0 -69 39.5 -112t121.5 -43q55 0 94.5 18t62 50.5t34 64t19.5 73.5l77 434h97l-78 -444q-49 -283 -310 -283z" />
    <glyph glyph-name="V" unicode="V" horiz-adv-x="631" 
d="M191 0l-112 708h105l81 -589h3l337 589h114l-421 -708h-107z" />
    <glyph glyph-name="W" unicode="W" horiz-adv-x="980" 
d="M152 0l-63 708h105l39 -574h3l279 574h108l48 -574h3l275 574h105l-350 -708h-105l-53 577h-3l-286 -577h-105z" />
    <glyph glyph-name="X" unicode="X" horiz-adv-x="634" 
d="M-54 0l326 372l-161 336h111l121 -268l224 268h121l-296 -339l179 -369h-114l-137 299l-250 -299h-124z" />
    <glyph glyph-name="Y" unicode="Y" horiz-adv-x="568" 
d="M178 0l53 305l-174 403h111l126 -319l253 319h120l-337 -403l-54 -305h-98z" />
    <glyph glyph-name="Z" unicode="Z" horiz-adv-x="603" 
d="M-14 0l15 88l491 535h-374l15 85h500l-15 -84l-493 -538h423l-31 -86h-531z" />
    <glyph glyph-name="bracketleft" unicode="[" horiz-adv-x="320" 
d="M-17 -156l156 888h180l-11 -63h-101l-134 -762h101l-12 -63h-179z" />
    <glyph glyph-name="backslash" unicode="\" horiz-adv-x="391" 
d="M316 -33l-307 753l71 24l306 -754z" />
    <glyph glyph-name="bracketright" unicode="]" horiz-adv-x="320" 
d="M-1 -156l12 63h100l135 762h-101l11 63h178l-157 -888h-178z" />
    <glyph glyph-name="asciicircum" unicode="^" horiz-adv-x="677" 
d="M83 295l219 413h73l219 -413h-88l-168 324l-167 -324h-88z" />
    <glyph glyph-name="underscore" unicode="_" horiz-adv-x="500" 
d="M0 -139v57h500v-57h-500z" />
    <glyph glyph-name="grave" unicode="`" 
d="M176 568l-135 144h102l106 -144h-73z" />
    <glyph glyph-name="a" unicode="a" horiz-adv-x="538" 
d="M173 -12q-58 0 -103.5 30t-45.5 95q0 54 28.5 91.5t81.5 56t110 26t131 7.5q4 24 4 41q0 85 -102 85q-38 0 -82.5 -15.5t-71.5 -37.5l-20 72q79 55 186 55q82 0 131.5 -38t49.5 -111q0 -28 -5 -55l-34 -189q-10 -58 -10 -101h-85q0 33 7 77h-2q-59 -89 -168 -89zM204 55
q63 0 104 43t54 105l6 30h-20q-236 0 -236 -105q0 -40 27 -56.5t65 -16.5z" />
    <glyph glyph-name="b" unicode="b" horiz-adv-x="641" 
d="M317 -13q-60 0 -108.5 29t-67.5 77h-2l-16 -93h-89l131 745l97 14l-65 -365h2q27 44 75.5 71.5t104.5 27.5q97 0 151.5 -58t54.5 -151q0 -124 -75.5 -210.5t-192.5 -86.5zM304 65q83 0 134.5 60.5t51.5 147.5q0 62 -36.5 102t-104.5 40q-76 0 -129.5 -62.5t-53.5 -147.5
q0 -61 38 -100.5t100 -39.5z" />
    <glyph glyph-name="c" unicode="c" horiz-adv-x="489" 
d="M260 -15q-104 0 -163.5 58t-59.5 152q0 121 81.5 210t206.5 89q45 0 89.5 -16t73.5 -40l-39 -71q-57 48 -125 48q-84 0 -139 -61.5t-55 -146.5q0 -62 36.5 -102t105.5 -40q82 0 146 54l14 -78q-63 -56 -172 -56z" />
    <glyph glyph-name="d" unicode="d" horiz-adv-x="637" 
d="M243 -13q-97 0 -152 58t-55 151q0 123 76.5 210t194.5 87q59 0 104 -28t64 -75h3l61 355l97 14l-134 -759h-89l16 87h-2q-27 -45 -75.5 -72.5t-108.5 -27.5zM272 65q77 0 130 62.5t53 146.5q0 61 -37.5 101t-100.5 40q-82 0 -134 -61t-52 -147q0 -62 37 -102t104 -40z
" />
    <glyph glyph-name="e" unicode="e" horiz-adv-x="571" 
d="M264 -14q-103 0 -165.5 58t-62.5 158q0 121 80 206.5t202 85.5q95 0 148.5 -53t53.5 -143q0 -35 -10 -80h-382q-2 -16 -2 -20q0 -63 42.5 -100t111.5 -37q92 0 171 55l9 -76q-78 -54 -196 -54zM136 280h296q2 20 2 30q0 51 -33 82.5t-90 31.5q-70 0 -117 -44.5t-58 -99.5
z" />
    <glyph glyph-name="f" unicode="f" horiz-adv-x="322" 
d="M55 0l72 406h-95l28 73h78l18 104q16 97 64.5 142.5t132.5 45.5q53 0 92 -13l-24 -77q-36 11 -71 11q-80 0 -100 -108l-18 -105h126l-27 -73h-110l-72 -406h-94z" />
    <glyph glyph-name="g" unicode="g" horiz-adv-x="637" 
d="M221 -244q-63 0 -120.5 18.5t-94.5 48.5l29 83q80 -71 185 -71q91 0 135 50.5t61 138.5l12 63h-2q-26 -43 -73 -69t-104 -26q-98 0 -153.5 57.5t-55.5 149.5q0 122 76 208t194 86q60 0 105.5 -28t64.5 -76h3l15 90h91l-79 -447q-23 -130 -89.5 -203t-199.5 -73zM276 67
q77 0 130.5 62.5t53.5 145.5q0 61 -38 100.5t-101 39.5q-83 0 -135 -60t-52 -146q0 -61 37 -101.5t105 -40.5z" />
    <glyph glyph-name="h" unicode="h" horiz-adv-x="591" 
d="M33 0l131 745l98 14l-64 -364h2q26 45 69 71.5t95 26.5q76 0 114.5 -42.5t38.5 -111.5q0 -33 -5 -55l-50 -284h-95l47 269q5 25 5 45q0 44 -22.5 72t-71.5 28q-56 0 -98 -46.5t-56 -127.5l-43 -240h-95z" />
    <glyph glyph-name="i" unicode="i" horiz-adv-x="262" 
d="M190 597q-24 0 -40.5 15t-16.5 39q0 26 18.5 45t43.5 19q24 0 40 -15.5t16 -38.5q0 -26 -17.5 -45t-43.5 -19zM33 0l85 479h96l-86 -479h-95z" />
    <glyph glyph-name="j" unicode="j" horiz-adv-x="264" 
d="M192 597q-25 0 -41 15t-16 39q0 26 18.5 45t43.5 19q24 0 39.5 -15.5t15.5 -38.5q0 -26 -17.5 -45t-42.5 -19zM-61 -242q-24 0 -52 6l17 80q18 -5 32 -5q43 0 62 27t27 76l94 537h96l-95 -538q-16 -86 -55 -134.5t-126 -48.5z" />
    <glyph glyph-name="k" unicode="k" horiz-adv-x="509" 
d="M463 0h-104l-184 247h-2l-44 -247h-95l131 745l97 14l-85 -487h2l227 207h124l-259 -224z" />
    <glyph glyph-name="l" unicode="l" horiz-adv-x="263" 
d="M127 -14q-73 35 -73 120q0 15 4 39l107 608l101 14l-107 -607q-4 -22 -4 -32q-1 -42 36 -68z" />
    <glyph glyph-name="m" unicode="m" horiz-adv-x="904" 
d="M33 0l65 371q12 65 15 108h92q-3 -34 -12 -91q62 105 165 105q59 0 96 -30t46 -79q60 109 173 109q77 0 116.5 -44.5t39.5 -113.5q0 -27 -4 -50l-51 -285h-95l47 269q5 25 5 44q0 44 -22.5 72.5t-70.5 28.5q-56 0 -94 -45t-51 -118l-44 -251h-96l50 280q3 18 3 36
q0 43 -21.5 70.5t-66.5 27.5q-54 0 -94 -48t-55 -135l-41 -231h-95z" />
    <glyph glyph-name="n" unicode="n" horiz-adv-x="591" 
d="M33 0l65 371q12 65 15 108h92q-3 -34 -12 -91h2q27 49 71.5 77t97.5 28q76 0 114.5 -42.5t38.5 -111.5q0 -33 -5 -55l-50 -284h-95l47 269q5 25 5 46q0 43 -22.5 71t-71.5 28q-56 0 -98 -46t-56 -127l-43 -241h-95z" />
    <glyph glyph-name="o" unicode="o" horiz-adv-x="611" 
d="M269 -13q-105 0 -169 58t-64 153q0 122 79.5 209t206.5 87q106 0 170 -58.5t64 -153.5q0 -123 -79.5 -209t-207.5 -86zM273 66q83 0 135.5 60.5t52.5 146.5q0 62 -37.5 101.5t-105.5 39.5q-83 0 -135.5 -61t-52.5 -146q0 -62 37.5 -101.5t105.5 -39.5z" />
    <glyph glyph-name="p" unicode="p" horiz-adv-x="640" 
d="M-9 -240l126 719h91l-15 -88h3q27 45 75.5 73t105.5 28q98 0 153 -58t55 -151q0 -123 -76 -209.5t-193 -86.5q-61 0 -106.5 27.5t-64.5 74.5h-3l-57 -329h-94zM303 64q83 0 134.5 60.5t51.5 147.5q0 62 -36.5 102t-103.5 40q-77 0 -130.5 -62.5t-53.5 -146.5
q0 -61 38 -101t100 -40z" />
    <glyph glyph-name="q" unicode="q" horiz-adv-x="636" 
d="M492 -60q-7 -44 5 -66.5t45 -40.5l-65 -75q-101 45 -79 172l26 154h-2q-26 -44 -73.5 -70.5t-105.5 -26.5q-97 0 -152 58t-55 151q0 123 76 210t194 87q58 0 105 -29t66 -78h3l16 93h91zM271 65q77 0 130.5 63t53.5 147q0 61 -38 100.5t-100 39.5q-83 0 -135 -61
t-52 -147q0 -62 37 -102t104 -40z" />
    <glyph glyph-name="r" unicode="r" horiz-adv-x="349" 
d="M32 0l66 371q12 65 15 108h91q-1 -24 -12 -91h2q58 105 158 105q11 0 29 -3l-29 -85q-15 3 -31 3q-64 0 -102 -49t-50 -122l-42 -237h-95z" />
    <glyph glyph-name="s" unicode="s" horiz-adv-x="438" 
d="M176 -14q-53 0 -98.5 14.5t-70.5 35.5l27 73q58 -50 141 -50q46 0 75 21.5t29 55.5q0 29 -22 46.5t-72 32.5q-64 18 -95 46.5t-31 78.5q0 72 56.5 113t136.5 41q47 0 90 -16t67 -38l-47 -62q-50 44 -114 44q-43 0 -71.5 -19t-28.5 -55q0 -27 19 -41.5t62 -25.5
q72 -20 106.5 -52.5t34.5 -85.5q0 -74 -56.5 -115.5t-137.5 -41.5z" />
    <glyph glyph-name="t" unicode="t" horiz-adv-x="353" 
d="M186 -11q-57 0 -89 29.5t-32 74.5q0 25 5 48l47 265h-81l28 73h64l19 107l99 34l-25 -141h141l-28 -73h-125l-46 -258q-4 -22 -4 -35q0 -47 55 -47q38 0 78 18l9 -69q-54 -26 -115 -26z" />
    <glyph glyph-name="u" unicode="u" horiz-adv-x="590" 
d="M203 -13q-75 0 -114 42.5t-39 111.5q0 22 5 54l50 284h96l-48 -269q-5 -25 -5 -45q0 -44 22.5 -71.5t72.5 -27.5q57 0 98.5 46t55.5 127l43 240h95l-66 -371q-12 -66 -15 -108h-91q4 40 12 91h-3q-27 -49 -71.5 -76.5t-97.5 -27.5z" />
    <glyph glyph-name="v" unicode="v" horiz-adv-x="497" 
d="M132 0l-91 479h100l60 -378h3l213 378h104l-284 -479h-105z" />
    <glyph glyph-name="w" unicode="w" horiz-adv-x="777" 
d="M104 0l-54 479h99l29 -371h2l193 371h98l44 -371h2l182 371h101l-253 -479h-98l-48 368h-2l-196 -368h-99z" />
    <glyph glyph-name="x" unicode="x" horiz-adv-x="502" 
d="M-55 0l240 253l-125 226h104l88 -167l149 167h114l-217 -230l141 -249h-107l-101 188l-170 -188h-116z" />
    <glyph glyph-name="y" unicode="y" horiz-adv-x="498" 
d="M-38 -158q58 5 93.5 25t60.5 65l37 64l-106 483h103l69 -381l203 381h103l-322 -566q-41 -77 -93 -111t-129 -42z" />
    <glyph glyph-name="z" unicode="z" horiz-adv-x="470" 
d="M-13 0l13 75l326 330h-263l28 74h366l-13 -73l-328 -331h293l-28 -75h-394z" />
    <glyph glyph-name="braceleft" unicode="{" horiz-adv-x="320" 
d="M122 -156q-46 0 -73 25t-27 73q0 21 2 32l32 191q2 12 2 32q0 57 -58 57l12 68q74 0 89 93l32 181q12 67 51 101.5t94 34.5h66l-11 -66h-47q-63 0 -76 -80l-31 -179q-10 -56 -41 -84.5t-63 -33.5v-2q26 -4 45 -24.5t19 -62.5q0 -18 -2 -27l-32 -188q-2 -20 -2 -26
q0 -49 49 -49h48l-12 -66h-66z" />
    <glyph glyph-name="bar" unicode="|" horiz-adv-x="231" 
d="M75 -250v1000h80v-1000h-80z" />
    <glyph glyph-name="braceright" unicode="}" horiz-adv-x="320" 
d="M-21 -156l12 66h47q63 0 76 80l31 179q10 56 41 84.5t63 33.5v2q-26 4 -45 24.5t-19 62.5q0 17 2 27l32 188q2 18 2 25q0 50 -49 50h-47l11 66h66q46 0 73 -25t27 -73q0 -10 -2 -32l-32 -191q-3 -13 -3 -25q0 -64 59 -64l-13 -68q-73 0 -88 -93l-32 -181
q-12 -67 -51.5 -101.5t-94.5 -34.5h-66z" />
    <glyph glyph-name="asciitilde" unicode="~" horiz-adv-x="666" 
d="M133 220l-44 61q54 96 135 96q55 0 111 -36q68 -44 107 -44q49 0 99 76l43 -61q-59 -95 -136 -95q-52 0 -108 36q-64 43 -109 43q-58 0 -98 -76z" />
    <glyph glyph-name="uni00A0" unicode="&#xa0;" horiz-adv-x="250" 
 />
    <glyph glyph-name="exclamdown" unicode="&#xa1;" horiz-adv-x="313" 
d="M171 379q-25 0 -41.5 15.5t-16.5 40.5q0 28 18.5 47.5t45.5 19.5q26 0 42.5 -15.5t16.5 -40.5q0 -28 -18.5 -47.5t-46.5 -19.5zM18 -213l87 494h97l-87 -494h-97z" />
    <glyph glyph-name="cent" unicode="&#xa2;" horiz-adv-x="603" 
d="M244 -75l11 62q-86 11 -134 66.5t-48 140.5q0 118 76.5 205t194.5 93l12 64h51l-12 -65q94 -8 136 -65l-60 -60q-28 43 -89 48l-61 -351q68 4 116 52l45 -59q-73 -68 -175 -71l-12 -60h-51zM270 67l62 347q-72 -7 -120.5 -67.5t-48.5 -141.5q0 -55 27 -93t80 -45z" />
    <glyph glyph-name="sterling" unicode="&#xa3;" horiz-adv-x="603" 
d="M25 0l15 84h11q44 0 72.5 31.5t36.5 75.5l24 137h-111l27 71h97l16 94q18 102 83.5 167.5t177.5 65.5q43 0 85 -14t68 -34l-48 -74q-49 38 -112 38q-69 0 -107 -45t-50 -111l-15 -87h177l-27 -71h-163l-23 -129q-15 -87 -83 -115h322l-30 -84h-443z" />
    <glyph glyph-name="currency" unicode="&#xa4;" horiz-adv-x="882" 
d="M189 1l-53 53l96 96q-50 64 -50 160q0 88 47 154l-93 92l54 52l93 -92q69 51 159 51q91 0 158 -50l91 91l53 -52l-90 -90q49 -65 49 -156q0 -96 -52 -162l93 -94l-52 -53l-96 96q-66 -49 -154 -49q-86 0 -155 51zM442 133q75 0 122 51t47 126q0 73 -47 123t-122 50
t-122 -50t-47 -123q0 -75 47 -126t122 -51z" />
    <glyph glyph-name="yen" unicode="&#xa5;" horiz-adv-x="603" 
d="M207 0l29 171h-190l25 63h176l17 97h-191l27 63h149l-147 314h103l121 -293l224 293h109l-258 -314h157l-26 -63h-177l-17 -97h192l-25 -63h-177l-30 -171h-91z" />
    <glyph glyph-name="brokenbar" unicode="&#xa6;" horiz-adv-x="231" 
d="M76 326v349h79v-349h-79zM76 -175v349h79v-349h-79z" />
    <glyph glyph-name="section" unicode="&#xa7;" horiz-adv-x="590" 
d="M217 -141q-64 0 -122 26t-87 71l74 53q21 -34 58.5 -52t78.5 -18q50 0 84 22t34 69q0 39 -25 60.5t-88 46.5q-78 30 -112 63t-34 92q0 57 37.5 96t92.5 55q-56 36 -56 100q0 85 65 134t151 49q62 0 110 -21t74 -59l-73 -52q-36 54 -115 54q-45 0 -79.5 -26.5t-34.5 -70.5
q0 -35 23 -54.5t81 -42.5q79 -32 114 -66t35 -95q0 -58 -35.5 -94.5t-89.5 -52.5q57 -36 57 -104q0 -48 -19 -84.5t-51 -57.5t-69.5 -31t-78.5 -10zM319 186q40 6 68.5 30.5t28.5 61.5t-22 58.5t-64 39.5l-63 28q-40 -7 -70.5 -33t-30.5 -65q0 -36 20.5 -55.5t65.5 -37.5z
" />
    <glyph glyph-name="dieresis" unicode="&#xa8;" 
d="M101 601q-23 0 -38 14t-15 37q0 25 17 42t41 17q23 0 37.5 -14t14.5 -36q0 -24 -16.5 -42t-40.5 -18zM292 601q-23 0 -38 14t-15 37q0 25 16.5 42t41.5 17q22 0 36.5 -14t14.5 -36q0 -24 -16 -42t-40 -18z" />
    <glyph glyph-name="copyright" unicode="&#xa9;" horiz-adv-x="800" 
d="M401 -22q-158 0 -269.5 109.5t-111.5 265.5q0 157 111.5 267t269.5 110q157 0 268 -110t111 -267q0 -156 -111 -265.5t-268 -109.5zM400 22q138 0 236 97t98 234q0 138 -98 235.5t-235 97.5q-138 0 -236.5 -97.5t-98.5 -235.5q0 -137 98 -234t236 -97zM417 125
q-99 0 -163.5 62.5t-64.5 165.5q0 101 65 164t163 63q41 0 83 -14.5t67 -35.5l-21 -65q-54 50 -130 50q-67 0 -108.5 -46t-41.5 -116q0 -69 41.5 -115t111.5 -46q80 0 129 44l10 -65q-53 -46 -141 -46z" />
    <glyph glyph-name="ordfeminine" unicode="&#xaa;" horiz-adv-x="364" 
d="M183 424q-37 0 -63.5 19.5t-26.5 55.5q0 60 54 83.5t151 23.5q2 8 2 22q0 45 -57 45q-45 0 -80 -29l-26 38q51 39 113 39q51 0 79.5 -23t28.5 -64q0 -4 -3 -34l-20 -109q-5 -33 -5 -60h-53q0 15 4 45h-1q-32 -52 -97 -52zM203 468q35 0 57.5 23t28.5 56l5 20h-11
q-132 0 -132 -59q0 -40 52 -40z" />
    <glyph glyph-name="guillemotleft" unicode="&#xab;" horiz-adv-x="514" 
d="M152 31l-106 217l181 214l51 -41l-148 -179l84 -175zM348 31l-105 214l181 215l52 -41l-148 -179l83 -173z" />
    <glyph glyph-name="logicalnot" unicode="&#xac;" horiz-adv-x="666" 
d="M512 139v211h-441v75h520v-286h-79z" />
    <glyph glyph-name="uni00AD" unicode="&#xad;" horiz-adv-x="316" 
d="M35 217l14 77h222l-14 -77h-222z" />
    <glyph glyph-name="registered" unicode="&#xae;" horiz-adv-x="600" 
d="M341 268q-95 0 -162 65.5t-67 159.5t67 160.5t162 66.5q94 0 160.5 -66.5t66.5 -160.5t-66.5 -159.5t-160.5 -65.5zM341 296q81 0 138.5 58t57.5 139q0 82 -57 139.5t-139 57.5t-140 -57.5t-58 -139.5q0 -81 58 -139t140 -58zM246 367v259h100q44 0 73 -19t29 -59
q0 -57 -57 -71l69 -110h-66l-58 102h-33v-102h-57zM303 511h36q50 0 50 37q0 32 -44 32h-42v-69z" />
    <glyph glyph-name="overscore" unicode="&#xaf;" 
d="M48 608l9 56h287l-10 -56h-286z" />
    <glyph glyph-name="degree" unicode="&#xb0;" horiz-adv-x="408" 
d="M248 408q-65 0 -110.5 45.5t-45.5 111.5t45.5 111t110.5 45q66 0 111.5 -45t45.5 -111t-45.5 -111.5t-111.5 -45.5zM248 461q44 0 74 30.5t30 73.5t-30.5 73t-73.5 30t-73 -30t-30 -73t30 -73.5t73 -30.5z" />
    <glyph glyph-name="plusminus" unicode="&#xb1;" horiz-adv-x="666" 
d="M295 181v157h-219v77h219v159h80v-159h221v-77h-221v-157h-80zM77 40v77h518v-77h-518z" />
    <glyph glyph-name="uni00B2" unicode="&#xb2;" horiz-adv-x="363" 
d="M65 450l10 60l187 156q38 32 53.5 55t15.5 49q0 27 -16.5 41.5t-45.5 14.5q-62 0 -92 -66l-54 27q44 99 153 99q54 0 89 -29.5t35 -78.5q0 -47 -22.5 -78t-80.5 -79l-131 -110h203l-18 -61h-286z" />
    <glyph glyph-name="uni00B3" unicode="&#xb3;" horiz-adv-x="360" 
d="M210 440q-97 0 -145 66l38 48q14 -23 44.5 -38.5t62.5 -15.5q39 0 61.5 20.5t22.5 54.5q0 35 -24 52.5t-63 17.5h-24l9 53h25q46 0 71.5 19.5t25.5 53.5q0 57 -61 57q-44 0 -88 -42l-28 48q49 51 124 51q53 0 87.5 -28t34.5 -78q0 -44 -26.5 -73t-65.5 -37
q33 -10 52.5 -34.5t19.5 -59.5q0 -64 -43.5 -99.5t-109.5 -35.5z" />
    <glyph glyph-name="acute" unicode="&#xb4;" 
d="M121 568l128 144h102l-156 -144h-74z" />
    <glyph glyph-name="uni00B5" unicode="&#xb5;" horiz-adv-x="624" 
d="M545 479v-479h-79l-14 84h-5q-40 -94 -144 -94q-90 0 -123 62h-2q3 -40 3 -102v-190h-102v719h102v-266q0 -137 123 -137q74 0 106 47.5t32 138.5v217h103z" />
    <glyph glyph-name="paragraph" unicode="&#xb6;" horiz-adv-x="608" 
d="M181 -127l80 460q-85 1 -134.5 42.5t-49.5 107.5q0 97 70.5 161t200.5 64h243l-147 -835h-73l137 774h-118l-137 -774h-72z" />
    <glyph glyph-name="middot" unicode="&#xb7;" horiz-adv-x="272" 
d="M137 220q-26 0 -43 16t-17 42q0 28 19 47.5t47 19.5q26 0 42.5 -16t16.5 -41q0 -28 -19 -48t-46 -20z" />
    <glyph glyph-name="cedilla" unicode="&#xb8;" 
d="M40 -233q-61 0 -107 22l21 40q36 -17 82 -17q72 0 72 46q0 37 -50 37q-32 0 -53 -9l-18 19l84 95h52l-64 -73q15 5 33 5q32 0 57.5 -16.5t25.5 -52.5q0 -49 -39.5 -72.5t-95.5 -23.5z" />
    <glyph glyph-name="uni00B9" unicode="&#xb9;" horiz-adv-x="250" 
d="M168 450l61 346l-91 -58l-28 51l141 88h64l-75 -427h-72z" />
    <glyph glyph-name="ordmasculine" unicode="&#xba;" horiz-adv-x="364" 
d="M213 424q-62 0 -99 35t-37 90q0 73 47.5 123t120.5 50q62 0 99.5 -34.5t37.5 -90.5q0 -74 -47.5 -123.5t-121.5 -49.5zM217 477q46 0 74.5 33.5t28.5 81.5q0 33 -21 55t-58 22q-45 0 -73 -33.5t-28 -80.5q0 -34 20 -56t57 -22z" />
    <glyph glyph-name="guillemotright" unicode="&#xbb;" horiz-adv-x="514" 
d="M78 32l-53 41l149 179l-83 173l62 36l106 -214zM275 30l-52 40l148 180l-84 175l62 36l107 -217z" />
    <glyph glyph-name="onequarter" unicode="&#xbc;" horiz-adv-x="780" 
d="M128 -31l-46 30l550 739l47 -29zM129 281l61 347l-91 -59l-28 51l141 89h64l-75 -428h-72zM571 0l17 95h-197l10 59l226 273h83l-48 -274h71l-18 -58h-62l-17 -95h-65zM470 153h128l34 196h-3z" />
    <glyph glyph-name="onehalf" unicode="&#xbd;" horiz-adv-x="828" 
d="M125 -31l-46 30l550 739l46 -29zM135 281l61 347l-91 -59l-28 51l141 89h64l-75 -428h-72zM439 -2l10 61l187 156q38 32 53.5 55t15.5 49t-16.5 41t-45.5 15q-60 0 -92 -66l-54 27q44 99 153 99q54 0 89 -29.5t35 -78.5q0 -47 -22.5 -78t-80.5 -79l-131 -110h203l-18 -62
h-286z" />
    <glyph glyph-name="threequarters" unicode="&#xbe;" horiz-adv-x="869" 
d="M224 -31l-46 30l550 739l46 -29zM202 271q-84 0 -139 47l27 62q44 -49 114 -49q37 0 59.5 20.5t22.5 54.5q0 36 -24 53t-63 17h-24l9 53h25q45 0 71 19.5t26 53.5q0 57 -61 57q-43 0 -91 -39l-21 54q53 43 119 43q54 0 88.5 -28.5t34.5 -78.5q0 -44 -27 -73t-65 -37
q33 -10 52.5 -34.5t19.5 -59.5q0 -64 -43.5 -99.5t-109.5 -35.5zM640 0l17 95h-197l10 59l226 273h83l-48 -274h71l-18 -58h-62l-17 -95h-65zM539 153h128l34 196h-3z" />
    <glyph glyph-name="questiondown" unicode="&#xbf;" horiz-adv-x="507" 
d="M273 503q26 0 42.5 -15.5t16.5 -40.5q0 -28 -18.5 -47.5t-45.5 -19.5q-26 0 -42.5 15.5t-16.5 40.5q0 28 18.5 47.5t45.5 19.5zM175 -229q-82 0 -138.5 42.5t-56.5 123.5q0 62 32.5 104.5t98.5 86.5q49 34 67.5 58.5t25.5 65.5l5 34h92l-8 -47q-8 -50 -32 -81.5
t-80 -73.5q-58 -43 -79.5 -71t-21.5 -66q0 -45 27 -68.5t74 -23.5q45 0 89.5 23t74.5 59l43 -73q-81 -93 -213 -93z" />
    <glyph glyph-name="Agrave" unicode="&#xc0;" horiz-adv-x="680" 
d="M-61 0l453 708h100l134 -708h-104l-40 226h-290l-139 -226h-114zM237 307h234l-50 296zM417 764l-135 144h102l106 -144h-73z" />
    <glyph glyph-name="Aacute" unicode="&#xc1;" horiz-adv-x="680" 
d="M-61 0l453 708h100l134 -708h-104l-40 226h-290l-139 -226h-114zM237 307h234l-50 296zM402 764l128 144h102l-156 -144h-74z" />
    <glyph glyph-name="Acircumflex" unicode="&#xc2;" horiz-adv-x="680" 
d="M-61 0l453 708h100l134 -708h-104l-40 226h-290l-139 -226h-114zM237 307h234l-50 296zM290 764l139 144h93l85 -144h-76l-62 104l-99 -104h-80z" />
    <glyph glyph-name="Atilde" unicode="&#xc3;" horiz-adv-x="680" 
d="M-61 0l453 708h100l134 -708h-104l-40 226h-290l-139 -226h-114zM237 307h234l-50 296zM290 778q32 104 108 104q30 0 68 -22q37 -22 60 -22q33 0 51 46h47q-32 -104 -108 -104q-25 0 -71 23q-39 22 -57 22q-34 0 -51 -47h-47z" />
    <glyph glyph-name="Adieresis" unicode="&#xc4;" horiz-adv-x="680" 
d="M-61 0l453 708h100l134 -708h-104l-40 226h-290l-139 -226h-114zM237 307h234l-50 296zM366 797q-23 0 -38 14t-15 37q0 25 17 42.5t41 17.5q23 0 37.5 -14.5t14.5 -36.5q0 -24 -16.5 -42t-40.5 -18zM557 797q-23 0 -38 14t-15 37q0 26 16.5 43t41.5 17q22 0 36.5 -14.5
t14.5 -36.5q0 -24 -16 -42t-40 -18z" />
    <glyph glyph-name="Aring" unicode="&#xc5;" horiz-adv-x="680" 
d="M-61 0l453 708h100l134 -708h-104l-40 226h-290l-139 -226h-114zM237 307h234l-50 296zM452 752q-40 0 -64 23.5t-24 60.5q0 48 31.5 82.5t80.5 34.5q40 0 63.5 -23.5t23.5 -60.5q0 -49 -31 -83t-80 -34zM455 785q32 0 52.5 23t20.5 57q0 24 -15 40t-40 16
q-32 0 -52.5 -24t-20.5 -57q0 -24 14 -39.5t41 -15.5z" />
    <glyph glyph-name="AE" unicode="&#xc6;" horiz-adv-x="954" 
d="M-36 0l557 708h447l-30 -85h-278l-38 -218h274l-30 -81h-258l-42 -238h321l-30 -86h-400l31 181h-267l-142 -181h-115zM276 261h227l63 362h-7z" />
    <glyph glyph-name="Ccedilla" unicode="&#xc7;" horiz-adv-x="704" 
d="M480 727q71 0 137.5 -23.5t101.5 -56.5l-40 -89q-32 34 -86 57.5t-116 23.5q-132 0 -221 -102t-89 -237q0 -100 59 -165t169 -65q122 0 228 91l3 -93q-41 -37 -106.5 -61.5t-134.5 -25.5l-48 -54q15 5 33 5q32 0 57.5 -16.5t25.5 -52.5q0 -49 -39.5 -72.5t-95.5 -23.5
q-62 0 -106 22l21 40q34 -17 81 -17q72 0 72 46q0 37 -50 37q-32 0 -53 -9l-18 19l69 78q-128 14 -200.5 96t-72.5 209q0 185 122 312t297 127z" />
    <glyph glyph-name="Egrave" unicode="&#xc8;" horiz-adv-x="551" 
d="M39 0l125 708h401l-30 -85h-291l-39 -218h287l-29 -81h-272l-41 -238h334l-30 -86h-415zM380 764l-135 144h102l106 -144h-73z" />
    <glyph glyph-name="Eacute" unicode="&#xc9;" horiz-adv-x="551" 
d="M39 0l125 708h401l-30 -85h-291l-39 -218h287l-29 -81h-272l-41 -238h334l-30 -86h-415zM302 764l128 144h102l-156 -144h-74z" />
    <glyph glyph-name="Ecircumflex" unicode="&#xca;" horiz-adv-x="551" 
d="M39 0l125 708h401l-30 -85h-291l-39 -218h287l-29 -81h-272l-41 -238h334l-30 -86h-415zM216 764l139 144h93l85 -144h-76l-62 104l-99 -104h-80z" />
    <glyph glyph-name="Edieresis" unicode="&#xcb;" horiz-adv-x="551" 
d="M39 0l125 708h401l-30 -85h-291l-39 -218h287l-29 -81h-272l-41 -238h334l-30 -86h-415zM290 797q-23 0 -38 14t-15 37q0 25 17 42.5t41 17.5q23 0 37.5 -14.5t14.5 -36.5q0 -24 -16.5 -42t-40.5 -18zM481 797q-23 0 -38 14t-15 37q0 26 16.5 43t41.5 17q22 0 36.5 -14.5
t14.5 -36.5q0 -24 -16 -42t-40 -18z" />
    <glyph glyph-name="Igrave" unicode="&#xcc;" horiz-adv-x="277" 
d="M39 0l125 708h99l-125 -708h-99zM190 764l-135 144h102l106 -144h-73z" />
    <glyph glyph-name="Iacute" unicode="&#xcd;" horiz-adv-x="277" 
d="M39 0l125 708h99l-125 -708h-99zM171 764l128 144h102l-156 -144h-74z" />
    <glyph glyph-name="Icircumflex" unicode="&#xce;" horiz-adv-x="277" 
d="M39 0l125 708h99l-125 -708h-99zM59 764l139 144h93l85 -144h-76l-62 104l-99 -104h-80z" />
    <glyph glyph-name="Idieresis" unicode="&#xcf;" horiz-adv-x="277" 
d="M39 0l125 708h99l-125 -708h-99zM133 797q-23 0 -38 14t-15 37q0 25 17 42.5t41 17.5q23 0 37.5 -14.5t14.5 -36.5q0 -24 -16.5 -42t-40.5 -18zM324 797q-23 0 -38 14t-15 37q0 26 16.5 43t41.5 17q22 0 36.5 -14.5t14.5 -36.5q0 -24 -16 -42t-40 -18z" />
    <glyph glyph-name="Eth" unicode="&#xd0;" horiz-adv-x="769" 
d="M39 0l58 333h-66l12 67h66l55 308h227q89 0 163 -30t123 -99t49 -166q0 -193 -124.5 -303t-317.5 -110h-245zM152 86h136q151 0 243 86.5t92 227.5q0 101 -66.5 162t-185.5 61h-124l-40 -223h218l-11 -67h-219z" />
    <glyph glyph-name="Ntilde" unicode="&#xd1;" horiz-adv-x="768" 
d="M39 0l125 708h114l271 -567h2l98 567h98l-125 -708h-113l-271 570h-2l-99 -570h-98zM306 778q32 104 108 104q30 0 68 -22q37 -22 60 -22q33 0 51 46h47q-32 -104 -108 -104q-25 0 -71 23q-39 22 -57 22q-34 0 -51 -47h-47z" />
    <glyph glyph-name="Ograve" unicode="&#xd2;" horiz-adv-x="846" 
d="M392 -19q-154 0 -242.5 86t-88.5 226q0 180 117.5 307t296.5 127q154 0 241.5 -86t87.5 -227q0 -117 -51.5 -216t-146.5 -158t-214 -59zM397 70q135 0 219.5 100.5t84.5 236.5q0 101 -60.5 166.5t-171.5 65.5q-134 0 -219.5 -101t-85.5 -236q0 -101 60.5 -166.5
t172.5 -65.5zM494 764l-135 144h102l106 -144h-73z" />
    <glyph glyph-name="Oacute" unicode="&#xd3;" horiz-adv-x="846" 
d="M392 -19q-154 0 -242.5 86t-88.5 226q0 180 117.5 307t296.5 127q154 0 241.5 -86t87.5 -227q0 -117 -51.5 -216t-146.5 -158t-214 -59zM397 70q135 0 219.5 100.5t84.5 236.5q0 101 -60.5 166.5t-171.5 65.5q-134 0 -219.5 -101t-85.5 -236q0 -101 60.5 -166.5
t172.5 -65.5zM433 764l128 144h102l-156 -144h-74z" />
    <glyph glyph-name="Ocircumflex" unicode="&#xd4;" horiz-adv-x="846" 
d="M392 -19q-154 0 -242.5 86t-88.5 226q0 180 117.5 307t296.5 127q154 0 241.5 -86t87.5 -227q0 -117 -51.5 -216t-146.5 -158t-214 -59zM397 70q135 0 219.5 100.5t84.5 236.5q0 101 -60.5 166.5t-171.5 65.5q-134 0 -219.5 -101t-85.5 -236q0 -101 60.5 -166.5
t172.5 -65.5zM347 764l139 144h93l85 -144h-76l-62 104l-99 -104h-80z" />
    <glyph glyph-name="Otilde" unicode="&#xd5;" horiz-adv-x="846" 
d="M392 -19q-154 0 -242.5 86t-88.5 226q0 180 117.5 307t296.5 127q154 0 241.5 -86t87.5 -227q0 -117 -51.5 -216t-146.5 -158t-214 -59zM397 70q135 0 219.5 100.5t84.5 236.5q0 101 -60.5 166.5t-171.5 65.5q-134 0 -219.5 -101t-85.5 -236q0 -101 60.5 -166.5
t172.5 -65.5zM345 778q32 104 108 104q30 0 68 -22q37 -22 60 -22q33 0 51 46h47q-32 -104 -108 -104q-25 0 -71 23q-39 22 -57 22q-34 0 -51 -47h-47z" />
    <glyph glyph-name="Odieresis" unicode="&#xd6;" horiz-adv-x="846" 
d="M392 -19q-154 0 -242.5 86t-88.5 226q0 180 117.5 307t296.5 127q154 0 241.5 -86t87.5 -227q0 -117 -51.5 -216t-146.5 -158t-214 -59zM397 70q135 0 219.5 100.5t84.5 236.5q0 101 -60.5 166.5t-171.5 65.5q-134 0 -219.5 -101t-85.5 -236q0 -101 60.5 -166.5
t172.5 -65.5zM418 797q-23 0 -38 14t-15 37q0 25 17 42.5t41 17.5q23 0 37.5 -14.5t14.5 -36.5q0 -24 -16.5 -42t-40.5 -18zM609 797q-23 0 -38 14t-15 37q0 26 16.5 43t41.5 17q22 0 36.5 -14.5t14.5 -36.5q0 -24 -16 -42t-40 -18z" />
    <glyph glyph-name="multiply" unicode="&#xd7;" horiz-adv-x="666" 
d="M159 76l-56 54l175 174l-176 174l57 55l175 -173l173 172l55 -53l-173 -173l176 -174l-57 -56l-174 172z" />
    <glyph glyph-name="Oslash" unicode="&#xd8;" horiz-adv-x="846" 
d="M59 -23l-36 39l94 88q-56 77 -56 189q0 180 118 307t297 127q138 0 228 -74l89 84l37 -38l-91 -84q66 -80 66 -201q0 -117 -51.5 -216t-147 -158t-214.5 -59q-150 0 -239 84zM195 174l436 412q-60 55 -160 55q-137 0 -223.5 -102t-86.5 -239q0 -74 34 -126zM395 68
q138 0 223.5 101t85.5 238q0 79 -40 137l-437 -413q58 -63 168 -63z" />
    <glyph glyph-name="Ugrave" unicode="&#xd9;" horiz-adv-x="725" 
d="M330 -19q-122 0 -189.5 59.5t-67.5 163.5q0 32 6 68l77 436h98l-76 -431q-5 -30 -5 -54q0 -69 39.5 -112t121.5 -43q55 0 94.5 18t62 50.5t34 64t19.5 73.5l77 434h97l-78 -444q-49 -283 -310 -283zM422 764l-135 144h102l106 -144h-73z" />
    <glyph glyph-name="Uacute" unicode="&#xda;" horiz-adv-x="725" 
d="M330 -19q-122 0 -189.5 59.5t-67.5 163.5q0 32 6 68l77 436h98l-76 -431q-5 -30 -5 -54q0 -69 39.5 -112t121.5 -43q55 0 94.5 18t62 50.5t34 64t19.5 73.5l77 434h97l-78 -444q-49 -283 -310 -283zM378 764l128 144h102l-156 -144h-74z" />
    <glyph glyph-name="Ucircumflex" unicode="&#xdb;" horiz-adv-x="725" 
d="M330 -19q-122 0 -189.5 59.5t-67.5 163.5q0 32 6 68l77 436h98l-76 -431q-5 -30 -5 -54q0 -69 39.5 -112t121.5 -43q55 0 94.5 18t62 50.5t34 64t19.5 73.5l77 434h97l-78 -444q-49 -283 -310 -283zM286 764l139 144h93l85 -144h-76l-62 104l-99 -104h-80z" />
    <glyph glyph-name="Udieresis" unicode="&#xdc;" horiz-adv-x="725" 
d="M330 -19q-122 0 -189.5 59.5t-67.5 163.5q0 32 6 68l77 436h98l-76 -431q-5 -30 -5 -54q0 -69 39.5 -112t121.5 -43q55 0 94.5 18t62 50.5t34 64t19.5 73.5l77 434h97l-78 -444q-49 -283 -310 -283zM361 797q-23 0 -38 14t-15 37q0 25 17 42.5t41 17.5q23 0 37.5 -14.5
t14.5 -36.5q0 -24 -16.5 -42t-40.5 -18zM552 797q-23 0 -38 14t-15 37q0 26 16.5 43t41.5 17q22 0 36.5 -14.5t14.5 -36.5q0 -24 -16 -42t-40 -18z" />
    <glyph glyph-name="Yacute" unicode="&#xdd;" horiz-adv-x="568" 
d="M178 0l53 305l-174 403h111l126 -319l253 319h120l-337 -403l-54 -305h-98zM316 764l128 144h102l-156 -144h-74z" />
    <glyph glyph-name="Thorn" unicode="&#xde;" horiz-adv-x="600" 
d="M39 0l125 708h98l-24 -141h108q104 0 165.5 -46t61.5 -132q0 -105 -73.5 -164t-205.5 -59h-127l-30 -166h-98zM181 246h117q84 0 130 35t46 99q0 106 -138 106h-113z" />
    <glyph glyph-name="germandbls" unicode="&#xdf;" horiz-adv-x="620" 
d="M285 -11q-41 0 -72 7l13 76q24 -6 55 -6q82 0 133.5 48.5t51.5 127.5q0 60 -39.5 99t-105.5 39h-13l13 77h14q59 0 103 33t44 96q0 48 -31 76t-79 28q-123 0 -153 -169l-91 -521h-97l93 525q43 243 252 243q84 0 141.5 -44t57.5 -125q0 -72 -42 -116.5t-106 -59.5l-1 -2
q59 -14 98 -61t39 -118q0 -112 -75 -182.5t-203 -70.5z" />
    <glyph glyph-name="agrave" unicode="&#xe0;" horiz-adv-x="538" 
d="M173 -12q-58 0 -103.5 30t-45.5 95q0 54 28.5 91.5t81.5 56t110 26t131 7.5q4 24 4 41q0 85 -102 85q-38 0 -82.5 -15.5t-71.5 -37.5l-20 72q79 55 186 55q82 0 131.5 -38t49.5 -111q0 -28 -5 -55l-34 -189q-10 -58 -10 -101h-85q0 33 7 77h-2q-59 -89 -168 -89zM204 55
q63 0 104 43t54 105l6 30h-20q-236 0 -236 -105q0 -40 27 -56.5t65 -16.5zM291 568l-135 144h102l106 -144h-73z" />
    <glyph glyph-name="aacute" unicode="&#xe1;" horiz-adv-x="538" 
d="M173 -12q-58 0 -103.5 30t-45.5 95q0 54 28.5 91.5t81.5 56t110 26t131 7.5q4 24 4 41q0 85 -102 85q-38 0 -82.5 -15.5t-71.5 -37.5l-20 72q79 55 186 55q82 0 131.5 -38t49.5 -111q0 -28 -5 -55l-34 -189q-10 -58 -10 -101h-85q0 33 7 77h-2q-59 -89 -168 -89zM204 55
q63 0 104 43t54 105l6 30h-20q-236 0 -236 -105q0 -40 27 -56.5t65 -16.5zM258 568l128 144h102l-156 -144h-74z" />
    <glyph glyph-name="acircumflex" unicode="&#xe2;" horiz-adv-x="538" 
d="M173 -12q-58 0 -103.5 30t-45.5 95q0 54 28.5 91.5t81.5 56t110 26t131 7.5q4 24 4 41q0 85 -102 85q-38 0 -82.5 -15.5t-71.5 -37.5l-20 72q79 55 186 55q82 0 131.5 -38t49.5 -111q0 -28 -5 -55l-34 -189q-10 -58 -10 -101h-85q0 33 7 77h-2q-59 -89 -168 -89zM204 55
q63 0 104 43t54 105l6 30h-20q-236 0 -236 -105q0 -40 27 -56.5t65 -16.5zM159 568l139 144h93l85 -144h-76l-62 104l-99 -104h-80z" />
    <glyph glyph-name="atilde" unicode="&#xe3;" horiz-adv-x="538" 
d="M173 -12q-58 0 -103.5 30t-45.5 95q0 54 28.5 91.5t81.5 56t110 26t131 7.5q4 24 4 41q0 85 -102 85q-38 0 -82.5 -15.5t-71.5 -37.5l-20 72q79 55 186 55q82 0 131.5 -38t49.5 -111q0 -28 -5 -55l-34 -189q-10 -58 -10 -101h-85q0 33 7 77h-2q-59 -89 -168 -89zM204 55
q63 0 104 43t54 105l6 30h-20q-236 0 -236 -105q0 -40 27 -56.5t65 -16.5zM159 582q32 104 108 104q30 0 68 -22q37 -23 60 -23q33 0 51 47h47q-32 -104 -108 -104q-29 0 -70 23q-42 21 -58 21q-33 0 -51 -46h-47z" />
    <glyph glyph-name="adieresis" unicode="&#xe4;" horiz-adv-x="538" 
d="M173 -12q-58 0 -103.5 30t-45.5 95q0 54 28.5 91.5t81.5 56t110 26t131 7.5q4 24 4 41q0 85 -102 85q-38 0 -82.5 -15.5t-71.5 -37.5l-20 72q79 55 186 55q82 0 131.5 -38t49.5 -111q0 -28 -5 -55l-34 -189q-10 -58 -10 -101h-85q0 33 7 77h-2q-59 -89 -168 -89zM204 55
q63 0 104 43t54 105l6 30h-20q-236 0 -236 -105q0 -40 27 -56.5t65 -16.5zM232 601q-23 0 -38 14t-15 37q0 25 17 42t41 17q23 0 37.5 -14t14.5 -36q0 -24 -16.5 -42t-40.5 -18zM423 601q-23 0 -38 14t-15 37q0 25 16.5 42t41.5 17q22 0 36.5 -14t14.5 -36q0 -24 -16 -42
t-40 -18z" />
    <glyph glyph-name="aring" unicode="&#xe5;" horiz-adv-x="538" 
d="M173 -12q-58 0 -103.5 30t-45.5 95q0 54 28.5 91.5t81.5 56t110 26t131 7.5q4 24 4 41q0 85 -102 85q-38 0 -82.5 -15.5t-71.5 -37.5l-20 72q79 55 186 55q82 0 131.5 -38t49.5 -111q0 -28 -5 -55l-34 -189q-10 -58 -10 -101h-85q0 33 7 77h-2q-59 -89 -168 -89zM204 55
q63 0 104 43t54 105l6 30h-20q-236 0 -236 -105q0 -40 27 -56.5t65 -16.5zM318 556q-40 0 -64 23.5t-24 60.5q0 48 31.5 82t80.5 34q40 0 63.5 -23t23.5 -60q0 -49 -31 -83t-80 -34zM321 588q32 0 52.5 23.5t20.5 57.5q0 24 -15 40t-40 16q-32 0 -52.5 -24t-20.5 -57
q0 -25 14 -40.5t41 -15.5z" />
    <glyph glyph-name="ae" unicode="&#xe6;" horiz-adv-x="888" 
d="M589 -14q-76 0 -127.5 35t-70.5 92q-24 -54 -75.5 -89.5t-127.5 -35.5q-41 0 -76.5 10.5t-62.5 40t-27 74.5q0 42 20 73t51 48.5t79 28t94.5 14t106.5 3.5q8 32 8 54q0 86 -102 86q-38 0 -80.5 -14.5t-72.5 -36.5l-23 69q85 56 186 56q135 0 156 -98q29 44 79 71t110 27
q95 0 148.5 -53t53.5 -143q0 -41 -10 -80h-376q-2 -16 -2 -20q0 -62 42 -100t108 -38q91 0 171 56l10 -76q-80 -54 -190 -54zM458 280h290q2 20 2 30q0 51 -32.5 82.5t-89.5 31.5q-68 0 -113.5 -44.5t-56.5 -99.5zM205 55q64 0 104.5 41t52.5 102l4 21h-26q-229 0 -229 -93
q0 -38 27.5 -54.5t66.5 -16.5z" />
    <glyph glyph-name="ccedilla" unicode="&#xe7;" horiz-adv-x="489" 
d="M202 -233q-60 0 -106 22l21 40q36 -17 82 -17q32 0 52 12t20 34q0 37 -50 37q-31 0 -54 -9l-17 19l72 83q-87 10 -136 66t-49 141q0 121 81.5 210t206.5 89q54 0 99 -18.5t70 -53.5l-63 -57q-14 22 -43.5 36t-63.5 14q-83 0 -138.5 -62t-55.5 -146q0 -62 36.5 -102
t105.5 -40q75 0 127 52l47 -60q-74 -68 -173 -72l-51 -58q15 5 32 5q32 0 58 -16.5t26 -52.5q0 -49 -40 -72.5t-96 -23.5z" />
    <glyph glyph-name="egrave" unicode="&#xe8;" horiz-adv-x="571" 
d="M264 -14q-103 0 -165.5 58t-62.5 158q0 121 80 206.5t202 85.5q95 0 148.5 -53t53.5 -143q0 -35 -10 -80h-382q-2 -16 -2 -20q0 -63 42.5 -100t111.5 -37q92 0 171 55l9 -76q-78 -54 -196 -54zM136 280h296q2 20 2 30q0 51 -33 82.5t-90 31.5q-70 0 -117 -44.5t-58 -99.5
zM311 568l-135 144h102l106 -144h-73z" />
    <glyph glyph-name="eacute" unicode="&#xe9;" horiz-adv-x="571" 
d="M264 -14q-103 0 -165.5 58t-62.5 158q0 121 80 206.5t202 85.5q95 0 148.5 -53t53.5 -143q0 -35 -10 -80h-382q-2 -16 -2 -20q0 -63 42.5 -100t111.5 -37q92 0 171 55l9 -76q-78 -54 -196 -54zM136 280h296q2 20 2 30q0 51 -33 82.5t-90 31.5q-70 0 -117 -44.5t-58 -99.5
zM267 568l128 144h102l-156 -144h-74z" />
    <glyph glyph-name="ecircumflex" unicode="&#xea;" horiz-adv-x="571" 
d="M264 -14q-103 0 -165.5 58t-62.5 158q0 121 80 206.5t202 85.5q95 0 148.5 -53t53.5 -143q0 -35 -10 -80h-382q-2 -16 -2 -20q0 -63 42.5 -100t111.5 -37q92 0 171 55l9 -76q-78 -54 -196 -54zM136 280h296q2 20 2 30q0 51 -33 82.5t-90 31.5q-70 0 -117 -44.5t-58 -99.5
zM186 568l139 144h93l85 -144h-76l-62 104l-99 -104h-80z" />
    <glyph glyph-name="edieresis" unicode="&#xeb;" horiz-adv-x="571" 
d="M264 -14q-103 0 -165.5 58t-62.5 158q0 121 80 206.5t202 85.5q95 0 148.5 -53t53.5 -143q0 -35 -10 -80h-382q-2 -16 -2 -20q0 -63 42.5 -100t111.5 -37q92 0 171 55l9 -76q-78 -54 -196 -54zM136 280h296q2 20 2 30q0 51 -33 82.5t-90 31.5q-70 0 -117 -44.5t-58 -99.5
zM259 601q-23 0 -38 14t-15 37q0 25 17 42t41 17q23 0 37.5 -14t14.5 -36q0 -24 -16.5 -42t-40.5 -18zM450 601q-23 0 -38 14t-15 37q0 25 16.5 42t41.5 17q22 0 36.5 -14t14.5 -36q0 -24 -16 -42t-40 -18z" />
    <glyph glyph-name="igrave" unicode="&#xec;" horiz-adv-x="262" 
d="M33 0l85 479h96l-86 -479h-95zM154 568l-135 144h102l106 -144h-73z" />
    <glyph glyph-name="iacute" unicode="&#xed;" horiz-adv-x="262" 
d="M33 0l85 479h96l-86 -479h-95zM127 568l128 144h102l-156 -144h-74z" />
    <glyph glyph-name="icircumflex" unicode="&#xee;" horiz-adv-x="262" 
d="M33 0l85 479h96l-86 -479h-95zM24 568l139 144h93l85 -144h-76l-62 104l-99 -104h-80z" />
    <glyph glyph-name="idieresis" unicode="&#xef;" horiz-adv-x="262" 
d="M33 0l85 479h96l-86 -479h-95zM94 601q-23 0 -38 14t-15 37q0 25 17 42t41 17q23 0 37.5 -14t14.5 -36q0 -24 -16.5 -42t-40.5 -18zM285 601q-23 0 -38 14t-15 37q0 25 16.5 42t41.5 17q22 0 36.5 -14t14.5 -36q0 -24 -16 -42t-40 -18z" />
    <glyph glyph-name="eth" unicode="&#xf0;" horiz-adv-x="611" 
d="M276 -13q-105 0 -169 58t-64 153q0 122 77.5 208t205.5 86q82 0 124 -48l4 2q-32 109 -100 179l-119 -54l-41 44l119 54q-31 37 -74 69l82 43q45 -36 78 -76l117 53l46 -44l-122 -56q54 -67 89 -161t35 -197q0 -130 -76 -221.5t-212 -91.5zM280 65q83 0 135.5 61
t52.5 147q0 62 -38 102t-106 40q-82 0 -134.5 -61.5t-52.5 -146.5q0 -62 37.5 -102t105.5 -40z" />
    <glyph glyph-name="ntilde" unicode="&#xf1;" horiz-adv-x="591" 
d="M33 0l65 371q12 65 15 108h92q-3 -34 -12 -91h2q27 49 71.5 77t97.5 28q76 0 114.5 -42.5t38.5 -111.5q0 -33 -5 -55l-50 -284h-95l47 269q5 25 5 46q0 43 -22.5 71t-71.5 28q-56 0 -98 -46t-56 -127l-43 -241h-95zM184 582q32 104 108 104q30 0 68 -22q37 -23 60 -23
q33 0 51 47h47q-32 -104 -108 -104q-29 0 -70 23q-42 21 -58 21q-33 0 -51 -46h-47z" />
    <glyph glyph-name="ograve" unicode="&#xf2;" horiz-adv-x="611" 
d="M269 -13q-105 0 -169 58t-64 153q0 122 79.5 209t206.5 87q106 0 170 -58.5t64 -153.5q0 -123 -79.5 -209t-207.5 -86zM273 66q83 0 135.5 60.5t52.5 146.5q0 62 -37.5 101.5t-105.5 39.5q-83 0 -135.5 -61t-52.5 -146q0 -62 37.5 -101.5t105.5 -39.5zM330 568l-135 144
h102l106 -144h-73z" />
    <glyph glyph-name="oacute" unicode="&#xf3;" horiz-adv-x="611" 
d="M269 -13q-105 0 -169 58t-64 153q0 122 79.5 209t206.5 87q106 0 170 -58.5t64 -153.5q0 -123 -79.5 -209t-207.5 -86zM273 66q83 0 135.5 60.5t52.5 146.5q0 62 -37.5 101.5t-105.5 39.5q-83 0 -135.5 -61t-52.5 -146q0 -62 37.5 -101.5t105.5 -39.5zM281 568l128 144
h102l-156 -144h-74z" />
    <glyph glyph-name="ocircumflex" unicode="&#xf4;" horiz-adv-x="611" 
d="M269 -13q-105 0 -169 58t-64 153q0 122 79.5 209t206.5 87q106 0 170 -58.5t64 -153.5q0 -123 -79.5 -209t-207.5 -86zM273 66q83 0 135.5 60.5t52.5 146.5q0 62 -37.5 101.5t-105.5 39.5q-83 0 -135.5 -61t-52.5 -146q0 -62 37.5 -101.5t105.5 -39.5zM197 568l139 144
h93l85 -144h-76l-62 104l-99 -104h-80z" />
    <glyph glyph-name="otilde" unicode="&#xf5;" horiz-adv-x="611" 
d="M269 -13q-105 0 -169 58t-64 153q0 122 79.5 209t206.5 87q106 0 170 -58.5t64 -153.5q0 -123 -79.5 -209t-207.5 -86zM273 66q83 0 135.5 60.5t52.5 146.5q0 62 -37.5 101.5t-105.5 39.5q-83 0 -135.5 -61t-52.5 -146q0 -62 37.5 -101.5t105.5 -39.5zM193 582
q32 104 108 104q30 0 68 -22q37 -23 60 -23q33 0 51 47h47q-32 -104 -108 -104q-29 0 -70 23q-42 21 -58 21q-33 0 -51 -46h-47z" />
    <glyph glyph-name="odieresis" unicode="&#xf6;" horiz-adv-x="611" 
d="M269 -13q-105 0 -169 58t-64 153q0 122 79.5 209t206.5 87q106 0 170 -58.5t64 -153.5q0 -123 -79.5 -209t-207.5 -86zM273 66q83 0 135.5 60.5t52.5 146.5q0 62 -37.5 101.5t-105.5 39.5q-83 0 -135.5 -61t-52.5 -146q0 -62 37.5 -101.5t105.5 -39.5zM267 601
q-23 0 -38 14t-15 37q0 25 17 42t41 17q23 0 37.5 -14t14.5 -36q0 -24 -16.5 -42t-40.5 -18zM458 601q-23 0 -38 14t-15 37q0 25 16.5 42t41.5 17q22 0 36.5 -14t14.5 -36q0 -24 -16 -42t-40 -18z" />
    <glyph glyph-name="divide" unicode="&#xf7;" horiz-adv-x="666" 
d="M333 416q-26 0 -44.5 18.5t-18.5 43.5q0 26 18.5 44.5t44.5 18.5t44.5 -18.5t18.5 -44.5q0 -25 -18.5 -43.5t-44.5 -18.5zM84 265v77h498v-77h-498zM333 65q-26 0 -44.5 18.5t-18.5 44.5t18.5 44t44.5 18t44.5 -18.5t18.5 -43.5q0 -26 -18.5 -44.5t-44.5 -18.5z" />
    <glyph glyph-name="oslash" unicode="&#xf8;" horiz-adv-x="611" 
d="M26 -25l-31 37l77 66q-36 52 -36 121q0 121 80 208t206 87q101 0 162 -55l77 66l31 -36l-74 -65q38 -50 38 -122q0 -123 -79.5 -209t-207.5 -86q-103 0 -164 56zM146 142l271 238q-36 36 -99 36q-84 0 -136 -60.5t-52 -144.5q0 -44 16 -69zM274 64q84 0 136 60.5
t52 145.5q0 42 -18 72l-273 -238q37 -40 103 -40z" />
    <glyph glyph-name="ugrave" unicode="&#xf9;" horiz-adv-x="590" 
d="M203 -13q-75 0 -114 42.5t-39 111.5q0 22 5 54l50 284h96l-48 -269q-5 -25 -5 -45q0 -44 22.5 -71.5t72.5 -27.5q57 0 98.5 46t55.5 127l43 240h95l-66 -371q-12 -66 -15 -108h-91q4 40 12 91h-3q-27 -49 -71.5 -76.5t-97.5 -27.5zM298 568l-135 144h102l106 -144h-73z
" />
    <glyph glyph-name="uacute" unicode="&#xfa;" horiz-adv-x="590" 
d="M203 -13q-75 0 -114 42.5t-39 111.5q0 22 5 54l50 284h96l-48 -269q-5 -25 -5 -45q0 -44 22.5 -71.5t72.5 -27.5q57 0 98.5 46t55.5 127l43 240h95l-66 -371q-12 -66 -15 -108h-91q4 40 12 91h-3q-27 -49 -71.5 -76.5t-97.5 -27.5zM272 568l128 144h102l-156 -144h-74z
" />
    <glyph glyph-name="ucircumflex" unicode="&#xfb;" horiz-adv-x="590" 
d="M203 -13q-75 0 -114 42.5t-39 111.5q0 22 5 54l50 284h96l-48 -269q-5 -25 -5 -45q0 -44 22.5 -71.5t72.5 -27.5q57 0 98.5 46t55.5 127l43 240h95l-66 -371q-12 -66 -15 -108h-91q4 40 12 91h-3q-27 -49 -71.5 -76.5t-97.5 -27.5zM177 568l139 144h93l85 -144h-76
l-62 104l-99 -104h-80z" />
    <glyph glyph-name="udieresis" unicode="&#xfc;" horiz-adv-x="590" 
d="M203 -13q-75 0 -114 42.5t-39 111.5q0 22 5 54l50 284h96l-48 -269q-5 -25 -5 -45q0 -44 22.5 -71.5t72.5 -27.5q57 0 98.5 46t55.5 127l43 240h95l-66 -371q-12 -66 -15 -108h-91q4 40 12 91h-3q-27 -49 -71.5 -76.5t-97.5 -27.5zM250 601q-23 0 -38 14t-15 37
q0 25 17 42t41 17q23 0 37.5 -14t14.5 -36q0 -24 -16.5 -42t-40.5 -18zM441 601q-23 0 -38 14t-15 37q0 25 16.5 42t41.5 17q22 0 36.5 -14t14.5 -36q0 -24 -16 -42t-40 -18z" />
    <glyph glyph-name="yacute" unicode="&#xfd;" horiz-adv-x="498" 
d="M-38 -158q58 5 93.5 25t60.5 65l37 64l-106 483h103l69 -381l203 381h103l-322 -566q-41 -77 -93 -111t-129 -42zM247 568l128 144h102l-156 -144h-74z" />
    <glyph glyph-name="thorn" unicode="&#xfe;" horiz-adv-x="641" 
d="M-10 -240l175 993l96 5l-65 -364h3q26 44 74 71t104 27q97 0 152.5 -58t55.5 -151q0 -123 -76.5 -209.5t-194.5 -86.5q-60 0 -105 27.5t-64 74.5h-3l-57 -329h-95zM303 64q83 0 134.5 60.5t51.5 147.5q0 62 -36.5 102t-103.5 40q-77 0 -131 -62.5t-54 -146.5
q0 -61 38 -101t101 -40z" />
    <glyph glyph-name="ydieresis" unicode="&#xff;" horiz-adv-x="498" 
d="M-38 -158q58 5 93.5 25t60.5 65l37 64l-106 483h103l69 -381l203 381h103l-322 -566q-41 -77 -93 -111t-129 -42zM216 601q-23 0 -38 14t-15 37q0 25 17 42t41 17q23 0 37.5 -14t14.5 -36q0 -24 -16.5 -42t-40.5 -18zM407 601q-23 0 -38 14t-15 37q0 25 16.5 42t41.5 17
q22 0 36.5 -14t14.5 -36q0 -24 -16 -42t-40 -18z" />
    <glyph glyph-name="Amacron" unicode="&#x100;" horiz-adv-x="680" 
d="M-61 0l453 708h100l134 -708h-104l-40 226h-290l-139 -226h-114zM237 307h234l-50 296zM312 805l9 55h287l-10 -55h-286z" />
    <glyph glyph-name="amacron" unicode="&#x101;" horiz-adv-x="538" 
d="M173 -12q-58 0 -103.5 30t-45.5 95q0 54 28.5 91.5t81.5 56t110 26t131 7.5q4 24 4 41q0 85 -102 85q-38 0 -82.5 -15.5t-71.5 -37.5l-20 72q79 55 186 55q82 0 131.5 -38t49.5 -111q0 -28 -5 -55l-34 -189q-10 -58 -10 -101h-85q0 33 7 77h-2q-59 -89 -168 -89zM204 55
q63 0 104 43t54 105l6 30h-20q-236 0 -236 -105q0 -40 27 -56.5t65 -16.5zM177 608l9 56h287l-10 -56h-286z" />
    <glyph glyph-name="Abreve" unicode="&#x102;" horiz-adv-x="680" 
d="M-61 0l453 708h100l134 -708h-104l-40 226h-290l-139 -226h-114zM237 307h234l-50 296zM446 769q-62 0 -98.5 34t-36.5 101h53q0 -39 23.5 -58.5t61.5 -19.5q91 0 113 78h52q-15 -66 -59.5 -100.5t-108.5 -34.5z" />
    <glyph glyph-name="abreve" unicode="&#x103;" horiz-adv-x="538" 
d="M173 -12q-58 0 -103.5 30t-45.5 95q0 54 28.5 91.5t81.5 56t110 26t131 7.5q4 24 4 41q0 85 -102 85q-38 0 -82.5 -15.5t-71.5 -37.5l-20 72q79 55 186 55q82 0 131.5 -38t49.5 -111q0 -28 -5 -55l-34 -189q-10 -58 -10 -101h-85q0 33 7 77h-2q-59 -89 -168 -89zM204 55
q63 0 104 43t54 105l6 30h-20q-236 0 -236 -105q0 -40 27 -56.5t65 -16.5zM309 573q-62 0 -98.5 34t-36.5 101h53q0 -39 23.5 -58.5t61.5 -19.5q91 0 113 78h52q-15 -66 -59.5 -100.5t-108.5 -34.5z" />
    <glyph glyph-name="Aogonek" unicode="&#x104;" horiz-adv-x="680" 
d="M487 -229q-37 0 -61.5 18t-24.5 55q0 40 31.5 76.5t89.5 79.5l-30 171h-333l-106 -171h-114l453 708h100l134 -708h-46q-59 -47 -85 -78t-26 -61q0 -36 42 -36q33 0 63 23l14 -41q-47 -36 -101 -36zM203 252h277l-59 351z" />
    <glyph glyph-name="aogonek" unicode="&#x105;" horiz-adv-x="538" 
d="M289 494q82 0 131.5 -38t49.5 -111q0 -28 -5 -55l-34 -189q-10 -58 -10 -101h-13q-59 -48 -85.5 -78.5t-26.5 -60.5q0 -36 42 -36q33 0 63 23l14 -41q-47 -36 -101 -36q-38 0 -62 18t-24 55q0 40 31 76.5t89 79.5h-12q0 33 7 77h-2q-59 -89 -168 -89q-58 0 -103.5 30
t-45.5 95q0 54 28.5 91.5t81.5 56t110 26t131 7.5q4 24 4 41q0 85 -102 85q-38 0 -82.5 -15.5t-71.5 -37.5l-20 72q79 55 186 55zM204 55q63 0 104 43t54 105l6 30h-20q-236 0 -236 -105q0 -40 27 -56.5t65 -16.5z" />
    <glyph glyph-name="Cacute" unicode="&#x106;" horiz-adv-x="704" 
d="M382 -19q-150 0 -235.5 84.5t-85.5 222.5q0 185 122 312t297 127q71 0 137.5 -23.5t101.5 -56.5l-40 -89q-32 34 -86 57.5t-116 23.5q-132 0 -221 -102t-89 -237q0 -100 59 -165t169 -65q122 0 228 91l3 -93q-42 -37 -108 -62t-136 -25zM420 764l128 144h102l-156 -144
h-74z" />
    <glyph glyph-name="cacute" unicode="&#x107;" horiz-adv-x="489" 
d="M260 -15q-104 0 -163.5 58t-59.5 152q0 121 81.5 210t206.5 89q45 0 89.5 -16t73.5 -40l-39 -71q-57 48 -125 48q-84 0 -139 -61.5t-55 -146.5q0 -62 36.5 -102t105.5 -40q82 0 146 54l14 -78q-63 -56 -172 -56zM275 568l128 144h102l-156 -144h-74z" />
    <glyph glyph-name="Ccircumflex" unicode="&#x108;" horiz-adv-x="704" 
d="M382 -19q-150 0 -235.5 84.5t-85.5 222.5q0 185 122 312t297 127q71 0 137.5 -23.5t101.5 -56.5l-40 -89q-32 34 -86 57.5t-116 23.5q-132 0 -221 -102t-89 -237q0 -100 59 -165t169 -65q122 0 228 91l3 -93q-42 -37 -108 -62t-136 -25zM337 764l139 144h93l85 -144h-76
l-62 104l-99 -104h-80z" />
    <glyph glyph-name="ccircumflex" unicode="&#x109;" horiz-adv-x="489" 
d="M260 -15q-104 0 -163.5 58t-59.5 152q0 121 81.5 210t206.5 89q45 0 89.5 -16t73.5 -40l-39 -71q-57 48 -125 48q-84 0 -139 -61.5t-55 -146.5q0 -62 36.5 -102t105.5 -40q82 0 146 54l14 -78q-63 -56 -172 -56zM189 568l139 144h93l85 -144h-76l-62 104l-99 -104h-80z
" />
    <glyph glyph-name="Cdotaccent" unicode="&#x10a;" horiz-adv-x="704" 
d="M382 -19q-150 0 -235.5 84.5t-85.5 222.5q0 185 122 312t297 127q71 0 137.5 -23.5t101.5 -56.5l-40 -89q-32 34 -86 57.5t-116 23.5q-132 0 -221 -102t-89 -237q0 -100 59 -165t169 -65q122 0 228 91l3 -93q-42 -37 -108 -62t-136 -25zM509 796q-24 0 -39.5 14t-15.5 38
q0 25 17.5 42.5t42.5 17.5q23 0 38 -14.5t15 -36.5q0 -25 -17 -43t-41 -18z" />
    <glyph glyph-name="cdotaccent" unicode="&#x10b;" horiz-adv-x="489" 
d="M260 -15q-104 0 -163.5 58t-59.5 152q0 121 81.5 210t206.5 89q45 0 89.5 -16t73.5 -40l-39 -71q-57 48 -125 48q-84 0 -139 -61.5t-55 -146.5q0 -62 36.5 -102t105.5 -40q82 0 146 54l14 -78q-63 -56 -172 -56zM356 600q-24 0 -39.5 14t-15.5 38q0 25 17.5 42.5
t42.5 17.5q23 0 38 -14.5t15 -36.5q0 -25 -17 -43t-41 -18z" />
    <glyph glyph-name="Ccaron" unicode="&#x10c;" horiz-adv-x="704" 
d="M382 -19q-150 0 -235.5 84.5t-85.5 222.5q0 185 122 312t297 127q71 0 137.5 -23.5t101.5 -56.5l-40 -89q-32 34 -86 57.5t-116 23.5q-132 0 -221 -102t-89 -237q0 -100 59 -165t169 -65q122 0 228 91l3 -93q-42 -37 -108 -62t-136 -25zM446 764l-86 144h78l60 -105
l100 105h80l-139 -144h-93z" />
    <glyph glyph-name="ccaron" unicode="&#x10d;" horiz-adv-x="489" 
d="M260 -15q-104 0 -163.5 58t-59.5 152q0 121 81.5 210t206.5 89q45 0 89.5 -16t73.5 -40l-39 -71q-57 48 -125 48q-84 0 -139 -61.5t-55 -146.5q0 -62 36.5 -102t105.5 -40q82 0 146 54l14 -78q-63 -56 -172 -56zM292 568l-86 144h78l60 -105l100 105h80l-139 -144h-93z
" />
    <glyph glyph-name="Dcaron" unicode="&#x10e;" horiz-adv-x="769" 
d="M39 0l125 708h227q66 0 125 -18t106.5 -53t75.5 -93t28 -132q0 -193 -124.5 -302.5t-317.5 -109.5h-245zM152 86h136q151 0 243 86.5t92 227.5q0 101 -66.5 162t-185.5 61h-124zM368 764l-86 144h78l60 -105l100 105h80l-139 -144h-93z" />
    <glyph glyph-name="dcaron" unicode="&#x10f;" horiz-adv-x="714" 
d="M243 -13q-97 0 -152 58t-55 151q0 123 76.5 210t194.5 87q59 0 104 -28t64 -75h3l61 355l97 14l-134 -759h-89l16 87h-2q-27 -45 -75.5 -72.5t-108.5 -27.5zM272 65q77 0 130 62.5t53 146.5q0 61 -37.5 101t-100.5 40q-82 0 -134 -61t-52 -147q0 -62 37 -102t104 -40z
M634 517l101 191h88l-115 -191h-74z" />
    <glyph glyph-name="Dcroat" unicode="&#x110;" horiz-adv-x="769" 
d="M39 0l58 333h-66l12 67h66l55 308h227q89 0 163 -30t123 -99t49 -166q0 -193 -124.5 -303t-317.5 -110h-245zM152 86h136q151 0 243 86.5t92 227.5q0 101 -66.5 162t-185.5 61h-124l-40 -223h218l-11 -67h-219z" />
    <glyph glyph-name="dslash" unicode="&#x111;" horiz-adv-x="637" 
d="M243 -13q-97 0 -152 58t-55 151q0 123 76.5 210t194.5 87q59 0 104 -28t64 -75h3l30 180h-176l11 57h175l22 126l96 5l-23 -131h57l-11 -57h-56l-101 -570h-89l16 87h-2q-27 -45 -75.5 -72.5t-108.5 -27.5zM272 65q77 0 130.5 62.5t53.5 146.5q0 61 -38 101t-101 40
q-82 0 -134 -61t-52 -147q0 -62 37 -102t104 -40z" />
    <glyph glyph-name="Emacron" unicode="&#x112;" horiz-adv-x="551" 
d="M39 0l125 708h401l-30 -85h-291l-39 -218h287l-29 -81h-272l-41 -238h334l-30 -86h-415zM236 805l9 55h287l-10 -55h-286z" />
    <glyph glyph-name="emacron" unicode="&#x113;" horiz-adv-x="571" 
d="M264 -14q-103 0 -165.5 58t-62.5 158q0 121 80 206.5t202 85.5q95 0 148.5 -53t53.5 -143q0 -35 -10 -80h-382q-2 -16 -2 -20q0 -63 42.5 -100t111.5 -37q92 0 171 55l9 -76q-78 -54 -196 -54zM136 280h296q2 20 2 30q0 51 -33 82.5t-90 31.5q-70 0 -117 -44.5t-58 -99.5
zM204 608l9 56h287l-10 -56h-286z" />
    <glyph glyph-name="Ebreve" unicode="&#x114;" horiz-adv-x="551" 
d="M39 0l125 708h401l-30 -85h-291l-39 -218h287l-29 -81h-272l-41 -238h334l-30 -86h-415zM380 769q-62 0 -98.5 34t-36.5 101h53q0 -39 23.5 -58.5t61.5 -19.5q91 0 113 78h52q-15 -66 -59.5 -100.5t-108.5 -34.5z" />
    <glyph glyph-name="ebreve" unicode="&#x115;" horiz-adv-x="571" 
d="M264 -14q-103 0 -165.5 58t-62.5 158q0 121 80 206.5t202 85.5q95 0 148.5 -53t53.5 -143q0 -35 -10 -80h-382q-2 -16 -2 -20q0 -63 42.5 -100t111.5 -37q92 0 171 55l9 -76q-78 -54 -196 -54zM136 280h296q2 20 2 30q0 51 -33 82.5t-90 31.5q-70 0 -117 -44.5t-58 -99.5
zM338 573q-62 0 -98.5 34t-36.5 101h53q0 -39 23.5 -58.5t61.5 -19.5q91 0 113 78h52q-15 -66 -59.5 -100.5t-108.5 -34.5z" />
    <glyph glyph-name="Edotaccent" unicode="&#x116;" horiz-adv-x="551" 
d="M39 0l125 708h401l-30 -85h-291l-39 -218h287l-29 -81h-272l-41 -238h334l-30 -86h-415zM384 796q-24 0 -39.5 14t-15.5 38q0 25 17.5 42.5t42.5 17.5q23 0 38 -14.5t15 -36.5q0 -25 -17 -43t-41 -18z" />
    <glyph glyph-name="edotaccent" unicode="&#x117;" horiz-adv-x="571" 
d="M264 -14q-103 0 -165.5 58t-62.5 158q0 121 80 206.5t202 85.5q95 0 148.5 -53t53.5 -143q0 -35 -10 -80h-382q-2 -16 -2 -20q0 -63 42.5 -100t111.5 -37q92 0 171 55l9 -76q-78 -54 -196 -54zM136 280h296q2 20 2 30q0 51 -33 82.5t-90 31.5q-70 0 -117 -44.5t-58 -99.5
zM351 600q-24 0 -39.5 14t-15.5 38q0 25 17.5 42.5t42.5 17.5q23 0 38 -14.5t15 -36.5q0 -25 -17 -43t-41 -18z" />
    <glyph glyph-name="Eogonek" unicode="&#x118;" horiz-adv-x="551" 
d="M349 -229q-38 0 -62.5 18t-24.5 55q0 40 31.5 76.5t89.5 79.5h-344l125 708h401l-30 -85h-291l-39 -218h287l-29 -81h-272l-41 -238h334l-30 -86h-12q-59 -48 -85.5 -78.5t-26.5 -60.5q0 -36 43 -36q34 0 62 23l15 -41q-49 -36 -101 -36z" />
    <glyph glyph-name="eogonek" unicode="&#x119;" horiz-adv-x="571" 
d="M510 218h-382q-2 -16 -2 -20q0 -63 42.5 -100t111.5 -37q92 0 171 55l9 -76q-64 -44 -157 -52q-51 -43 -74 -71.5t-23 -55.5q0 -36 43 -36q33 0 63 23l14 -41q-47 -36 -101 -36q-38 0 -62.5 18t-24.5 55q0 63 104 143q-93 6 -149.5 63.5t-56.5 151.5q0 121 80 206.5
t202 85.5q95 0 148.5 -53t53.5 -143q0 -35 -10 -80zM311 424q-70 0 -117 -44.5t-58 -99.5h296q2 20 2 30q0 51 -33 82.5t-90 31.5z" />
    <glyph glyph-name="Ecaron" unicode="&#x11a;" horiz-adv-x="551" 
d="M39 0l125 708h401l-30 -85h-291l-39 -218h287l-29 -81h-272l-41 -238h334l-30 -86h-415zM327 764l-86 144h78l60 -105l100 105h80l-139 -144h-93z" />
    <glyph glyph-name="ecaron" unicode="&#x11b;" horiz-adv-x="571" 
d="M264 -14q-103 0 -165.5 58t-62.5 158q0 121 80 206.5t202 85.5q95 0 148.5 -53t53.5 -143q0 -35 -10 -80h-382q-2 -16 -2 -20q0 -63 42.5 -100t111.5 -37q92 0 171 55l9 -76q-78 -54 -196 -54zM136 280h296q2 20 2 30q0 51 -33 82.5t-90 31.5q-70 0 -117 -44.5t-58 -99.5
zM292 568l-86 144h78l60 -105l100 105h80l-139 -144h-93z" />
    <glyph glyph-name="Gcircumflex" unicode="&#x11c;" horiz-adv-x="760" 
d="M387 -19q-152 0 -239 83.5t-87 223.5q0 181 120.5 310t296.5 129q73 0 139.5 -21.5t110.5 -54.5l-38 -81q-39 30 -96 50t-118 20q-131 0 -221.5 -102t-90.5 -238q0 -103 60.5 -168t173.5 -65q96 2 162 37l34 199h-164l30 82h242l-60 -341q-108 -63 -255 -63zM332 764
l139 144h93l85 -144h-76l-62 104l-99 -104h-80z" />
    <glyph glyph-name="gcircumflex" unicode="&#x11d;" horiz-adv-x="637" 
d="M221 -244q-63 0 -120.5 18.5t-94.5 48.5l29 83q80 -71 185 -71q91 0 135 50.5t61 138.5l12 63h-2q-26 -43 -73 -69t-104 -26q-98 0 -153.5 57.5t-55.5 149.5q0 122 76 208t194 86q60 0 105.5 -28t64.5 -76h3l15 90h91l-79 -447q-23 -130 -89.5 -203t-199.5 -73zM276 67
q77 0 130.5 62.5t53.5 145.5q0 61 -38 100.5t-101 39.5q-83 0 -135 -60t-52 -146q0 -61 37 -101.5t105 -40.5zM208 568l139 144h93l85 -144h-76l-62 104l-99 -104h-80z" />
    <glyph glyph-name="Gbreve" unicode="&#x11e;" horiz-adv-x="760" 
d="M387 -19q-152 0 -239 83.5t-87 223.5q0 181 120.5 310t296.5 129q73 0 139.5 -21.5t110.5 -54.5l-38 -81q-39 30 -96 50t-118 20q-131 0 -221.5 -102t-90.5 -238q0 -103 60.5 -168t173.5 -65q96 2 162 37l34 199h-164l30 82h242l-60 -341q-108 -63 -255 -63zM489 769
q-62 0 -98.5 34t-36.5 101h53q0 -39 23.5 -58.5t61.5 -19.5q91 0 113 78h52q-15 -66 -59.5 -100.5t-108.5 -34.5z" />
    <glyph glyph-name="gbreve" unicode="&#x11f;" horiz-adv-x="637" 
d="M221 -244q-63 0 -120.5 18.5t-94.5 48.5l29 83q80 -71 185 -71q91 0 135 50.5t61 138.5l12 63h-2q-26 -43 -73 -69t-104 -26q-98 0 -153.5 57.5t-55.5 149.5q0 122 76 208t194 86q60 0 105.5 -28t64.5 -76h3l15 90h91l-79 -447q-23 -130 -89.5 -203t-199.5 -73zM276 67
q77 0 130.5 62.5t53.5 145.5q0 61 -38 100.5t-101 39.5q-83 0 -135 -60t-52 -146q0 -61 37 -101.5t105 -40.5zM364 573q-62 0 -98.5 34t-36.5 101h53q0 -39 23.5 -58.5t61.5 -19.5q91 0 113 78h52q-15 -66 -59.5 -100.5t-108.5 -34.5z" />
    <glyph glyph-name="Gdotaccent" unicode="&#x120;" horiz-adv-x="760" 
d="M387 -19q-152 0 -239 83.5t-87 223.5q0 181 120.5 310t296.5 129q73 0 139.5 -21.5t110.5 -54.5l-38 -81q-39 30 -96 50t-118 20q-131 0 -221.5 -102t-90.5 -238q0 -103 60.5 -168t173.5 -65q96 2 162 37l34 199h-164l30 82h242l-60 -341q-108 -63 -255 -63zM506 796
q-24 0 -39.5 14t-15.5 38q0 25 17.5 42.5t42.5 17.5q23 0 38 -14.5t15 -36.5q0 -25 -17 -43t-41 -18z" />
    <glyph glyph-name="gdotaccent" unicode="&#x121;" horiz-adv-x="637" 
d="M221 -244q-63 0 -120.5 18.5t-94.5 48.5l29 83q80 -71 185 -71q91 0 135 50.5t61 138.5l12 63h-2q-26 -43 -73 -69t-104 -26q-98 0 -153.5 57.5t-55.5 149.5q0 122 76 208t194 86q60 0 105.5 -28t64.5 -76h3l15 90h91l-79 -447q-23 -130 -89.5 -203t-199.5 -73zM276 67
q77 0 130.5 62.5t53.5 145.5q0 61 -38 100.5t-101 39.5q-83 0 -135 -60t-52 -146q0 -61 37 -101.5t105 -40.5zM373 600q-24 0 -39.5 14t-15.5 38q0 25 17.5 42.5t42.5 17.5q23 0 38 -14.5t15 -36.5q0 -25 -17 -43t-41 -18z" />
    <glyph glyph-name="Gcommaaccent" unicode="&#x122;" horiz-adv-x="760" 
d="M387 -19q-152 0 -239 83.5t-87 223.5q0 181 120.5 310t296.5 129q73 0 139.5 -21.5t110.5 -54.5l-38 -81q-39 30 -96 50t-118 20q-131 0 -221.5 -102t-90.5 -238q0 -103 60.5 -168t173.5 -65q96 2 162 37l34 199h-164l30 82h242l-60 -341q-108 -63 -255 -63zM240 -235
l101 191h88l-115 -191h-74z" />
    <glyph glyph-name="gcommaaccent" unicode="&#x123;" horiz-adv-x="637" 
d="M221 -244q-63 0 -120.5 18.5t-94.5 48.5l29 83q80 -71 185 -71q91 0 135 50.5t61 138.5l12 63h-2q-26 -43 -73 -69t-104 -26q-98 0 -153.5 57.5t-55.5 149.5q0 122 76 208t194 86q60 0 105.5 -28t64.5 -76h3l15 90h91l-79 -447q-23 -130 -89.5 -203t-199.5 -73zM276 67
q77 0 130.5 62.5t53.5 145.5q0 61 -38 100.5t-101 39.5q-83 0 -135 -60t-52 -146q0 -61 37 -101.5t105 -40.5zM304 568l115 191h74l-101 -191h-88z" />
    <glyph glyph-name="Hcircumflex" unicode="&#x124;" horiz-adv-x="770" 
d="M39 0l125 708h98l-53 -298h395l53 298h99l-125 -708h-99l58 325h-395l-58 -325h-98zM291 764l139 144h93l85 -144h-76l-62 104l-99 -104h-80z" />
    <glyph glyph-name="hcircumflex" unicode="&#x125;" horiz-adv-x="591" 
d="M33 0l131 745l98 14l-64 -364h2q26 45 69 71.5t95 26.5q76 0 114.5 -42.5t38.5 -111.5q0 -33 -5 -55l-50 -284h-95l47 269q5 25 5 45q0 44 -22.5 72t-71.5 28q-56 0 -98 -46.5t-56 -127.5l-43 -240h-95zM215 796l139 144h93l85 -144h-76l-62 104l-99 -104h-80z" />
    <glyph glyph-name="Hbar" unicode="&#x126;" horiz-adv-x="770" 
d="M39 0l125 708h98l-26 -151h394l27 151h99l-125 -708h-99l58 325h-395l-58 -325h-98zM209 410h395l16 90h-395z" />
    <glyph glyph-name="hbar" unicode="&#x127;" horiz-adv-x="591" 
d="M33 0l100 570h-60l10 57h60l21 118l97 14l-22 -132h171l-10 -57h-171l-31 -178h2q25 47 68.5 74t95.5 27q75 0 114.5 -42t39.5 -107q0 -30 -5 -53l-51 -291h-95l47 269q5 27 5 48q0 43 -22.5 70t-71.5 27q-57 0 -98 -44.5t-54 -119.5l-45 -250h-95z" />
    <glyph glyph-name="Itilde" unicode="&#x128;" horiz-adv-x="277" 
d="M39 0l125 708h99l-125 -708h-99zM65 778q32 104 108 104q30 0 68 -22q37 -22 60 -22q33 0 51 46h47q-32 -104 -108 -104q-25 0 -71 23q-39 22 -57 22q-34 0 -51 -47h-47z" />
    <glyph glyph-name="itilde" unicode="&#x129;" horiz-adv-x="262" 
d="M33 0l85 479h96l-86 -479h-95zM23 582q32 104 108 104q30 0 68 -22q37 -23 60 -23q33 0 51 47h47q-32 -104 -108 -104q-29 0 -70 23q-42 21 -58 21q-33 0 -51 -46h-47z" />
    <glyph glyph-name="Imacron" unicode="&#x12a;" horiz-adv-x="277" 
d="M39 0l125 708h99l-125 -708h-99zM82 805l9 55h287l-10 -55h-286z" />
    <glyph glyph-name="imacron" unicode="&#x12b;" horiz-adv-x="262" 
d="M33 0l85 479h96l-86 -479h-95zM41 608l9 56h287l-10 -56h-286z" />
    <glyph glyph-name="Ibreve" unicode="&#x12c;" horiz-adv-x="277" 
d="M39 0l125 708h99l-125 -708h-99zM230 769q-62 0 -98.5 34t-36.5 101h53q0 -39 23.5 -58.5t61.5 -19.5q91 0 113 78h52q-15 -66 -59.5 -100.5t-108.5 -34.5z" />
    <glyph glyph-name="ibreve" unicode="&#x12d;" horiz-adv-x="262" 
d="M33 0l85 479h96l-86 -479h-95zM188 573q-62 0 -98.5 34t-36.5 101h53q0 -39 23.5 -58.5t61.5 -19.5q91 0 113 78h52q-15 -66 -59.5 -100.5t-108.5 -34.5z" />
    <glyph glyph-name="Iogonek" unicode="&#x12e;" horiz-adv-x="277" 
d="M64 -175q33 0 63 23l14 -41q-47 -36 -101 -36q-38 0 -62 18t-24 55q0 40 31 76.5t89 79.5h-35l125 708h99l-125 -708h-4q-59 -48 -85.5 -78.5t-26.5 -60.5q0 -36 42 -36z" />
    <glyph glyph-name="iogonek" unicode="&#x12f;" horiz-adv-x="262" 
d="M190 597q-24 0 -40.5 15t-16.5 39q0 26 18.5 45t43.5 19q24 0 40 -15.5t16 -38.5q0 -26 -17.5 -45t-43.5 -19zM30 -229q-38 0 -62.5 18t-24.5 55q0 40 31.5 76.5t89.5 79.5h-31l85 479h96l-86 -479h-5q-59 -48 -85.5 -78.5t-26.5 -60.5q0 -36 43 -36q32 0 62 23l15 -41
q-49 -36 -101 -36z" />
    <glyph glyph-name="Idot" unicode="&#x130;" horiz-adv-x="277" 
d="M39 0l125 708h99l-125 -708h-99zM232 796q-24 0 -39.5 14t-15.5 38q0 25 17.5 42.5t42.5 17.5q23 0 38 -14.5t15 -36.5q0 -25 -17 -43t-41 -18z" />
    <glyph glyph-name="dotlessi" unicode="&#x131;" horiz-adv-x="262" 
d="M33 0l85 479h96l-86 -479h-95z" />
    <glyph glyph-name="IJ" unicode="&#x132;" horiz-adv-x="672" 
d="M39 0l125 708h99l-125 -708h-99zM270 79q33 -9 71 -9q110 0 137 149l85 489h100l-87 -491q-42 -235 -236 -235q-36 0 -56 6z" />
    <glyph glyph-name="ij" unicode="&#x133;" horiz-adv-x="526" 
d="M190 597q-24 0 -40.5 15t-16.5 39q0 26 18.5 45t43.5 19q24 0 40 -15.5t16 -38.5q0 -26 -17.5 -45t-43.5 -19zM33 0l85 479h96l-86 -479h-95zM454 597q-25 0 -41 15t-16 39q0 26 18.5 45t43.5 19q24 0 39.5 -15.5t15.5 -38.5q0 -26 -17.5 -45t-42.5 -19zM201 -242
q-24 0 -52 6l17 80q18 -5 32 -5q43 0 62 27t27 76l94 537h96l-95 -538q-16 -86 -55 -134.5t-126 -48.5z" />
    <glyph glyph-name="Jcircumflex" unicode="&#x134;" horiz-adv-x="395" 
d="M-7 79q33 -9 71 -9q110 0 137 149l85 489h100l-87 -491q-42 -235 -236 -235q-36 0 -56 6zM177 764l139 144h93l85 -144h-76l-62 104l-99 -104h-80z" />
    <glyph glyph-name="jcircumflex" unicode="&#x135;" horiz-adv-x="264" 
d="M-61 -242q-24 0 -52 6l17 80q18 -5 32 -5q43 0 62 27t27 76l94 537h96l-95 -538q-16 -86 -55 -134.5t-126 -48.5zM22 568l139 144h93l85 -144h-76l-62 104l-99 -104h-80z" />
    <glyph glyph-name="Kcommaaccent" unicode="&#x136;" horiz-adv-x="609" 
d="M39 0l125 708h97l-55 -310l337 310h129l-372 -332l279 -376h-124l-256 358l-63 -358h-97zM140 -236l101 191h88l-115 -191h-74z" />
    <glyph glyph-name="kcommaaccent" unicode="&#x137;" horiz-adv-x="509" 
d="M463 0h-104l-184 247h-2l-44 -247h-95l131 745l97 14l-85 -487h2l227 207h124l-259 -224zM89 -235l101 191h88l-115 -191h-74z" />
    <glyph glyph-name="kgreenlandic" unicode="&#x138;" horiz-adv-x="509" 
d="M463 0h-104l-184 247h-2l-44 -247h-95l84 479h95l-36 -207h2l227 207h124l-259 -224z" />
    <glyph glyph-name="Lacute" unicode="&#x139;" horiz-adv-x="508" 
d="M39 0l125 708h99l-110 -622h308l-30 -86h-392zM181 764l128 144h102l-156 -144h-74z" />
    <glyph glyph-name="lacute" unicode="&#x13a;" horiz-adv-x="263" 
d="M127 -14q-73 35 -73 120q0 15 4 39l107 608l101 14l-107 -607q-4 -22 -4 -32q-1 -42 36 -68zM171 792l128 144h102l-156 -144h-74z" />
    <glyph glyph-name="Lcommaaccent" unicode="&#x13b;" horiz-adv-x="508" 
d="M39 0l125 708h99l-110 -622h308l-30 -86h-392zM100 -236l101 191h88l-115 -191h-74z" />
    <glyph glyph-name="lcommaaccent" unicode="&#x13c;" horiz-adv-x="263" 
d="M127 -14q-73 35 -73 120q0 15 4 39l107 608l101 14l-107 -607q-4 -22 -4 -32q-1 -42 36 -68zM-44 -237l101 191h88l-115 -191h-74z" />
    <glyph glyph-name="Lcaron" unicode="&#x13d;" horiz-adv-x="508" 
d="M39 0l125 708h99l-110 -622h308l-30 -86h-392zM305 517l101 191h88l-115 -191h-74z" />
    <glyph glyph-name="lcaron" unicode="&#x13e;" horiz-adv-x="335" 
d="M127 -14q-73 35 -73 120q0 15 4 39l107 608l101 14l-107 -607q-4 -22 -4 -32q-1 -42 36 -68zM272 517l101 191h88l-115 -191h-74z" />
    <glyph glyph-name="Ldot" unicode="&#x13f;" horiz-adv-x="508" 
d="M39 0l125 708h99l-110 -622h308l-30 -86h-392zM411 357q-24 0 -39.5 14t-15.5 38q0 25 17.5 42.5t42.5 17.5q23 0 38 -14.5t15 -36.5q0 -25 -17 -43t-41 -18z" />
    <glyph glyph-name="ldot" unicode="&#x140;" horiz-adv-x="357" 
d="M127 -14q-73 35 -73 120q0 15 4 39l107 608l101 14l-107 -607q-4 -22 -4 -32q-1 -42 36 -68zM336 378q-24 0 -39.5 14t-15.5 38q0 25 17.5 42.5t42.5 17.5q23 0 38 -14.5t15 -36.5q0 -25 -17 -43t-41 -18z" />
    <glyph glyph-name="Lslash" unicode="&#x141;" horiz-adv-x="508" 
d="M38 0l39 218l-78 -60l16 88l78 59l70 403h100l-58 -328l233 177l-16 -87l-233 -178l-35 -205h307l-20 -87h-403z" />
    <glyph glyph-name="lslash" unicode="&#x142;" horiz-adv-x="263" 
d="M159 160q-4 -22 -4 -30q-1 -44 36 -70l-64 -74q-73 35 -73 120q0 15 4 39l28 159l-71 -54l15 89l72 55l63 359l101 14l-51 -287l80 61l-16 -88l-80 -61z" />
    <glyph glyph-name="Nacute" unicode="&#x143;" horiz-adv-x="768" 
d="M39 0l125 708h114l271 -567h2l98 567h98l-125 -708h-113l-271 570h-2l-99 -570h-98zM396 764l128 144h102l-156 -144h-74z" />
    <glyph glyph-name="nacute" unicode="&#x144;" horiz-adv-x="591" 
d="M33 0l65 371q12 65 15 108h92q-3 -34 -12 -91h2q27 49 71.5 77t97.5 28q76 0 114.5 -42.5t38.5 -111.5q0 -33 -5 -55l-50 -284h-95l47 269q5 25 5 46q0 43 -22.5 71t-71.5 28q-56 0 -98 -46t-56 -127l-43 -241h-95zM270 568l128 144h102l-156 -144h-74z" />
    <glyph glyph-name="Ncommaaccent" unicode="&#x145;" horiz-adv-x="768" 
d="M39 0l125 708h114l271 -567h2l98 567h98l-125 -708h-113l-271 570h-2l-99 -570h-98zM192 -236l101 191h88l-115 -191h-74z" />
    <glyph glyph-name="ncommaaccent" unicode="&#x146;" horiz-adv-x="591" 
d="M33 0l65 371q12 65 15 108h92q-3 -34 -12 -91h2q27 49 71.5 77t97.5 28q76 0 114.5 -42.5t38.5 -111.5q0 -33 -5 -55l-50 -284h-95l47 269q5 25 5 46q0 43 -22.5 71t-71.5 28q-56 0 -98 -46t-56 -127l-43 -241h-95zM116 -235l101 191h88l-115 -191h-74z" />
    <glyph glyph-name="Ncaron" unicode="&#x147;" horiz-adv-x="768" 
d="M39 0l125 708h114l271 -567h2l98 567h98l-125 -708h-113l-271 570h-2l-99 -570h-98zM413 764l-86 144h78l60 -105l100 105h80l-139 -144h-93z" />
    <glyph glyph-name="ncaron" unicode="&#x148;" horiz-adv-x="591" 
d="M33 0l65 371q12 65 15 108h92q-3 -34 -12 -91h2q27 49 71.5 77t97.5 28q76 0 114.5 -42.5t38.5 -111.5q0 -33 -5 -55l-50 -284h-95l47 269q5 25 5 46q0 43 -22.5 71t-71.5 28q-56 0 -98 -46t-56 -127l-43 -241h-95zM287 568l-86 144h78l60 -105l100 105h80l-139 -144h-93
z" />
    <glyph glyph-name="napostrophe" unicode="&#x149;" horiz-adv-x="632" 
d="M74 0l65 371q12 65 15 108h92q-3 -34 -12 -91h2q27 49 71.5 77t97.5 28q76 0 114.5 -42.5t38.5 -111.5q0 -33 -5 -55l-50 -284h-95l47 269q5 25 5 46q0 43 -22.5 71t-71.5 28q-56 0 -98 -46t-56 -127l-43 -241h-95zM71 517l101 191h88l-115 -191h-74z" />
    <glyph glyph-name="Eng" unicode="&#x14a;" horiz-adv-x="768" 
d="M431 -242q-24 0 -52 6l17 80q17 -5 32 -5q43 0 61.5 26.5t27.5 76.5l8 48l-287 580h-2l-99 -570h-98l125 708h115l273 -554h2l96 554h98l-136 -767q-7 -41 -18 -70.5t-30.5 -57t-53 -41.5t-79.5 -14z" />
    <glyph glyph-name="eng" unicode="&#x14b;" horiz-adv-x="591" 
d="M271 -242q-25 0 -53 6l17 80q18 -5 32 -5q43 0 61.5 26.5t28.5 76.5l57 327q5 27 5 48q0 43 -22.5 70t-71.5 27q-57 0 -98 -44.5t-54 -118.5l-45 -251h-95l65 371q12 65 15 108h92q-3 -34 -12 -91h2q27 49 71.5 77t97.5 28q75 0 114.5 -42t39.5 -107q0 -30 -5 -53
l-61 -350q-16 -86 -55.5 -134.5t-125.5 -48.5z" />
    <glyph glyph-name="Omacron" unicode="&#x14c;" horiz-adv-x="846" 
d="M392 -19q-154 0 -242.5 86t-88.5 226q0 180 117.5 307t296.5 127q154 0 241.5 -86t87.5 -227q0 -117 -51.5 -216t-146.5 -158t-214 -59zM397 70q135 0 219.5 100.5t84.5 236.5q0 101 -60.5 166.5t-171.5 65.5q-134 0 -219.5 -101t-85.5 -236q0 -101 60.5 -166.5
t172.5 -65.5zM366 805l9 55h287l-10 -55h-286z" />
    <glyph glyph-name="omacron" unicode="&#x14d;" horiz-adv-x="611" 
d="M269 -13q-105 0 -169 58t-64 153q0 122 79.5 209t206.5 87q106 0 170 -58.5t64 -153.5q0 -123 -79.5 -209t-207.5 -86zM273 66q83 0 135.5 60.5t52.5 146.5q0 62 -37.5 101.5t-105.5 39.5q-83 0 -135.5 -61t-52.5 -146q0 -62 37.5 -101.5t105.5 -39.5zM214 608l9 56h287
l-10 -56h-286z" />
    <glyph glyph-name="Obreve" unicode="&#x14e;" horiz-adv-x="846" 
d="M392 -19q-154 0 -242.5 86t-88.5 226q0 180 117.5 307t296.5 127q154 0 241.5 -86t87.5 -227q0 -117 -51.5 -216t-146.5 -158t-214 -59zM397 70q135 0 219.5 100.5t84.5 236.5q0 101 -60.5 166.5t-171.5 65.5q-134 0 -219.5 -101t-85.5 -236q0 -101 60.5 -166.5
t172.5 -65.5zM498 769q-62 0 -98.5 34t-36.5 101h53q0 -39 23.5 -58.5t61.5 -19.5q91 0 113 78h52q-15 -66 -59.5 -100.5t-108.5 -34.5z" />
    <glyph glyph-name="obreve" unicode="&#x14f;" horiz-adv-x="611" 
d="M269 -13q-105 0 -169 58t-64 153q0 122 79.5 209t206.5 87q106 0 170 -58.5t64 -153.5q0 -123 -79.5 -209t-207.5 -86zM273 66q83 0 135.5 60.5t52.5 146.5q0 62 -37.5 101.5t-105.5 39.5q-83 0 -135.5 -61t-52.5 -146q0 -62 37.5 -101.5t105.5 -39.5zM346 573
q-62 0 -98.5 34t-36.5 101h53q0 -39 23.5 -58.5t61.5 -19.5q91 0 113 78h52q-15 -66 -59.5 -100.5t-108.5 -34.5z" />
    <glyph glyph-name="Ohungarumlaut" unicode="&#x150;" horiz-adv-x="846" 
d="M392 -19q-154 0 -242.5 86t-88.5 226q0 180 117.5 307t296.5 127q154 0 241.5 -86t87.5 -227q0 -117 -51.5 -216t-146.5 -158t-214 -59zM397 70q135 0 219.5 100.5t84.5 236.5q0 101 -60.5 166.5t-171.5 65.5q-134 0 -219.5 -101t-85.5 -236q0 -101 60.5 -166.5
t172.5 -65.5zM370 764l128 144h103l-156 -144h-75zM546 764l128 144h103l-157 -144h-74z" />
    <glyph glyph-name="ohungarumlaut" unicode="&#x151;" horiz-adv-x="611" 
d="M269 -13q-105 0 -169 58t-64 153q0 122 79.5 209t206.5 87q106 0 170 -58.5t64 -153.5q0 -123 -79.5 -209t-207.5 -86zM273 66q83 0 135.5 60.5t52.5 146.5q0 62 -37.5 101.5t-105.5 39.5q-83 0 -135.5 -61t-52.5 -146q0 -62 37.5 -101.5t105.5 -39.5zM219 568l128 144
h103l-156 -144h-75zM395 568l128 144h103l-157 -144h-74z" />
    <glyph glyph-name="OE" unicode="&#x152;" horiz-adv-x="945" 
d="M396 0q-89 0 -163 30t-123 99t-49 166q0 193 124.5 303t317.5 110h456l-30 -85h-272l-39 -218h269l-29 -81h-254l-41 -238h315l-30 -86h-452zM417 86h52l94 537h-64q-151 0 -243 -86.5t-92 -227.5q0 -101 67 -162t186 -61z" />
    <glyph glyph-name="oe" unicode="&#x153;" horiz-adv-x="988" 
d="M681 -14q-72 0 -124 31t-73 86q-31 -54 -86.5 -85t-129.5 -31q-105 0 -168.5 58t-63.5 153q0 123 80 209.5t207 86.5q73 0 123.5 -32t72.5 -88q32 55 89 87.5t127 32.5q94 0 147.5 -53t53.5 -143q0 -41 -10 -80h-382q-2 -16 -2 -20q0 -62 45 -100t109 -38q92 0 172 56
l9 -76q-78 -54 -196 -54zM552 280h296q2 10 2 30q0 51 -32.5 82.5t-89.5 31.5q-70 0 -117.5 -44.5t-58.5 -99.5zM273 65q83 0 135.5 61t52.5 147q0 62 -38 102t-105 40q-82 0 -135 -61.5t-53 -146.5q0 -62 37.5 -102t105.5 -40z" />
    <glyph glyph-name="Racute" unicode="&#x154;" horiz-adv-x="625" 
d="M39 0l125 708h206q101 0 164 -43.5t63 -127.5q0 -95 -55 -144.5t-141 -62.5l153 -330h-111l-140 318h-112l-55 -318h-97zM204 392h114q179 0 179 131q0 103 -148 103h-103zM304 764l128 144h102l-156 -144h-74z" />
    <glyph glyph-name="racute" unicode="&#x155;" horiz-adv-x="349" 
d="M32 0l66 371q12 65 15 108h91q-1 -24 -12 -91h2q58 105 158 105q11 0 29 -3l-29 -85q-15 3 -31 3q-64 0 -102 -49t-50 -122l-42 -237h-95zM154 568l128 144h102l-156 -144h-74z" />
    <glyph glyph-name="Rcommaaccent" unicode="&#x156;" horiz-adv-x="625" 
d="M39 0l125 708h206q101 0 164 -43.5t63 -127.5q0 -95 -55 -144.5t-141 -62.5l153 -330h-111l-140 318h-112l-55 -318h-97zM204 392h114q179 0 179 131q0 103 -148 103h-103zM128 -236l101 191h88l-115 -191h-74z" />
    <glyph glyph-name="rcommaaccent" unicode="&#x157;" horiz-adv-x="349" 
d="M32 0l66 371q12 65 15 108h91q-1 -24 -12 -91h2q58 105 158 105q11 0 29 -3l-29 -85q-15 3 -31 3q-64 0 -102 -49t-50 -122l-42 -237h-95zM-59 -237l101 191h88l-115 -191h-74z" />
    <glyph glyph-name="Rcaron" unicode="&#x158;" horiz-adv-x="625" 
d="M39 0l125 708h206q101 0 164 -43.5t63 -127.5q0 -95 -55 -144.5t-141 -62.5l153 -330h-111l-140 318h-112l-55 -318h-97zM204 392h114q179 0 179 131q0 103 -148 103h-103zM319 764l-86 144h78l60 -105l100 105h80l-139 -144h-93z" />
    <glyph glyph-name="rcaron" unicode="&#x159;" horiz-adv-x="349" 
d="M32 0l66 371q12 65 15 108h91q-1 -24 -12 -91h2q58 105 158 105q11 0 29 -3l-29 -85q-15 3 -31 3q-64 0 -102 -49t-50 -122l-42 -237h-95zM203 568l-86 144h78l60 -105l100 105h80l-139 -144h-93z" />
    <glyph glyph-name="Sacute" unicode="&#x15a;" horiz-adv-x="576" 
d="M238 -19q-64 0 -126 20t-98 52l33 90q36 -36 89.5 -57.5t105.5 -21.5q70 0 116 36.5t46 97.5q0 50 -36 78.5t-108 52.5q-82 27 -123 67.5t-41 111.5q0 100 77 159.5t188 59.5q56 0 109 -17t86 -42l-37 -82q-26 23 -72.5 41t-88.5 18q-63 0 -111.5 -34t-48.5 -94
q0 -45 28.5 -69t90.5 -45q94 -32 142 -76.5t48 -120.5q0 -105 -76.5 -165t-192.5 -60zM300 764l128 144h102l-156 -144h-74z" />
    <glyph glyph-name="sacute" unicode="&#x15b;" horiz-adv-x="438" 
d="M176 -14q-53 0 -98.5 14.5t-70.5 35.5l27 73q58 -50 141 -50q46 0 75 21.5t29 55.5q0 29 -22 46.5t-72 32.5q-64 18 -95 46.5t-31 78.5q0 72 56.5 113t136.5 41q47 0 90 -16t67 -38l-47 -62q-50 44 -114 44q-43 0 -71.5 -19t-28.5 -55q0 -27 19 -41.5t62 -25.5
q72 -20 106.5 -52.5t34.5 -85.5q0 -74 -56.5 -115.5t-137.5 -41.5zM203 568l128 144h102l-156 -144h-74z" />
    <glyph glyph-name="Scircumflex" unicode="&#x15c;" horiz-adv-x="576" 
d="M238 -19q-64 0 -126 20t-98 52l33 90q36 -36 89.5 -57.5t105.5 -21.5q70 0 116 36.5t46 97.5q0 50 -36 78.5t-108 52.5q-82 27 -123 67.5t-41 111.5q0 100 77 159.5t188 59.5q56 0 109 -17t86 -42l-37 -82q-26 23 -72.5 41t-88.5 18q-63 0 -111.5 -34t-48.5 -94
q0 -45 28.5 -69t90.5 -45q94 -32 142 -76.5t48 -120.5q0 -105 -76.5 -165t-192.5 -60zM218 764l139 144h93l85 -144h-76l-62 104l-99 -104h-80z" />
    <glyph glyph-name="scircumflex" unicode="&#x15d;" horiz-adv-x="438" 
d="M176 -14q-53 0 -98.5 14.5t-70.5 35.5l27 73q58 -50 141 -50q46 0 75 21.5t29 55.5q0 29 -22 46.5t-72 32.5q-64 18 -95 46.5t-31 78.5q0 72 56.5 113t136.5 41q47 0 90 -16t67 -38l-47 -62q-50 44 -114 44q-43 0 -71.5 -19t-28.5 -55q0 -27 19 -41.5t62 -25.5
q72 -20 106.5 -52.5t34.5 -85.5q0 -74 -56.5 -115.5t-137.5 -41.5zM119 568l139 144h93l85 -144h-76l-62 104l-99 -104h-80z" />
    <glyph glyph-name="Scedilla" unicode="&#x15e;" horiz-adv-x="576" 
d="M194 -233q-60 0 -106 22l21 40q34 -17 81 -17q72 0 72 46q0 37 -49 37q-31 0 -54 -9l-18 19l68 77q-141 12 -206 102l74 59q55 -79 165 -79q70 0 116 36.5t46 97.5q0 50 -36 78.5t-108 52.5q-82 27 -123 67.5t-41 111.5q0 100 77 159.5t188 59.5q66 0 121.5 -24t83.5 -64
l-68 -60q-50 66 -143 66q-60 0 -108.5 -34t-48.5 -94q0 -45 28.5 -69t90.5 -45q94 -32 142 -76.5t48 -120.5q0 -99 -69 -158.5t-177 -65.5l-48 -55q15 5 33 5q32 0 57.5 -16.5t25.5 -52.5q0 -49 -39.5 -72.5t-95.5 -23.5z" />
    <glyph glyph-name="scedilla" unicode="&#x15f;" horiz-adv-x="438" 
d="M135 -233q-60 0 -106 22l21 40q34 -17 81 -17q72 0 72 46q0 37 -49 37q-32 0 -54 -9l-18 19l72 81q-106 8 -161 77l61 55q45 -59 123 -59q45 0 73.5 21.5t28.5 55.5q0 29 -22 46.5t-72 32.5q-64 18 -95 46.5t-31 78.5q0 72 56.5 113t136.5 41q53 0 97 -18.5t66 -50.5
l-62 -51q-35 48 -105 48q-43 0 -71.5 -19t-28.5 -55q0 -27 19 -41.5t62 -25.5q72 -20 106.5 -52.5t34.5 -85.5q0 -67 -46.5 -107.5t-117.5 -48.5l-52 -60q15 5 33 5q32 0 57.5 -16.5t25.5 -52.5q0 -49 -39.5 -72.5t-95.5 -23.5z" />
    <glyph glyph-name="Scaron" unicode="&#x160;" horiz-adv-x="576" 
d="M238 -19q-64 0 -126 20t-98 52l33 90q36 -36 89.5 -57.5t105.5 -21.5q70 0 116 36.5t46 97.5q0 50 -36 78.5t-108 52.5q-82 27 -123 67.5t-41 111.5q0 100 77 159.5t188 59.5q56 0 109 -17t86 -42l-37 -82q-26 23 -72.5 41t-88.5 18q-63 0 -111.5 -34t-48.5 -94
q0 -45 28.5 -69t90.5 -45q94 -32 142 -76.5t48 -120.5q0 -105 -76.5 -165t-192.5 -60zM316 764l-86 144h78l60 -105l100 105h80l-139 -144h-93z" />
    <glyph glyph-name="scaron" unicode="&#x161;" horiz-adv-x="438" 
d="M176 -14q-53 0 -98.5 14.5t-70.5 35.5l27 73q58 -50 141 -50q46 0 75 21.5t29 55.5q0 29 -22 46.5t-72 32.5q-64 18 -95 46.5t-31 78.5q0 72 56.5 113t136.5 41q47 0 90 -16t67 -38l-47 -62q-50 44 -114 44q-43 0 -71.5 -19t-28.5 -55q0 -27 19 -41.5t62 -25.5
q72 -20 106.5 -52.5t34.5 -85.5q0 -74 -56.5 -115.5t-137.5 -41.5zM218 568l-86 144h78l60 -105l100 105h80l-139 -144h-93z" />
    <glyph glyph-name="uni0162" unicode="&#x162;" horiz-adv-x="538" 
d="M169 0l109 623h-221l31 85h531l-30 -85h-211l-110 -623h-99zM78 -236l101 191h88l-115 -191h-74z" />
    <glyph glyph-name="uni0163" unicode="&#x163;" horiz-adv-x="353" 
d="M186 -11q-57 0 -89 29.5t-32 74.5q0 25 5 48l47 265h-81l28 73h64l19 107l99 34l-25 -141h141l-28 -73h-125l-46 -258q-4 -22 -4 -35q0 -47 55 -47q38 0 78 18l9 -69q-54 -26 -115 -26zM17 -236l101 191h88l-115 -191h-74z" />
    <glyph glyph-name="Tcaron" unicode="&#x164;" horiz-adv-x="538" 
d="M169 0l109 623h-221l31 85h531l-30 -85h-211l-110 -623h-99zM302 764l-86 144h78l60 -105l100 105h80l-139 -144h-93z" />
    <glyph glyph-name="tcaron" unicode="&#x165;" horiz-adv-x="363" 
d="M186 -11q-57 0 -89 29.5t-32 74.5q0 25 5 48l47 265h-81l28 73h64l19 107l99 34l-25 -141h141l-28 -73h-125l-46 -258q-4 -22 -4 -35q0 -47 55 -47q38 0 78 18l9 -69q-54 -26 -115 -26zM290 548l101 191h88l-115 -191h-74z" />
    <glyph glyph-name="Tbar" unicode="&#x166;" horiz-adv-x="549" 
d="M175 0l80 455h-167l10 57h166l20 111h-221l30 85h530l-31 -85h-209l-20 -111h163l-10 -57h-163l-80 -455h-98z" />
    <glyph glyph-name="tbar" unicode="&#x167;" horiz-adv-x="353" 
d="M334 406h-125l-19 -110h101l-10 -57h-102l-16 -91q-4 -22 -4 -35q0 -47 55 -47q38 0 78 18l9 -69q-54 -26 -115 -26q-57 0 -89 29.5t-32 74.5q0 25 5 48l17 98h-63l11 57h62l20 110h-81l28 73h64l19 107l99 34l-25 -141h141z" />
    <glyph glyph-name="Utilde" unicode="&#x168;" horiz-adv-x="725" 
d="M330 -19q-122 0 -189.5 59.5t-67.5 163.5q0 32 6 68l77 436h98l-76 -431q-5 -30 -5 -54q0 -69 39.5 -112t121.5 -43q55 0 94.5 18t62 50.5t34 64t19.5 73.5l77 434h97l-78 -444q-49 -283 -310 -283zM287 778q32 104 108 104q30 0 68 -22q37 -22 60 -22q33 0 51 46h47
q-32 -104 -108 -104q-25 0 -71 23q-39 22 -57 22q-34 0 -51 -47h-47z" />
    <glyph glyph-name="utilde" unicode="&#x169;" horiz-adv-x="590" 
d="M203 -13q-75 0 -114 42.5t-39 111.5q0 22 5 54l50 284h96l-48 -269q-5 -25 -5 -45q0 -44 22.5 -71.5t72.5 -27.5q57 0 98.5 46t55.5 127l43 240h95l-66 -371q-12 -66 -15 -108h-91q4 40 12 91h-3q-27 -49 -71.5 -76.5t-97.5 -27.5zM179 582q32 104 108 104q30 0 68 -22
q37 -23 60 -23q33 0 51 47h47q-32 -104 -108 -104q-29 0 -70 23q-42 21 -58 21q-33 0 -51 -46h-47z" />
    <glyph glyph-name="Umacron" unicode="&#x16a;" horiz-adv-x="725" 
d="M330 -19q-122 0 -189.5 59.5t-67.5 163.5q0 32 6 68l77 436h98l-76 -431q-5 -30 -5 -54q0 -69 39.5 -112t121.5 -43q55 0 94.5 18t62 50.5t34 64t19.5 73.5l77 434h97l-78 -444q-49 -283 -310 -283zM307 805l9 55h287l-10 -55h-286z" />
    <glyph glyph-name="umacron" unicode="&#x16b;" horiz-adv-x="590" 
d="M203 -13q-75 0 -114 42.5t-39 111.5q0 22 5 54l50 284h96l-48 -269q-5 -25 -5 -45q0 -44 22.5 -71.5t72.5 -27.5q57 0 98.5 46t55.5 127l43 240h95l-66 -371q-12 -66 -15 -108h-91q4 40 12 91h-3q-27 -49 -71.5 -76.5t-97.5 -27.5zM197 608l9 56h287l-10 -56h-286z" />
    <glyph glyph-name="Ubreve" unicode="&#x16c;" horiz-adv-x="725" 
d="M330 -19q-122 0 -189.5 59.5t-67.5 163.5q0 32 6 68l77 436h98l-76 -431q-5 -30 -5 -54q0 -69 39.5 -112t121.5 -43q55 0 94.5 18t62 50.5t34 64t19.5 73.5l77 434h97l-78 -444q-49 -283 -310 -283zM439 769q-62 0 -98.5 34t-36.5 101h53q0 -39 23.5 -58.5t61.5 -19.5
q91 0 113 78h52q-15 -66 -59.5 -100.5t-108.5 -34.5z" />
    <glyph glyph-name="ubreve" unicode="&#x16d;" horiz-adv-x="590" 
d="M203 -13q-75 0 -114 42.5t-39 111.5q0 22 5 54l50 284h96l-48 -269q-5 -25 -5 -45q0 -44 22.5 -71.5t72.5 -27.5q57 0 98.5 46t55.5 127l43 240h95l-66 -371q-12 -66 -15 -108h-91q4 40 12 91h-3q-27 -49 -71.5 -76.5t-97.5 -27.5zM330 573q-62 0 -98.5 34t-36.5 101h53
q0 -39 23.5 -58.5t61.5 -19.5q91 0 113 78h52q-15 -66 -59.5 -100.5t-108.5 -34.5z" />
    <glyph glyph-name="Uring" unicode="&#x16e;" horiz-adv-x="725" 
d="M330 -19q-122 0 -189.5 59.5t-67.5 163.5q0 32 6 68l77 436h98l-76 -431q-5 -30 -5 -54q0 -69 39.5 -112t121.5 -43q55 0 94.5 18t62 50.5t34 64t19.5 73.5l77 434h97l-78 -444q-49 -283 -310 -283zM444 752q-40 0 -64 23.5t-24 60.5q0 48 31.5 82.5t80.5 34.5
q40 0 63.5 -23.5t23.5 -60.5q0 -49 -31 -83t-80 -34zM447 785q32 0 52.5 23t20.5 57q0 24 -15 40t-40 16q-32 0 -52.5 -24t-20.5 -57q0 -24 14 -39.5t41 -15.5z" />
    <glyph glyph-name="uring" unicode="&#x16f;" horiz-adv-x="590" 
d="M203 -13q-75 0 -114 42.5t-39 111.5q0 22 5 54l50 284h96l-48 -269q-5 -25 -5 -45q0 -44 22.5 -71.5t72.5 -27.5q57 0 98.5 46t55.5 127l43 240h95l-66 -371q-12 -66 -15 -108h-91q4 40 12 91h-3q-27 -49 -71.5 -76.5t-97.5 -27.5zM337 556q-40 0 -64 23.5t-24 60.5
q0 48 31.5 82t80.5 34q40 0 63.5 -23t23.5 -60q0 -49 -31 -83t-80 -34zM340 588q32 0 52.5 23.5t20.5 57.5q0 24 -15 40t-40 16q-32 0 -52.5 -24t-20.5 -57q0 -25 14 -40.5t41 -15.5z" />
    <glyph glyph-name="Uhungarumlaut" unicode="&#x170;" horiz-adv-x="725" 
d="M330 -19q-122 0 -189.5 59.5t-67.5 163.5q0 32 6 68l77 436h98l-76 -431q-5 -30 -5 -54q0 -69 39.5 -112t121.5 -43q55 0 94.5 18t62 50.5t34 64t19.5 73.5l77 434h97l-78 -444q-49 -283 -310 -283zM313 764l128 144h103l-156 -144h-75zM489 764l128 144h103l-157 -144
h-74z" />
    <glyph glyph-name="uhungarumlaut" unicode="&#x171;" horiz-adv-x="590" 
d="M203 -13q-75 0 -114 42.5t-39 111.5q0 22 5 54l50 284h96l-48 -269q-5 -25 -5 -45q0 -44 22.5 -71.5t72.5 -27.5q57 0 98.5 46t55.5 127l43 240h95l-66 -371q-12 -66 -15 -108h-91q4 40 12 91h-3q-27 -49 -71.5 -76.5t-97.5 -27.5zM204 568l128 144h103l-156 -144h-75z
M380 568l128 144h103l-157 -144h-74z" />
    <glyph glyph-name="Uogonek" unicode="&#x172;" horiz-adv-x="725" 
d="M621 708h97l-78 -444q-46 -265 -280 -282q-90 -74 -90 -121q0 -36 42 -36q33 0 63 23l15 -41q-49 -36 -102 -36q-38 0 -62 18t-24 55q0 62 98 138q-109 8 -168 66.5t-59 155.5q0 32 6 68l77 436h98l-76 -431q-5 -30 -5 -54q0 -69 39.5 -112t121.5 -43q55 0 94.5 18
t62 50.5t34 64t19.5 73.5z" />
    <glyph glyph-name="uogonek" unicode="&#x173;" horiz-adv-x="590" 
d="M440 479h95l-66 -371q-12 -66 -15 -108h-28q-59 -48 -85.5 -78.5t-26.5 -60.5q0 -36 42 -36q33 0 63 23l14 -41q-47 -36 -101 -36q-38 0 -62 18t-24 55q0 40 31 76.5t89 79.5h-3q4 40 12 91h-3q-27 -49 -71.5 -76.5t-97.5 -27.5q-75 0 -114 42.5t-39 111.5q0 22 5 54
l50 284h96l-48 -269q-5 -25 -5 -45q0 -44 22.5 -71.5t72.5 -27.5q57 0 98.5 46t55.5 127z" />
    <glyph glyph-name="Wcircumflex" unicode="&#x174;" horiz-adv-x="980" 
d="M152 0l-63 708h105l39 -574h3l279 574h108l48 -574h3l275 574h105l-350 -708h-105l-53 577h-3l-286 -577h-105zM419 764l139 144h93l85 -144h-76l-62 104l-99 -104h-80z" />
    <glyph glyph-name="wcircumflex" unicode="&#x175;" horiz-adv-x="777" 
d="M104 0l-54 479h99l29 -371h2l193 371h98l44 -371h2l182 371h101l-253 -479h-98l-48 368h-2l-196 -368h-99zM279 568l139 144h93l85 -144h-76l-62 104l-99 -104h-80z" />
    <glyph glyph-name="Ycircumflex" unicode="&#x176;" horiz-adv-x="568" 
d="M178 0l53 305l-174 403h111l126 -319l253 319h120l-337 -403l-54 -305h-98zM209 764l139 144h93l85 -144h-76l-62 104l-99 -104h-80z" />
    <glyph glyph-name="ycircumflex" unicode="&#x177;" horiz-adv-x="498" 
d="M-38 -158q58 5 93.5 25t60.5 65l37 64l-106 483h103l69 -381l203 381h103l-322 -566q-41 -77 -93 -111t-129 -42zM142 568l139 144h93l85 -144h-76l-62 104l-99 -104h-80z" />
    <glyph glyph-name="Ydieresis" unicode="&#x178;" horiz-adv-x="568" 
d="M178 0l53 305l-174 403h111l126 -319l253 319h120l-337 -403l-54 -305h-98zM281 797q-23 0 -38 14t-15 37q0 25 17 42.5t41 17.5q23 0 37.5 -14.5t14.5 -36.5q0 -24 -16.5 -42t-40.5 -18zM472 797q-23 0 -38 14t-15 37q0 26 16.5 43t41.5 17q22 0 36.5 -14.5t14.5 -36.5
q0 -24 -16 -42t-40 -18z" />
    <glyph glyph-name="Zacute" unicode="&#x179;" horiz-adv-x="603" 
d="M-14 0l15 88l491 535h-374l15 85h500l-15 -84l-493 -538h423l-31 -86h-531zM322 764l128 144h102l-156 -144h-74z" />
    <glyph glyph-name="zacute" unicode="&#x17a;" horiz-adv-x="470" 
d="M-13 0l13 75l326 330h-263l28 74h366l-13 -73l-328 -331h293l-28 -75h-394zM219 568l128 144h102l-156 -144h-74z" />
    <glyph glyph-name="Zdotaccent" unicode="&#x17b;" horiz-adv-x="603" 
d="M-14 0l15 88l491 535h-374l15 85h500l-15 -84l-493 -538h423l-31 -86h-531zM398 796q-24 0 -39.5 14t-15.5 38q0 25 17.5 42.5t42.5 17.5q23 0 38 -14.5t15 -36.5q0 -25 -17 -43t-41 -18z" />
    <glyph glyph-name="zdotaccent" unicode="&#x17c;" horiz-adv-x="470" 
d="M-13 0l13 75l326 330h-263l28 74h366l-13 -73l-328 -331h293l-28 -75h-394zM295 600q-24 0 -39.5 14t-15.5 38q0 25 17.5 42.5t42.5 17.5q23 0 38 -14.5t15 -36.5q0 -25 -17 -43t-41 -18z" />
    <glyph glyph-name="Zcaron" unicode="&#x17d;" horiz-adv-x="603" 
d="M-14 0l15 88l491 535h-374l15 85h500l-15 -84l-493 -538h423l-31 -86h-531zM334 764l-86 144h78l60 -105l100 105h80l-139 -144h-93z" />
    <glyph glyph-name="zcaron" unicode="&#x17e;" horiz-adv-x="470" 
d="M-13 0l13 75l326 330h-263l28 74h366l-13 -73l-328 -331h293l-28 -75h-394zM232 568l-86 144h78l60 -105l100 105h80l-139 -144h-93z" />
    <glyph glyph-name="florin" unicode="&#x192;" horiz-adv-x="603" 
d="M28 -141q-52 0 -87 22l42 72q22 -14 47 -14q39 0 61.5 27t41.5 79l112 309h-122l27 69h120l45 123q29 81 73 128t123 47q62 0 100 -27l-46 -71q-22 16 -53 16q-40 0 -63.5 -27t-41.5 -72l-43 -117h131l-27 -69h-129l-123 -336q-29 -78 -72.5 -118.5t-115.5 -40.5z" />
    <glyph glyph-name="AEacute" unicode="&#x1fc;" horiz-adv-x="954" 
d="M-36 0l557 708h447l-30 -85h-278l-38 -218h274l-30 -81h-258l-42 -238h321l-30 -86h-400l31 181h-267l-142 -181h-115zM276 261h227l63 362h-7zM645 764l128 144h102l-156 -144h-74z" />
    <glyph glyph-name="aeacute" unicode="&#x1fd;" horiz-adv-x="888" 
d="M589 -14q-76 0 -127.5 35t-70.5 92q-24 -54 -75.5 -89.5t-127.5 -35.5q-41 0 -76.5 10.5t-62.5 40t-27 74.5q0 42 20 73t51 48.5t79 28t94.5 14t106.5 3.5q8 32 8 54q0 86 -102 86q-38 0 -80.5 -14.5t-72.5 -36.5l-23 69q85 56 186 56q135 0 156 -98q29 44 79 71t110 27
q95 0 148.5 -53t53.5 -143q0 -41 -10 -80h-376q-2 -16 -2 -20q0 -62 42 -100t108 -38q91 0 171 56l10 -76q-80 -54 -190 -54zM458 280h290q2 20 2 30q0 51 -32.5 82.5t-89.5 31.5q-68 0 -113.5 -44.5t-56.5 -99.5zM205 55q64 0 104.5 41t52.5 102l4 21h-26q-229 0 -229 -93
q0 -38 27.5 -54.5t66.5 -16.5zM435 568l128 144h102l-156 -144h-74z" />
    <glyph glyph-name="Oslashacute" unicode="&#x1fe;" horiz-adv-x="846" 
d="M59 -23l-36 39l94 88q-56 77 -56 189q0 180 118 307t297 127q138 0 228 -74l89 84l37 -38l-91 -84q66 -80 66 -201q0 -117 -51.5 -216t-147 -158t-214.5 -59q-150 0 -239 84zM195 174l436 412q-60 55 -160 55q-137 0 -223.5 -102t-86.5 -239q0 -74 34 -126zM395 68
q138 0 223.5 101t85.5 238q0 79 -40 137l-437 -413q58 -63 168 -63zM452 764l128 144h102l-156 -144h-74z" />
    <glyph glyph-name="oslashacute" unicode="&#x1ff;" horiz-adv-x="611" 
d="M26 -25l-31 37l77 66q-36 52 -36 121q0 121 80 208t206 87q101 0 162 -55l77 66l31 -36l-74 -65q38 -50 38 -122q0 -123 -79.5 -209t-207.5 -86q-103 0 -164 56zM146 142l271 238q-36 36 -99 36q-84 0 -136 -60.5t-52 -144.5q0 -44 16 -69zM274 64q84 0 136 60.5
t52 145.5q0 42 -18 72l-273 -238q37 -40 103 -40zM302 568l128 144h102l-156 -144h-74z" />
    <glyph glyph-name="Scommaaccent" unicode="&#x218;" horiz-adv-x="576" 
d="M238 -19q-64 0 -126 20t-98 52l33 90q36 -36 89.5 -57.5t105.5 -21.5q70 0 116 36.5t46 97.5q0 50 -36 78.5t-108 52.5q-82 27 -123 67.5t-41 111.5q0 100 77 159.5t188 59.5q56 0 109 -17t86 -42l-37 -82q-26 23 -72.5 41t-88.5 18q-63 0 -111.5 -34t-48.5 -94
q0 -45 28.5 -69t90.5 -45q94 -32 142 -76.5t48 -120.5q0 -105 -76.5 -165t-192.5 -60zM91 -235l101 191h88l-115 -191h-74z" />
    <glyph glyph-name="scommaaccent" unicode="&#x219;" horiz-adv-x="438" 
d="M176 -14q-53 0 -98.5 14.5t-70.5 35.5l27 73q58 -50 141 -50q46 0 75 21.5t29 55.5q0 29 -22 46.5t-72 32.5q-64 18 -95 46.5t-31 78.5q0 72 56.5 113t136.5 41q47 0 90 -16t67 -38l-47 -62q-50 44 -114 44q-43 0 -71.5 -19t-28.5 -55q0 -27 19 -41.5t62 -25.5
q72 -20 106.5 -52.5t34.5 -85.5q0 -74 -56.5 -115.5t-137.5 -41.5zM21 -236l101 191h88l-115 -191h-74z" />
    <glyph glyph-name="uni021A" unicode="&#x21a;" horiz-adv-x="538" 
d="M169 0l109 623h-221l31 85h531l-30 -85h-211l-110 -623h-99zM78 -236l101 191h88l-115 -191h-74z" />
    <glyph glyph-name="uni021B" unicode="&#x21b;" horiz-adv-x="353" 
d="M186 -11q-57 0 -89 29.5t-32 74.5q0 25 5 48l47 265h-81l28 73h64l19 107l99 34l-25 -141h141l-28 -73h-125l-46 -258q-4 -22 -4 -35q0 -47 55 -47q38 0 78 18l9 -69q-54 -26 -115 -26zM17 -236l101 191h88l-115 -191h-74z" />
    <glyph glyph-name="uni0237" unicode="&#x237;" horiz-adv-x="264" 
d="M-61 -242q-24 0 -52 6l17 80q18 -5 32 -5q43 0 62 27t27 76l94 537h96l-95 -538q-16 -86 -55 -134.5t-126 -48.5z" />
    <glyph glyph-name="circumflex" unicode="&#x2c6;" 
d="M24 568l139 144h93l85 -144h-76l-62 104l-99 -104h-80z" />
    <glyph glyph-name="caron" unicode="&#x2c7;" 
d="M135 568l-86 144h78l60 -105l100 105h80l-139 -144h-93z" />
    <glyph glyph-name="uni02C9" unicode="&#x2c9;" 
d="M48 804l9 56h287l-10 -56h-286z" />
    <glyph glyph-name="breve" unicode="&#x2d8;" 
d="M192 573q-62 0 -98.5 34t-36.5 101h53q0 -39 23.5 -58.5t61.5 -19.5q91 0 113 78h52q-15 -66 -59.5 -100.5t-108.5 -34.5z" />
    <glyph glyph-name="dotaccent" unicode="&#x2d9;" 
d="M197 600q-24 0 -39.5 14t-15.5 38q0 25 17.5 42.5t42.5 17.5q23 0 38 -14.5t15 -36.5q0 -25 -17 -43t-41 -18z" />
    <glyph glyph-name="ring" unicode="&#x2da;" 
d="M189 556q-40 0 -64 23.5t-24 60.5q0 48 31.5 82t80.5 34q40 0 63.5 -23t23.5 -60q0 -49 -31 -83t-80 -34zM192 588q32 0 52.5 23.5t20.5 57.5q0 24 -15 40t-40 16q-32 0 -52.5 -24t-20.5 -57q0 -25 14 -40.5t41 -15.5z" />
    <glyph glyph-name="ogonek" unicode="&#x2db;" 
d="M36 -229q-37 0 -61.5 18t-24.5 55q0 41 31.5 76.5t92.5 81.5h59q-61 -48 -88 -79.5t-27 -61.5q0 -36 43 -36q32 0 62 23l15 -41q-49 -36 -102 -36z" />
    <glyph glyph-name="tilde" unicode="&#x2dc;" 
d="M29 582q32 104 108 104q30 0 68 -22q37 -23 60 -23q33 0 51 47h47q-32 -104 -108 -104q-29 0 -70 23q-42 21 -58 21q-33 0 -51 -46h-47z" />
    <glyph glyph-name="hungarumlaut" unicode="&#x2dd;" 
d="M37 568l128 144h103l-156 -144h-75zM213 568l128 144h103l-157 -144h-74z" />
    <glyph glyph-name="uni0326" unicode="&#x326;" horiz-adv-x="0" 
d="M-256 -236l101 191h88l-115 -191h-74z" />
    <glyph glyph-name="uni0374" unicode="&#x374;" horiz-adv-x="425" 
d="M121 544l75 191h108l-108 -191h-75z" />
    <glyph glyph-name="uni0375" unicode="&#x375;" horiz-adv-x="425" 
d="M121 -171l108 191h75l-75 -191h-108z" />
    <glyph glyph-name="uni0394" unicode="&#x394;" horiz-adv-x="669" 
d="M378 711l245 -653v-58h-613v59l246 652h122zM514 82l-165 451q-26 68 -33 98q-14 -50 -31 -94l-167 -455h396z" />
    <glyph glyph-name="uni03A9" unicode="&#x3a9;" horiz-adv-x="764" 
d="M391 637q-98 0 -161 -67t-63 -183q0 -107 40.5 -174.5t123.5 -121.5v-91h-298v83h205q-85 48 -132.5 128t-47.5 187q0 146 92 234t241 88q151 0 242 -86t91 -236q0 -214 -181 -315h207v-83h-300v91q86 51 125.5 120t39.5 177q0 118 -62.5 183.5t-161.5 65.5z" />
    <glyph glyph-name="uni03BC" unicode="&#x3bc;" horiz-adv-x="624" 
d="M545 479v-479h-79l-14 84h-5q-40 -94 -144 -94q-90 0 -123 62h-2q3 -40 3 -102v-190h-102v719h102v-266q0 -137 123 -137q74 0 106 47.5t32 138.5v217h103z" />
    <glyph glyph-name="pi" unicode="&#x3c0;" horiz-adv-x="685" 
d="M592 67q30 0 57 11v-68q-40 -20 -93 -20q-122 0 -122 140v272h-202v-402h-103v402h-117v48l91 29h550v-77h-116v-266q0 -69 55 -69z" />
    <glyph glyph-name="Wgrave" unicode="&#x1e80;" horiz-adv-x="980" 
d="M152 0l-63 708h105l39 -574h3l279 574h108l48 -574h3l275 574h105l-350 -708h-105l-53 577h-3l-286 -577h-105zM548 764l-135 144h102l106 -144h-73z" />
    <glyph glyph-name="wgrave" unicode="&#x1e81;" horiz-adv-x="777" 
d="M104 0l-54 479h99l29 -371h2l193 371h98l44 -371h2l182 371h101l-253 -479h-98l-48 368h-2l-196 -368h-99zM402 568l-135 144h102l106 -144h-73z" />
    <glyph glyph-name="Wacute" unicode="&#x1e82;" horiz-adv-x="980" 
d="M152 0l-63 708h105l39 -574h3l279 574h108l48 -574h3l275 574h105l-350 -708h-105l-53 577h-3l-286 -577h-105zM535 764l128 144h102l-156 -144h-74z" />
    <glyph glyph-name="wacute" unicode="&#x1e83;" horiz-adv-x="777" 
d="M104 0l-54 479h99l29 -371h2l193 371h98l44 -371h2l182 371h101l-253 -479h-98l-48 368h-2l-196 -368h-99zM398 568l128 144h102l-156 -144h-74z" />
    <glyph glyph-name="Wdieresis" unicode="&#x1e84;" horiz-adv-x="980" 
d="M152 0l-63 708h105l39 -574h3l279 574h108l48 -574h3l275 574h105l-350 -708h-105l-53 577h-3l-286 -577h-105zM496 797q-23 0 -38 14t-15 37q0 25 17 42.5t41 17.5q23 0 37.5 -14.5t14.5 -36.5q0 -24 -16.5 -42t-40.5 -18zM687 797q-23 0 -38 14t-15 37q0 26 16.5 43
t41.5 17q22 0 36.5 -14.5t14.5 -36.5q0 -24 -16 -42t-40 -18z" />
    <glyph glyph-name="wdieresis" unicode="&#x1e85;" horiz-adv-x="777" 
d="M104 0l-54 479h99l29 -371h2l193 371h98l44 -371h2l182 371h101l-253 -479h-98l-48 368h-2l-196 -368h-99zM353 601q-23 0 -38 14t-15 37q0 25 17 42t41 17q23 0 37.5 -14t14.5 -36q0 -24 -16.5 -42t-40.5 -18zM544 601q-23 0 -38 14t-15 37q0 25 16.5 42t41.5 17
q22 0 36.5 -14t14.5 -36q0 -24 -16 -42t-40 -18z" />
    <glyph glyph-name="Ygrave" unicode="&#x1ef2;" horiz-adv-x="568" 
d="M178 0l53 305l-174 403h111l126 -319l253 319h120l-337 -403l-54 -305h-98zM340 764l-135 144h102l106 -144h-73z" />
    <glyph glyph-name="ygrave" unicode="&#x1ef3;" horiz-adv-x="498" 
d="M-38 -158q58 5 93.5 25t60.5 65l37 64l-106 483h103l69 -381l203 381h103l-322 -566q-41 -77 -93 -111t-129 -42zM275 568l-135 144h102l106 -144h-73z" />
    <glyph glyph-name="uni2010" unicode="&#x2010;" horiz-adv-x="316" 
d="M35 217l14 77h222l-14 -77h-222z" />
    <glyph glyph-name="endash" unicode="&#x2013;" horiz-adv-x="400" 
d="M25 223l12 65h340l-12 -65h-340z" />
    <glyph glyph-name="emdash" unicode="&#x2014;" horiz-adv-x="600" 
d="M25 223l12 65h540l-12 -65h-540z" />
    <glyph glyph-name="uni2015" unicode="&#x2015;" horiz-adv-x="600" 
d="M25 223l12 65h540l-12 -65h-540z" />
    <glyph glyph-name="quoteleft" unicode="&#x2018;" horiz-adv-x="256" 
d="M265 681q-73 -52 -94 -122q20 -3 33 -17.5t13 -36.5q0 -27 -19 -47t-46 -20q-25 0 -41.5 16.5t-16.5 42.5q0 61 41 117.5t98 93.5z" />
    <glyph glyph-name="quoteright" unicode="&#x2019;" horiz-adv-x="256" 
d="M255 649q0 -61 -41 -117.5t-98 -93.5l-32 27q73 52 94 122q-46 9 -46 54q0 28 19 47.5t46 19.5q25 0 41.5 -16.5t16.5 -42.5z" />
    <glyph glyph-name="quotesinglbase" unicode="&#x201a;" horiz-adv-x="259" 
d="M169 74q0 -61 -41 -117.5t-98 -93.5l-32 27q73 52 94 122q-20 3 -32.5 17.5t-12.5 36.5q0 27 19 47t46 20q24 0 40.5 -16.5t16.5 -42.5z" />
    <glyph glyph-name="quotedblleft" unicode="&#x201c;" horiz-adv-x="427" 
d="M93 497q1 61 42.5 117.5t97.5 93.5l32 -27q-73 -52 -94 -122q20 -3 32.5 -17.5t12.5 -36.5q0 -27 -19 -47t-46 -20q-24 0 -41 16.5t-17 42.5zM458 681q-73 -52 -94 -122q20 -3 33 -17.5t13 -36.5q0 -27 -19 -47t-46 -20q-25 0 -41.5 16.5t-16.5 42.5q0 61 41 117.5
t98 93.5z" />
    <glyph glyph-name="quotedblright" unicode="&#x201d;" horiz-adv-x="427" 
d="M197 708q25 0 41.5 -16.5t16.5 -42.5q0 -61 -41 -117.5t-98 -93.5l-32 27q73 52 94 122q-46 9 -46 54q0 28 19 47.5t46 19.5zM449 649q-1 -61 -42.5 -117.5t-97.5 -93.5l-32 27q73 52 94 122q-21 4 -33 18.5t-12 35.5q0 28 18.5 47.5t46.5 19.5q24 0 41 -16.5t17 -42.5z
" />
    <glyph glyph-name="quotedblbase" unicode="&#x201e;" horiz-adv-x="428" 
d="M89 131q25 0 41.5 -16.5t16.5 -42.5q0 -61 -41 -117.5t-98 -93.5l-32 27q74 55 94 122q-46 9 -46 55q0 27 19 46.5t46 19.5zM341 72q-1 -61 -42.5 -117.5t-97.5 -93.5l-32 27q74 55 94 122q-21 4 -33 18.5t-12 36.5q0 27 19 46.5t46 19.5q24 0 41 -16.5t17 -42.5z" />
    <glyph glyph-name="dagger" unicode="&#x2020;" horiz-adv-x="564" 
d="M167 -127l99 556h-197l14 75h195l36 204h85l-36 -204h196l-13 -75h-196l-98 -556h-85z" />
    <glyph glyph-name="daggerdbl" unicode="&#x2021;" horiz-adv-x="564" 
d="M168 -127l34 191h-193l13 75h192l54 303h-192l12 75h193l34 191h85l-34 -191h192l-13 -75h-192l-54 -303h192l-12 -75h-193l-33 -191h-85z" />
    <glyph glyph-name="bullet" unicode="&#x2022;" horiz-adv-x="500" 
d="M250 177q-74 0 -125.5 51.5t-51.5 125.5t51.5 125.5t125.5 51.5t125.5 -51.5t51.5 -125.5t-51.5 -125.5t-125.5 -51.5z" />
    <glyph glyph-name="ellipsis" unicode="&#x2026;" horiz-adv-x="1000" 
d="M126 -6q-26 0 -42.5 15.5t-16.5 40.5q0 29 19.5 49t47.5 20q25 0 41.5 -16.5t16.5 -41.5q0 -28 -19.5 -47.5t-46.5 -19.5zM460 -6q-26 0 -42.5 15.5t-16.5 40.5q0 29 19.5 49t47.5 20q25 0 41.5 -16t16.5 -41q0 -28 -19.5 -48t-46.5 -20zM794 -6q-26 0 -42.5 15.5
t-16.5 40.5q0 29 20 49t47 20q26 0 42.5 -16t16.5 -41q0 -28 -19.5 -48t-47.5 -20z" />
    <glyph glyph-name="perthousand" unicode="&#x2030;" horiz-adv-x="1119" 
d="M145 -31l-47 30l538 739l47 -30zM229 394q-66 0 -106 38.5t-40 99.5q0 78 51 132t131 54q66 0 106 -38t40 -99q0 -79 -51 -133t-131 -54zM233 456q48 0 78.5 34t30.5 83q0 36 -21.5 59.5t-61.5 23.5q-48 0 -78 -34t-30 -83q0 -36 22 -59.5t60 -23.5zM527 -10
q-66 0 -106 38.5t-40 99.5q0 78 51 132t131 54q66 0 105.5 -38t39.5 -99q0 -79 -51 -133t-130 -54zM894 -10q-65 0 -105 38.5t-40 99.5q0 78 51 132t130 54q66 0 106 -38t40 -99q0 -79 -51 -133t-131 -54zM531 52q48 0 78.5 34t30.5 83q0 36 -21.5 59.5t-61.5 23.5
q-48 0 -78 -34t-30 -83q0 -36 22 -59.5t60 -23.5zM899 52q48 0 78.5 34t30.5 83q0 35 -22 59t-62 24q-47 0 -77.5 -34t-30.5 -83q0 -36 22 -59.5t61 -23.5z" />
    <glyph glyph-name="guilsinglleft" unicode="&#x2039;" horiz-adv-x="316" 
d="M151 32l-105 216l181 214l51 -40l-147 -177l83 -176z" />
    <glyph glyph-name="guilsinglright" unicode="&#x203a;" horiz-adv-x="316" 
d="M77 31l-52 40l149 180l-84 175l62 36l107 -217z" />
    <glyph glyph-name="uni203D" unicode="&#x203d;" horiz-adv-x="507" 
d="M195 210l55 319h82l-31 -162q22 25 61 59q67 60 67 123q0 47 -29 73t-78 26q-47 0 -93.5 -24t-76.5 -59l-42 67q36 42 93.5 67.5t125.5 25.5q84 0 136.5 -42t52.5 -124q0 -63 -35 -109t-100 -91q-48 -34 -67 -58t-25 -57l-6 -34h-90zM222 -7q-26 0 -43 16t-17 41
q0 28 19 47.5t47 19.5q25 0 41.5 -16t16.5 -41q0 -28 -19 -47.5t-45 -19.5z" />
    <glyph glyph-name="fraction" unicode="&#x2044;" horiz-adv-x="100" 
d="M-201 -31l-47 30l550 739l47 -29z" />
    <glyph glyph-name="zero.superior" unicode="&#x2070;" horiz-adv-x="390" 
d="M291 886q66 0 96.5 -42t30.5 -107q0 -50 -10.5 -99.5t-32 -94.5t-59.5 -73.5t-88 -28.5q-67 0 -98 41.5t-31 106.5q0 69 18 133.5t63.5 114t110.5 49.5zM286 825q-51 0 -83 -69.5t-32 -158.5q0 -96 61 -96q51 0 82.5 69.5t31.5 159.5q0 95 -60 95z" />
    <glyph glyph-name="four.superior" unicode="&#x2074;" horiz-adv-x="374" 
d="M253 450l17 95h-197l11 59l225 273h84l-49 -275h71l-17 -57h-63l-17 -95h-65zM152 602h128l34 196h-3z" />
    <glyph glyph-name="five.superior" unicode="&#x2075;" horiz-adv-x="378" 
d="M224 440q-87 0 -137 43l22 60q48 -43 117 -43q42 0 68.5 27t26.5 68q0 34 -23 54.5t-61 20.5q-47 0 -97 -21l47 228h227l-16 -61h-161l-19 -98q20 7 43 7q55 0 93 -33t38 -91q0 -72 -49 -116.5t-119 -44.5z" />
    <glyph glyph-name="six.superior" unicode="&#x2076;" horiz-adv-x="375" 
d="M238 441q-63 0 -103.5 39t-40.5 110q0 129 69 208.5t172 79.5q47 0 84 -16l-24 -52q-26 13 -67 13q-54 0 -96 -39.5t-57 -108.5q37 44 102 44q52 0 86.5 -33t34.5 -85q0 -67 -44.5 -113.5t-115.5 -46.5zM238 500q39 0 64.5 27.5t25.5 69.5q0 31 -19.5 50.5t-49.5 19.5
q-42 0 -68.5 -28t-26.5 -66q0 -32 20.5 -52.5t53.5 -20.5z" />
    <glyph glyph-name="seven.superior" unicode="&#x2077;" horiz-adv-x="341" 
d="M108 450l242 366h-210l23 61h275l-10 -56l-237 -371h-83z" />
    <glyph glyph-name="eight.superior" unicode="&#x2078;" horiz-adv-x="350" 
d="M395 781q0 -40 -23.5 -67t-59.5 -39v-2q27 -11 44.5 -35t17.5 -55q0 -66 -46.5 -104t-114.5 -38q-54 0 -93.5 28.5t-39.5 85.5q0 45 28 78.5t73 45.5v2q-51 23 -51 79t42 91t100 35q52 0 87.5 -27t35.5 -78zM251 701q33 0 55 21t22 49q0 27 -17 43t-44 16
q-32 0 -52.5 -21t-20.5 -52q0 -24 15.5 -40t41.5 -16zM217 498q41 0 65.5 24t24.5 61q0 28 -19.5 46.5t-48.5 18.5q-39 0 -65.5 -25t-26.5 -61q0 -30 20.5 -47t49.5 -17z" />
    <glyph glyph-name="nine.superior" unicode="&#x2079;" horiz-adv-x="375" 
d="M175 448q-51 0 -85 16l25 53q26 -13 67 -13q50 0 94.5 40t58.5 108q-37 -44 -102 -44q-52 0 -86.5 33t-34.5 84q0 67 45 114t119 47q60 0 100 -39.5t40 -110.5q0 -125 -69.5 -206.5t-171.5 -81.5zM251 659q43 0 69.5 27.5t26.5 66.5q0 33 -20 53.5t-52 20.5
q-41 0 -67 -27.5t-26 -69.5q0 -31 19.5 -51t49.5 -20z" />
    <glyph glyph-name="uni207A" unicode="&#x207a;" horiz-adv-x="387" 
d="M223 464v133h-132v46h132v133h48v-133h132v-46h-132v-133h-48z" />
    <glyph glyph-name="uni207B" unicode="&#x207b;" horiz-adv-x="387" 
d="M97 607v46h305v-46h-305z" />
    <glyph glyph-name="uni207C" unicode="&#x207c;" horiz-adv-x="393" 
d="M96 674v45h305v-45h-305zM96 568v45h305v-45h-305z" />
    <glyph glyph-name="uni207D" unicode="&#x207d;" horiz-adv-x="275" 
d="M181 379q-46 84 -46 194q0 93 36 184.5t104 165.5l38 -23q-59 -64 -94.5 -150.5t-35.5 -175.5q0 -104 41 -177z" />
    <glyph glyph-name="uni207E" unicode="&#x207e;" horiz-adv-x="275" 
d="M119 373l-37 23q59 64 94.5 150.5t35.5 175.5q0 101 -41 177l42 18q46 -81 46 -194q0 -93 -36 -184.5t-104 -165.5z" />
    <glyph glyph-name="zero.inferior" unicode="&#x2080;" horiz-adv-x="390" 
d="M210 298q66 0 96.5 -42t30.5 -107q0 -50 -10.5 -99.5t-32 -94.5t-59.5 -73.5t-88 -28.5q-67 0 -98 41.5t-31 106.5q0 69 18 133.5t63.5 114t110.5 49.5zM205 237q-51 0 -83 -69.5t-32 -158.5q0 -96 61 -96q51 0 82.5 69.5t31.5 159.5q0 95 -60 95z" />
    <glyph glyph-name="one.inferior" unicode="&#x2081;" horiz-adv-x="250" 
d="M67 -141l61 346l-91 -58l-28 51l141 88h64l-75 -427h-72z" />
    <glyph glyph-name="two.inferior" unicode="&#x2082;" horiz-adv-x="363" 
d="M-24 -141l10 60l187 156q38 32 53.5 55t15.5 49q0 27 -16.5 41.5t-45.5 14.5q-62 0 -92 -66l-54 27q44 99 153 99q54 0 89 -29.5t35 -78.5q0 -47 -22.5 -78t-80.5 -79l-131 -110h203l-18 -61h-286z" />
    <glyph glyph-name="three.inferior" unicode="&#x2083;" horiz-adv-x="360" 
d="M118 -152q-97 0 -145 66l38 48q14 -23 44.5 -38.5t62.5 -15.5q39 0 61.5 20.5t22.5 54.5q0 35 -24 52.5t-63 17.5h-24l9 53h25q46 0 71.5 19.5t25.5 53.5q0 57 -61 57q-44 0 -88 -42l-28 48q49 51 124 51q53 0 87.5 -28t34.5 -78q0 -44 -26.5 -73t-65.5 -37
q33 -10 52.5 -34.5t19.5 -59.5q0 -64 -43.5 -99.5t-109.5 -35.5z" />
    <glyph glyph-name="four.inferior" unicode="&#x2084;" horiz-adv-x="374" 
d="M148 -140l17 95h-197l11 59l225 273h84l-49 -275h71l-17 -57h-63l-17 -95h-65zM47 12h128l34 196h-3z" />
    <glyph glyph-name="five.inferior" unicode="&#x2085;" horiz-adv-x="378" 
d="M128 -150q-87 0 -137 43l22 60q48 -43 117 -43q42 0 68.5 27t26.5 68q0 34 -23 54.5t-61 20.5q-47 0 -97 -21l47 228h227l-16 -61h-161l-19 -98q20 7 43 7q55 0 93 -33t38 -91q0 -72 -49 -116.5t-119 -44.5z" />
    <glyph glyph-name="six.inferior" unicode="&#x2086;" horiz-adv-x="375" 
d="M140 -149q-63 0 -103.5 39t-40.5 110q0 129 69 208.5t172 79.5q47 0 84 -16l-24 -52q-26 13 -67 13q-54 0 -96 -39.5t-57 -108.5q37 44 102 44q52 0 86.5 -33t34.5 -85q0 -67 -44.5 -113.5t-115.5 -46.5zM140 -90q39 0 64.5 27.5t25.5 69.5q0 31 -19.5 50.5t-49.5 19.5
q-42 0 -68.5 -28t-26.5 -66q0 -32 20.5 -52.5t53.5 -20.5z" />
    <glyph glyph-name="seven.inferior" unicode="&#x2087;" horiz-adv-x="341" 
d="M-10 -139l242 366h-210l23 61h275l-10 -56l-237 -371h-83z" />
    <glyph glyph-name="eight.inferior" unicode="&#x2088;" horiz-adv-x="350" 
d="M302 192q0 -40 -23.5 -67t-59.5 -39v-2q27 -11 44.5 -35t17.5 -55q0 -66 -46.5 -104t-114.5 -38q-54 0 -93.5 28.5t-39.5 85.5q0 45 28 78.5t73 45.5v2q-24 11 -37.5 32.5t-13.5 46.5q0 56 42 91t100 35q52 0 87.5 -27t35.5 -78zM158 112q33 0 55 21t22 49q0 27 -17 43
t-44 16q-32 0 -52.5 -21t-20.5 -52q0 -24 15.5 -40t41.5 -16zM124 -91q41 0 65.5 24t24.5 61q0 28 -19.5 46.5t-48.5 18.5q-39 0 -65.5 -25t-26.5 -61q0 -30 20.5 -47t49.5 -17z" />
    <glyph glyph-name="nine.inferior" unicode="&#x2089;" horiz-adv-x="375" 
d="M82 -141q-51 0 -85 16l25 53q26 -13 67 -13q50 0 94.5 40t58.5 108q-37 -44 -102 -44q-52 0 -86.5 33t-34.5 84q0 67 45 114t119 47q60 0 100 -39.5t40 -110.5q0 -125 -69.5 -206.5t-171.5 -81.5zM158 70q43 0 69.5 27.5t26.5 66.5q0 33 -20 53.5t-52 20.5
q-41 0 -67 -27.5t-26 -69.5q0 -31 19.5 -51t49.5 -20z" />
    <glyph glyph-name="uni208A" unicode="&#x208a;" horiz-adv-x="387" 
d="M151 -109v132h-133v47h133v133h48v-133h132v-47h-132v-132h-48z" />
    <glyph glyph-name="uni208B" unicode="&#x208b;" horiz-adv-x="387" 
d="M27 25v45h305v-45h-305z" />
    <glyph glyph-name="uni208C" unicode="&#x208c;" horiz-adv-x="388" 
d="M18 78v46h306v-46h-306zM18 -28v46h306v-46h-306z" />
    <glyph glyph-name="uni208D" unicode="&#x208d;" horiz-adv-x="275" 
d="M63 -209q-45 81 -45 193q0 93 36 185t104 166l37 -23q-59 -65 -94.5 -151.5t-35.5 -175.5q0 -101 41 -177z" />
    <glyph glyph-name="uni208E" unicode="&#x208e;" horiz-adv-x="280" 
d="M21 -209l-37 23q58 65 93.5 151t35.5 175q0 103 -40 177l42 18q46 -84 46 -194q0 -93 -36 -184.5t-104 -165.5z" />
    <glyph glyph-name="Euro" unicode="&#x20ac;" horiz-adv-x="603" 
d="M366 -19q-122 0 -190.5 72.5t-74.5 183.5h-84l34 65h51q0 38 19 105h-75l34 65h60q43 114 132.5 184.5t203.5 70.5q90 0 147 -31l-37 -74q-46 26 -117 26q-74 0 -136 -49t-94 -127h287l-32 -65h-280q-17 -50 -19 -105h255l-31 -65h-224q3 -79 53 -128t131 -49
q70 0 137 36l17 -72q-71 -43 -167 -43z" />
    <glyph glyph-name="uni2105" unicode="&#x2105;" horiz-adv-x="868" 
d="M181 -31l-47 30l561 739l47 -30zM236 373q-72 0 -114 40t-42 105q0 83 56.5 143.5t143.5 60.5q79 0 120 -53l-50 -46q-25 35 -73 35q-52 0 -86.5 -39t-34.5 -93q0 -38 22 -62t66 -24q47 0 85 36l40 -48q-58 -55 -133 -55zM614 -12q-73 0 -117 40.5t-44 105.5q0 85 54 144
t142 59q73 0 117.5 -40.5t44.5 -105.5q0 -85 -54.5 -144t-142.5 -59zM617 53q53 0 86.5 38.5t33.5 93.5q0 39 -24 63.5t-68 24.5q-53 0 -85.5 -38.5t-32.5 -93.5q0 -39 23.5 -63.5t66.5 -24.5z" />
    <glyph glyph-name="uni2113" unicode="&#x2113;" horiz-adv-x="500" 
d="M241 -14q-55 0 -87 27t-32 77q0 16 22 119l-66 -54h-2l-26 53l111 83l55 257q18 83 65 128t110 45q46 0 75.5 -31.5t29.5 -79.5q0 -151 -248 -339q-33 -141 -33 -165q0 -51 52 -51q43 0 98 39h2l24 -54q-72 -54 -150 -54zM265 355q61 55 107.5 123.5t46.5 127.5
q0 23 -10.5 37.5t-26.5 14.5q-23 0 -42.5 -24t-29.5 -73z" />
    <glyph glyph-name="uni2117" unicode="&#x2117;" horiz-adv-x="800" 
d="M401 -22q-158 0 -269.5 109.5t-111.5 265.5q0 157 111.5 267t269.5 110q157 0 268 -110t111 -267q0 -156 -111 -265.5t-268 -109.5zM400 22q138 0 236 97t98 234q0 138 -98 235.5t-235 97.5q-138 0 -236.5 -97.5t-98.5 -235.5q0 -137 98 -234t236 -97zM277 127v441h162
q73 0 118.5 -34.5t45.5 -104.5q0 -68 -45 -105.5t-116 -37.5h-90v-159h-75zM352 348h88q41 0 64.5 21t23.5 59t-24.5 58t-64.5 20h-87v-158z" />
    <glyph glyph-name="trademark" unicode="&#x2122;" horiz-adv-x="1000" 
d="M259 296v351h-126v61h322v-61h-126v-351h-70zM543 296v412h100l124 -311l123 311h100v-412h-69v321h-2l-129 -321h-49l-128 321h-2v-321h-68z" />
    <glyph glyph-name="uni2126" unicode="&#x2126;" horiz-adv-x="764" 
d="M391 637q-98 0 -161 -67t-63 -183q0 -107 40.5 -174.5t123.5 -121.5v-91h-298v83h205q-85 48 -132.5 128t-47.5 187q0 146 92 234t241 88q151 0 242 -86t91 -236q0 -214 -181 -315h207v-83h-300v91q86 51 125.5 120t39.5 177q0 118 -62.5 183.5t-161.5 65.5z" />
    <glyph glyph-name="estimated" unicode="&#x212e;" horiz-adv-x="555" 
d="M302 -17q-115 0 -186.5 79t-71.5 197q0 119 71 197.5t187 78.5q115 0 186.5 -77t72.5 -199h-404v-181q59 -59 145 -59q122 0 193 120l35 -21q-46 -72 -98 -103.5t-130 -31.5zM157 295h291v145q-63 60 -147 60t-144 -60v-145z" />
    <glyph glyph-name="uni2153" unicode="&#x2153;" horiz-adv-x="782" 
d="M121 -31l-47 30l551 739l46 -29zM144 281l61 347l-91 -59l-28 51l141 89h64l-75 -428h-72zM553 -10q-46 0 -84.5 18t-59.5 49l37 48q14 -24 44.5 -39.5t62.5 -15.5q39 0 61.5 20.5t22.5 54.5q0 70 -87 70h-24l9 53h25q46 0 72 19.5t26 53.5q0 57 -61 57q-45 0 -89 -42
l-28 48q50 52 124 52q53 0 87.5 -28.5t34.5 -78.5q0 -44 -27 -73t-65 -36q33 -11 52.5 -35.5t19.5 -59.5q0 -64 -43.5 -99.5t-109.5 -35.5z" />
    <glyph glyph-name="uni2154" unicode="&#x2154;" horiz-adv-x="889" 
d="M229 -31l-47 30l550 739l47 -29zM48 281l10 60l187 156q38 32 53.5 55t15.5 49q0 27 -16.5 41.5t-44.5 14.5q-61 0 -93 -65l-54 26q44 99 153 99q54 0 89 -29t35 -78q0 -47 -22.5 -78.5t-80.5 -79.5l-131 -110h203l-18 -61h-286zM661 -10q-46 0 -84.5 18t-59.5 49l37 48
q14 -24 44.5 -39.5t62.5 -15.5q39 0 61.5 20.5t22.5 54.5q0 70 -87 70h-24l9 53h25q46 0 72 19.5t26 53.5q0 57 -61 57q-45 0 -89 -42l-28 48q50 52 124 52q53 0 87.5 -28.5t34.5 -78.5q0 -44 -27 -73t-65 -36q33 -11 52.5 -35.5t19.5 -59.5q0 -64 -43.5 -99.5t-109.5 -35.5
z" />
    <glyph glyph-name="oneeighth" unicode="&#x215b;" horiz-adv-x="797" 
d="M124 -31l-46 30l550 739l47 -29zM144 281l61 347l-91 -59l-28 51l141 89h64l-75 -428h-72zM548 -9q-58 0 -96.5 31t-38.5 82q0 45 28 83t73 55q-36 26 -36 72q0 55 43.5 90.5t101.5 35.5q49 0 79.5 -25.5t30.5 -66.5q0 -31 -18 -59.5t-49 -46.5q60 -28 60 -94
q0 -68 -53 -112.5t-125 -44.5zM595 265q29 0 51 22t22 50q0 22 -15 36t-38 14q-29 0 -51.5 -20.5t-22.5 -50.5q0 -22 15 -36.5t39 -14.5zM556 47q40 0 70 27.5t30 70.5q0 30 -20 49.5t-51 19.5q-38 0 -70 -29t-32 -69q0 -31 20.5 -50t52.5 -19z" />
    <glyph glyph-name="threeeighths" unicode="&#x215c;" horiz-adv-x="784" 
d="M153 -31l-46 30l550 739l47 -29zM172 271q-84 0 -138 47l26 62q44 -49 114 -49q37 0 59.5 20.5t22.5 54.5q0 70 -87 70h-24l9 53h25q46 0 72 19.5t26 53.5q0 57 -61 57q-42 0 -92 -39l-21 54q53 43 120 43q53 0 87.5 -28.5t34.5 -78.5q0 -44 -27 -73t-65 -37
q72 -22 72 -94q0 -64 -43.5 -99.5t-109.5 -35.5zM554 -9q-58 0 -97 31t-39 82q0 44 28.5 82.5t73.5 55.5q-36 26 -36 72q0 55 43.5 90.5t101.5 35.5q49 0 79 -25.5t30 -66.5q0 -66 -66 -106q59 -27 59 -94q0 -69 -52.5 -113t-124.5 -44zM600 265q29 0 51.5 22t22.5 50
q0 22 -15 36t-39 14q-29 0 -51 -20.5t-22 -50.5q0 -22 14.5 -36.5t38.5 -14.5zM561 47q41 0 71 27.5t30 70.5q0 30 -20 49.5t-52 19.5q-38 0 -69.5 -29t-31.5 -69q0 -31 20 -50t52 -19z" />
    <glyph glyph-name="fiveeighths" unicode="&#x215d;" horiz-adv-x="784" 
d="M153 -31l-46 30l550 739l47 -29zM180 272q-86 0 -137 42l22 61q48 -43 117 -43q42 0 69 27t27 68q0 34 -23.5 54.5t-61.5 20.5q-48 0 -97 -22l47 228h227l-16 -60h-160l-20 -98q21 6 43 6q56 0 93.5 -32.5t37.5 -90.5q0 -72 -49 -116.5t-119 -44.5zM554 -9q-58 0 -97 31
t-39 82q0 44 28.5 82.5t73.5 55.5q-36 26 -36 72q0 55 43.5 90.5t101.5 35.5q49 0 79 -25.5t30 -66.5q0 -66 -66 -106q59 -27 59 -94q0 -69 -52.5 -113t-124.5 -44zM600 265q29 0 51.5 22t22.5 50q0 22 -15 36t-39 14q-29 0 -51 -20.5t-22 -50.5q0 -22 14.5 -36.5
t38.5 -14.5zM561 47q41 0 71 27.5t30 70.5q0 30 -20 49.5t-52 19.5q-38 0 -69.5 -29t-31.5 -69q0 -31 20 -50t52 -19z" />
    <glyph glyph-name="seveneighths" unicode="&#x215e;" horiz-adv-x="784" 
d="M108 -31l-46 30l550 739l46 -29zM69 281l248 367h-196l11 60h275l-9 -52l-247 -375h-82zM535 -9q-58 0 -97 31t-39 82q0 44 28.5 82.5t73.5 55.5q-36 25 -36 72q0 55 43.5 90.5t101.5 35.5q49 0 79 -25.5t30 -66.5q0 -31 -18 -59.5t-49 -46.5q60 -27 60 -94
q0 -69 -52.5 -113t-124.5 -44zM581 265q29 0 51.5 22t22.5 50q0 22 -15 36t-39 14q-29 0 -51 -20.5t-22 -50.5q0 -22 15 -36.5t38 -14.5zM542 47q41 0 71 27.5t30 70.5q0 30 -20 49.5t-52 19.5q-38 0 -69.5 -29t-31.5 -69q0 -31 20 -50t52 -19z" />
    <glyph glyph-name="partialdiff" unicode="&#x2202;" horiz-adv-x="569" 
d="M267 -14q-94 0 -154.5 66t-60.5 165t57.5 159t152.5 60q89 0 150 -69q0 1 0.5 23t-0.5 22q-2 99 -44 163.5t-118 64.5q-69 0 -123 -53l-47 66q76 70 169 70q70 0 122 -30.5t80.5 -83t42 -114t13.5 -133.5q0 -171 -58 -273.5t-182 -102.5zM269 66q46 0 78 34t44.5 81
t14.5 103q-60 74 -133 74q-58 0 -90.5 -41.5t-32.5 -102.5q0 -59 32.5 -103.5t86.5 -44.5z" />
    <glyph glyph-name="uni2206" unicode="&#x2206;" horiz-adv-x="669" 
d="M378 711l245 -653v-58h-613v59l246 652h122zM514 82l-165 451q-26 68 -33 98q-14 -50 -31 -94l-167 -455h396z" />
    <glyph glyph-name="product" unicode="&#x220f;" horiz-adv-x="728" 
d="M73 -214v1000h583v-1000h-91v919h-402v-919h-90z" />
    <glyph glyph-name="summation" unicode="&#x2211;" horiz-adv-x="629" 
d="M33 -214v70l315 434l-302 426v70h541v-81h-427l292 -414l-307 -424h454v-81h-566z" />
    <glyph glyph-name="minus" unicode="&#x2212;" horiz-adv-x="666" 
d="M81 267v75h504v-75h-504z" />
    <glyph glyph-name="uni2215" unicode="&#x2215;" horiz-adv-x="100" 
d="M-201 -31l-47 30l550 739l47 -29z" />
    <glyph glyph-name="uni2219" unicode="&#x2219;" horiz-adv-x="272" 
d="M137 220q-26 0 -43 16t-17 42q0 28 19 47.5t47 19.5q26 0 42.5 -16t16.5 -41q0 -28 -19 -48t-46 -20z" />
    <glyph glyph-name="radical" unicode="&#x221a;" horiz-adv-x="523" 
d="M234 -215l-157 332l-54 -26l-32 69l129 59l140 -302l180 869h87l-211 -1001h-82z" />
    <glyph glyph-name="infinity" unicode="&#x221e;" horiz-adv-x="780" 
d="M579 94q-84 0 -186 110q-33 -35 -54.5 -54t-58 -37.5t-71.5 -18.5q-69 0 -112 46t-43 116t42 116t111 46q85 0 186 -114q101 114 186 114q69 0 111 -45.5t42 -115.5t-42 -116.5t-111 -46.5zM580 166q37 0 58 25.5t21 63.5q0 39 -21.5 65t-59.5 26q-32 0 -64.5 -23.5
t-74.5 -68.5q42 -44 75 -66t66 -22zM209 167q56 0 138 87q-87 91 -140 91q-36 0 -58 -26.5t-22 -63.5q0 -38 22 -63t60 -25z" />
    <glyph glyph-name="integral" unicode="&#x222b;" horiz-adv-x="583" 
d="M182 -210q-33 0 -59 15.5t-26 46.5q0 17 13.5 30t30.5 13q15 0 25 -11t17 -22.5t15 -11.5q31 0 31 111q1 10 0 33t-1 37l2 493q0 65 4.5 106.5t17.5 78.5t40.5 54.5t70.5 17.5q32 0 59 -15t27 -46q0 -20 -12.5 -32.5t-32.5 -12.5q-15 0 -25.5 11.5t-17.5 23t-15 11.5
q-17 0 -24 -33t-7 -70q0 -15 0.5 -43t0.5 -44l-1 -482q0 -132 -28 -195.5t-105 -63.5z" />
    <glyph glyph-name="approxequal" unicode="&#x2248;" horiz-adv-x="666" 
d="M39 282q6 63 39.5 106t99.5 43q43 0 134 -32.5t129 -32.5q62 0 73 73h60q-6 -70 -42 -112t-98 -42q-43 0 -136 34t-124 34q-64 0 -76 -71h-59zM38 82q6 64 39.5 108.5t97.5 44.5q44 0 136 -33t130 -33q58 0 73 69h60q-8 -64 -41 -107t-99 -43q-44 0 -137 34t-124 34
q-63 0 -76 -74h-59z" />
    <glyph glyph-name="notequal" unicode="&#x2260;" horiz-adv-x="666" 
d="M215 -8l-69 35l62 120h-134v77h173l59 116h-232v78h271l75 146l70 -34l-58 -112h139v-78h-179l-58 -116h237v-77h-278z" />
    <glyph glyph-name="lessequal" unicode="&#x2264;" horiz-adv-x="666" 
d="M579 115l-492 214v68l492 213v-82l-378 -166l378 -164v-83zM87 10v75h492v-75h-492z" />
    <glyph glyph-name="greaterequal" unicode="&#x2265;" horiz-adv-x="666" 
d="M87 115v83l378 164l-378 166v82l492 -213v-68zM87 10v75h492v-75h-492z" />
    <glyph glyph-name="lozenge" unicode="&#x25ca;" horiz-adv-x="599" 
d="M260 -35l-171 391l172 391h75l175 -391l-175 -391h-76zM298 52l126 304l-126 304l-124 -304z" />
    <glyph glyph-name="uniF8FF" unicode="&#xf8ff;" horiz-adv-x="512" 
d="M0 0v718h512v-718h-512zM50 50h412v617h-412v-617zM225 234l-2 17q0 54 11.5 79.5t47.5 60.5q31 31 40.5 47t9.5 36q0 36 -22.5 60.5t-53.5 24.5q-71 0 -82 -95l-50 8q7 69 43 103t92 34q54 0 89 -36t35 -95q0 -33 -13 -60t-50 -60t-43 -50t-6 -74h-46zM222 117v67h56
v-67h-56z" />
    <glyph glyph-name="NULL" horiz-adv-x="0" 
 />
    <glyph glyph-name="zero.denominator" horiz-adv-x="390" 
d="M226 437q66 0 96.5 -42t30.5 -107q0 -50 -10.5 -99.5t-32 -94.5t-59.5 -73.5t-88 -28.5q-67 0 -98 41.5t-31 106.5q0 69 18 133.5t63.5 114t110.5 49.5zM221 376q-51 0 -83 -69.5t-32 -158.5q0 -96 61 -96q51 0 82.5 69.5t31.5 159.5q0 95 -60 95z" />
    <glyph glyph-name="one.denominator" horiz-adv-x="250" 
d="M78 1l62 346l-91 -58l-29 51l142 88h64l-76 -427h-72z" />
    <glyph glyph-name="two.denominator" horiz-adv-x="363" 
d="M3 -2l10 61l187 156q38 32 53.5 55t15.5 49t-16.5 41t-45.5 15q-60 0 -92 -66l-54 27q44 99 153 99q54 0 89 -29.5t35 -78.5q0 -47 -22.5 -78t-80.5 -79l-131 -110h203l-18 -62h-286z" />
    <glyph glyph-name="three.denominator" horiz-adv-x="360" 
d="M143 -10q-46 0 -84.5 18t-59.5 49l37 48q14 -24 44.5 -39.5t62.5 -15.5q39 0 61.5 20.5t22.5 54.5q0 70 -87 70h-24l9 53h25q46 0 72 19.5t26 53.5q0 57 -61 57q-45 0 -89 -42l-28 48q50 52 124 52q53 0 87.5 -28.5t34.5 -78.5q0 -44 -27 -73t-65 -36q33 -11 52.5 -35.5
t19.5 -59.5q0 -64 -43.5 -99.5t-109.5 -35.5z" />
    <glyph glyph-name="four.denominator" horiz-adv-x="374" 
d="M179 0l17 95h-197l10 59l226 273h83l-48 -274h71l-18 -58h-62l-17 -95h-65zM78 153h128l34 196h-3z" />
    <glyph glyph-name="five.denominator" horiz-adv-x="378" 
d="M156 -8q-87 0 -137 43l22 60q48 -43 117 -43q42 0 68.5 27t26.5 68q0 34 -23 54.5t-61 20.5q-47 0 -97 -21l47 228h227l-16 -61h-161l-19 -98q20 7 43 7q55 0 93 -33t38 -91q0 -72 -49 -116.5t-119 -44.5z" />
    <glyph glyph-name="six.denominator" horiz-adv-x="375" 
d="M168 -9q-63 0 -103.5 39t-40.5 110q0 129 69 208.5t172 79.5q47 0 84 -16l-24 -52q-26 13 -67 13q-54 0 -96 -39.5t-57 -108.5q37 44 102 44q52 0 86.5 -33t34.5 -85q0 -67 -44.5 -113.5t-115.5 -46.5zM168 50q39 0 64.5 27.5t25.5 69.5q0 31 -19.5 50.5t-49.5 19.5
q-42 0 -68.5 -28t-26.5 -66q0 -32 20.5 -52.5t53.5 -20.5z" />
    <glyph glyph-name="seven.denominator" horiz-adv-x="341" 
d="M1 1l243 367h-192l11 61h274l-9 -51l-245 -377h-82z" />
    <glyph glyph-name="eight.denominator" horiz-adv-x="350" 
d="M135 -9q-58 0 -97 31t-39 82q0 44 28.5 82.5t73.5 55.5q-36 25 -36 72q0 55 43.5 90.5t101.5 35.5q49 0 79 -25.5t30 -66.5q0 -31 -18 -59.5t-49 -46.5q60 -27 60 -94q0 -69 -52.5 -113t-124.5 -44zM181 265q29 0 51.5 22t22.5 50q0 22 -15 36t-39 14q-29 0 -51 -20.5
t-22 -50.5q0 -22 15 -36.5t38 -14.5zM142 47q41 0 71 27.5t30 70.5q0 30 -20 49.5t-52 19.5q-38 0 -69.5 -29t-31.5 -69q0 -31 20 -50t52 -19z" />
    <glyph glyph-name="nine.denominator" horiz-adv-x="375" 
d="M55 1l139 145q-19 -10 -45 -10q-53 0 -87.5 34.5t-34.5 87.5q0 75 56 128.5t132 53.5q68 0 106 -35.5t38 -90.5q0 -74 -62 -143l-155 -170h-87zM175 189q45 0 78.5 34t33.5 83q0 33 -20.5 53.5t-56.5 20.5q-46 0 -79 -34t-33 -81q0 -34 22 -55t55 -21z" />
    <glyph glyph-name="zero.numerator" horiz-adv-x="390" 
d="M265 718q66 0 96.5 -42t30.5 -107q0 -49 -10.5 -99t-32 -95t-60 -73.5t-87.5 -28.5q-67 0 -98 41.5t-31 106.5q0 50 11 100t32.5 95.5t60 73.5t88.5 28zM260 658q-51 0 -83 -70t-32 -159q0 -96 61 -96q51 0 82.5 69.5t31.5 159.5q0 96 -60 96z" />
    <glyph glyph-name="one.numerator" horiz-adv-x="250" 
d="M129 281l61 347l-91 -59l-28 51l141 89h64l-75 -428h-72z" />
    <glyph glyph-name="two.numerator" horiz-adv-x="363" 
d="M48 281l10 60l187 156q38 32 53.5 55t15.5 49q0 27 -16.5 41.5t-44.5 14.5q-61 0 -93 -65l-54 26q44 99 153 99q54 0 89 -29t35 -78q0 -47 -22.5 -78.5t-80.5 -79.5l-131 -110h203l-18 -61h-286z" />
    <glyph glyph-name="three.numerator" horiz-adv-x="360" 
d="M192 271q-84 0 -139 47l27 62q44 -49 114 -49q37 0 59.5 20.5t22.5 54.5q0 36 -24 53t-63 17h-24l9 53h25q46 0 71.5 19.5t25.5 53.5q0 57 -61 57q-43 0 -91 -39l-21 54q53 43 120 43q53 0 87.5 -28.5t34.5 -78.5q0 -44 -27 -73t-65 -37q33 -10 52.5 -34.5t19.5 -59.5
q0 -64 -43.5 -99.5t-109.5 -35.5z" />
    <glyph glyph-name="four.numerator" horiz-adv-x="374" 
d="M230 280l17 95h-197l11 59l225 273h84l-49 -275h71l-17 -57h-63l-17 -95h-65zM129 432h128l34 196h-3z" />
    <glyph glyph-name="five.numerator" horiz-adv-x="378" 
d="M200 272q-86 0 -137 42l22 61q48 -43 117 -43q42 0 69 27t27 68q0 34 -23.5 54.5t-61.5 20.5q-48 0 -97 -22l47 228h227l-16 -60h-160l-20 -98q21 6 43 6q56 0 93.5 -32.5t37.5 -90.5q0 -72 -49 -116.5t-119 -44.5z" />
    <glyph glyph-name="six.numerator" horiz-adv-x="375" 
d="M216 272q-63 0 -103.5 39t-40.5 110q0 129 69 208.5t172 79.5q47 0 84 -16l-24 -52q-26 13 -67 13q-54 0 -96 -39.5t-57 -108.5q37 44 102 44q52 0 86.5 -33t34.5 -85q0 -67 -44.5 -113.5t-115.5 -46.5zM216 331q39 0 64.5 27.5t25.5 69.5q0 31 -19.5 50.5t-49.5 19.5
q-42 0 -68.5 -28t-26.5 -66q0 -32 20.5 -52.5t53.5 -20.5z" />
    <glyph glyph-name="seven.numerator" horiz-adv-x="341" 
d="M50 281l248 367h-196l11 60h275l-9 -52l-247 -375h-82z" />
    <glyph glyph-name="eight.numerator" horiz-adv-x="350" 
d="M367 612q0 -40 -23.5 -67t-59.5 -39v-2q27 -11 44.5 -35t17.5 -55q0 -66 -46.5 -104t-114.5 -38q-54 0 -93.5 28.5t-39.5 85.5q0 45 28 78.5t73 45.5v2q-24 11 -37.5 32.5t-13.5 46.5q0 56 42 91t100 35q52 0 87.5 -27t35.5 -78zM223 532q33 0 55 21t22 49q0 27 -17 43
t-44 16q-32 0 -52.5 -21t-20.5 -52q0 -24 15.5 -40t41.5 -16zM189 329q41 0 65.5 24t24.5 61q0 28 -19.5 46.5t-48.5 18.5q-39 0 -65.5 -25t-26.5 -61q0 -30 20.5 -47t49.5 -17z" />
    <glyph glyph-name="nine.numerator" horiz-adv-x="375" 
d="M153 280q-51 0 -85 16l25 53q26 -13 67 -13q50 0 94.5 40t58.5 108q-37 -44 -102 -44q-52 0 -86.5 33t-34.5 84q0 67 45 114t119 47q60 0 100 -39.5t40 -110.5q0 -125 -69.5 -206.5t-171.5 -81.5zM229 491q43 0 69.5 27.5t26.5 66.5q0 33 -20 53.5t-52 20.5
q-41 0 -67 -27.5t-26 -69.5q0 -31 19.5 -51t49.5 -20z" />
    <glyph glyph-name="zero.onum" horiz-adv-x="676" 
d="M303 -15q-119 0 -186.5 66.5t-67.5 175.5q0 138 91 235t230 97q119 0 186 -67t67 -175q0 -138 -90 -235t-230 -97zM310 72q95 0 154.5 70t59.5 167q0 71 -42.5 117.5t-119.5 46.5q-93 0 -153.5 -70.5t-60.5 -166.5q0 -71 42.5 -117.5t119.5 -46.5z" />
    <glyph glyph-name="one.onum" horiz-adv-x="411" 
d="M133 0l77 434l-120 -78l-37 72l181 116h93l-96 -544h-98z" />
    <glyph glyph-name="two.onum" horiz-adv-x="556" 
d="M10 0l15 80l100 59q66 36 97 54.5t72 45.5t58.5 46.5t30.5 44.5t13 52q0 48 -30 71.5t-73 23.5q-47 0 -92 -24t-75 -62l-43 70q80 98 220 98q81 0 136.5 -43t55.5 -121q0 -45 -17.5 -82.5t-56.5 -71t-73.5 -56t-96.5 -56.5l-82 -47v-3h288l-14 -79h-433z" />
    <glyph glyph-name="three.onum" horiz-adv-x="545" 
d="M193 -187q-75 0 -138.5 24.5t-97.5 59.5l37 85q31 -35 87.5 -60.5t112.5 -25.5q71 0 118 41t47 102t-43 91.5t-109 30.5h-34l12 74h37q82 0 127.5 38t45.5 101q0 44 -32.5 71.5t-80.5 27.5q-92 0 -182 -83l-29 78q95 85 224 85q83 0 139.5 -45.5t56.5 -124.5
q0 -71 -42.5 -119t-112.5 -63v-2q56 -13 89 -55.5t33 -98.5q0 -101 -75.5 -166.5t-189.5 -65.5z" />
    <glyph glyph-name="four.onum" horiz-adv-x="592" 
d="M301 -155l27 160h-332l16 89l376 459h127l-83 -467h115l-28 -81h-99l-28 -160h-91zM106 86h235l66 369h-3z" />
    <glyph glyph-name="five.onum" horiz-adv-x="544" 
d="M204 -181q-145 0 -221 76l33 83q32 -32 83 -53.5t104 -21.5q78 0 124.5 49t46.5 123q0 62 -41.5 98t-107.5 36q-79 0 -156 -36l75 370h381l-30 -84h-280l-39 -190q40 15 86 15q90 0 150.5 -52.5t60.5 -145.5q0 -120 -76.5 -193.5t-192.5 -73.5z" />
    <glyph glyph-name="six.onum" horiz-adv-x="607" 
d="M287 -16q-99 0 -160.5 64t-61.5 177q0 201 117 346t280 145q88 0 138 -23l-32 -80q-44 20 -109 20q-92 0 -170 -74.5t-107 -196.5q70 76 176 76q90 0 145 -53.5t55 -139.5q0 -110 -74.5 -185.5t-196.5 -75.5zM291 64q76 0 122.5 50t46.5 125q0 56 -35.5 92t-91.5 36
q-75 0 -124 -49.5t-49 -117.5q0 -60 37 -98t94 -38z" />
    <glyph glyph-name="seven.onum" horiz-adv-x="540" 
d="M7 -165l412 623h-347l29 85h440l-15 -83l-401 -625h-118z" />
    <glyph glyph-name="eight.onum" horiz-adv-x="605" 
d="M264 -15q-88 0 -152 46t-64 137q0 80 51 137.5t126 73.5v3q-45 17 -68.5 53.5t-23.5 82.5q0 93 68.5 149t161.5 56q86 0 142 -43.5t56 -125.5q0 -70 -42.5 -117t-105.5 -63v-2q48 -15 81 -56.5t33 -97.5q0 -111 -75.5 -172t-187.5 -61zM327 410q61 0 100.5 38.5
t39.5 90.5q0 51 -30.5 79.5t-81.5 28.5q-58 0 -95.5 -39t-37.5 -95q0 -44 28.5 -73.5t76.5 -29.5zM267 63q75 0 120 44t45 112q0 50 -35 84t-88 34q-70 0 -118 -45t-48 -112q0 -53 35.5 -85t88.5 -32z" />
    <glyph glyph-name="nine.onum" horiz-adv-x="607" 
d="M320 559q100 0 163.5 -65.5t63.5 -182.5q0 -129 -53 -240.5t-145 -178t-199 -66.5q-86 0 -138 24l32 80q46 -21 109 -21q92 0 170 75t107 197q-70 -76 -175 -76q-90 0 -145.5 54.5t-55.5 140.5q0 110 73.5 184.5t192.5 74.5zM321 478q-76 0 -122.5 -50t-46.5 -124
q0 -57 36 -93t91 -36q75 0 124 49.5t49 118.5q0 60 -37 97.5t-94 37.5z" />
    <glyph glyph-name="uni0326.alt" horiz-adv-x="0" 
d="M-151 568l115 191h74l-101 -191h-88z" />
    <glyph glyph-name="caron.alt" 
d="M74 517l101 191h88l-115 -191h-74z" />
    <glyph glyph-name="acute.cap" 
d="M121 764l128 144h102l-156 -144h-74z" />
    <glyph glyph-name="breve.cap" 
d="M192 769q-62 0 -98.5 34t-36.5 101h53q0 -39 23.5 -58.5t61.5 -19.5q91 0 113 78h52q-15 -66 -59.5 -100.5t-108.5 -34.5z" />
    <glyph glyph-name="caron.cap" 
d="M135 764l-86 144h78l60 -105l100 105h80l-139 -144h-93z" />
    <glyph glyph-name="circumflex.cap" 
d="M24 764l139 144h93l85 -144h-76l-62 104l-99 -104h-80z" />
    <glyph glyph-name="dieresis.cap" 
d="M101 797q-23 0 -38 14t-15 37q0 25 17 42.5t41 17.5q23 0 37.5 -14.5t14.5 -36.5q0 -24 -16.5 -42t-40.5 -18zM292 797q-23 0 -38 14t-15 37q0 26 16.5 43t41.5 17q22 0 36.5 -14.5t14.5 -36.5q0 -24 -16 -42t-40 -18z" />
    <glyph glyph-name="dotaccent.cap" 
d="M197 796q-24 0 -39.5 14t-15.5 38q0 25 17.5 42.5t42.5 17.5q23 0 38 -14.5t15 -36.5q0 -25 -17 -43t-41 -18z" />
    <glyph glyph-name="grave.cap" 
d="M176 764l-135 144h102l106 -144h-73z" />
    <glyph glyph-name="hungarumlaut.cap" 
d="M37 764l128 144h103l-156 -144h-75zM213 764l128 144h103l-157 -144h-74z" />
    <glyph glyph-name="macron.cap" 
d="M48 805l9 55h287l-10 -55h-286z" />
    <glyph glyph-name="ring.cap" 
d="M189 752q-40 0 -64 23.5t-24 60.5q0 48 31.5 82.5t80.5 34.5q40 0 63.5 -23.5t23.5 -60.5q0 -49 -31 -83t-80 -34zM192 785q32 0 52.5 23t20.5 57q0 24 -15 40t-40 16q-32 0 -52.5 -24t-20.5 -57q0 -24 14 -39.5t41 -15.5z" />
    <glyph glyph-name="tilde.cap" 
d="M29 778q32 104 108 104q30 0 68 -22q37 -22 60 -22q33 0 51 46h47q-32 -104 -108 -104q-25 0 -71 23q-39 22 -57 22q-34 0 -51 -47h-47z" />
    <glyph glyph-name="cyrbreve.cap" 
d="M198 769q-63 0 -100.5 33.5t-40.5 96.5l56 11q2 -39 24 -60.5t60 -21.5q85 0 112 82l52 -11q-15 -63 -59 -96.5t-104 -33.5z" />
    </font>
</defs>
</svg>
