<?xml version="1.0" standalone="no"?>
<!DOCTYPE svg PUBLIC "-//W3C//DTD SVG 1.1//EN" "http://www.w3.org/Graphics/SVG/1.1/DTD/svg11.dtd" >
<svg>
<metadata>
Created by FontForge 20090622 at Wed Feb  3 06:41:30 2016
 By deploy user
Copyright &#194;&#169; 2015 Rogers Communications
</metadata>
<defs>
<font id="TedNext-Light" horiz-adv-x="357" >
  <font-face 
    font-family="Ted Next Light"
    font-weight="300"
    font-stretch="normal"
    units-per-em="1000"
    panose-1="2 0 3 7 0 0 0 0 0 4"
    ascent="800"
    descent="-200"
    x-height="463"
    cap-height="708"
    bbox="-197 -250 974 945"
    underline-thickness="50"
    underline-position="-50"
    unicode-range="U+000D-U+FB04"
  />
<missing-glyph horiz-adv-x="512" 
d="M0 0v718h512v-718h-512zM50 50h412v617h-412v-617zM225 234l-2 17q0 56 13 81q15 28 46 59q31 29 40.5 46t9.5 37q0 36 -22.5 60.5t-53.5 24.5q-71 0 -82 -95l-50 8q7 69 43 103t92 34q54 0 89 -36t35 -95q0 -34 -13 -60t-50 -60q-37 -33 -43 -52q-6 -20 -6 -72h-46z
M222 117v67h56v-67h-56z" />
    <glyph glyph-name="f_f" unicode="ff" horiz-adv-x="575" 
d="M538 735q-94 0 -94 -122v-150h120l-12 -32h-108v-431h-39v431h-248v-431h-39v431h-97l10 32h86v151q0 79 37 116.5t97 37.5q47 0 82 -11l-6 -33q-38 11 -76 11q-94 0 -94 -122v-150h247v151q0 79 37 116.5t97 37.5q47 0 82 -11l-6 -33q-38 11 -76 11z" />
    <glyph glyph-name="fi" unicode="fi" horiz-adv-x="513" 
d="M118 0v431h-97l10 32h86v151q0 79 37 116.5t96 37.5q46 0 83 -11l-7 -33q-38 11 -75 11q-94 0 -94 -122v-150h120l-13 -32h-107v-431h-39zM396 622q-13 0 -23 9.5t-10 24.5q0 14 10 23.5t23 9.5q12 0 21.5 -9.5t9.5 -23.5q0 -15 -9 -24.5t-22 -9.5zM376 0v463h39v-463
h-39z" />
    <glyph glyph-name="fl" unicode="fl" horiz-adv-x="515" 
d="M416 95q0 -31 9 -45t32 -23l-14 -36q-66 17 -66 93v633q-49 18 -96 18q-63 0 -93.5 -38.5t-30.5 -103.5v-130h120l-13 -32h-107v-431h-39v431h-97l10 32h86v131q0 89 46.5 131.5t117.5 42.5q50 0 101 -17l34 8v-664z" />
    <glyph glyph-name="f_f_i" unicode="ffi" horiz-adv-x="800" 
d="M404 614q0 79 37 116.5t96 37.5q46 0 83 -11l-7 -33q-38 11 -75 11q-94 0 -94 -122v-150h120l-12 -32h-108v-431h-39v431h-248v-431h-39v431h-97l10 32h86v151q0 79 37 116.5t97 37.5q47 0 82 -11l-6 -33q-38 11 -76 11q-94 0 -94 -122v-150h247v151zM684 689
q12 0 21.5 -9.5t9.5 -23.5q0 -15 -9 -24.5t-22 -9.5t-23 9.5t-10 24.5q0 14 10 23.5t23 9.5zM664 0v463h39v-463h-39z" />
    <glyph glyph-name="f_f_l" unicode="ffl" horiz-adv-x="771" 
d="M673 95q0 -31 9 -45t32 -23l-14 -36q-66 17 -66 93v633q-49 18 -96 18q-63 0 -94 -38.5t-31 -103.5v-130h120l-12 -32h-108v-431h-38v431h-218v-431h-39v431h-97l10 32h86v151q0 79 37 116.5t97 37.5q47 0 82 -11l-6 -33q-38 11 -76 11q-94 0 -94 -122v-150h217v131
q0 89 46.5 131.5t116.5 42.5q49 0 102 -17l34 8v-664z" />
    <glyph glyph-name=".notdef" horiz-adv-x="512" 
d="M0 0v718h512v-718h-512zM50 50h412v617h-412v-617zM225 234l-2 17q0 56 13 81q15 28 46 59q31 29 40.5 46t9.5 37q0 36 -22.5 60.5t-53.5 24.5q-71 0 -82 -95l-50 8q7 69 43 103t92 34q54 0 89 -36t35 -95q0 -34 -13 -60t-50 -60q-37 -33 -43 -52q-6 -20 -6 -72h-46z
M222 117v67h56v-67h-56z" />
    <glyph glyph-name=".null" horiz-adv-x="0" 
 />
    <glyph glyph-name="nonmarkingreturn" horiz-adv-x="333" 
 />
    <glyph glyph-name="CR" unicode="&#xd;" horiz-adv-x="250" 
 />
    <glyph glyph-name="space" unicode=" " horiz-adv-x="250" 
 />
    <glyph glyph-name="exclam" unicode="!" horiz-adv-x="293" 
d="M126 195v513h41v-513h-41zM147 -6q-14 0 -24.5 10.5t-10.5 24.5q0 16 10.5 26.5t24.5 10.5t24 -10.5t10 -26.5q0 -14 -10 -24.5t-24 -10.5z" />
    <glyph glyph-name="quotedbl" unicode="&#x22;" horiz-adv-x="406" 
d="M112 477v231h37v-231h-37zM258 477v231h36v-231h-36z" />
    <glyph glyph-name="numbersign" unicode="#" horiz-adv-x="553" 
d="M109 0l30 231h-108v32h112l25 184h-110v32h115l29 229h34l-30 -229h158l30 229h34l-30 -229h104v-32h-108l-25 -184h106v-32h-110l-30 -231h-34l30 231h-158l-30 -231h-34zM178 263h157l25 184h-158z" />
    <glyph glyph-name="dollar" unicode="$" horiz-adv-x="568" 
d="M489 176q0 -82 -57 -130t-142 -54v-76h-32v75q-57 2 -113 23t-88 52l9 39q36 -34 87.5 -55t104.5 -23v314q-44 16 -71.5 29t-58.5 35.5t-46 55.5t-15 77q0 77 55 123.5t136 54.5v76h32v-75q106 0 185 -60l-12 -40q-30 26 -77 45t-96 20v-311q39 -13 59.5 -21.5
t51.5 -25.5t47 -35.5t28.5 -47.5t12.5 -65zM107 540q0 -64 38.5 -97.5t112.5 -59.5v297q-64 -7 -107.5 -43.5t-43.5 -96.5zM290 28q67 6 112.5 44.5t45.5 101.5q0 34 -12 59.5t-37 43.5t-48 29t-61 24v-302z" />
    <glyph glyph-name="percent" unicode="%" horiz-adv-x="826" 
d="M204 -28l-28 16l442 749l29 -17zM211 388q-68 0 -115.5 47.5t-47.5 117.5q0 68 47.5 116t115.5 48t115.5 -48t47.5 -116q0 -70 -47 -117.5t-116 -47.5zM211 422q53 0 90.5 37.5t37.5 93.5q0 54 -37.5 92t-90.5 38t-90.5 -38t-37.5 -92q0 -56 37.5 -93.5t90.5 -37.5z
M615 -9q-68 0 -115.5 47.5t-47.5 116.5t47.5 116.5t115.5 47.5t116 -47.5t48 -116.5t-48 -116.5t-116 -47.5zM615 24q53 0 90.5 38t37.5 93q0 54 -38 92t-90 38q-53 0 -90.5 -38t-37.5 -92q0 -56 37.5 -93.5t90.5 -37.5z" />
    <glyph glyph-name="ampersand" unicode="&#x26;" horiz-adv-x="706" 
d="M274 -16q-89 0 -148 53.5t-59 143.5q0 73 43 121.5t126 90.5q-49 53 -70 92.5t-21 83.5q0 71 46.5 114t116.5 43q66 0 111 -41.5t45 -105.5t-42 -106t-127 -88l196 -209l109 197h46l-127 -222l143 -151h-55l-110 117q-88 -133 -223 -133zM271 409q75 38 114.5 75.5
t39.5 91.5q0 52 -34 84.5t-84 32.5q-52 0 -87.5 -34.5t-35.5 -89.5q0 -40 22.5 -78t64.5 -82zM278 18q117 0 193 127l-211 222q-153 -74 -153 -186q0 -72 49.5 -117.5t121.5 -45.5z" />
    <glyph glyph-name="quotesingle" unicode="'" horiz-adv-x="261" 
d="M112 477v231h37v-231h-37z" />
    <glyph glyph-name="parenleft" unicode="(" horiz-adv-x="301" 
d="M195 -157q-63 89 -99 206.5t-36 238.5t36 238.5t99 206.5l31 -18q-58 -81 -93 -198t-35 -229t35 -229t93 -198z" />
    <glyph glyph-name="parenright" unicode=")" horiz-adv-x="301" 
d="M104 -157l-31 18q59 81 94 198t35 229t-35 229t-94 198l31 18q63 -89 99.5 -206.5t36.5 -238.5t-36.5 -238.5t-99.5 -206.5z" />
    <glyph glyph-name="asterisk" unicode="*" horiz-adv-x="445" 
d="M320 363l-98 137l-97 -137l-27 19l99 135l-157 48l11 31l156 -49v161h31v-161l156 49l11 -31l-157 -48l99 -135z" />
    <glyph glyph-name="plus" unicode="+" horiz-adv-x="666" 
d="M317 59v228h-225v34h225v228h35v-228h222v-34h-222v-228h-35z" />
    <glyph glyph-name="comma" unicode="," horiz-adv-x="247" 
d="M158 48q0 -74 -74 -156l-18 9q52 56 57 122q-14 1 -23.5 11t-9.5 25q0 14 10 24.5t24 10.5q15 0 24.5 -12t9.5 -34z" />
    <glyph glyph-name="hyphen" unicode="-" horiz-adv-x="306" 
d="M56 234v33h195v-33h-195z" />
    <glyph glyph-name="period" unicode="." horiz-adv-x="247" 
d="M124 -6q-14 0 -24 10.5t-10 25.5q0 14 10 25t24 11q13 0 23.5 -11t10.5 -25q0 -15 -10 -25.5t-24 -10.5z" />
    <glyph glyph-name="slash" unicode="/" horiz-adv-x="371" 
d="M49 -17l-33 12l307 734l32 -12z" />
    <glyph glyph-name="zero" unicode="0" horiz-adv-x="568" 
d="M284 -14q-65 0 -111.5 32.5t-70 88.5t-33.5 116t-10 131q0 55 5.5 104t21.5 98.5t40 85t64.5 58t93.5 22.5q52 0 92.5 -22.5t65 -58t40 -85t21.5 -98.5t6 -104q0 -70 -10.5 -130.5t-34 -116.5t-70 -88.5t-110.5 -32.5zM284 21q46 0 81 24t54 59t30.5 83t15 87t3.5 80
t-3.5 80t-15 87t-30.5 83t-54 59t-81 24t-81 -24t-54 -59t-30.5 -83t-15 -87t-3.5 -80t3.5 -80t15 -87t30.5 -83t54 -59t81 -24z" />
    <glyph glyph-name="one" unicode="1" horiz-adv-x="568" 
d="M289 0v660l-155 -131l-15 35l172 144h38v-708h-40z" />
    <glyph glyph-name="two" unicode="2" horiz-adv-x="568" 
d="M58 0v37l251 292q53 61 81 111.5t28 101.5q0 64 -43.5 105t-108.5 41q-52 0 -97 -24.5t-75 -64.5l-20 33q70 90 192 90q84 0 138.5 -50t54.5 -130q0 -60 -31 -113.5t-99 -132.5l-224 -259h390l-10 -37h-427z" />
    <glyph glyph-name="three" unicode="3" horiz-adv-x="568" 
d="M266 -14q-133 0 -207 82l10 44q31 -40 83.5 -65.5t113.5 -25.5q79 0 125.5 47t46.5 123q0 80 -60 121.5t-135 41.5h-25v35h25q71 0 122 38.5t51 113.5q0 66 -43 106.5t-107 40.5q-52 0 -97.5 -24.5t-74.5 -64.5l-20 33q72 90 192 90q81 0 135 -48.5t54 -129.5
q0 -63 -36 -110t-101 -60v-2q76 -13 118 -63.5t42 -119.5q0 -89 -56 -146t-156 -57z" />
    <glyph glyph-name="four" unicode="4" horiz-adv-x="568" 
d="M372 0v179h-329v42l312 487h55v-494h124l-10 -35h-114v-179h-38zM82 214h290v449h-3z" />
    <glyph glyph-name="five" unicode="5" horiz-adv-x="568" 
d="M263 -14q-132 0 -207 81l9 45q32 -40 84.5 -65.5t113.5 -25.5q74 0 128.5 52.5t54.5 140.5q0 86 -53 138.5t-142 52.5q-71 0 -136 -36l12 339h330l-10 -36h-283l-11 -254q45 21 111 21q100 0 161 -62t61 -161q0 -105 -65 -167.5t-158 -62.5z" />
    <glyph glyph-name="six" unicode="6" horiz-adv-x="568" 
d="M294 -14q-100 0 -164 77.5t-64 222.5q0 203 77 315.5t217 112.5q65 0 104 -18l-7 -35q-47 20 -98 20q-117 0 -183 -97t-72 -272h3q64 108 188 108q88 0 147 -61.5t59 -155.5q0 -96 -56.5 -156.5t-150.5 -60.5zM295 20q76 0 121 51t45 132q0 79 -47.5 131.5t-119.5 52.5
q-78 0 -131 -50t-53 -114q0 -77 52 -140t133 -63z" />
    <glyph glyph-name="seven" unicode="7" horiz-adv-x="568" 
d="M137 0l297 672h-367l10 36h396v-41l-291 -667h-45z" />
    <glyph glyph-name="eight" unicode="8" horiz-adv-x="568" 
d="M284 -14q-92 0 -153.5 55.5t-61.5 145.5q0 67 37.5 119t105.5 72v2q-56 20 -86 65t-30 99q0 79 53.5 128.5t134.5 49.5q80 0 134.5 -49.5t54.5 -128.5q0 -54 -31 -99t-87 -65v-2q71 -21 108 -72.5t37 -118.5q0 -90 -62 -145.5t-154 -55.5zM284 395q64 0 107 43t43 104
q0 64 -43 105t-107 41t-107 -41t-43 -105q0 -61 43 -104t107 -43zM284 20q78 0 126.5 48.5t48.5 121.5q0 74 -50 122.5t-125 48.5t-125 -48.5t-50 -122.5q0 -73 48.5 -121.5t126.5 -48.5z" />
    <glyph glyph-name="nine" unicode="9" horiz-adv-x="568" 
d="M278 714q103 0 163 -80.5t60 -231.5q0 -214 -71 -315t-193 -101q-86 0 -131 28l6 36q60 -30 127 -30q100 0 162 91t62 275h-3q-24 -44 -75.5 -75t-111.5 -31q-94 0 -150.5 60.5t-56.5 156.5q0 95 60.5 156t151.5 61zM278 680q-74 0 -123 -52t-49 -131q0 -80 47 -132
t121 -52t130.5 49t56.5 91q0 92 -51.5 159.5t-131.5 67.5z" />
    <glyph glyph-name="colon" unicode=":" horiz-adv-x="287" 
d="M144 394q-14 0 -24 10.5t-10 25.5q0 14 10 24.5t24 10.5t24 -10.5t10 -24.5q0 -15 -10 -25.5t-24 -10.5zM144 -6q-14 0 -24 10.5t-10 25.5q0 14 10 25t24 11q13 0 23.5 -11t10.5 -25q0 -15 -10 -25.5t-24 -10.5z" />
    <glyph glyph-name="semicolon" unicode=";" horiz-adv-x="287" 
d="M144 394q-14 0 -24 10.5t-10 25.5q0 14 10 24.5t24 10.5t24 -10.5t10 -24.5q0 -15 -10 -25.5t-24 -10.5zM175 48q0 -74 -74 -156l-18 9q52 56 57 122q-14 1 -23.5 11t-9.5 25q0 14 10 24.5t24 10.5q15 0 24.5 -12t9.5 -34z" />
    <glyph glyph-name="less" unicode="&#x3c;" horiz-adv-x="666" 
d="M573 59l-480 228v32l480 228v-35l-442 -209l442 -209v-35z" />
    <glyph glyph-name="equal" unicode="=" horiz-adv-x="666" 
d="M92 369v34h482v-34h-482zM92 205v33h482v-33h-482z" />
    <glyph glyph-name="greater" unicode="&#x3e;" horiz-adv-x="666" 
d="M93 59v35l443 209l-443 209v35l480 -228v-32z" />
    <glyph glyph-name="question" unicode="?" horiz-adv-x="477" 
d="M210 199v34q0 44 16.5 81t59.5 80l38 38.5t27.5 33.5t22.5 43.5t6 47.5q0 60 -42 95.5t-105 35.5q-108 0 -173 -79l-19 33q72 82 194 82q80 0 133 -45t53 -123q0 -38 -15.5 -72t-30.5 -51t-50 -51q-48 -46 -62 -77t-14 -83v-23h-39zM234 -6q-15 0 -25 10.5t-10 24.5
q0 16 10 26.5t25 10.5q13 0 23 -11t10 -26q0 -14 -10 -24.5t-23 -10.5z" />
    <glyph glyph-name="at" unicode="@" horiz-adv-x="800" 
d="M420 -19q-167 0 -272 106.5t-105 266.5q0 157 108.5 265t264.5 108q149 0 248 -87.5t99 -227.5q0 -108 -50 -180t-139 -72q-42 0 -65 23t-23 61h-3q-17 -33 -51.5 -58.5t-80.5 -25.5q-59 0 -91 40t-32 100q0 94 56 173t142 79q43 0 70 -22t34 -59h4l17 64h35l-59 -221
q-10 -36 -10 -66q0 -54 62 -54q70 0 109 62.5t39 153.5q0 125 -88 204t-223 79q-144 0 -238.5 -100t-94.5 -240q0 -146 95 -242.5t244 -96.5q165 0 277 124l23 -24q-119 -133 -302 -133zM358 194q37 0 68 25t49 61t28 72.5t10 64.5q0 43 -21.5 72t-65.5 29q-71 0 -115 -70.5
t-44 -149.5q0 -44 22.5 -74t68.5 -30z" />
    <glyph glyph-name="A" unicode="A" horiz-adv-x="678" 
d="M15 0l306 708h44l298 -708h-45l-115 279h-327l-116 -279h-45zM191 315h297l-146 355z" />
    <glyph glyph-name="B" unicode="B" horiz-adv-x="571" 
d="M101 0v708h148q43 0 80.5 -8.5t70.5 -27t52 -53t19 -82.5q0 -66 -39 -107t-98 -54v-2q67 -7 118.5 -54t51.5 -129q0 -98 -69 -144.5t-170 -46.5h-164zM142 389h107q74 0 128 36t54 107q0 74 -53.5 107.5t-138.5 33.5h-97v-284zM142 35h114q93 0 150 38.5t57 117.5
q0 81 -57 122.5t-138 41.5h-126v-320z" />
    <glyph glyph-name="C" unicode="C" horiz-adv-x="722" 
d="M431 -19q-159 0 -262 105.5t-103 267.5t103.5 267.5t261.5 105.5q72 0 140 -25t108 -63l-14 -41q-38 40 -101 66t-133 26q-143 0 -232.5 -97t-89.5 -239t89 -239t233 -97q70 0 132.5 27t105.5 70l12 -36q-35 -39 -105.5 -68.5t-144.5 -29.5z" />
    <glyph glyph-name="D" unicode="D" horiz-adv-x="766" 
d="M101 0v708h213q79 0 147.5 -21.5t122.5 -63.5t85 -111t31 -158q0 -116 -54 -198t-139 -119t-192 -37h-214zM142 37h162q160 0 257 83t97 234t-97 234t-257 83h-162v-634z" />
    <glyph glyph-name="E" unicode="E" horiz-adv-x="539" 
d="M101 0v708h365l-10 -37h-315v-286h301l-10 -35h-291v-313h340l-11 -37h-369z" />
    <glyph glyph-name="F" unicode="F" horiz-adv-x="502" 
d="M101 0v708h349l-1 -37h-307v-287h292l-10 -36h-282v-348h-41z" />
    <glyph glyph-name="G" unicode="G" horiz-adv-x="790" 
d="M439 -19q-165 0 -269 106.5t-104 267.5q0 162 104 267t266 105q70 0 136 -20.5t110 -53.5l-12 -37q-99 75 -234 75q-146 0 -236.5 -97t-90.5 -239q0 -143 90.5 -240.5t241.5 -97.5q122 0 215 48v258h-177l11 34h206v-313q-108 -63 -257 -63z" />
    <glyph glyph-name="H" unicode="H" horiz-adv-x="748" 
d="M101 0v708h41v-323h465v323h40v-708h-40v349h-465v-349h-41z" />
    <glyph glyph-name="I" unicode="I" horiz-adv-x="244" 
d="M101 0v708h41v-708h-41z" />
    <glyph glyph-name="J" unicode="J" horiz-adv-x="375" 
d="M27 27q29 -9 63 -9q77 0 112.5 50t35.5 133v507h40v-511q0 -96 -46 -155.5t-139 -59.5q-32 0 -59 6z" />
    <glyph glyph-name="K" unicode="K" horiz-adv-x="587" 
d="M101 0v708h41v-344l349 344h58l-358 -346l376 -362h-58l-367 358v-358h-41z" />
    <glyph glyph-name="L" unicode="L" horiz-adv-x="503" 
d="M101 0v708h41v-671h326l-10 -37h-357z" />
    <glyph glyph-name="M" unicode="M" horiz-adv-x="901" 
d="M101 0v708h65l285 -644l284 644h65v-708h-41v665l-296 -665h-27l-294 665v-665h-41z" />
    <glyph glyph-name="N" unicode="N" horiz-adv-x="773" 
d="M101 0v708h54l474 -652h2v652h41v-708h-53l-475 654h-2v-654h-41z" />
    <glyph glyph-name="O" unicode="O" horiz-adv-x="865" 
d="M433 -19q-158 0 -262.5 105.5t-104.5 267.5t104 267.5t263 105.5q158 0 261.5 -105.5t103.5 -267.5t-104 -267.5t-261 -105.5zM433 18q143 0 233 97t90 239t-90.5 239.5t-232.5 97.5q-143 0 -233.5 -97.5t-90.5 -239.5t90 -239t234 -97z" />
    <glyph glyph-name="P" unicode="P" horiz-adv-x="575" 
d="M101 0v708h196q96 0 161.5 -47.5t65.5 -141.5q0 -91 -63 -149.5t-156 -58.5h-163v-311h-41zM142 345h163q74 0 126 48t52 126q0 76 -53 115.5t-129 39.5h-159v-329z" />
    <glyph glyph-name="Q" unicode="Q" horiz-adv-x="865" 
d="M428 0q-156 0 -259 102.5t-103 259.5t102 261t261 104q156 0 259 -104t103 -261q0 -108 -61 -201t-155 -123v-2h257l-10 -36h-394zM430 35q136 0 228 95t92 232q0 139 -90.5 234t-230.5 95q-138 0 -229 -94.5t-91 -234.5q0 -139 90.5 -233t230.5 -94z" />
    <glyph glyph-name="R" unicode="R" horiz-adv-x="598" 
d="M101 0v708h186q47 0 85.5 -8.5t72 -28t52.5 -56t19 -87.5q0 -83 -50.5 -134t-119.5 -65l200 -329h-47l-192 322h-165v-322h-41zM142 357h144q86 0 138 47.5t52 123.5q0 146 -200 146h-134v-317z" />
    <glyph glyph-name="S" unicode="S" horiz-adv-x="569" 
d="M280 -19q-58 0 -117.5 21.5t-93.5 53.5l10 40q37 -37 91.5 -58t109.5 -21q74 0 127 42.5t53 114.5q0 36 -13 62.5t-44 46t-52.5 29t-68.5 25.5q-39 14 -60.5 22.5t-53 26.5t-48 36.5t-29 48.5t-12.5 67q0 89 65 139t156 50q108 0 187 -60l-12 -40q-31 27 -78 46t-97 19
q-72 0 -126.5 -40.5t-54.5 -112.5q0 -30 10.5 -54t24.5 -39.5t41.5 -30.5t46 -22l54.5 -20q42 -15 61.5 -22.5t52.5 -25t49 -35.5t29 -47.5t13 -66.5q0 -92 -64.5 -143.5t-156.5 -51.5z" />
    <glyph glyph-name="T" unicode="T" horiz-adv-x="511" 
d="M235 0v671h-229l10 37h489l-10 -37h-220v-671h-40z" />
    <glyph glyph-name="U" unicode="U" horiz-adv-x="725" 
d="M363 -19q-73 0 -127 23.5t-84.5 64.5t-44.5 90.5t-14 107.5v441h41v-436q0 -37 5 -69.5t20.5 -68t40 -60.5t66.5 -41t97 -16q54 0 95.5 16t66 41t40.5 59.5t21.5 68t5.5 70.5v436h40v-441q0 -59 -14 -108t-44 -90t-84 -64.5t-127 -23.5z" />
    <glyph glyph-name="V" unicode="V" horiz-adv-x="613" 
d="M280 0l-268 708h45l247 -661h2l251 661h43l-270 -708h-50z" />
    <glyph glyph-name="W" unicode="W" horiz-adv-x="962" 
d="M234 0l-211 708h43l193 -660h3l191 660h53l196 -660h2l193 660h42l-211 -708h-52l-195 659h-2l-193 -659h-52z" />
    <glyph glyph-name="X" unicode="X" horiz-adv-x="610" 
d="M27 0l253 371l-229 337h49l206 -307l204 307h48l-228 -337l253 -371h-50l-228 341l-228 -341h-50z" />
    <glyph glyph-name="Y" unicode="Y" horiz-adv-x="561" 
d="M260 0v308l-251 400h50l222 -364l223 364h46l-249 -400v-308h-41z" />
    <glyph glyph-name="Z" unicode="Z" horiz-adv-x="588" 
d="M47 0v40l439 631h-417v37h460v-41l-437 -630h468l-10 -37h-503z" />
    <glyph glyph-name="bracketleft" unicode="[" horiz-adv-x="301" 
d="M73 -156v888h148v-32h-110v-824h110v-32h-148z" />
    <glyph glyph-name="backslash" unicode="\" horiz-adv-x="371" 
d="M323 -17l-306 734l33 12l306 -734z" />
    <glyph glyph-name="bracketright" unicode="]" horiz-adv-x="301" 
d="M80 -156v32h110v824h-110v32h148v-888h-148z" />
    <glyph glyph-name="asciicircum" unicode="^" horiz-adv-x="667" 
d="M92 254l224 454h34l225 -454h-36l-206 420l-206 -420h-35z" />
    <glyph glyph-name="underscore" unicode="_" horiz-adv-x="500" 
d="M0 -118v30h500v-30h-500z" />
    <glyph glyph-name="grave" unicode="`" horiz-adv-x="241" 
d="M128 564l-118 144h50l102 -144h-34z" />
    <glyph glyph-name="a" unicode="a" horiz-adv-x="520" 
d="M211 -13q-62 0 -105.5 34.5t-43.5 101.5q0 153 265 153h65v29q0 69 -37 104t-103 35q-40 0 -81 -17t-69 -43l-14 34q67 59 167 59q81 0 127.5 -43t46.5 -127v-203q0 -69 7 -104h-35q-7 44 -7 98h-3q-22 -54 -71.5 -82.5t-108.5 -28.5zM216 19q84 0 130 55t46 120v51h-55
q-236 0 -236 -121q0 -54 34 -79.5t81 -25.5z" />
    <glyph glyph-name="b" unicode="b" horiz-adv-x="630" 
d="M337 -13q-63 0 -117 32t-80 90h-3q-2 -59 -7 -109h-37q5 50 5 115v641l39 9v-412h3q29 59 82 91.5t115 32.5q103 0 168 -70t65 -176q0 -105 -65.5 -174.5t-167.5 -69.5zM333 20q89 0 143 61t54 150t-54 150.5t-143 61.5q-84 0 -140.5 -61.5t-56.5 -150.5q0 -87 56.5 -149
t140.5 -62z" />
    <glyph glyph-name="c" unicode="c" horiz-adv-x="486" 
d="M299 -13q-105 0 -172 68.5t-67 175.5t67 176.5t172 69.5q46 0 88.5 -15.5t68.5 -41.5l-18 -31q-24 25 -62 39.5t-77 14.5q-89 0 -144 -61.5t-55 -150.5t55.5 -149.5t144.5 -60.5q86 0 149 57l7 -34q-61 -57 -157 -57z" />
    <glyph glyph-name="d" unicode="d" horiz-adv-x="630" 
d="M294 -13q-103 0 -168.5 69.5t-65.5 174.5t65.5 175.5t168.5 70.5q62 0 115 -32.5t82 -91.5h2v403l38 10v-647q0 -52 5 -119h-38q-5 62 -5 109h-2q-29 -58 -82.5 -90t-114.5 -32zM296 20q85 0 141.5 61.5t56.5 149.5q0 89 -56.5 150.5t-141.5 61.5q-89 0 -142.5 -61.5
t-53.5 -150.5t53.5 -150t142.5 -61z" />
    <glyph glyph-name="e" unicode="e" horiz-adv-x="562" 
d="M293 -13q-102 0 -167.5 70t-65.5 178q0 105 64.5 173.5t160.5 68.5q103 0 160 -65t57 -159q0 -15 -1 -23h-404q2 -88 56.5 -149t140.5 -61q52 0 98 19t76 46l7 -38q-75 -60 -182 -60zM99 262h365q-2 82 -50.5 132t-128.5 50q-84 0 -134 -59t-52 -123z" />
    <glyph glyph-name="f" unicode="f" horiz-adv-x="288" 
d="M118 0v431h-97l10 32h86v151q0 79 37 116.5t97 37.5q47 0 82 -11l-6 -33q-38 11 -76 11q-94 0 -94 -122v-150h120l-12 -32h-108v-431h-39z" />
    <glyph glyph-name="g" unicode="g" horiz-adv-x="629" 
d="M289 -247q-113 0 -200 56l9 39q89 -61 189 -61q108 0 157 58t49 157v111h-2q-26 -58 -80.5 -90.5t-116.5 -32.5q-103 0 -168.5 68.5t-65.5 173.5q0 104 65.5 174.5t168.5 70.5q61 0 114.5 -32.5t82.5 -91.5h2q0 48 5 110h36q-3 -51 -3 -102v-361q0 -110 -57.5 -178.5
t-184.5 -68.5zM296 23q85 0 141.5 61t56.5 149q0 87 -56.5 148.5t-141.5 61.5q-88 0 -142 -61.5t-54 -149.5q0 -87 54 -148t142 -61z" />
    <glyph glyph-name="h" unicode="h" horiz-adv-x="574" 
d="M98 0v753l39 7v-403h2q20 55 68 87.5t105 32.5q88 0 129 -55t41 -140v-282h-39v271q0 73 -31.5 122.5t-106.5 49.5q-72 0 -120 -58.5t-48 -164.5v-220h-39z" />
    <glyph glyph-name="i" unicode="i" horiz-adv-x="234" 
d="M118 622q-13 0 -23 9.5t-10 24.5q0 14 10 23.5t23 9.5q12 0 21.5 -9.5t9.5 -23.5q0 -15 -9 -24.5t-22 -9.5zM98 0v463h39v-463h-39z" />
    <glyph glyph-name="j" unicode="j" horiz-adv-x="235" 
d="M118 622q-13 0 -23 9.5t-10 24.5q0 14 10 23.5t23 9.5t22.5 -9.5t9.5 -23.5q0 -15 -9.5 -24.5t-22.5 -9.5zM15 -208q48 0 65.5 24.5t17.5 91.5v555h39v-557q0 -70 -24 -107t-87 -40z" />
    <glyph glyph-name="k" unicode="k" horiz-adv-x="468" 
d="M98 0v752l39 8v-508h2l230 211h55l-240 -213l265 -250h-56l-254 244h-2v-244h-39z" />
    <glyph glyph-name="l" unicode="l" horiz-adv-x="236" 
d="M164 -9q-66 17 -66 93v666l39 9v-664q0 -31 9 -45t32 -23z" />
    <glyph glyph-name="m" unicode="m" horiz-adv-x="888" 
d="M99 0v351q0 76 -4 112h37q5 -62 5 -107h2q20 56 65 88.5t99 32.5q116 0 154 -127q21 60 66 93.5t105 33.5q87 0 127.5 -56.5t40.5 -144.5v-276h-39v266q0 75 -31.5 126t-101.5 51q-71 0 -115 -57t-44 -149v-237h-40v275q0 81 -32.5 124.5t-94.5 43.5q-67 0 -113 -57.5
t-46 -159.5v-226h-40z" />
    <glyph glyph-name="n" unicode="n" horiz-adv-x="576" 
d="M99 0v351q0 76 -4 112h37q5 -62 5 -107h2q20 55 67.5 88t104.5 33q88 0 130.5 -55.5t42.5 -139.5v-282h-39v271q0 33 -6.5 61.5t-21.5 54.5t-43 41t-67 15q-71 0 -119.5 -56t-48.5 -153v-234h-40z" />
    <glyph glyph-name="o" unicode="o" horiz-adv-x="608" 
d="M303 -13q-106 0 -174.5 69t-68.5 176t68.5 176t174.5 69q107 0 176 -69t69 -176t-69 -176t-176 -69zM303 20q92 0 148 61t56 151t-56 150.5t-148 60.5t-147.5 -60.5t-55.5 -150.5t55.5 -151t147.5 -61z" />
    <glyph glyph-name="p" unicode="p" horiz-adv-x="630" 
d="M97 -240v619q0 42 -3 84h39q4 -60 4 -110h3q29 59 81.5 91.5t114.5 32.5q104 0 169 -70t65 -176q0 -105 -65.5 -174.5t-168.5 -69.5q-62 0 -116 32t-80 90h-3v-349h-40zM333 20q88 0 142 61.5t54 149.5q0 89 -54 150.5t-142 61.5q-85 0 -141.5 -61.5t-56.5 -150.5
q0 -87 57 -149t141 -62z" />
    <glyph glyph-name="q" unicode="q" horiz-adv-x="630" 
d="M587 -240q-94 18 -94 109v240h-3q-26 -58 -80 -90t-116 -32q-103 0 -168.5 69.5t-65.5 174.5q0 106 65 176t169 70q62 0 114.5 -32.5t81.5 -91.5h3q0 36 4 110h37q-3 -44 -3 -88v-493q0 -40 15.5 -58.5t54.5 -27.5zM296 20q85 0 141.5 61.5t56.5 149.5q0 89 -56.5 150.5
t-141.5 61.5q-89 0 -142.5 -61.5t-53.5 -150.5t53.5 -150t142.5 -61z" />
    <glyph glyph-name="r" unicode="r" horiz-adv-x="331" 
d="M99 0v351q0 76 -4 112h37q5 -43 5 -107h2q18 58 58 89.5t82 31.5q26 0 50 -8l-10 -36q-18 8 -42 8q-62 0 -100 -61t-38 -151v-229h-40z" />
    <glyph glyph-name="s" unicode="s" horiz-adv-x="425" 
d="M222 -12q-102 0 -163 52l9 38q62 -57 156 -57q44 0 77 25.5t33 70.5q0 38 -32 61.5t-102 46.5q-69 23 -100.5 51t-31.5 80q0 57 44 89t104 32q80 0 141 -48l-19 -32q-55 47 -123 47q-47 0 -78 -22t-31 -65q0 -38 28 -59t96 -45q75 -25 108.5 -55.5t33.5 -80.5
q0 -59 -45 -94t-105 -35z" />
    <glyph glyph-name="t" unicode="t" horiz-adv-x="310" 
d="M203 -10q-44 0 -71.5 29.5t-27.5 83.5v328h-90l10 32h79v114l39 21v-135h133l-10 -32h-123v-321q0 -45 19.5 -65.5t50.5 -20.5q35 0 77 23l6 -32q-43 -25 -92 -25z" />
    <glyph glyph-name="u" unicode="u" horiz-adv-x="576" 
d="M261 -13q-88 0 -129 55t-41 140v281h39v-270q0 -46 10.5 -82.5t43 -64t83.5 -27.5q72 0 120.5 57.5t48.5 159.5v227h39v-351q0 -62 9 -112l-39 -1q-4 19 -10 108q-20 -55 -68.5 -87.5t-105.5 -32.5z" />
    <glyph glyph-name="v" unicode="v" horiz-adv-x="416" 
d="M187 0l-177 463h41l160 -426l154 426h39l-171 -463h-46z" />
    <glyph glyph-name="w" unicode="w" horiz-adv-x="717" 
d="M170 0l-139 463h41l122 -418h2l139 418h45l141 -418h2l121 418h41l-139 -463h-46l-142 416h-2l-140 -416h-46z" />
    <glyph glyph-name="x" unicode="x" horiz-adv-x="465" 
d="M23 0l184 243l-164 220h50l139 -193l139 193h48l-164 -219l187 -244h-52l-159 217l-159 -217h-49z" />
    <glyph glyph-name="y" unicode="y" horiz-adv-x="450" 
d="M43 -204q53 1 83 19.5t48 66.5l41 112l-194 469h44l170 -423l151 423h42l-221 -598q-21 -56 -58.5 -80.5t-96.5 -24.5z" />
    <glyph glyph-name="z" unicode="z" horiz-adv-x="441" 
d="M43 0v31l297 400h-291l10 32h326v-32l-295 -398h314l-8 -33h-353z" />
    <glyph glyph-name="braceleft" unicode="{" horiz-adv-x="301" 
d="M185 -156q-107 0 -107 126v189q0 113 -78 113v32q78 0 78 113v189q0 126 107 126h52v-32h-47q-75 0 -75 -98v-189q0 -60 -22 -89.5t-52 -34.5v-2q30 -5 52 -34.5t22 -89.5v-189q0 -98 75 -98h47v-32h-52z" />
    <glyph glyph-name="bar" unicode="|" horiz-adv-x="222" 
d="M93 -250v1000h36v-1000h-36z" />
    <glyph glyph-name="braceright" unicode="}" horiz-adv-x="301" 
d="M64 -156v32h47q75 0 75 98v189q0 60 21.5 89.5t52.5 34.5v2q-31 5 -52.5 34.5t-21.5 89.5v189q0 98 -75 98h-47v32h52q107 0 107 -126v-189q0 -113 78 -113v-32q-78 0 -78 -113v-189q0 -126 -107 -126h-52z" />
    <glyph glyph-name="asciitilde" unicode="~" horiz-adv-x="666" 
d="M117 245l-25 24q57 93 133 93q52 0 103 -35q68 -47 114 -47q58 0 109 81l25 -25q-57 -91 -133 -91q-50 0 -104 35q-42 27 -64 36.5t-48 9.5q-65 0 -110 -81z" />
    <glyph glyph-name="uni00A0" unicode="&#xa0;" horiz-adv-x="250" 
 />
    <glyph glyph-name="exclamdown" unicode="&#xa1;" horiz-adv-x="293" 
d="M147 419q-14 0 -24.5 10.5t-10.5 25.5q0 14 10.5 25t24.5 11t24 -11t10 -25q0 -15 -10 -25.5t-24 -10.5zM126 -223v513h41v-513h-41z" />
    <glyph glyph-name="cent" unicode="&#xa2;" horiz-adv-x="568" 
d="M479 78l7 -34q-59 -55 -154 -57v-59h-31v60q-94 10 -153 77t-59 166t59 166.5t153 77.5v66h31v-64q97 -2 154 -57l-18 -31q-24 25 -61 39.5t-75 14.5v-422q85 1 147 57zM130 231q0 -81 46.5 -139.5t124.5 -68.5v419q-78 -10 -124.5 -70t-46.5 -141z" />
    <glyph glyph-name="sterling" unicode="&#xa3;" horiz-adv-x="568" 
d="M76 0v34h11q49 0 72.5 36.5t23.5 83.5v197h-109l11 34h98v121q0 99 48 159.5t143 60.5q73 0 132 -38l-16 -36q-49 39 -117 39q-79 0 -114.5 -53.5t-35.5 -135.5v-117h178l-10 -34h-168v-193q0 -96 -69 -124h327l-10 -34h-395z" />
    <glyph glyph-name="currency" unicode="&#xa4;" horiz-adv-x="822" 
d="M604 472q54 -67 54 -162q0 -99 -58 -168l94 -94l-26 -26l-95 95q-67 -57 -161 -57q-95 0 -162 59l-97 -97q-1 1 -7 7.5l-11 11.5t-8 7l96 96q-56 67 -56 166q0 94 53 161l-93 91l27 25l91 -91q69 61 167 61q99 0 165 -60l90 90l27 -25zM412 520q-92 0 -149 -60.5
t-57 -149.5q0 -90 57 -151.5t149 -61.5t149 61.5t57 151.5q0 89 -57 149.5t-149 60.5z" />
    <glyph glyph-name="yen" unicode="&#xa5;" horiz-adv-x="568" 
d="M265 0v192h-187l10 32h177v121h-187l10 32h164l-231 331h49l215 -320l215 320h47l-229 -331h172l-10 -32h-177v-121h187l-10 -32h-177v-192h-38z" />
    <glyph glyph-name="brokenbar" unicode="&#xa6;" horiz-adv-x="222" 
d="M95 337v338h32v-338h-32zM95 -172v338h32v-338h-32z" />
    <glyph glyph-name="section" unicode="&#xa7;" horiz-adv-x="567" 
d="M262 -134q-119 0 -178 84l34 22q47 -71 145 -71q57 0 97.5 30t40.5 86q0 47 -34 73.5t-146 75.5q-67 30 -95.5 59t-27.5 86q0 54 36 89t85 47q-48 24 -71 51t-23 78q0 71 50.5 111t125.5 40q112 0 155 -73l-32 -21q-36 61 -125 61q-55 0 -95 -31t-40 -86q0 -49 30 -73
t138 -70q68 -29 101 -62t33 -85q0 -56 -34.5 -91.5t-86.5 -46.5q96 -44 96 -128q0 -73 -51.5 -114t-127.5 -41zM310 169q48 5 82.5 34t34.5 79q0 47 -31.5 73.5t-91.5 50.5l-48 20q-48 -6 -83.5 -35t-35.5 -81q0 -25 8.5 -43.5t29 -33t36 -22.5t47.5 -21z" />
    <glyph glyph-name="dieresis" unicode="&#xa8;" horiz-adv-x="241" 
d="M37 621q-14 0 -23.5 9.5t-9.5 24.5q0 14 9.5 24t23.5 10t23.5 -10t9.5 -24q0 -15 -9.5 -24.5t-23.5 -9.5zM204 621q-14 0 -23.5 9.5t-9.5 24.5q0 14 9.5 24t23.5 10t23.5 -10t9.5 -24q0 -15 -9.5 -24.5t-23.5 -9.5z" />
    <glyph glyph-name="copyright" unicode="&#xa9;" horiz-adv-x="800" 
d="M401 -22q-158 0 -269.5 109.5t-111.5 265.5q0 157 111.5 267t269.5 110q157 0 268 -110t111 -267q0 -156 -111 -265.5t-268 -109.5zM401 12q143 0 243.5 99.5t100.5 241.5q0 143 -100.5 243t-243.5 100q-144 0 -245 -100t-101 -243q0 -142 101 -241.5t245 -99.5zM415 128
q-95 0 -157 63.5t-62 161.5t62 162t157 64q40 0 80 -14t65 -35l-12 -34q-56 49 -133 49q-80 0 -130.5 -56t-50.5 -136q0 -79 50 -135t131 -56q83 0 133 50l4 -35q-49 -49 -137 -49z" />
    <glyph glyph-name="ordfeminine" unicode="&#xaa;" horiz-adv-x="354" 
d="M147 424q-39 0 -70 21.5t-31 64.5q0 31 17 51t50.5 29t66 12t78.5 3v10q0 78 -83 78q-57 0 -104 -37l-11 27q50 37 117 37q54 0 84 -27.5t30 -76.5v-124q0 -36 5 -61h-32q-5 23 -5 56h-1q-34 -63 -111 -63zM155 452q48 0 75.5 30t27.5 75v22h-14q-49 0 -81.5 -4t-58 -20
t-25.5 -45q0 -30 22.5 -44t53.5 -14z" />
    <glyph glyph-name="guillemotleft" unicode="&#xab;" horiz-adv-x="482" 
d="M201 37l-129 201l128 201l27 -19l-114 -182l115 -181zM373 37l-129 201l128 201l28 -19l-114 -182l115 -181z" />
    <glyph glyph-name="logicalnot" unicode="&#xac;" horiz-adv-x="666" 
d="M542 133v236h-454v34h491v-270h-37z" />
    <glyph glyph-name="uni00AD" unicode="&#xad;" horiz-adv-x="306" 
d="M56 234v33h195v-33h-195z" />
    <glyph glyph-name="registered" unicode="&#xae;" horiz-adv-x="600" 
d="M301 269q-95 0 -162 65.5t-67 159.5t67 160t162 66q94 0 160.5 -66t66.5 -160t-66.5 -159.5t-160.5 -65.5zM301 292q83 0 142 59.5t59 142.5t-59 142t-142 59q-84 0 -143.5 -59t-59.5 -142t59.5 -142.5t143.5 -59.5zM219 369v253h87q39 0 63 -18.5t24 -53.5
q0 -29 -19 -47t-46 -21l75 -113h-37l-69 110h-47v-110h-31zM250 502h43q69 0 69 49q0 45 -57 45h-55v-94z" />
    <glyph glyph-name="overscore" unicode="&#xaf;" horiz-adv-x="241" 
d="M-2 615v31h246v-31h-246z" />
    <glyph glyph-name="degree" unicode="&#xb0;" horiz-adv-x="400" 
d="M200 424q-62 0 -104 42.5t-42 104.5q0 61 42 103.5t104 42.5t104.5 -42.5t42.5 -103.5q0 -62 -42.5 -104.5t-104.5 -42.5zM200 453q49 0 83.5 34.5t34.5 83.5q0 48 -34.5 82.5t-83.5 34.5q-48 0 -82.5 -34.5t-34.5 -82.5q0 -49 34.5 -83.5t82.5 -34.5z" />
    <glyph glyph-name="plusminus" unicode="&#xb1;" horiz-adv-x="666" 
d="M313 165v179h-225v34h225v183h36v-183h230v-34h-230v-179h-36zM91 48v34h485v-34h-485z" />
    <glyph glyph-name="uni00B2" unicode="&#xb2;" horiz-adv-x="346" 
d="M40 453v32l154 169q63 68 63 117q0 38 -23.5 60t-61.5 22q-60 0 -106 -57l-17 29q47 58 124 58q55 0 87.5 -30.5t32.5 -78.5q0 -38 -18.5 -70t-61.5 -76l-135 -145h227l-11 -30h-254z" />
    <glyph glyph-name="uni00B3" unicode="&#xb3;" 
d="M167 443q-82 0 -120 47l12 30q15 -20 46 -33.5t61 -13.5q45 0 71 25t26 68q0 44 -33.5 68t-79.5 24h-20v30h19q47 0 73.5 25t26.5 63q0 37 -24 57.5t-59 20.5q-29 0 -56 -13t-42 -30l-13 26q44 46 112 46q54 0 85 -29t31 -79q0 -37 -22 -63.5t-59 -36.5q44 -7 69 -36.5
t25 -72.5q0 -58 -36.5 -90.5t-92.5 -32.5z" />
    <glyph glyph-name="acute" unicode="&#xb4;" horiz-adv-x="241" 
d="M80 564l102 144h50l-118 -144h-34z" />
    <glyph glyph-name="uni00B5" unicode="&#xb5;" horiz-adv-x="582" 
d="M492 463v-463h-32l-3 94h-2q-48 -104 -172 -104q-117 0 -157 80h-2v-90v-220h-35v703h35v-277q0 -78 41.5 -118.5t117.5 -40.5q92 0 133 51t41 151v234h35z" />
    <glyph glyph-name="paragraph" unicode="&#xb6;" horiz-adv-x="600" 
d="M279 -126v459q-95 0 -154 52.5t-59 128.5q0 94 59 144t165 50h207v-834h-36v804h-145v-804h-37z" />
    <glyph glyph-name="middot" unicode="&#xb7;" horiz-adv-x="247" 
d="M124 238q-14 0 -24 10.5t-10 24.5q0 15 10 25.5t24 10.5t24 -10.5t10 -25.5q0 -14 -10 -24.5t-24 -10.5z" />
    <glyph glyph-name="cedilla" unicode="&#xb8;" horiz-adv-x="241" 
d="M108 -227q-47 0 -92 20l8 24q35 -17 83 -17q32 0 56.5 12.5t24.5 42.5q0 47 -66 47q-36 0 -60 -13l-14 11l67 100h30l-55 -82q22 6 47 6q35 0 60 -17t25 -52q0 -44 -35 -63t-79 -19z" />
    <glyph glyph-name="uni00B9" unicode="&#xb9;" 
d="M170 453v380l-94 -68l-13 32l110 77h33v-421h-36z" />
    <glyph glyph-name="ordmasculine" unicode="&#xba;" horiz-adv-x="354" 
d="M177 424q-64 0 -105 42t-41 107t41 106.5t105 41.5t105 -41.5t41 -106.5t-41 -107t-105 -42zM177 451q52 0 82 35t30 87q0 51 -30 85.5t-82 34.5q-51 0 -81.5 -34.5t-30.5 -85.5q0 -52 30.5 -87t81.5 -35z" />
    <glyph glyph-name="guillemotright" unicode="&#xbb;" horiz-adv-x="482" 
d="M111 38l-28 19l114 181l-114 182l27 20l129 -202zM283 38l-28 19l114 181l-114 182l27 20l130 -202z" />
    <glyph glyph-name="onequarter" unicode="&#xbc;" horiz-adv-x="815" 
d="M190 -28l-28 16l441 749l29 -16zM174 287v380l-93 -67l-13 30l110 78h31v-421h-35zM656 0v104h-192v32l181 284h44v-286h65v-30h-65v-104h-33zM656 377h-3l-154 -243h157v243z" />
    <glyph glyph-name="onehalf" unicode="&#xbd;" horiz-adv-x="815" 
d="M189 -28l-28 16l441 749l29 -16zM170 287v380l-94 -68l-13 31l110 78h33v-421h-36zM483 0v32l154 169q63 68 63 117q0 38 -23.5 60t-61.5 22q-60 0 -106 -57l-18 29q49 58 124 58q55 0 88 -30.5t33 -78.5q0 -37 -18.5 -68.5t-61.5 -77.5l-136 -144h227l-10 -31h-254z" />
    <glyph glyph-name="threequarters" unicode="&#xbe;" horiz-adv-x="815" 
d="M187 -28l-28 16l441 749l29 -16zM167 278q-82 0 -120 47l12 30q15 -20 46 -33.5t61 -13.5q45 0 71 25t26 68q0 44 -33.5 68t-79.5 24h-20v29h19q47 0 73.5 25t26.5 63q0 37 -23.5 58t-59.5 21q-29 0 -56 -13t-42 -30l-13 26q44 46 112 46q54 0 85 -29t31 -79
q0 -37 -22 -63.5t-59 -36.5q44 -7 69 -36.5t25 -72.5q0 -58 -36.5 -90.5t-92.5 -32.5zM657 0v104h-192v32l181 284h44v-286h65v-30h-65v-104h-33zM500 134h157v243h-3z" />
    <glyph glyph-name="questiondown" unicode="&#xbf;" horiz-adv-x="477" 
d="M250 491q15 0 24.5 -10.5t9.5 -25.5t-9.5 -25.5t-24.5 -10.5q-14 0 -24 10.5t-10 25.5q0 14 10 25t24 11zM273 286v-35q0 -85 -75 -160l-9 -9q-31 -31 -45.5 -47.5t-27.5 -45.5t-13 -62q0 -60 42.5 -95t105.5 -35q107 0 172 79l20 -33q-75 -83 -194 -83q-80 0 -133.5 45
t-53.5 123q0 39 15.5 72t31 50.5t50.5 51.5q47 47 61 78t14 82v24h39z" />
    <glyph glyph-name="Agrave" unicode="&#xc0;" horiz-adv-x="678" 
d="M15 0l306 708h44l298 -708h-45l-115 279h-327l-116 -279h-45zM191 315h297l-146 355zM329 764l-118 144h50l102 -144h-34z" />
    <glyph glyph-name="Aacute" unicode="&#xc1;" horiz-adv-x="678" 
d="M15 0l306 708h44l298 -708h-45l-115 279h-327l-116 -279h-45zM191 315h297l-146 355zM323 764l102 144h49l-117 -144h-34z" />
    <glyph glyph-name="Acircumflex" unicode="&#xc2;" horiz-adv-x="678" 
d="M15 0l306 708h44l298 -708h-45l-115 279h-327l-116 -279h-45zM191 315h297l-146 355zM214 764l106 144h46l105 -144h-38l-90 124l-91 -124h-38z" />
    <glyph glyph-name="Atilde" unicode="&#xc3;" horiz-adv-x="678" 
d="M15 0l306 708h44l298 -708h-45l-115 279h-327l-116 -279h-45zM191 315h297l-146 355zM407 790q-27 0 -66 23q-39 24 -62 24q-33 0 -43 -50h-26q5 37 23 59.5t45 22.5q28 0 68 -24t61 -24q35 0 43 49h26q-11 -80 -69 -80z" />
    <glyph glyph-name="Adieresis" unicode="&#xc4;" horiz-adv-x="678" 
d="M15 0l306 708h44l298 -708h-45l-115 279h-327l-116 -279h-45zM191 315h297l-146 355zM259 821q-14 0 -23.5 9.5t-9.5 24.5q0 14 10 24t23 10q14 0 23.5 -10t9.5 -24q0 -15 -9.5 -24.5t-23.5 -9.5zM426 821q-14 0 -23.5 9.5t-9.5 24.5q0 14 10 24t23 10q14 0 23.5 -10
t9.5 -24q0 -15 -9.5 -24.5t-23.5 -9.5z" />
    <glyph glyph-name="Aring" unicode="&#xc5;" horiz-adv-x="678" 
d="M15 0l306 708h44l298 -708h-45l-115 279h-327l-116 -279h-45zM191 315h297l-146 355zM343 755q-40 0 -68.5 27.5t-28.5 67.5t28.5 67.5t68.5 27.5q39 0 67.5 -27.5t28.5 -67.5t-28.5 -67.5t-67.5 -27.5zM343 778q30 0 50.5 21t20.5 51t-20.5 51t-50.5 21t-51 -21t-21 -51
t21 -51t51 -21z" />
    <glyph glyph-name="AE" unicode="&#xc6;" horiz-adv-x="940" 
d="M17 0l458 708h392l-10 -37h-317v-286h293l-10 -35h-283v-313h342l-10 -37h-372v278h-256l-181 -278h-46zM265 313h235v358h-5z" />
    <glyph glyph-name="Ccedilla" unicode="&#xc7;" horiz-adv-x="722" 
d="M431 -19h-4l-42 -63q24 6 48 6q35 0 60 -17t25 -52q0 -44 -35 -63t-80 -19q-46 0 -91 20l8 24q35 -17 82 -17q32 0 56.5 12.5t24.5 42.5q0 47 -65 47q-37 0 -61 -13l-13 11l55 82q-147 11 -240 114.5t-93 257.5q0 162 103.5 267.5t261.5 105.5q72 0 140 -25t108 -63
l-14 -41q-38 40 -101 66t-133 26q-143 0 -232.5 -97t-89.5 -239t89 -239t233 -97q70 0 132.5 27t105.5 70l12 -36q-35 -39 -105.5 -68.5t-144.5 -29.5z" />
    <glyph glyph-name="Egrave" unicode="&#xc8;" horiz-adv-x="539" 
d="M101 0v708h365l-10 -37h-315v-286h301l-10 -35h-291v-313h340l-11 -37h-369zM282 766l-118 144h50l102 -144h-34z" />
    <glyph glyph-name="Eacute" unicode="&#xc9;" horiz-adv-x="539" 
d="M101 0v708h365l-10 -37h-315v-286h301l-10 -35h-291v-313h340l-11 -37h-369zM240 762l102 144h49l-117 -144h-34z" />
    <glyph glyph-name="Ecircumflex" unicode="&#xca;" horiz-adv-x="539" 
d="M101 0v708h365l-10 -37h-315v-286h301l-10 -35h-291v-313h340l-11 -37h-369zM159 762l106 144h46l105 -144h-38l-90 124l-91 -124h-38z" />
    <glyph glyph-name="Edieresis" unicode="&#xcb;" horiz-adv-x="539" 
d="M101 0v708h365l-10 -37h-315v-286h301l-10 -35h-291v-313h340l-11 -37h-369zM191 821q-14 0 -23.5 9.5t-9.5 24.5q0 14 10 24t23 10q14 0 23.5 -10t9.5 -24q0 -15 -9.5 -24.5t-23.5 -9.5zM358 821q-14 0 -23.5 9.5t-9.5 24.5q0 14 10 24t23 10q14 0 23.5 -10t9.5 -24
q0 -15 -9.5 -24.5t-23.5 -9.5z" />
    <glyph glyph-name="Igrave" unicode="&#xcc;" horiz-adv-x="244" 
d="M101 0v708h41v-708h-41zM109 764l-118 144h50l102 -144h-34z" />
    <glyph glyph-name="Iacute" unicode="&#xcd;" horiz-adv-x="244" 
d="M101 0v708h41v-708h-41zM101 764l102 144h49l-117 -144h-34z" />
    <glyph glyph-name="Icircumflex" unicode="&#xce;" horiz-adv-x="244" 
d="M101 0v708h41v-708h-41zM-8 764l106 144h46l105 -144h-38l-90 124l-91 -124h-38z" />
    <glyph glyph-name="Idieresis" unicode="&#xcf;" horiz-adv-x="244" 
d="M101 0v708h41v-708h-41zM38 821q-14 0 -23.5 9.5t-9.5 24.5q0 14 10 24t23 10q14 0 23.5 -10t9.5 -24q0 -15 -9.5 -24.5t-23.5 -9.5zM205 821q-14 0 -23.5 9.5t-9.5 24.5q0 14 10 24t23 10q14 0 23.5 -10t9.5 -24q0 -15 -9.5 -24.5t-23.5 -9.5z" />
    <glyph glyph-name="Eth" unicode="&#xd0;" horiz-adv-x="766" 
d="M99 0v354h-77v32h77v322h213q166 0 275.5 -90.5t109.5 -263.5q0 -116 -54 -198t-139 -119t-192 -37h-213zM140 37h161q161 0 257 83t96 234t-96 234t-256 83h-162v-285h263v-32h-263v-317z" />
    <glyph glyph-name="Ntilde" unicode="&#xd1;" horiz-adv-x="773" 
d="M101 0v708h54l474 -652h2v652h41v-708h-53l-475 654h-2v-654h-41zM455 790q-27 0 -66 23q-39 24 -62 24q-33 0 -43 -50h-26q5 37 23 59.5t45 22.5q28 0 68 -24t61 -24q35 0 43 49h26q-11 -80 -69 -80z" />
    <glyph glyph-name="Ograve" unicode="&#xd2;" horiz-adv-x="865" 
d="M433 -19q-158 0 -262.5 105.5t-104.5 267.5t104 267.5t263 105.5q158 0 261.5 -105.5t103.5 -267.5t-104 -267.5t-261 -105.5zM433 18q143 0 233 97t90 239t-90.5 239.5t-232.5 97.5q-143 0 -233.5 -97.5t-90.5 -239.5t90 -239t234 -97zM447 764l-118 144h50l102 -144
h-34z" />
    <glyph glyph-name="Oacute" unicode="&#xd3;" horiz-adv-x="865" 
d="M433 -19q-158 0 -262.5 105.5t-104.5 267.5t104 267.5t263 105.5q158 0 261.5 -105.5t103.5 -267.5t-104 -267.5t-261 -105.5zM433 18q143 0 233 97t90 239t-90.5 239.5t-232.5 97.5q-143 0 -233.5 -97.5t-90.5 -239.5t90 -239t234 -97zM396 764l102 144h49l-117 -144
h-34z" />
    <glyph glyph-name="Ocircumflex" unicode="&#xd4;" horiz-adv-x="865" 
d="M433 -19q-158 0 -262.5 105.5t-104.5 267.5t104 267.5t263 105.5q158 0 261.5 -105.5t103.5 -267.5t-104 -267.5t-261 -105.5zM433 18q143 0 233 97t90 239t-90.5 239.5t-232.5 97.5q-143 0 -233.5 -97.5t-90.5 -239.5t90 -239t234 -97zM305 764l106 144h46l105 -144h-38
l-90 124l-91 -124h-38z" />
    <glyph glyph-name="Otilde" unicode="&#xd5;" horiz-adv-x="865" 
d="M433 -19q-158 0 -262.5 105.5t-104.5 267.5t104 267.5t263 105.5q158 0 261.5 -105.5t103.5 -267.5t-104 -267.5t-261 -105.5zM433 18q143 0 233 97t90 239t-90.5 239.5t-232.5 97.5q-143 0 -233.5 -97.5t-90.5 -239.5t90 -239t234 -97zM498 790q-27 0 -66 23
q-39 24 -62 24q-33 0 -43 -50h-26q5 37 23 59.5t45 22.5t68 -24q40 -24 61 -24q35 0 43 49h26q-11 -80 -69 -80z" />
    <glyph glyph-name="Odieresis" unicode="&#xd6;" horiz-adv-x="865" 
d="M433 -19q-158 0 -262.5 105.5t-104.5 267.5t104 267.5t263 105.5q158 0 261.5 -105.5t103.5 -267.5t-104 -267.5t-261 -105.5zM433 18q143 0 233 97t90 239t-90.5 239.5t-232.5 97.5q-143 0 -233.5 -97.5t-90.5 -239.5t90 -239t234 -97zM350 821q-14 0 -23.5 9.5
t-9.5 24.5q0 14 10 24t23 10q14 0 23.5 -10t9.5 -24q0 -15 -9.5 -24.5t-23.5 -9.5zM517 821q-14 0 -23.5 9.5t-9.5 24.5q0 14 10 24t23 10q14 0 23.5 -10t9.5 -24q0 -15 -9.5 -24.5t-23.5 -9.5z" />
    <glyph glyph-name="multiply" unicode="&#xd7;" horiz-adv-x="666" 
d="M161 109l-25 24l174 173l-174 174l24 23l174 -173l173 173l24 -23l-173 -174l173 -173l-25 -24l-172 172z" />
    <glyph glyph-name="Oslash" unicode="&#xd8;" horiz-adv-x="865" 
d="M424 -19q-142 0 -241 85l-70 -80l-22 21l70 80q-103 101 -103 267q0 162 103.5 267.5t262.5 105.5q133 0 233 -79l70 80l22 -21l-69 -79q110 -105 110 -274q0 -162 -104.5 -267.5t-261.5 -105.5zM188 117l443 502q-86 72 -207 72q-143 0 -233.5 -97t-90.5 -240
q0 -144 88 -237zM424 17q144 0 233.5 97.5t89.5 239.5q0 149 -94 243l-443 -502q88 -78 214 -78z" />
    <glyph glyph-name="Ugrave" unicode="&#xd9;" horiz-adv-x="725" 
d="M363 -19q-73 0 -127 23.5t-84.5 64.5t-44.5 90.5t-14 107.5v441h41v-436q0 -37 5 -69.5t20.5 -68t40 -60.5t66.5 -41t97 -16q54 0 95.5 16t66 41t40.5 59.5t21.5 68t5.5 70.5v436h40v-441q0 -59 -14 -108t-44 -90t-84 -64.5t-127 -23.5zM373 764l-118 144h50l102 -144
h-34z" />
    <glyph glyph-name="Uacute" unicode="&#xda;" horiz-adv-x="725" 
d="M363 -19q-73 0 -127 23.5t-84.5 64.5t-44.5 90.5t-14 107.5v441h41v-436q0 -37 5 -69.5t20.5 -68t40 -60.5t66.5 -41t97 -16q54 0 95.5 16t66 41t40.5 59.5t21.5 68t5.5 70.5v436h40v-441q0 -59 -14 -108t-44 -90t-84 -64.5t-127 -23.5zM317 764l102 144h49l-117 -144
h-34z" />
    <glyph glyph-name="Ucircumflex" unicode="&#xdb;" horiz-adv-x="725" 
d="M363 -19q-73 0 -127 23.5t-84.5 64.5t-44.5 90.5t-14 107.5v441h41v-436q0 -37 5 -69.5t20.5 -68t40 -60.5t66.5 -41t97 -16q54 0 95.5 16t66 41t40.5 59.5t21.5 68t5.5 70.5v436h40v-441q0 -59 -14 -108t-44 -90t-84 -64.5t-127 -23.5zM234 764l106 144h46l105 -144h-38
l-90 124l-91 -124h-38z" />
    <glyph glyph-name="Udieresis" unicode="&#xdc;" horiz-adv-x="725" 
d="M363 -19q-73 0 -127 23.5t-84.5 64.5t-44.5 90.5t-14 107.5v441h41v-436q0 -37 5 -69.5t20.5 -68t40 -60.5t66.5 -41t97 -16q54 0 95.5 16t66 41t40.5 59.5t21.5 68t5.5 70.5v436h40v-441q0 -59 -14 -108t-44 -90t-84 -64.5t-127 -23.5zM279 821q-14 0 -23.5 9.5
t-9.5 24.5q0 14 10 24t23 10q14 0 23.5 -10t9.5 -24q0 -15 -9.5 -24.5t-23.5 -9.5zM446 821q-14 0 -23.5 9.5t-9.5 24.5q0 14 10 24t23 10q14 0 23.5 -10t9.5 -24q0 -15 -9.5 -24.5t-23.5 -9.5z" />
    <glyph glyph-name="Yacute" unicode="&#xdd;" horiz-adv-x="561" 
d="M260 0v308l-251 400h50l222 -364l223 364h46l-249 -400v-308h-41zM261 764l102 144h49l-117 -144h-34z" />
    <glyph glyph-name="Thorn" unicode="&#xde;" horiz-adv-x="575" 
d="M101 0v708h41v-156h156q62 0 110.5 -16.5t82 -58.5t33.5 -106q0 -89 -61.5 -138t-156.5 -49h-164v-184h-41zM142 219h161q78 0 128.5 38t50.5 114q0 75 -52 110t-131 35h-157v-297z" />
    <glyph glyph-name="germandbls" unicode="&#xdf;" horiz-adv-x="593" 
d="M307 -11q-19 0 -51 4v35q30 -5 47 -5q88 0 139.5 51.5t51.5 139.5q0 96 -56 145.5t-146 49.5h-13v36h13q68 0 112 38.5t44 108.5q0 66 -41.5 104t-106.5 38q-46 0 -79.5 -17t-51 -46.5t-25.5 -63t-8 -71.5v-536h-39v539q0 100 51 164.5t152 64.5q82 0 134.5 -47.5
t52.5 -127.5q0 -65 -35 -106.5t-94 -56.5v-2q79 -10 128 -64.5t49 -150.5q0 -101 -62 -162.5t-166 -61.5z" />
    <glyph glyph-name="agrave" unicode="&#xe0;" horiz-adv-x="520" 
d="M211 -13q-62 0 -105.5 34.5t-43.5 101.5q0 153 265 153h65v29q0 69 -37 104t-103 35q-40 0 -81 -17t-69 -43l-14 34q67 59 167 59q81 0 127.5 -43t46.5 -127v-203q0 -69 7 -104h-35q-7 44 -7 98h-3q-22 -54 -71.5 -82.5t-108.5 -28.5zM216 19q84 0 130 55t46 120v51h-55
q-236 0 -236 -121q0 -54 34 -79.5t81 -25.5zM275 564l-118 144h50l102 -144h-34z" />
    <glyph glyph-name="aacute" unicode="&#xe1;" horiz-adv-x="520" 
d="M211 -13q-62 0 -105.5 34.5t-43.5 101.5q0 153 265 153h65v29q0 69 -37 104t-103 35q-40 0 -81 -17t-69 -43l-14 34q67 59 167 59q81 0 127.5 -43t46.5 -127v-203q0 -69 7 -104h-35q-7 44 -7 98h-3q-22 -54 -71.5 -82.5t-108.5 -28.5zM216 19q84 0 130 55t46 120v51h-55
q-236 0 -236 -121q0 -54 34 -79.5t81 -25.5zM226 564l102 144h50l-118 -144h-34z" />
    <glyph glyph-name="acircumflex" unicode="&#xe2;" horiz-adv-x="520" 
d="M211 -13q-62 0 -105.5 34.5t-43.5 101.5q0 153 265 153h65v29q0 69 -37 104t-103 35q-40 0 -81 -17t-69 -43l-14 34q67 59 167 59q81 0 127.5 -43t46.5 -127v-203q0 -69 7 -104h-35q-7 44 -7 98h-3q-22 -54 -71.5 -82.5t-108.5 -28.5zM216 19q84 0 130 55t46 120v51h-55
q-236 0 -236 -121q0 -54 34 -79.5t81 -25.5zM127 564l106 144h46l105 -144h-38l-90 124l-91 -124h-38z" />
    <glyph glyph-name="atilde" unicode="&#xe3;" horiz-adv-x="520" 
d="M211 -13q-62 0 -105.5 34.5t-43.5 101.5q0 153 265 153h65v29q0 69 -37 104t-103 35q-40 0 -81 -17t-69 -43l-14 34q67 59 167 59q81 0 127.5 -43t46.5 -127v-203q0 -69 7 -104h-35q-7 44 -7 98h-3q-22 -54 -71.5 -82.5t-108.5 -28.5zM216 19q84 0 130 55t46 120v51h-55
q-236 0 -236 -121q0 -54 34 -79.5t81 -25.5zM123 587q5 37 23 59.5t45 22.5t68 -24q40 -24 61 -24q35 0 43 49h26q-11 -80 -69 -80q-28 0 -66 24q-39 24 -62 24q-33 0 -43 -51h-26z" />
    <glyph glyph-name="adieresis" unicode="&#xe4;" horiz-adv-x="520" 
d="M211 -13q-62 0 -105.5 34.5t-43.5 101.5q0 153 265 153h65v29q0 69 -37 104t-103 35q-40 0 -81 -17t-69 -43l-14 34q67 59 167 59q81 0 127.5 -43t46.5 -127v-203q0 -69 7 -104h-35q-7 44 -7 98h-3q-22 -54 -71.5 -82.5t-108.5 -28.5zM216 19q84 0 130 55t46 120v51h-55
q-236 0 -236 -121q0 -54 34 -79.5t81 -25.5zM173 621q-14 0 -23.5 9.5t-9.5 24.5q0 14 9.5 24t23.5 10t23.5 -10t9.5 -24q0 -15 -9.5 -24.5t-23.5 -9.5zM340 621q-14 0 -23.5 9.5t-9.5 24.5q0 14 9.5 24t23.5 10t23.5 -10t9.5 -24q0 -15 -9.5 -24.5t-23.5 -9.5z" />
    <glyph glyph-name="aring" unicode="&#xe5;" horiz-adv-x="520" 
d="M211 -13q-62 0 -105.5 34.5t-43.5 101.5q0 153 265 153h65v29q0 69 -37 104t-103 35q-40 0 -81 -17t-69 -43l-14 34q67 59 167 59q81 0 127.5 -43t46.5 -127v-203q0 -69 7 -104h-35q-7 44 -7 98h-3q-22 -54 -71.5 -82.5t-108.5 -28.5zM216 19q84 0 130 55t46 120v51h-55
q-236 0 -236 -121q0 -54 34 -79.5t81 -25.5zM257 555q-40 0 -68.5 27.5t-28.5 67.5t28.5 68t68.5 28q39 0 67.5 -28t28.5 -68t-28.5 -67.5t-67.5 -27.5zM257 579q30 0 50.5 20.5t20.5 50.5t-20.5 51t-50.5 21t-51 -21t-21 -51t21 -50.5t51 -20.5z" />
    <glyph glyph-name="ae" unicode="&#xe6;" horiz-adv-x="867" 
d="M224 -13q-66 0 -114 32t-48 98q0 144 270 144h60v36q0 72 -36 109.5t-101 37.5q-85 0 -152 -60l-13 34q64 59 168 59q69 0 110.5 -34t50.5 -89q27 57 74.5 90t109.5 33q92 0 148 -62.5t56 -162.5v-24h-378q0 -83 47 -145t133 -62q89 0 165 59l7 -36q-73 -57 -173 -57
q-69 0 -119.5 37.5t-74.5 103.5q-14 -64 -63.5 -102.5t-126.5 -38.5zM430 261h339q-2 82 -47.5 132.5t-118.5 50.5q-42 0 -76.5 -18.5t-54.5 -47.5t-31 -59t-11 -58zM229 19q83 0 123 48.5t40 120.5v41h-47q-40 0 -71 -2t-65 -9t-56 -18.5t-36.5 -32.5t-14.5 -50
q0 -52 37.5 -75t89.5 -23z" />
    <glyph glyph-name="ccedilla" unicode="&#xe7;" horiz-adv-x="486" 
d="M299 -13h-4l-46 -69q24 6 47 6q35 0 60.5 -17t25.5 -52q0 -44 -35.5 -63t-79.5 -19q-47 0 -92 20l9 24q35 -17 82 -17q31 0 56 12.5t25 42.5q0 47 -66 47q-36 0 -60 -13l-14 11l60 89q-92 11 -149.5 77.5t-57.5 164.5q0 107 67 176.5t172 69.5q46 0 88.5 -15.5
t68.5 -41.5l-18 -31q-24 25 -62 39.5t-77 14.5q-89 0 -144 -61.5t-55 -150.5t55.5 -149.5t144.5 -60.5q86 0 149 57l7 -34q-61 -57 -157 -57z" />
    <glyph glyph-name="egrave" unicode="&#xe8;" horiz-adv-x="562" 
d="M293 -13q-102 0 -167.5 70t-65.5 178q0 105 64.5 173.5t160.5 68.5q103 0 160 -65t57 -159q0 -15 -1 -23h-404q2 -88 56.5 -149t140.5 -61q52 0 98 19t76 46l7 -38q-75 -60 -182 -60zM99 262h365q-2 82 -50.5 132t-128.5 50q-84 0 -134 -59t-52 -123zM291 564l-118 144
h50l102 -144h-34z" />
    <glyph glyph-name="eacute" unicode="&#xe9;" horiz-adv-x="562" 
d="M293 -13q-102 0 -167.5 70t-65.5 178q0 105 64.5 173.5t160.5 68.5q103 0 160 -65t57 -159q0 -15 -1 -23h-404q2 -88 56.5 -149t140.5 -61q52 0 98 19t76 46l7 -38q-75 -60 -182 -60zM99 262h365q-2 82 -50.5 132t-128.5 50q-84 0 -134 -59t-52 -123zM254 564l102 144h50
l-118 -144h-34z" />
    <glyph glyph-name="ecircumflex" unicode="&#xea;" horiz-adv-x="562" 
d="M293 -13q-102 0 -167.5 70t-65.5 178q0 105 64.5 173.5t160.5 68.5q103 0 160 -65t57 -159q0 -15 -1 -23h-404q2 -88 56.5 -149t140.5 -61q52 0 98 19t76 46l7 -38q-75 -60 -182 -60zM99 262h365q-2 82 -50.5 132t-128.5 50q-84 0 -134 -59t-52 -123zM162 564l106 144h46
l105 -144h-38l-90 124l-91 -124h-38z" />
    <glyph glyph-name="edieresis" unicode="&#xeb;" horiz-adv-x="562" 
d="M293 -13q-102 0 -167.5 70t-65.5 178q0 105 64.5 173.5t160.5 68.5q103 0 160 -65t57 -159q0 -15 -1 -23h-404q2 -88 56.5 -149t140.5 -61q52 0 98 19t76 46l7 -38q-75 -60 -182 -60zM99 262h365q-2 82 -50.5 132t-128.5 50q-84 0 -134 -59t-52 -123zM205 621
q-14 0 -23.5 9.5t-9.5 24.5q0 14 9.5 24t23.5 10t23.5 -10t9.5 -24q0 -15 -9.5 -24.5t-23.5 -9.5zM372 621q-14 0 -23.5 9.5t-9.5 24.5q0 14 9.5 24t23.5 10t23.5 -10t9.5 -24q0 -15 -9.5 -24.5t-23.5 -9.5z" />
    <glyph glyph-name="igrave" unicode="&#xec;" horiz-adv-x="234" 
d="M98 0v463h39v-463h-39zM104 564l-118 144h50l102 -144h-34z" />
    <glyph glyph-name="iacute" unicode="&#xed;" horiz-adv-x="234" 
d="M98 0v463h39v-463h-39zM98 564l102 144h50l-118 -144h-34z" />
    <glyph glyph-name="icircumflex" unicode="&#xee;" horiz-adv-x="234" 
d="M98 0v463h39v-463h-39zM-10 564l106 144h46l105 -144h-38l-90 124l-91 -124h-38z" />
    <glyph glyph-name="idieresis" unicode="&#xef;" horiz-adv-x="234" 
d="M98 0v463h39v-463h-39zM35 621q-14 0 -23.5 9.5t-9.5 24.5q0 14 9.5 24t23.5 10t23.5 -10t9.5 -24q0 -15 -9.5 -24.5t-23.5 -9.5zM202 621q-14 0 -23.5 9.5t-9.5 24.5q0 14 9.5 24t23.5 10t23.5 -10t9.5 -24q0 -15 -9.5 -24.5t-23.5 -9.5z" />
    <glyph glyph-name="eth" unicode="&#xf0;" horiz-adv-x="608" 
d="M300 -13q-106 0 -174 69t-68 176t68 176t174 69q100 0 169 -70l5 2q-28 65 -74.5 130.5t-90.5 107.5l-112 -60l-21 22l110 60q-51 49 -97 79l32 21q41 -28 99 -82l104 57l24 -21l-104 -57q74 -74 137.5 -189.5t63.5 -234.5q0 -109 -66 -182t-179 -73zM300 20q92 0 148 61
t56 151t-56 150t-148 60t-147.5 -60t-55.5 -150t56 -151t147 -61z" />
    <glyph glyph-name="ntilde" unicode="&#xf1;" horiz-adv-x="576" 
d="M99 0v351q0 76 -4 112h37q5 -62 5 -107h2q20 55 67.5 88t104.5 33q88 0 130.5 -55.5t42.5 -139.5v-282h-39v271q0 33 -6.5 61.5t-21.5 54.5t-43 41t-67 15q-71 0 -119.5 -56t-48.5 -153v-234h-40zM159 587q5 37 23 59.5t45 22.5t68 -24q40 -24 61 -24q35 0 43 49h26
q-11 -80 -69 -80q-28 0 -66 24q-39 24 -62 24q-33 0 -43 -51h-26z" />
    <glyph glyph-name="ograve" unicode="&#xf2;" horiz-adv-x="608" 
d="M303 -13q-106 0 -174.5 69t-68.5 176t68.5 176t174.5 69q107 0 176 -69t69 -176t-69 -176t-176 -69zM303 20q92 0 148 61t56 151t-56 150.5t-148 60.5t-147.5 -60.5t-55.5 -150.5t55.5 -151t147.5 -61zM311 564l-118 144h50l102 -144h-34z" />
    <glyph glyph-name="oacute" unicode="&#xf3;" horiz-adv-x="608" 
d="M303 -13q-106 0 -174.5 69t-68.5 176t68.5 176t174.5 69q107 0 176 -69t69 -176t-69 -176t-176 -69zM303 20q92 0 148 61t56 151t-56 150.5t-148 60.5t-147.5 -60.5t-55.5 -150.5t55.5 -151t147.5 -61zM265 564l102 144h50l-118 -144h-34z" />
    <glyph glyph-name="ocircumflex" unicode="&#xf4;" horiz-adv-x="608" 
d="M303 -13q-106 0 -174.5 69t-68.5 176t68.5 176t174.5 69q107 0 176 -69t69 -176t-69 -176t-176 -69zM303 20q92 0 148 61t56 151t-56 150.5t-148 60.5t-147.5 -60.5t-55.5 -150.5t55.5 -151t147.5 -61zM176 564l106 144h46l105 -144h-38l-90 124l-91 -124h-38z" />
    <glyph glyph-name="otilde" unicode="&#xf5;" horiz-adv-x="608" 
d="M303 -13q-106 0 -174.5 69t-68.5 176t68.5 176t174.5 69q107 0 176 -69t69 -176t-69 -176t-176 -69zM303 20q92 0 148 61t56 151t-56 150.5t-148 60.5t-147.5 -60.5t-55.5 -150.5t55.5 -151t147.5 -61zM172 587q5 37 23 59.5t45 22.5q28 0 68 -24t61 -24q35 0 43 49h26
q-11 -80 -69 -80q-28 0 -66 24q-39 24 -62 24q-33 0 -43 -51h-26z" />
    <glyph glyph-name="odieresis" unicode="&#xf6;" horiz-adv-x="608" 
d="M303 -13q-106 0 -174.5 69t-68.5 176t68.5 176t174.5 69q107 0 176 -69t69 -176t-69 -176t-176 -69zM303 20q92 0 148 61t56 151t-56 150.5t-148 60.5t-147.5 -60.5t-55.5 -150.5t55.5 -151t147.5 -61zM222 621q-14 0 -23.5 9.5t-9.5 24.5q0 14 9.5 24t23.5 10t23.5 -10
t9.5 -24q0 -15 -9.5 -24.5t-23.5 -9.5zM389 621q-14 0 -23.5 9.5t-9.5 24.5q0 14 9.5 24t23.5 10t23.5 -10t9.5 -24q0 -15 -9.5 -24.5t-23.5 -9.5z" />
    <glyph glyph-name="divide" unicode="&#xf7;" horiz-adv-x="666" 
d="M333 426q-18 0 -30 12.5t-12 29.5q0 19 12 31.5t30 12.5t30.5 -12.5t12.5 -31.5q0 -17 -12.5 -29.5t-30.5 -12.5zM89 286v34h489v-34h-489zM333 94q-18 0 -30 12.5t-12 31.5q0 18 12 30t30 12t30.5 -12.5t12.5 -29.5q0 -19 -12.5 -31.5t-30.5 -12.5z" />
    <glyph glyph-name="oslash" unicode="&#xf8;" horiz-adv-x="608" 
d="M70 -18l-21 20l68 67q-57 67 -57 163q0 107 68 176t175 69q93 0 162 -56l61 61l21 -20l-62 -62q63 -66 63 -168q0 -107 -68.5 -176t-176.5 -69q-101 0 -166 63zM142 95l298 300q-53 50 -137 50q-93 0 -148.5 -61t-55.5 -151q0 -81 43 -138zM302 19q93 0 149.5 61.5
t56.5 151.5q0 89 -49 142l-298 -300q55 -55 141 -55z" />
    <glyph glyph-name="ugrave" unicode="&#xf9;" horiz-adv-x="576" 
d="M261 -13q-88 0 -129 55t-41 140v281h39v-270q0 -46 10.5 -82.5t43 -64t83.5 -27.5q72 0 120.5 57.5t48.5 159.5v227h39v-351q0 -62 9 -112l-39 -1q-4 19 -10 108q-20 -55 -68.5 -87.5t-105.5 -32.5zM273 564l-118 144h50l102 -144h-34z" />
    <glyph glyph-name="uacute" unicode="&#xfa;" horiz-adv-x="576" 
d="M261 -13q-88 0 -129 55t-41 140v281h39v-270q0 -46 10.5 -82.5t43 -64t83.5 -27.5q72 0 120.5 57.5t48.5 159.5v227h39v-351q0 -62 9 -112l-39 -1q-4 19 -10 108q-20 -55 -68.5 -87.5t-105.5 -32.5zM236 564l102 144h50l-118 -144h-34z" />
    <glyph glyph-name="ucircumflex" unicode="&#xfb;" horiz-adv-x="576" 
d="M261 -13q-88 0 -129 55t-41 140v281h39v-270q0 -46 10.5 -82.5t43 -64t83.5 -27.5q72 0 120.5 57.5t48.5 159.5v227h39v-351q0 -62 9 -112l-39 -1q-4 19 -10 108q-20 -55 -68.5 -87.5t-105.5 -32.5zM151 564l106 144h46l105 -144h-38l-90 124l-91 -124h-38z" />
    <glyph glyph-name="udieresis" unicode="&#xfc;" horiz-adv-x="576" 
d="M261 -13q-88 0 -129 55t-41 140v281h39v-270q0 -46 10.5 -82.5t43 -64t83.5 -27.5q72 0 120.5 57.5t48.5 159.5v227h39v-351q0 -62 9 -112l-39 -1q-4 19 -10 108q-20 -55 -68.5 -87.5t-105.5 -32.5zM199 621q-14 0 -23.5 9.5t-9.5 24.5q0 14 9.5 24t23.5 10t23.5 -10
t9.5 -24q0 -15 -9.5 -24.5t-23.5 -9.5zM366 621q-14 0 -23.5 9.5t-9.5 24.5q0 14 9.5 24t23.5 10t23.5 -10t9.5 -24q0 -15 -9.5 -24.5t-23.5 -9.5z" />
    <glyph glyph-name="yacute" unicode="&#xfd;" horiz-adv-x="450" 
d="M43 -204q53 1 83 19.5t48 66.5l41 112l-194 469h44l170 -423l151 423h42l-221 -598q-21 -56 -58.5 -80.5t-96.5 -24.5zM199 564l102 144h50l-118 -144h-34z" />
    <glyph glyph-name="thorn" unicode="&#xfe;" horiz-adv-x="629" 
d="M98 -240v996h39v-403h2q29 60 81.5 92t114.5 32q103 0 168.5 -70t65.5 -176q0 -105 -66 -174.5t-168 -69.5q-62 0 -116 32t-80 90h-2v-349h-39zM332 20q88 0 142.5 61t54.5 150t-54.5 150.5t-142.5 61.5q-86 0 -142 -61.5t-56 -150.5q0 -88 56 -149.5t142 -61.5z" />
    <glyph glyph-name="ydieresis" unicode="&#xff;" horiz-adv-x="450" 
d="M43 -204q53 1 83 19.5t48 66.5l41 112l-194 469h44l170 -423l151 423h42l-221 -598q-21 -56 -58.5 -80.5t-96.5 -24.5zM146 621q-14 0 -23.5 9.5t-9.5 24.5q0 14 9.5 24t23.5 10t23.5 -10t9.5 -24q0 -15 -9.5 -24.5t-23.5 -9.5zM313 621q-14 0 -23.5 9.5t-9.5 24.5
q0 14 9.5 24t23.5 10t23.5 -10t9.5 -24q0 -15 -9.5 -24.5t-23.5 -9.5z" />
    <glyph glyph-name="Amacron" unicode="&#x100;" horiz-adv-x="678" 
d="M15 0l306 708h44l298 -708h-45l-115 279h-327l-116 -279h-45zM191 315h297l-146 355zM220 815v31h246v-31h-246z" />
    <glyph glyph-name="amacron" unicode="&#x101;" horiz-adv-x="520" 
d="M211 -13q-62 0 -105.5 34.5t-43.5 101.5q0 153 265 153h65v29q0 69 -37 104t-103 35q-40 0 -81 -17t-69 -43l-14 34q67 59 167 59q81 0 127.5 -43t46.5 -127v-203q0 -69 7 -104h-35q-7 44 -7 98h-3q-22 -54 -71.5 -82.5t-108.5 -28.5zM216 19q84 0 130 55t46 120v51h-55
q-236 0 -236 -121q0 -54 34 -79.5t81 -25.5zM143 615v31h246v-31h-246z" />
    <glyph glyph-name="Abreve" unicode="&#x102;" horiz-adv-x="678" 
d="M15 0l306 708h44l298 -708h-45l-115 279h-327l-116 -279h-45zM191 315h297l-146 355zM342 773q-55 0 -90.5 33.5t-41.5 94.5h27q9 -46 37 -71t68 -25q86 0 106 96h28q-8 -61 -44 -94.5t-90 -33.5z" />
    <glyph glyph-name="abreve" unicode="&#x103;" horiz-adv-x="520" 
d="M211 -13q-62 0 -105.5 34.5t-43.5 101.5q0 153 265 153h65v29q0 69 -37 104t-103 35q-40 0 -81 -17t-69 -43l-14 34q67 59 167 59q81 0 127.5 -43t46.5 -127v-203q0 -69 7 -104h-35q-7 44 -7 98h-3q-22 -54 -71.5 -82.5t-108.5 -28.5zM216 19q84 0 130 55t46 120v51h-55
q-236 0 -236 -121q0 -54 34 -79.5t81 -25.5zM266 573q-55 0 -90.5 33.5t-41.5 94.5h27q9 -46 37 -71t68 -25q86 0 106 96h28q-8 -61 -44 -94.5t-90 -33.5z" />
    <glyph glyph-name="Aogonek" unicode="&#x104;" horiz-adv-x="678" 
d="M685 -166l14 -24q-36 -33 -85 -33q-37 0 -62 22.5t-25 59.5q0 36 24 68.5t68 72.5h-1l-115 279h-327l-116 -279h-45l306 708h44l298 -708h-12q-48 -47 -68 -76t-20 -59q0 -26 16.5 -42t42.5 -16q38 0 63 27zM191 315h297l-146 355z" />
    <glyph glyph-name="aogonek" unicode="&#x105;" horiz-adv-x="520" 
d="M469 -166l14 -24q-36 -33 -85 -33q-37 0 -62 22.5t-25 59.5q0 36 24 68.5t68 72.5h-2q-7 44 -7 98h-3q-22 -54 -71.5 -82.5t-108.5 -28.5q-62 0 -105.5 34.5t-43.5 101.5q0 153 265 153h65v29q0 69 -37 104t-103 35q-40 0 -81 -17t-69 -43l-14 34q67 59 167 59
q81 0 127.5 -43t46.5 -127v-203q0 -69 7 -104h-1q-48 -47 -68 -76t-20 -59q0 -26 16.5 -42t42.5 -16q38 0 63 27zM392 194v51h-55q-236 0 -236 -121q0 -54 34 -79.5t81 -25.5q84 0 130 55t46 120z" />
    <glyph glyph-name="Cacute" unicode="&#x106;" horiz-adv-x="722" 
d="M431 -19q-159 0 -262 105.5t-103 267.5t103.5 267.5t261.5 105.5q72 0 140 -25t108 -63l-14 -41q-38 40 -101 66t-133 26q-143 0 -232.5 -97t-89.5 -239t89 -239t233 -97q70 0 132.5 27t105.5 70l12 -36q-35 -39 -105.5 -68.5t-144.5 -29.5zM384 764l102 144h49
l-117 -144h-34z" />
    <glyph glyph-name="cacute" unicode="&#x107;" horiz-adv-x="486" 
d="M299 -13q-105 0 -172 68.5t-67 175.5t67 176.5t172 69.5q46 0 88.5 -15.5t68.5 -41.5l-18 -31q-24 25 -62 39.5t-77 14.5q-89 0 -144 -61.5t-55 -150.5t55.5 -149.5t144.5 -60.5q86 0 149 57l7 -34q-61 -57 -157 -57zM243 564l102 144h50l-118 -144h-34z" />
    <glyph glyph-name="Ccircumflex" unicode="&#x108;" horiz-adv-x="722" 
d="M431 -19q-159 0 -262 105.5t-103 267.5t103.5 267.5t261.5 105.5q72 0 140 -25t108 -63l-14 -41q-38 40 -101 66t-133 26q-143 0 -232.5 -97t-89.5 -239t89 -239t233 -97q70 0 132.5 27t105.5 70l12 -36q-35 -39 -105.5 -68.5t-144.5 -29.5zM301 764l106 144h46l105 -144
h-38l-90 124l-91 -124h-38z" />
    <glyph glyph-name="ccircumflex" unicode="&#x109;" horiz-adv-x="486" 
d="M299 -13q-105 0 -172 68.5t-67 175.5t67 176.5t172 69.5q46 0 88.5 -15.5t68.5 -41.5l-18 -31q-24 25 -62 39.5t-77 14.5q-89 0 -144 -61.5t-55 -150.5t55.5 -149.5t144.5 -60.5q86 0 149 57l7 -34q-61 -57 -157 -57zM150 564l106 144h46l105 -144h-38l-90 124l-91 -124
h-38z" />
    <glyph glyph-name="Cdotaccent" unicode="&#x10a;" horiz-adv-x="722" 
d="M431 -19q-159 0 -262 105.5t-103 267.5t103.5 267.5t261.5 105.5q72 0 140 -25t108 -63l-14 -41q-38 40 -101 66t-133 26q-143 0 -232.5 -97t-89.5 -239t89 -239t233 -97q70 0 132.5 27t105.5 70l12 -36q-35 -39 -105.5 -68.5t-144.5 -29.5zM427 822q-13 0 -23 9.5
t-10 24.5q0 13 10 23t23 10q12 0 22 -9.5t10 -23.5q0 -15 -10 -24.5t-22 -9.5z" />
    <glyph glyph-name="cdotaccent" unicode="&#x10b;" horiz-adv-x="486" 
d="M299 -13q-105 0 -172 68.5t-67 175.5t67 176.5t172 69.5q46 0 88.5 -15.5t68.5 -41.5l-18 -31q-24 25 -62 39.5t-77 14.5q-89 0 -144 -61.5t-55 -150.5t55.5 -149.5t144.5 -60.5q86 0 149 57l7 -34q-61 -57 -157 -57zM286 622q-13 0 -23 9.5t-10 24.5q0 14 10 23.5
t23 9.5q12 0 22 -9.5t10 -23.5q0 -15 -10 -24.5t-22 -9.5z" />
    <glyph glyph-name="Ccaron" unicode="&#x10c;" horiz-adv-x="722" 
d="M431 -19q-159 0 -262 105.5t-103 267.5t103.5 267.5t261.5 105.5q72 0 140 -25t108 -63l-14 -41q-38 40 -101 66t-133 26q-143 0 -232.5 -97t-89.5 -239t89 -239t233 -97q70 0 132.5 27t105.5 70l12 -36q-35 -39 -105.5 -68.5t-144.5 -29.5zM407 764l-106 144h38l91 -124
l90 124h38l-105 -144h-46z" />
    <glyph glyph-name="ccaron" unicode="&#x10d;" horiz-adv-x="486" 
d="M299 -13q-105 0 -172 68.5t-67 175.5t67 176.5t172 69.5q46 0 88.5 -15.5t68.5 -41.5l-18 -31q-24 25 -62 39.5t-77 14.5q-89 0 -144 -61.5t-55 -150.5t55.5 -149.5t144.5 -60.5q86 0 149 57l7 -34q-61 -57 -157 -57zM263 564l-106 144h38l91 -124l90 124h38l-105 -144
h-46z" />
    <glyph glyph-name="Dcaron" unicode="&#x10e;" horiz-adv-x="766" 
d="M101 0v708h213q79 0 147.5 -21.5t122.5 -63.5t85 -111t31 -158q0 -116 -54 -198t-139 -119t-192 -37h-214zM142 37h162q160 0 257 83t97 234t-97 234t-257 83h-162v-634zM330 764l-106 144h38l91 -124l90 124h38l-105 -144h-46z" />
    <glyph glyph-name="dcaron" unicode="&#x10f;" horiz-adv-x="663" 
d="M294 -13q-103 0 -168.5 69.5t-65.5 174.5t65.5 175.5t168.5 70.5q62 0 115 -32.5t82 -91.5h2v403l38 10v-647q0 -52 5 -119h-38q-5 62 -5 109h-2q-29 -58 -82.5 -90t-114.5 -32zM296 20q85 0 141.5 61.5t56.5 149.5q0 89 -56.5 150.5t-141.5 61.5q-89 0 -142.5 -61.5
t-53.5 -150.5t53.5 -150t142.5 -61zM592 523l54 185h42l-65 -185h-31z" />
    <glyph glyph-name="Dcroat" unicode="&#x110;" horiz-adv-x="766" 
d="M99 0v354h-77v32h77v322h213q166 0 275.5 -90.5t109.5 -263.5q0 -116 -54 -198t-139 -119t-192 -37h-213zM140 37h161q161 0 257 83t96 234t-96 234t-256 83h-162v-285h263v-32h-263v-317z" />
    <glyph glyph-name="dslash" unicode="&#x111;" horiz-adv-x="630" 
d="M294 -13q-103 0 -168.5 69.5t-65.5 174.5t65.5 175.5t168.5 70.5q62 0 115 -32.5t82 -91.5h2v217h-194v29h194v157h38v-157h66v-29h-66v-465q0 -35 4 -105h-38q-4 49 -4 109h-2q-29 -58 -82.5 -90t-114.5 -32zM296 20q86 0 143 61.5t57 149.5q0 89 -57 150.5t-143 61.5
q-89 0 -142.5 -61.5t-53.5 -150.5t53.5 -150t142.5 -61z" />
    <glyph glyph-name="Emacron" unicode="&#x112;" horiz-adv-x="539" 
d="M101 0v708h365l-10 -37h-315v-286h301l-10 -35h-291v-313h340l-11 -37h-369zM159 816v31h246v-31h-246z" />
    <glyph glyph-name="emacron" unicode="&#x113;" horiz-adv-x="562" 
d="M293 -13q-102 0 -167.5 70t-65.5 178q0 105 64.5 173.5t160.5 68.5q103 0 160 -65t57 -159q0 -15 -1 -23h-404q2 -88 56.5 -149t140.5 -61q52 0 98 19t76 46l7 -38q-75 -60 -182 -60zM99 262h365q-2 82 -50.5 132t-128.5 50q-84 0 -134 -59t-52 -123zM167 615v31h246v-31
h-246z" />
    <glyph glyph-name="Ebreve" unicode="&#x114;" horiz-adv-x="539" 
d="M101 0v708h365l-10 -37h-315v-286h301l-10 -35h-291v-313h340l-11 -37h-369zM284 759q-55 0 -90.5 33.5t-41.5 94.5h27q9 -46 37 -71t68 -25q86 0 106 96h28q-8 -61 -44 -94.5t-90 -33.5z" />
    <glyph glyph-name="ebreve" unicode="&#x115;" horiz-adv-x="562" 
d="M293 -13q-102 0 -167.5 70t-65.5 178q0 105 64.5 173.5t160.5 68.5q103 0 160 -65t57 -159q0 -15 -1 -23h-404q2 -88 56.5 -149t140.5 -61q52 0 98 19t76 46l7 -38q-75 -60 -182 -60zM99 262h365q-2 82 -50.5 132t-128.5 50q-84 0 -134 -59t-52 -123zM290 573
q-55 0 -90.5 33.5t-41.5 94.5h27q9 -46 37 -71t68 -25q86 0 106 96h28q-8 -61 -44 -94.5t-90 -33.5z" />
    <glyph glyph-name="Edotaccent" unicode="&#x116;" horiz-adv-x="539" 
d="M101 0v708h365l-10 -37h-315v-286h301l-10 -35h-291v-313h340l-11 -37h-369zM281 800q-13 0 -23 9.5t-10 24.5q0 13 10 23t23 10q12 0 22 -9.5t10 -23.5q0 -15 -10 -24.5t-22 -9.5z" />
    <glyph glyph-name="edotaccent" unicode="&#x117;" horiz-adv-x="562" 
d="M293 -13q-102 0 -167.5 70t-65.5 178q0 105 64.5 173.5t160.5 68.5q103 0 160 -65t57 -159q0 -15 -1 -23h-404q2 -88 56.5 -149t140.5 -61q52 0 98 19t76 46l7 -38q-75 -60 -182 -60zM99 262h365q-2 82 -50.5 132t-128.5 50q-84 0 -134 -59t-52 -123zM290 622
q-13 0 -23 9.5t-10 24.5q0 14 10 23.5t23 9.5q12 0 22 -9.5t10 -23.5q0 -15 -10 -24.5t-22 -9.5z" />
    <glyph glyph-name="Eogonek" unicode="&#x118;" horiz-adv-x="539" 
d="M400 0q-48 -47 -68 -76t-20 -59q0 -26 16.5 -42t42.5 -16q38 0 63 27l14 -24q-36 -33 -85 -33q-37 0 -62 22.5t-25 59.5q0 36 24 68.5t68 72.5h-267v708h365l-10 -37h-315v-286h301l-10 -35h-291v-313h340l-11 -37h-70z" />
    <glyph glyph-name="eogonek" unicode="&#x119;" horiz-adv-x="562" 
d="M502 253q0 -15 -1 -23h-404q2 -88 56.5 -149t140.5 -61q52 0 98 19t76 46l7 -38q-56 -45 -127 -56q-43 -43 -61 -70t-18 -56q0 -26 17 -42t43 -16q37 0 62 27l14 -24q-35 -33 -85 -33q-36 0 -61 22.5t-25 59.5q0 55 77 128h-18q-102 0 -167.5 70t-65.5 178
q0 105 64.5 173.5t160.5 68.5q103 0 160 -65t57 -159zM99 262h365q-2 82 -50.5 132t-128.5 50q-84 0 -134 -59t-52 -123z" />
    <glyph glyph-name="Ecaron" unicode="&#x11a;" horiz-adv-x="539" 
d="M101 0v708h365l-10 -37h-315v-286h301l-10 -35h-291v-313h340l-11 -37h-369zM264 763l-106 144h38l91 -124l90 124h38l-105 -144h-46z" />
    <glyph glyph-name="ecaron" unicode="&#x11b;" horiz-adv-x="562" 
d="M293 -13q-102 0 -167.5 70t-65.5 178q0 105 64.5 173.5t160.5 68.5q103 0 160 -65t57 -159q0 -15 -1 -23h-404q2 -88 56.5 -149t140.5 -61q52 0 98 19t76 46l7 -38q-75 -60 -182 -60zM99 262h365q-2 82 -50.5 132t-128.5 50q-84 0 -134 -59t-52 -123zM266 564l-106 144
h38l91 -124l90 124h38l-105 -144h-46z" />
    <glyph glyph-name="Gcircumflex" unicode="&#x11c;" horiz-adv-x="790" 
d="M439 -19q-165 0 -269 106.5t-104 267.5q0 162 104 267t266 105q70 0 136 -20.5t110 -53.5l-12 -37q-99 75 -234 75q-146 0 -236.5 -97t-90.5 -239q0 -143 90.5 -240.5t241.5 -97.5q122 0 215 48v258h-177l11 34h206v-313q-108 -63 -257 -63zM305 764l106 144h46l105 -144
h-38l-90 124l-91 -124h-38z" />
    <glyph glyph-name="gcircumflex" unicode="&#x11d;" horiz-adv-x="629" 
d="M289 -247q-113 0 -200 56l9 39q89 -61 189 -61q108 0 157 58t49 157v111h-2q-26 -58 -80.5 -90.5t-116.5 -32.5q-103 0 -168.5 68.5t-65.5 173.5q0 104 65.5 174.5t168.5 70.5q61 0 114.5 -32.5t82.5 -91.5h2q0 48 5 110h36q-3 -51 -3 -102v-361q0 -110 -57.5 -178.5
t-184.5 -68.5zM296 23q85 0 141.5 61t56.5 149q0 87 -56.5 148.5t-141.5 61.5q-88 0 -142 -61.5t-54 -149.5q0 -87 54 -148t142 -61zM179 564l106 144h46l105 -144h-38l-90 124l-91 -124h-38z" />
    <glyph glyph-name="Gbreve" unicode="&#x11e;" horiz-adv-x="790" 
d="M439 -19q-165 0 -269 106.5t-104 267.5q0 162 104 267t266 105q70 0 136 -20.5t110 -53.5l-12 -37q-99 75 -234 75q-146 0 -236.5 -97t-90.5 -239q0 -143 90.5 -240.5t241.5 -97.5q122 0 215 48v258h-177l11 34h206v-313q-108 -63 -257 -63zM433 773q-55 0 -90.5 33.5
t-41.5 94.5h27q9 -46 37 -71t68 -25q86 0 106 96h28q-8 -61 -44 -94.5t-90 -33.5z" />
    <glyph glyph-name="gbreve" unicode="&#x11f;" horiz-adv-x="629" 
d="M289 -247q-113 0 -200 56l9 39q89 -61 189 -61q108 0 157 58t49 157v111h-2q-26 -58 -80.5 -90.5t-116.5 -32.5q-103 0 -168.5 68.5t-65.5 173.5q0 104 65.5 174.5t168.5 70.5q61 0 114.5 -32.5t82.5 -91.5h2q0 48 5 110h36q-3 -51 -3 -102v-361q0 -110 -57.5 -178.5
t-184.5 -68.5zM296 23q85 0 141.5 61t56.5 149q0 87 -56.5 148.5t-141.5 61.5q-88 0 -142 -61.5t-54 -149.5q0 -87 54 -148t142 -61zM307 573q-55 0 -90.5 33.5t-41.5 94.5h27q9 -46 37 -71t68 -25q86 0 106 96h28q-8 -61 -44 -94.5t-90 -33.5z" />
    <glyph glyph-name="Gdotaccent" unicode="&#x120;" horiz-adv-x="790" 
d="M439 -19q-165 0 -269 106.5t-104 267.5q0 162 104 267t266 105q70 0 136 -20.5t110 -53.5l-12 -37q-99 75 -234 75q-146 0 -236.5 -97t-90.5 -239q0 -143 90.5 -240.5t241.5 -97.5q122 0 215 48v258h-177l11 34h206v-313q-108 -63 -257 -63zM431 822q-13 0 -23 9.5
t-10 24.5q0 13 10 23t23 10q12 0 22 -9.5t10 -23.5q0 -15 -10 -24.5t-22 -9.5z" />
    <glyph glyph-name="gdotaccent" unicode="&#x121;" horiz-adv-x="629" 
d="M289 -247q-113 0 -200 56l9 39q89 -61 189 -61q108 0 157 58t49 157v111h-2q-26 -58 -80.5 -90.5t-116.5 -32.5q-103 0 -168.5 68.5t-65.5 173.5q0 104 65.5 174.5t168.5 70.5q61 0 114.5 -32.5t82.5 -91.5h2q0 48 5 110h36q-3 -51 -3 -102v-361q0 -110 -57.5 -178.5
t-184.5 -68.5zM296 23q85 0 141.5 61t56.5 149q0 87 -56.5 148.5t-141.5 61.5q-88 0 -142 -61.5t-54 -149.5q0 -87 54 -148t142 -61zM306 622q-13 0 -23 9.5t-10 24.5q0 14 10 23.5t23 9.5q12 0 22 -9.5t10 -23.5q0 -15 -10 -24.5t-22 -9.5z" />
    <glyph glyph-name="Gcommaaccent" unicode="&#x122;" horiz-adv-x="790" 
d="M439 -19q-165 0 -269 106.5t-104 267.5q0 162 104 267t266 105q70 0 136 -20.5t110 -53.5l-12 -37q-99 75 -234 75q-146 0 -236.5 -97t-90.5 -239q0 -143 90.5 -240.5t241.5 -97.5q122 0 215 48v258h-177l11 34h206v-313q-108 -63 -257 -63zM372 -228l54 185h42l-65 -185
h-31z" />
    <glyph glyph-name="gcommaaccent" unicode="&#x123;" horiz-adv-x="629" 
d="M289 -247q-113 0 -200 56l9 39q89 -61 189 -61q108 0 157 58t49 157v111h-2q-26 -58 -80.5 -90.5t-116.5 -32.5q-103 0 -168.5 68.5t-65.5 173.5q0 104 65.5 174.5t168.5 70.5q61 0 114.5 -32.5t82.5 -91.5h2q0 48 5 110h36q-3 -51 -3 -102v-361q0 -110 -57.5 -178.5
t-184.5 -68.5zM296 23q85 0 141.5 61t56.5 149q0 87 -56.5 148.5t-141.5 61.5q-88 0 -142 -61.5t-54 -149.5q0 -87 54 -148t142 -61zM277 564l64 185h32l-55 -185h-41z" />
    <glyph glyph-name="Hcircumflex" unicode="&#x124;" horiz-adv-x="747" 
d="M101 0v708h41v-323h465v323h40v-708h-40v349h-465v-349h-41zM236 764l106 144h46l105 -144h-38l-90 124l-91 -124h-38z" />
    <glyph glyph-name="hcircumflex" unicode="&#x125;" horiz-adv-x="574" 
d="M98 0v753l39 7v-403h2q20 55 68 87.5t105 32.5q88 0 129 -55t41 -140v-282h-39v271q0 73 -31.5 122.5t-106.5 49.5q-72 0 -120 -58.5t-48 -164.5v-220h-39zM154 791l106 144h46l105 -144h-38l-90 124l-91 -124h-38z" />
    <glyph glyph-name="Hbar" unicode="&#x126;" horiz-adv-x="748" 
d="M101 0v708h41v-179h465v179h40v-708h-40v349h-465v-349h-41zM142 385h465v115h-465v-115z" />
    <glyph glyph-name="hbar" unicode="&#x127;" horiz-adv-x="574" 
d="M98 0v570h-66v29h66v157h39v-157h194v-29h-194v-213h2q20 55 68 87.5t105 32.5q88 0 129 -55t41 -140v-282h-39v271q0 73 -31.5 122.5t-106.5 49.5q-71 0 -119.5 -56t-48.5 -153v-234h-39z" />
    <glyph glyph-name="Itilde" unicode="&#x128;" horiz-adv-x="244" 
d="M101 0v708h41v-708h-41zM187 790q-27 0 -66 23q-39 24 -62 24q-33 0 -43 -50h-26q5 37 23 59.5t45 22.5t68 -24q40 -24 61 -24q35 0 43 49h26q-11 -80 -69 -80z" />
    <glyph glyph-name="itilde" unicode="&#x129;" horiz-adv-x="234" 
d="M98 0v463h39v-463h-39zM-14 587q5 37 23 59.5t45 22.5q28 0 68 -24t61 -24q35 0 43 49h26q-11 -80 -69 -80q-28 0 -66 24q-39 24 -62 24q-33 0 -43 -51h-26z" />
    <glyph glyph-name="Imacron" unicode="&#x12a;" horiz-adv-x="244" 
d="M101 0v708h41v-708h-41zM0 815v31h246v-31h-246z" />
    <glyph glyph-name="imacron" unicode="&#x12b;" horiz-adv-x="234" 
d="M98 0v463h39v-463h-39zM-4 615v31h246v-31h-246z" />
    <glyph glyph-name="Ibreve" unicode="&#x12c;" horiz-adv-x="244" 
d="M101 0v708h41v-708h-41zM121 773q-55 0 -90.5 33.5t-41.5 94.5h27q9 -46 37 -71t68 -25q86 0 106 96h28q-8 -61 -44 -94.5t-90 -33.5z" />
    <glyph glyph-name="ibreve" unicode="&#x12d;" horiz-adv-x="234" 
d="M98 0v463h39v-463h-39zM117 573q-55 0 -90.5 33.5t-41.5 94.5h27q9 -46 37 -71t68 -25q86 0 106 96h28q-8 -61 -44 -94.5t-90 -33.5z" />
    <glyph glyph-name="Iogonek" unicode="&#x12e;" horiz-adv-x="244" 
d="M176 -166l14 -24q-35 -33 -85 -33q-37 0 -62 22.5t-25 59.5q0 36 24 68.5t68 72.5h-9v708h41v-708q-48 -47 -68 -76t-20 -59q0 -26 17 -42t43 -16q37 0 62 27z" />
    <glyph glyph-name="iogonek" unicode="&#x12f;" horiz-adv-x="234" 
d="M118 622q-13 0 -23 9.5t-10 24.5q0 14 10 23.5t23 9.5q12 0 21.5 -9.5t9.5 -23.5q0 -15 -9 -24.5t-22 -9.5zM171 -166l14 -24q-36 -33 -85 -33q-37 0 -62 22.5t-25 59.5q0 36 24 68.5t68 72.5h-7v463h39v-463q-48 -47 -68 -76t-20 -59q0 -26 16.5 -42t42.5 -16
q38 0 63 27z" />
    <glyph glyph-name="Idot" unicode="&#x130;" horiz-adv-x="244" 
d="M101 0v708h41v-708h-41zM123 822q-13 0 -23 9.5t-10 24.5q0 13 10 23t23 10q12 0 22 -9.5t10 -23.5q0 -15 -10 -24.5t-22 -9.5z" />
    <glyph glyph-name="dotlessi" unicode="&#x131;" horiz-adv-x="234" 
d="M98 0v463h39v-463h-39z" />
    <glyph glyph-name="IJ" unicode="&#x132;" horiz-adv-x="608" 
d="M101 0v708h41v-708h-41zM260 27q28 -9 63 -9q77 0 112.5 50t35.5 133v507h40v-511q0 -96 -46 -155.5t-139 -59.5q-32 0 -59 6z" />
    <glyph glyph-name="ij" unicode="&#x133;" horiz-adv-x="471" 
d="M118 622q-13 0 -23 9.5t-10 24.5q0 14 10 23.5t23 9.5q12 0 21.5 -9.5t9.5 -23.5q0 -15 -9 -24.5t-22 -9.5zM98 0v463h39v-463h-39zM353 622q-13 0 -23 9.5t-10 24.5q0 14 10 23.5t23 9.5t22.5 -9.5t9.5 -23.5q0 -15 -9.5 -24.5t-22.5 -9.5zM250 -208q48 0 65.5 24.5
t17.5 91.5v555h39v-557q0 -70 -24 -107t-87 -40z" />
    <glyph glyph-name="Jcircumflex" unicode="&#x134;" horiz-adv-x="375" 
d="M27 27q29 -9 63 -9q77 0 112.5 50t35.5 133v507h40v-511q0 -96 -46 -155.5t-139 -59.5q-32 0 -59 6zM119 764l106 144h46l105 -144h-38l-90 124l-91 -124h-38z" />
    <glyph glyph-name="jcircumflex" unicode="&#x135;" horiz-adv-x="235" 
d="M17 -241q-19 0 -37 5l6 33q17 -5 30 -5q27 0 44.5 9t25 27.5t10 36t2.5 43.5v555h39v-557q0 -73 -26 -110t-94 -37zM-12 564l106 144h46l105 -144h-38l-90 124l-91 -124h-38z" />
    <glyph glyph-name="Kcommaaccent" unicode="&#x136;" horiz-adv-x="587" 
d="M101 0v708h41v-344l349 344h58l-358 -346l376 -362h-58l-367 358v-358h-41zM250 -230l54 185h42l-65 -185h-31z" />
    <glyph glyph-name="kcommaaccent" unicode="&#x137;" horiz-adv-x="468" 
d="M98 0v752l39 8v-508h2l230 211h55l-240 -213l265 -250h-56l-254 244h-2v-244h-39zM192 -230l54 185h42l-65 -185h-31z" />
    <glyph glyph-name="kgreenlandic" unicode="&#x138;" horiz-adv-x="468" 
d="M449 0h-56l-254 244h-2v-244h-39v463h39v-211h2l230 211h55l-240 -213z" />
    <glyph glyph-name="Lacute" unicode="&#x139;" horiz-adv-x="503" 
d="M101 0v708h41v-671h326l-10 -37h-357zM104 727l102 144h49l-117 -144h-34z" />
    <glyph glyph-name="lacute" unicode="&#x13a;" horiz-adv-x="236" 
d="M164 -9q-66 17 -66 93v666l39 9v-664q0 -31 9 -45t32 -23zM102 775l102 144h49l-117 -144h-34z" />
    <glyph glyph-name="Lcommaaccent" unicode="&#x13b;" horiz-adv-x="503" 
d="M101 0v708h41v-671h326l-10 -37h-357zM222 -230l54 185h42l-65 -185h-31z" />
    <glyph glyph-name="lcommaaccent" unicode="&#x13c;" horiz-adv-x="236" 
d="M164 -9q-66 17 -66 93v666l39 9v-664q0 -31 9 -45t32 -23zM66 -230l54 185h42l-65 -185h-31z" />
    <glyph glyph-name="Lcaron" unicode="&#x13d;" horiz-adv-x="503" 
d="M101 0v708h41v-671h326l-10 -37h-357zM257 524l54 185h42l-65 -185h-31z" />
    <glyph glyph-name="lcaron" unicode="&#x13e;" horiz-adv-x="264" 
d="M164 -9q-66 17 -66 93v666l39 9v-664q0 -31 9 -45t32 -23zM193 523l55 185h40l-64 -185h-31z" />
    <glyph glyph-name="Ldot" unicode="&#x13f;" horiz-adv-x="503" 
d="M101 0v708h41v-671h326l-10 -37h-357zM300 271q-13 0 -23 9.5t-10 24.5q0 14 10 23.5t23 9.5q12 0 22 -9.5t10 -23.5q0 -15 -10 -24.5t-22 -9.5z" />
    <glyph glyph-name="ldot" unicode="&#x140;" horiz-adv-x="268" 
d="M164 -9q-66 17 -66 93v666l39 9v-664q0 -31 9 -45t32 -23zM222 314q-13 0 -23 9.5t-10 24.5q0 14 10 23.5t23 9.5q12 0 22 -9.5t10 -23.5q0 -15 -10 -24.5t-22 -9.5z" />
    <glyph glyph-name="Lslash" unicode="&#x141;" horiz-adv-x="503" 
d="M101 0v251l-70 -63v43l70 63v414h41v-384l210 185v-41l-210 -187v-244h344l-10 -37h-375z" />
    <glyph glyph-name="lslash" unicode="&#x142;" horiz-adv-x="236" 
d="M215 452l-78 -72v-285q0 -31 9 -45t32 -23l-14 -36q-66 17 -66 93v263l-67 -64v45l67 63v359l39 9v-336l78 71v-42z" />
    <glyph glyph-name="Nacute" unicode="&#x143;" horiz-adv-x="773" 
d="M101 0v708h54l474 -652h2v652h41v-708h-53l-475 654h-2v-654h-41zM359 764l102 144h49l-117 -144h-34z" />
    <glyph glyph-name="nacute" unicode="&#x144;" horiz-adv-x="576" 
d="M99 0v351q0 76 -4 112h37q5 -62 5 -107h2q20 55 67.5 88t104.5 33q88 0 130.5 -55.5t42.5 -139.5v-282h-39v271q0 33 -6.5 61.5t-21.5 54.5t-43 41t-67 15q-71 0 -119.5 -56t-48.5 -153v-234h-40zM259 564l102 144h50l-118 -144h-34z" />
    <glyph glyph-name="Ncommaaccent" unicode="&#x145;" horiz-adv-x="773" 
d="M101 0v708h54l474 -652h2v652h41v-708h-53l-475 654h-2v-654h-41zM315 -230l54 185h42l-65 -185h-31z" />
    <glyph glyph-name="ncommaaccent" unicode="&#x146;" horiz-adv-x="576" 
d="M99 0v351q0 76 -4 112h37q5 -62 5 -107h2q20 55 67.5 88t104.5 33q88 0 130.5 -55.5t42.5 -139.5v-282h-39v271q0 33 -6.5 61.5t-21.5 54.5t-43 41t-67 15q-71 0 -119.5 -56t-48.5 -153v-234h-40zM228 -231l54 185h42l-65 -185h-31z" />
    <glyph glyph-name="Ncaron" unicode="&#x147;" horiz-adv-x="773" 
d="M101 0v708h54l474 -652h2v652h41v-708h-53l-475 654h-2v-654h-41zM365 764l-106 144h38l91 -124l90 124h38l-105 -144h-46z" />
    <glyph glyph-name="ncaron" unicode="&#x148;" horiz-adv-x="576" 
d="M99 0v351q0 76 -4 112h37q5 -62 5 -107h2q20 55 67.5 88t104.5 33q88 0 130.5 -55.5t42.5 -139.5v-282h-39v271q0 33 -6.5 61.5t-21.5 54.5t-43 41t-67 15q-71 0 -119.5 -56t-48.5 -153v-234h-40zM271 564l-106 144h38l91 -124l90 124h38l-105 -144h-46z" />
    <glyph glyph-name="napostrophe" unicode="&#x149;" horiz-adv-x="578" 
d="M101 0v351q0 76 -4 112h37q5 -62 5 -107h2q20 55 67.5 88t104.5 33q88 0 130.5 -55.5t42.5 -139.5v-282h-39v271q0 33 -6.5 61.5t-21.5 54.5t-43 41t-67 15q-71 0 -119.5 -56t-48.5 -153v-234h-40zM31 538l56 185h40l-64 -185h-32z" />
    <glyph glyph-name="Eng" unicode="&#x14a;" horiz-adv-x="773" 
d="M101 708h54l474 -643h2v643h41v-802q0 -73 -26 -110t-95 -37q-18 0 -38 5l7 33q18 -5 31 -5q27 0 44 9t24.5 27.5t10 36t2.5 43.5v82l-488 664h-2v-654h-41v708z" />
    <glyph glyph-name="eng" unicode="&#x14b;" horiz-adv-x="576" 
d="M363 -241q-20 0 -37 5l6 33q17 -5 30 -5q51 0 67 30.5t16 85.5v363q0 33 -6.5 61.5t-21.5 54.5t-43 41t-67 15q-71 0 -119.5 -56t-48.5 -153v-234h-40v352q0 75 -4 111h37q5 -62 5 -107h2q20 55 68.5 88t105.5 33q88 0 129.5 -55t41.5 -140v-376q0 -73 -26.5 -110
t-94.5 -37z" />
    <glyph glyph-name="Omacron" unicode="&#x14c;" horiz-adv-x="865" 
d="M433 -19q-158 0 -262.5 105.5t-104.5 267.5t104 267.5t263 105.5q158 0 261.5 -105.5t103.5 -267.5t-104 -267.5t-261 -105.5zM433 18q143 0 233 97t90 239t-90.5 239.5t-232.5 97.5q-143 0 -233.5 -97.5t-90.5 -239.5t90 -239t234 -97zM312 815v31h246v-31h-246z" />
    <glyph glyph-name="omacron" unicode="&#x14d;" horiz-adv-x="608" 
d="M303 -13q-106 0 -174.5 69t-68.5 176t68.5 176t174.5 69q107 0 176 -69t69 -176t-69 -176t-176 -69zM303 20q92 0 148 61t56 151t-56 150.5t-148 60.5t-147.5 -60.5t-55.5 -150.5t55.5 -151t147.5 -61zM181 615v31h246v-31h-246z" />
    <glyph glyph-name="Obreve" unicode="&#x14e;" horiz-adv-x="865" 
d="M433 -19q-158 0 -262.5 105.5t-104.5 267.5t104 267.5t263 105.5q158 0 261.5 -105.5t103.5 -267.5t-104 -267.5t-261 -105.5zM433 18q143 0 233 97t90 239t-90.5 239.5t-232.5 97.5q-143 0 -233.5 -97.5t-90.5 -239.5t90 -239t234 -97zM432 773q-55 0 -90.5 33.5
t-41.5 94.5h27q9 -46 37 -71t68 -25q86 0 106 96h28q-8 -61 -44 -94.5t-90 -33.5z" />
    <glyph glyph-name="obreve" unicode="&#x14f;" horiz-adv-x="608" 
d="M303 -13q-106 0 -174.5 69t-68.5 176t68.5 176t174.5 69q107 0 176 -69t69 -176t-69 -176t-176 -69zM303 20q92 0 148 61t56 151t-56 150.5t-148 60.5t-147.5 -60.5t-55.5 -150.5t55.5 -151t147.5 -61zM304 573q-55 0 -90.5 33.5t-41.5 94.5h27q9 -46 37 -71t68 -25
q86 0 106 96h28q-8 -61 -44 -94.5t-90 -33.5z" />
    <glyph glyph-name="Ohungarumlaut" unicode="&#x150;" horiz-adv-x="865" 
d="M433 -19q-158 0 -262.5 105.5t-104.5 267.5t104 267.5t263 105.5q158 0 261.5 -105.5t103.5 -267.5t-104 -267.5t-261 -105.5zM433 18q143 0 233 97t90 239t-90.5 239.5t-232.5 97.5q-143 0 -233.5 -97.5t-90.5 -239.5t90 -239t234 -97zM346 763l102 145h50l-118 -145
h-34zM482 763l103 145h50l-119 -145h-34z" />
    <glyph glyph-name="ohungarumlaut" unicode="&#x151;" horiz-adv-x="608" 
d="M303 -13q-106 0 -174.5 69t-68.5 176t68.5 176t174.5 69q107 0 176 -69t69 -176t-69 -176t-176 -69zM303 20q92 0 148 61t56 151t-56 150.5t-148 60.5t-147.5 -60.5t-55.5 -150.5t55.5 -151t147.5 -61zM217 566l102 145h50l-118 -145h-34zM353 566l103 145h50l-119 -145
h-34z" />
    <glyph glyph-name="OE" unicode="&#x152;" horiz-adv-x="998" 
d="M457 0q-107 0 -192 36.5t-139.5 118.5t-54.5 199q0 88 31 157t84.5 111.5t122.5 64t148 21.5h468l-10 -37h-345v-286h323l-10 -35h-313v-313h370l-10 -37h-473zM466 37h64v634h-64q-160 0 -256 -83t-96 -234t96 -234t256 -83z" />
    <glyph glyph-name="oe" unicode="&#x153;" horiz-adv-x="1005" 
d="M303 -13q-107 0 -175 69t-68 176t68 176t175 69q78 0 136.5 -39t84.5 -105q26 66 80.5 105t124.5 39q103 0 160 -66t57 -159v-24h-402q0 -84 52 -146t142 -62q102 0 175 60l8 -36q-75 -57 -184 -57q-75 0 -131 39t-81 106q-26 -68 -84.5 -106.5t-137.5 -38.5zM545 260
h362q-2 83 -50.5 133.5t-128.5 50.5q-44 0 -80 -18.5t-57.5 -47t-33 -59.5t-12.5 -59zM303 20q92 0 148 61t56 151t-56 150.5t-148 60.5t-148 -60.5t-56 -150.5t56 -151t148 -61z" />
    <glyph glyph-name="Racute" unicode="&#x154;" horiz-adv-x="598" 
d="M101 0v708h186q47 0 85.5 -8.5t72 -28t52.5 -56t19 -87.5q0 -83 -50.5 -134t-119.5 -65l200 -329h-47l-192 322h-165v-322h-41zM142 357h144q86 0 138 47.5t52 123.5q0 146 -200 146h-134v-317zM227 766l102 144h49l-117 -144h-34z" />
    <glyph glyph-name="racute" unicode="&#x155;" horiz-adv-x="331" 
d="M99 0v351q0 76 -4 112h37q5 -43 5 -107h2q18 58 58 89.5t82 31.5q26 0 50 -8l-10 -36q-18 8 -42 8q-62 0 -100 -61t-38 -151v-229h-40zM122 564l102 144h50l-118 -144h-34z" />
    <glyph glyph-name="Rcommaaccent" unicode="&#x156;" horiz-adv-x="598" 
d="M101 0v708h186q47 0 85.5 -8.5t72 -28t52.5 -56t19 -87.5q0 -83 -50.5 -134t-119.5 -65l200 -329h-47l-192 322h-165v-322h-41zM142 357h144q86 0 138 47.5t52 123.5q0 146 -200 146h-134v-317zM229 -230l54 185h42l-65 -185h-31z" />
    <glyph glyph-name="rcommaaccent" unicode="&#x157;" horiz-adv-x="331" 
d="M99 0v351q0 76 -4 112h37q5 -43 5 -107h2q18 58 58 89.5t82 31.5q26 0 50 -8l-10 -36q-18 8 -42 8q-62 0 -100 -61t-38 -151v-229h-40zM60 -230l54 185h42l-65 -185h-31z" />
    <glyph glyph-name="Rcaron" unicode="&#x158;" horiz-adv-x="598" 
d="M101 0v708h186q47 0 85.5 -8.5t72 -28t52.5 -56t19 -87.5q0 -83 -50.5 -134t-119.5 -65l200 -329h-47l-192 322h-165v-322h-41zM142 357h144q86 0 138 47.5t52 123.5q0 146 -200 146h-134v-317zM259 760l-106 144h38l91 -124l90 124h38l-105 -144h-46z" />
    <glyph glyph-name="rcaron" unicode="&#x159;" horiz-adv-x="331" 
d="M99 0v351q0 76 -4 112h37q5 -43 5 -107h2q18 58 58 89.5t82 31.5q26 0 50 -8l-10 -36q-18 8 -42 8q-62 0 -100 -61t-38 -151v-229h-40zM179 564l-106 144h38l91 -124l90 124h38l-105 -144h-46z" />
    <glyph glyph-name="Sacute" unicode="&#x15a;" horiz-adv-x="569" 
d="M280 -19q-58 0 -117.5 21.5t-93.5 53.5l10 40q37 -37 91.5 -58t109.5 -21q74 0 127 42.5t53 114.5q0 36 -13 62.5t-44 46t-52.5 29t-68.5 25.5q-39 14 -60.5 22.5t-53 26.5t-48 36.5t-29 48.5t-12.5 67q0 89 65 139t156 50q108 0 187 -60l-12 -40q-31 27 -78 46t-97 19
q-72 0 -126.5 -40.5t-54.5 -112.5q0 -30 10.5 -54t24.5 -39.5t41.5 -30.5t46 -22l54.5 -20q42 -15 61.5 -22.5t52.5 -25t49 -35.5t29 -47.5t13 -66.5q0 -92 -64.5 -143.5t-156.5 -51.5zM256 764l102 144h49l-117 -144h-34z" />
    <glyph glyph-name="sacute" unicode="&#x15b;" horiz-adv-x="425" 
d="M222 -12q-102 0 -163 52l9 38q62 -57 156 -57q44 0 77 25.5t33 70.5q0 38 -32 61.5t-102 46.5q-69 23 -100.5 51t-31.5 80q0 57 44 89t104 32q80 0 141 -48l-19 -32q-55 47 -123 47q-47 0 -78 -22t-31 -65q0 -38 28 -59t96 -45q75 -25 108.5 -55.5t33.5 -80.5
q0 -59 -45 -94t-105 -35zM182 564l102 144h50l-118 -144h-34z" />
    <glyph glyph-name="Scircumflex" unicode="&#x15c;" horiz-adv-x="569" 
d="M280 -19q-58 0 -117.5 21.5t-93.5 53.5l10 40q37 -37 91.5 -58t109.5 -21q74 0 127 42.5t53 114.5q0 36 -13 62.5t-44 46t-52.5 29t-68.5 25.5q-39 14 -60.5 22.5t-53 26.5t-48 36.5t-29 48.5t-12.5 67q0 89 65 139t156 50q108 0 187 -60l-12 -40q-31 27 -78 46t-97 19
q-72 0 -126.5 -40.5t-54.5 -112.5q0 -30 10.5 -54t24.5 -39.5t41.5 -30.5t46 -22l54.5 -20q42 -15 61.5 -22.5t52.5 -25t49 -35.5t29 -47.5t13 -66.5q0 -92 -64.5 -143.5t-156.5 -51.5zM171 764l106 144h46l105 -144h-38l-90 124l-91 -124h-38z" />
    <glyph glyph-name="scircumflex" unicode="&#x15d;" horiz-adv-x="425" 
d="M222 -12q-102 0 -163 52l9 38q62 -57 156 -57q44 0 77 25.5t33 70.5q0 38 -32 61.5t-102 46.5q-69 23 -100.5 51t-31.5 80q0 57 44 89t104 32q80 0 141 -48l-19 -32q-55 47 -123 47q-47 0 -78 -22t-31 -65q0 -38 28 -59t96 -45q75 -25 108.5 -55.5t33.5 -80.5
q0 -59 -45 -94t-105 -35zM88 564l106 144h46l105 -144h-38l-90 124l-91 -124h-38z" />
    <glyph glyph-name="Scedilla" unicode="&#x15e;" horiz-adv-x="569" 
d="M501 176q0 -87 -58.5 -138t-144.5 -56l-43 -64q24 6 47 6q35 0 60.5 -17t25.5 -52q0 -44 -35.5 -63t-79.5 -19q-47 0 -92 20l9 24q35 -17 82 -17q32 0 56.5 12.5t24.5 42.5q0 47 -65 47q-37 0 -61 -13l-13 11l54 81q-55 2 -110.5 23.5t-88.5 51.5l10 40q37 -37 91.5 -58
t109.5 -21q74 0 127 42.5t53 114.5q0 36 -13 62.5t-44 46t-52.5 29t-68.5 25.5q-39 14 -60.5 22.5t-53 26.5t-48 36.5t-29 48.5t-12.5 67q0 89 65 139t156 50q108 0 187 -60l-12 -40q-31 27 -78 46t-97 19q-72 0 -126.5 -40.5t-54.5 -112.5q0 -30 10.5 -54t24.5 -39.5
t41.5 -30.5t46 -22l54.5 -20q42 -15 61.5 -22.5t52.5 -25t49 -35.5t29 -47.5t13 -66.5z" />
    <glyph glyph-name="scedilla" unicode="&#x15f;" horiz-adv-x="425" 
d="M372 117q0 -58 -44 -93t-103 -36l-46 -70q23 6 47 6q35 0 60 -17t25 -52q0 -44 -35 -63t-79 -19q-47 0 -92 20l8 24q35 -17 82 -17q32 0 57 12.5t25 42.5q0 47 -66 47q-36 0 -60 -13l-14 11l60 89q-85 7 -138 51l9 38q62 -57 156 -57q44 0 77 25.5t33 70.5q0 38 -32 61.5
t-102 46.5q-69 23 -100.5 51t-31.5 80q0 57 44 89t104 32q80 0 141 -48l-19 -32q-55 47 -123 47q-47 0 -78 -22t-31 -65q0 -38 28 -59t96 -45q75 -25 108.5 -55.5t33.5 -80.5z" />
    <glyph glyph-name="Scaron" unicode="&#x160;" horiz-adv-x="569" 
d="M280 -19q-58 0 -117.5 21.5t-93.5 53.5l10 40q37 -37 91.5 -58t109.5 -21q74 0 127 42.5t53 114.5q0 36 -13 62.5t-44 46t-52.5 29t-68.5 25.5q-39 14 -60.5 22.5t-53 26.5t-48 36.5t-29 48.5t-12.5 67q0 89 65 139t156 50q108 0 187 -60l-12 -40q-31 27 -78 46t-97 19
q-72 0 -126.5 -40.5t-54.5 -112.5q0 -30 10.5 -54t24.5 -39.5t41.5 -30.5t46 -22l54.5 -20q42 -15 61.5 -22.5t52.5 -25t49 -35.5t29 -47.5t13 -66.5q0 -92 -64.5 -143.5t-156.5 -51.5zM273 764l-106 144h38l91 -124l90 124h38l-105 -144h-46z" />
    <glyph glyph-name="scaron" unicode="&#x161;" horiz-adv-x="425" 
d="M222 -12q-102 0 -163 52l9 38q62 -57 156 -57q44 0 77 25.5t33 70.5q0 38 -32 61.5t-102 46.5q-69 23 -100.5 51t-31.5 80q0 57 44 89t104 32q80 0 141 -48l-19 -32q-55 47 -123 47q-47 0 -78 -22t-31 -65q0 -38 28 -59t96 -45q75 -25 108.5 -55.5t33.5 -80.5
q0 -59 -45 -94t-105 -35zM194 564l-106 144h38l91 -124l90 124h38l-105 -144h-46z" />
    <glyph glyph-name="uni0162" unicode="&#x162;" horiz-adv-x="511" 
d="M235 0v671h-229l10 37h489l-10 -37h-220v-671h-40zM194 -230l54 185h42l-65 -185h-31z" />
    <glyph glyph-name="uni0163" unicode="&#x163;" horiz-adv-x="301" 
d="M194 -10q-44 0 -71.5 29.5t-27.5 83.5v328h-90l10 32h79v114l39 21v-135h133l-10 -32h-123v-321q0 -45 19.5 -65.5t50.5 -20.5q35 0 77 23l6 -32q-43 -25 -92 -25zM131 -230l54 185h42l-65 -185h-31z" />
    <glyph glyph-name="Tcaron" unicode="&#x164;" horiz-adv-x="511" 
d="M235 0v671h-229l10 37h489l-10 -37h-220v-671h-40zM233 764l-106 144h38l91 -124l90 124h38l-105 -144h-46z" />
    <glyph glyph-name="tcaron" unicode="&#x165;" horiz-adv-x="321" 
d="M194 -10q-44 0 -71.5 29.5t-27.5 83.5v328h-90l10 32h79v114l39 21v-135h133l-10 -32h-123v-321q0 -45 19.5 -65.5t50.5 -20.5q35 0 77 23l6 -32q-43 -25 -92 -25zM229 546l54 185h42l-65 -185h-31z" />
    <glyph glyph-name="Tbar" unicode="&#x166;" horiz-adv-x="511" 
d="M235 0v513h-171v29h171v129h-229l10 37h489l-10 -37h-220v-129h169v-29h-169v-513h-40z" />
    <glyph glyph-name="tbar" unicode="&#x167;" horiz-adv-x="310" 
d="M203 -10q-44 0 -71.5 29.5t-27.5 83.5v157h-71v28h71v143h-90l10 32h79v114l39 21v-135h133l-10 -32h-123v-143h121v-28h-121v-150q0 -45 19.5 -65.5t50.5 -20.5q35 0 77 23l6 -32q-43 -25 -92 -25z" />
    <glyph glyph-name="Utilde" unicode="&#x168;" horiz-adv-x="725" 
d="M363 -19q-73 0 -127 23.5t-84.5 64.5t-44.5 90.5t-14 107.5v441h41v-436q0 -37 5 -69.5t20.5 -68t40 -60.5t66.5 -41t97 -16q54 0 95.5 16t66 41t40.5 59.5t21.5 68t5.5 70.5v436h40v-441q0 -59 -14 -108t-44 -90t-84 -64.5t-127 -23.5zM428 790q-27 0 -66 23
q-39 24 -62 24q-33 0 -43 -50h-26q5 37 23 59.5t45 22.5t68 -24q40 -24 61 -24q35 0 43 49h26q-11 -80 -69 -80z" />
    <glyph glyph-name="utilde" unicode="&#x169;" horiz-adv-x="576" 
d="M261 -13q-88 0 -129 55t-41 140v281h39v-270q0 -46 10.5 -82.5t43 -64t83.5 -27.5q72 0 120.5 57.5t48.5 159.5v227h39v-351q0 -62 9 -112l-39 -1q-4 19 -10 108q-20 -55 -68.5 -87.5t-105.5 -32.5zM152 587q5 37 23 59.5t45 22.5q28 0 68 -24t61 -24q35 0 43 49h26
q-11 -80 -69 -80q-28 0 -66 24q-39 24 -62 24q-33 0 -43 -51h-26z" />
    <glyph glyph-name="Umacron" unicode="&#x16a;" horiz-adv-x="725" 
d="M363 -19q-73 0 -127 23.5t-84.5 64.5t-44.5 90.5t-14 107.5v441h41v-436q0 -37 5 -69.5t20.5 -68t40 -60.5t66.5 -41t97 -16q54 0 95.5 16t66 41t40.5 59.5t21.5 68t5.5 70.5v436h40v-441q0 -59 -14 -108t-44 -90t-84 -64.5t-127 -23.5zM242 815v31h246v-31h-246z" />
    <glyph glyph-name="umacron" unicode="&#x16b;" horiz-adv-x="576" 
d="M261 -13q-88 0 -129 55t-41 140v281h39v-270q0 -46 10.5 -82.5t43 -64t83.5 -27.5q72 0 120.5 57.5t48.5 159.5v227h39v-351q0 -62 9 -112l-39 -1q-4 19 -10 108q-20 -55 -68.5 -87.5t-105.5 -32.5zM159 615v31h246v-31h-246z" />
    <glyph glyph-name="Ubreve" unicode="&#x16c;" horiz-adv-x="725" 
d="M363 -19q-73 0 -127 23.5t-84.5 64.5t-44.5 90.5t-14 107.5v441h41v-436q0 -37 5 -69.5t20.5 -68t40 -60.5t66.5 -41t97 -16q54 0 95.5 16t66 41t40.5 59.5t21.5 68t5.5 70.5v436h40v-441q0 -59 -14 -108t-44 -90t-84 -64.5t-127 -23.5zM362 773q-55 0 -90.5 33.5
t-41.5 94.5h27q9 -46 37 -71t68 -25q86 0 106 96h28q-8 -61 -44 -94.5t-90 -33.5z" />
    <glyph glyph-name="ubreve" unicode="&#x16d;" horiz-adv-x="576" 
d="M261 -13q-88 0 -129 55t-41 140v281h39v-270q0 -46 10.5 -82.5t43 -64t83.5 -27.5q72 0 120.5 57.5t48.5 159.5v227h39v-351q0 -62 9 -112l-39 -1q-4 19 -10 108q-20 -55 -68.5 -87.5t-105.5 -32.5zM281 573q-55 0 -90.5 33.5t-41.5 94.5h27q9 -46 37 -71t68 -25
q86 0 106 96h28q-8 -61 -44 -94.5t-90 -33.5z" />
    <glyph glyph-name="Uring" unicode="&#x16e;" horiz-adv-x="725" 
d="M363 -19q-73 0 -127 23.5t-84.5 64.5t-44.5 90.5t-14 107.5v441h41v-436q0 -37 5 -69.5t20.5 -68t40 -60.5t66.5 -41t97 -16q54 0 95.5 16t66 41t40.5 59.5t21.5 68t5.5 70.5v436h40v-441q0 -59 -14 -108t-44 -90t-84 -64.5t-127 -23.5zM366 755q-40 0 -68.5 27.5
t-28.5 67.5t28.5 67.5t68.5 27.5q39 0 67.5 -27.5t28.5 -67.5t-28.5 -67.5t-67.5 -27.5zM366 778q30 0 50.5 21t20.5 51t-20.5 51t-50.5 21t-51 -21t-21 -51t21 -51t51 -21z" />
    <glyph glyph-name="uring" unicode="&#x16f;" horiz-adv-x="576" 
d="M261 -13q-88 0 -129 55t-41 140v281h39v-270q0 -46 10.5 -82.5t43 -64t83.5 -27.5q72 0 120.5 57.5t48.5 159.5v227h39v-351q0 -62 9 -112l-39 -1q-4 19 -10 108q-20 -55 -68.5 -87.5t-105.5 -32.5zM283 555q-40 0 -68.5 27.5t-28.5 67.5t28.5 68t68.5 28q39 0 67.5 -28
t28.5 -68t-28.5 -67.5t-67.5 -27.5zM283 579q30 0 50.5 20.5t20.5 50.5t-20.5 51t-50.5 21t-51 -21t-21 -51t21 -50.5t51 -20.5z" />
    <glyph glyph-name="Uhungarumlaut" unicode="&#x170;" horiz-adv-x="725" 
d="M363 -19q-73 0 -127 23.5t-84.5 64.5t-44.5 90.5t-14 107.5v441h41v-436q0 -37 5 -69.5t20.5 -68t40 -60.5t66.5 -41t97 -16q54 0 95.5 16t66 41t40.5 59.5t21.5 68t5.5 70.5v436h40v-441q0 -59 -14 -108t-44 -90t-84 -64.5t-127 -23.5zM273 763l102 145h50l-118 -145
h-34zM409 763l103 145h50l-119 -145h-34z" />
    <glyph glyph-name="uhungarumlaut" unicode="&#x171;" horiz-adv-x="576" 
d="M261 -13q-88 0 -129 55t-41 140v281h39v-270q0 -46 10.5 -82.5t43 -64t83.5 -27.5q72 0 120.5 57.5t48.5 159.5v227h39v-351q0 -62 9 -112l-39 -1q-4 19 -10 108q-20 -55 -68.5 -87.5t-105.5 -32.5zM171 566l102 145h50l-118 -145h-34zM307 566l103 145h50l-119 -145h-34
z" />
    <glyph glyph-name="Uogonek" unicode="&#x172;" horiz-adv-x="725" 
d="M592 708h40v-441q0 -54 -12 -100.5t-38 -86t-71.5 -65.5t-107.5 -32q-38 -38 -54.5 -64t-16.5 -54q0 -26 17 -42t43 -16q37 0 62 27l14 -24q-35 -33 -85 -33q-36 0 -61 22.5t-25 59.5q0 53 71 122h-5q-73 0 -127 23.5t-84.5 64.5t-44.5 90.5t-14 107.5v441h41v-436
q0 -37 5 -69.5t20.5 -68t40 -60.5t66.5 -41t97 -16q54 0 95.5 16t66 41t40.5 59.5t21.5 68t5.5 70.5v436z" />
    <glyph glyph-name="uogonek" unicode="&#x173;" horiz-adv-x="576" 
d="M514 -166l14 -24q-36 -33 -85 -33q-37 0 -62 22.5t-25 59.5q0 36 23.5 68t67.5 72h-2q-4 19 -10 108q-20 -55 -68.5 -87.5t-105.5 -32.5q-88 0 -129 55t-41 140v281h39v-270q0 -46 10.5 -82.5t43 -64t83.5 -27.5q72 0 120.5 57.5t48.5 159.5v227h39v-351q0 -62 9 -112h-4
q-48 -47 -68 -76t-20 -59q0 -26 16.5 -42t42.5 -16q38 0 63 27z" />
    <glyph glyph-name="Wcircumflex" unicode="&#x174;" horiz-adv-x="962" 
d="M234 0l-211 708h43l193 -660h3l191 660h53l196 -660h2l193 660h42l-211 -708h-52l-195 659h-2l-193 -659h-52zM351 764l106 144h46l105 -144h-38l-90 124l-91 -124h-38z" />
    <glyph glyph-name="wcircumflex" unicode="&#x175;" horiz-adv-x="717" 
d="M170 0l-139 463h41l122 -418h2l139 418h45l141 -418h2l121 418h41l-139 -463h-46l-142 416h-2l-140 -416h-46zM229 564l106 144h46l105 -144h-38l-90 124l-91 -124h-38z" />
    <glyph glyph-name="Ycircumflex" unicode="&#x176;" horiz-adv-x="561" 
d="M260 0v308l-251 400h50l222 -364l223 364h46l-249 -400v-308h-41zM153 764l106 144h46l105 -144h-38l-90 124l-91 -124h-38z" />
    <glyph glyph-name="ycircumflex" unicode="&#x177;" horiz-adv-x="450" 
d="M43 -204q53 1 83 19.5t48 66.5l41 112l-194 469h44l170 -423l151 423h42l-221 -598q-21 -56 -58.5 -80.5t-96.5 -24.5zM102 564l106 144h46l105 -144h-38l-90 124l-91 -124h-38z" />
    <glyph glyph-name="Ydieresis" unicode="&#x178;" horiz-adv-x="561" 
d="M260 0v308l-251 400h50l222 -364l223 364h46l-249 -400v-308h-41zM199 821q-14 0 -23.5 9.5t-9.5 24.5q0 14 10 24t23 10q14 0 23.5 -10t9.5 -24q0 -15 -9.5 -24.5t-23.5 -9.5zM366 821q-14 0 -23.5 9.5t-9.5 24.5q0 14 10 24t23 10q14 0 23.5 -10t9.5 -24
q0 -15 -9.5 -24.5t-23.5 -9.5z" />
    <glyph glyph-name="Zacute" unicode="&#x179;" horiz-adv-x="588" 
d="M47 0v40l439 631h-417v37h460v-41l-437 -630h468l-10 -37h-503zM267 764l102 144h49l-117 -144h-34z" />
    <glyph glyph-name="zacute" unicode="&#x17a;" horiz-adv-x="441" 
d="M43 0v31l297 400h-291l10 32h326v-32l-295 -398h314l-8 -33h-353zM176 564l102 144h50l-118 -144h-34z" />
    <glyph glyph-name="Zdotaccent" unicode="&#x17b;" horiz-adv-x="588" 
d="M47 0v40l439 631h-417v37h460v-41l-437 -630h468l-10 -37h-503zM300 822q-13 0 -23 9.5t-10 24.5q0 13 10 23t23 10q12 0 22 -9.5t10 -23.5q0 -15 -10 -24.5t-22 -9.5z" />
    <glyph glyph-name="zdotaccent" unicode="&#x17c;" horiz-adv-x="441" 
d="M43 0v31l297 400h-291l10 32h326v-32l-295 -398h314l-8 -33h-353zM224 622q-13 0 -23 9.5t-10 24.5q0 14 10 23.5t23 9.5q12 0 22 -9.5t10 -23.5q0 -15 -10 -24.5t-22 -9.5z" />
    <glyph glyph-name="Zcaron" unicode="&#x17d;" horiz-adv-x="588" 
d="M47 0v40l439 631h-417v37h460v-41l-437 -630h468l-10 -37h-503zM276 764l-106 144h38l91 -124l90 124h38l-105 -144h-46z" />
    <glyph glyph-name="zcaron" unicode="&#x17e;" horiz-adv-x="441" 
d="M43 0v31l297 400h-291l10 32h326v-32l-295 -398h314l-8 -33h-353zM198 564l-106 144h38l91 -124l90 124h38l-105 -144h-46z" />
    <glyph glyph-name="florin" unicode="&#x192;" horiz-adv-x="568" 
d="M90 -142q-41 0 -66 14l16 32q24 -12 50 -12q46 0 66.5 31.5t31.5 90.5l65 367h-110l10 31h107l28 162q27 146 138 146q48 0 76 -22l-19 -29q-25 17 -55 17q-80 0 -100 -113l-29 -161h126l-11 -31h-121l-72 -390q-12 -63 -41.5 -98t-89.5 -35z" />
    <glyph glyph-name="AEacute" unicode="&#x1fc;" horiz-adv-x="940" 
d="M17 0l458 708h392l-10 -37h-317v-286h293l-10 -35h-283v-313h342l-10 -37h-372v278h-256l-181 -278h-46zM265 313h235v358h-5zM582 764l102 144h49l-117 -144h-34z" />
    <glyph glyph-name="aeacute" unicode="&#x1fd;" horiz-adv-x="867" 
d="M224 -13q-66 0 -114 32t-48 98q0 144 270 144h60v36q0 72 -36 109.5t-101 37.5q-85 0 -152 -60l-13 34q64 59 168 59q69 0 110.5 -34t50.5 -89q27 57 74.5 90t109.5 33q92 0 148 -62.5t56 -162.5v-24h-378q0 -83 47 -145t133 -62q89 0 165 59l7 -36q-73 -57 -173 -57
q-69 0 -119.5 37.5t-74.5 103.5q-14 -64 -63.5 -102.5t-126.5 -38.5zM430 261h339q-2 82 -47.5 132.5t-118.5 50.5q-42 0 -76.5 -18.5t-54.5 -47.5t-31 -59t-11 -58zM229 19q83 0 123 48.5t40 120.5v41h-47q-40 0 -71 -2t-65 -9t-56 -18.5t-36.5 -32.5t-14.5 -50
q0 -52 37.5 -75t89.5 -23zM408 564l102 144h50l-118 -144h-34z" />
    <glyph glyph-name="Oslashacute" unicode="&#x1fe;" horiz-adv-x="865" 
d="M424 -19q-142 0 -241 85l-70 -80l-22 21l70 80q-103 101 -103 267q0 162 103.5 267.5t262.5 105.5q133 0 233 -79l70 80l22 -21l-69 -79q110 -105 110 -274q0 -162 -104.5 -267.5t-261.5 -105.5zM188 117l443 502q-86 72 -207 72q-143 0 -233.5 -97t-90.5 -240
q0 -144 88 -237zM424 17q144 0 233.5 97.5t89.5 239.5q0 149 -94 243l-443 -502q88 -78 214 -78zM385 764l102 144h49l-117 -144h-34z" />
    <glyph glyph-name="oslashacute" unicode="&#x1ff;" horiz-adv-x="608" 
d="M70 -18l-21 20l68 67q-57 67 -57 163q0 107 68 176t175 69q93 0 162 -56l61 61l21 -20l-62 -62q63 -66 63 -168q0 -107 -68.5 -176t-176.5 -69q-101 0 -166 63zM142 95l298 300q-53 50 -137 50q-93 0 -148.5 -61t-55.5 -151q0 -81 43 -138zM302 19q93 0 149.5 61.5
t56.5 151.5q0 89 -49 142l-298 -300q55 -55 141 -55zM268 564l102 144h50l-118 -144h-34z" />
    <glyph glyph-name="Scommaaccent" unicode="&#x218;" horiz-adv-x="569" 
d="M280 -19q-58 0 -117.5 21.5t-93.5 53.5l10 40q37 -37 91.5 -58t109.5 -21q74 0 127 42.5t53 114.5q0 36 -13 62.5t-44 46t-52.5 29t-68.5 25.5q-39 14 -60.5 22.5t-53 26.5t-48 36.5t-29 48.5t-12.5 67q0 89 65 139t156 50q108 0 187 -60l-12 -40q-31 27 -78 46t-97 19
q-72 0 -126.5 -40.5t-54.5 -112.5q0 -30 10.5 -54t24.5 -39.5t41.5 -30.5t46 -22l54.5 -20q42 -15 61.5 -22.5t52.5 -25t49 -35.5t29 -47.5t13 -66.5q0 -92 -64.5 -143.5t-156.5 -51.5zM227 -230l54 185h42l-65 -185h-31z" />
    <glyph glyph-name="scommaaccent" unicode="&#x219;" horiz-adv-x="425" 
d="M222 -12q-102 0 -163 52l9 38q62 -57 156 -57q44 0 77 25.5t33 70.5q0 38 -32 61.5t-102 46.5q-69 23 -100.5 51t-31.5 80q0 57 44 89t104 32q80 0 141 -48l-19 -32q-55 47 -123 47q-47 0 -78 -22t-31 -65q0 -38 28 -59t96 -45q75 -25 108.5 -55.5t33.5 -80.5
q0 -59 -45 -94t-105 -35zM149 -230l54 185h42l-65 -185h-31z" />
    <glyph glyph-name="uni021A" unicode="&#x21a;" horiz-adv-x="511" 
d="M235 0v671h-229l10 37h489l-10 -37h-220v-671h-40zM191 -230l54 185h42l-65 -185h-31z" />
    <glyph glyph-name="uni021B" unicode="&#x21b;" horiz-adv-x="310" 
d="M194 -10q-44 0 -71.5 29.5t-27.5 83.5v328h-90l10 32h79v114l39 21v-135h133l-10 -32h-123v-321q0 -45 19.5 -65.5t50.5 -20.5q35 0 77 23l6 -32q-43 -25 -92 -25zM131 -230l54 185h42l-65 -185h-31z" />
    <glyph glyph-name="uni0237" unicode="&#x237;" horiz-adv-x="235" 
d="M17 -241q-19 0 -37 5l6 33q17 -5 30 -5q27 0 44.5 9t25 27.5t10 36t2.5 43.5v555h39v-557q0 -73 -26 -110t-94 -37z" />
    <glyph glyph-name="circumflex" unicode="&#x2c6;" horiz-adv-x="241" 
d="M-8 564l106 144h46l105 -144h-38l-90 124l-91 -124h-38z" />
    <glyph glyph-name="caron" unicode="&#x2c7;" horiz-adv-x="241" 
d="M98 564l-106 144h38l91 -124l90 124h38l-105 -144h-46z" />
    <glyph glyph-name="uni02C9" unicode="&#x2c9;" horiz-adv-x="241" 
d="M-2 815v31h246v-31h-246z" />
    <glyph glyph-name="breve" unicode="&#x2d8;" horiz-adv-x="241" 
d="M120 573q-55 0 -90.5 33.5t-41.5 94.5h27q9 -46 37 -71t68 -25q86 0 106 96h28q-8 -61 -44 -94.5t-90 -33.5z" />
    <glyph glyph-name="dotaccent" unicode="&#x2d9;" horiz-adv-x="241" 
d="M121 622q-13 0 -23 9.5t-10 24.5q0 14 10 23.5t23 9.5q12 0 22 -9.5t10 -23.5q0 -15 -10 -24.5t-22 -9.5z" />
    <glyph glyph-name="ring" unicode="&#x2da;" horiz-adv-x="241" 
d="M121 555q-40 0 -68.5 27.5t-28.5 67.5t28.5 68t68.5 28q39 0 67.5 -28t28.5 -68t-28.5 -67.5t-67.5 -27.5zM121 579q30 0 50.5 20.5t20.5 50.5t-20.5 51t-50.5 21t-51 -21t-21 -51t21 -50.5t51 -20.5z" />
    <glyph glyph-name="ogonek" unicode="&#x2db;" horiz-adv-x="241" 
d="M123 -223q-37 0 -62 22.5t-25 59.5q0 36 24 68.5t68 72.5h32q-48 -47 -68 -76t-20 -59q0 -26 17 -42t43 -16q37 0 62 27l14 -24q-35 -33 -85 -33z" />
    <glyph glyph-name="tilde" unicode="&#x2dc;" horiz-adv-x="241" 
d="M-12 587q5 37 23 59.5t45 22.5q28 0 68 -24t61 -24q35 0 43 49h26q-11 -80 -69 -80q-28 0 -66 24q-39 24 -62 24q-33 0 -43 -51h-26z" />
    <glyph glyph-name="hungarumlaut" unicode="&#x2dd;" horiz-adv-x="241" 
d="M8 566l102 145h50l-118 -145h-34zM144 566l103 145h50l-119 -145h-34z" />
    <glyph glyph-name="uni0326" unicode="&#x326;" horiz-adv-x="0" 
d="M-175 -230l54 185h42l-65 -185h-31z" />
    <glyph glyph-name="uni0374" unicode="&#x374;" horiz-adv-x="214" 
d="M109 544h-29l56 184h47z" />
    <glyph glyph-name="uni0375" unicode="&#x375;" horiz-adv-x="214" 
d="M155 20h28l-55 -184h-48z" />
    <glyph glyph-name="uni0394" unicode="&#x394;" horiz-adv-x="603" 
d="M299 714l265 -700v-14h-560v15l265 699h30zM522 32l-197 524q-11 28 -41 114q-3 -7 -16 -45t-23 -63l-199 -530h476z" />
    <glyph glyph-name="uni03A9" unicode="&#x3a9;" horiz-adv-x="739" 
d="M384 689q-122 0 -200 -83t-78 -221q0 -127 52.5 -207t153.5 -145v-33h-271v34h226q-96 59 -148.5 142t-52.5 210q0 150 89 244.5t229 94.5q146 0 233.5 -90t87.5 -249q0 -129 -52 -212.5t-148 -139.5h225v-34h-272v33q104 60 155.5 142.5t51.5 209.5q0 143 -77.5 223.5
t-203.5 80.5z" />
    <glyph glyph-name="uni03BC" unicode="&#x3bc;" horiz-adv-x="582" 
d="M492 463v-463h-32l-3 94h-2q-48 -104 -172 -104q-117 0 -157 80h-2v-90v-220h-35v703h35v-277q0 -78 41.5 -118.5t117.5 -40.5q92 0 133 51t41 151v234h35z" />
    <glyph glyph-name="pi" unicode="&#x3c0;" horiz-adv-x="589" 
d="M516 20q24 0 41 7v-30q-19 -7 -47 -7q-43 0 -68 27t-25 77v338h-261v-432h-37v432h-107v28l86 3h465v-31h-111v-327q0 -85 64 -85z" />
    <glyph glyph-name="Wgrave" unicode="&#x1e80;" horiz-adv-x="962" 
d="M234 0l-211 708h43l193 -660h3l191 660h53l196 -660h2l193 660h42l-211 -708h-52l-195 659h-2l-193 -659h-52zM465 764l-118 144h50l102 -144h-34z" />
    <glyph glyph-name="wgrave" unicode="&#x1e81;" horiz-adv-x="717" 
d="M170 0l-139 463h41l122 -418h2l139 418h45l141 -418h2l121 418h41l-139 -463h-46l-142 416h-2l-140 -416h-46zM339 564l-118 144h50l102 -144h-34z" />
    <glyph glyph-name="Wacute" unicode="&#x1e82;" horiz-adv-x="962" 
d="M234 0l-211 708h43l193 -660h3l191 660h53l196 -660h2l193 660h42l-211 -708h-52l-195 659h-2l-193 -659h-52zM462 764l102 144h49l-117 -144h-34z" />
    <glyph glyph-name="wacute" unicode="&#x1e83;" horiz-adv-x="717" 
d="M170 0l-139 463h41l122 -418h2l139 418h45l141 -418h2l121 418h41l-139 -463h-46l-142 416h-2l-140 -416h-46zM344 564l102 144h50l-118 -144h-34z" />
    <glyph glyph-name="Wdieresis" unicode="&#x1e84;" horiz-adv-x="962" 
d="M234 0l-211 708h43l193 -660h3l191 660h53l196 -660h2l193 660h42l-211 -708h-52l-195 659h-2l-193 -659h-52zM397 821q-14 0 -23.5 9.5t-9.5 24.5q0 14 10 24t23 10q14 0 23.5 -10t9.5 -24q0 -15 -9.5 -24.5t-23.5 -9.5zM564 821q-14 0 -23.5 9.5t-9.5 24.5q0 14 10 24
t23 10q14 0 23.5 -10t9.5 -24q0 -15 -9.5 -24.5t-23.5 -9.5z" />
    <glyph glyph-name="wdieresis" unicode="&#x1e85;" horiz-adv-x="717" 
d="M170 0l-139 463h41l122 -418h2l139 418h45l141 -418h2l121 418h41l-139 -463h-46l-142 416h-2l-140 -416h-46zM274 621q-14 0 -23.5 9.5t-9.5 24.5q0 14 9.5 24t23.5 10t23.5 -10t9.5 -24q0 -15 -9.5 -24.5t-23.5 -9.5zM441 621q-14 0 -23.5 9.5t-9.5 24.5q0 14 9.5 24
t23.5 10t23.5 -10t9.5 -24q0 -15 -9.5 -24.5t-23.5 -9.5z" />
    <glyph glyph-name="Ygrave" unicode="&#x1ef2;" horiz-adv-x="561" 
d="M260 0v308l-251 400h50l222 -364l223 364h46l-249 -400v-308h-41zM276 764l-118 144h50l102 -144h-34z" />
    <glyph glyph-name="ygrave" unicode="&#x1ef3;" horiz-adv-x="450" 
d="M43 -204q53 1 83 19.5t48 66.5l41 112l-194 469h44l170 -423l151 423h42l-221 -598q-21 -56 -58.5 -80.5t-96.5 -24.5zM224 564l-118 144h50l102 -144h-34z" />
    <glyph glyph-name="uni2010" unicode="&#x2010;" horiz-adv-x="306" 
d="M56 234v33h195v-33h-195z" />
    <glyph glyph-name="endash" unicode="&#x2013;" horiz-adv-x="400" 
d="M30 234v33h340v-33h-340z" />
    <glyph glyph-name="emdash" unicode="&#x2014;" horiz-adv-x="600" 
d="M30 234v33h540v-33h-540z" />
    <glyph glyph-name="uni2015" unicode="&#x2015;" horiz-adv-x="600" 
d="M30 234v33h540v-33h-540z" />
    <glyph glyph-name="quoteleft" unicode="&#x2018;" horiz-adv-x="247" 
d="M101 576q14 0 23.5 -10t9.5 -25t-9.5 -25.5t-23.5 -10.5q-15 0 -25 12.5t-10 34.5q0 75 75 156l17 -10q-52 -56 -57 -122z" />
    <glyph glyph-name="quoteright" unicode="&#x2019;" horiz-adv-x="247" 
d="M84 505l-18 10q20 21 37 54.5t20 67.5q-14 0 -23.5 10.5t-9.5 25.5q0 14 10 24.5t24 10.5q15 0 24.5 -12t9.5 -34q0 -75 -74 -157z" />
    <glyph glyph-name="quotesinglbase" unicode="&#x201a;" horiz-adv-x="247" 
d="M158 48q0 -74 -74 -156l-18 9q52 56 57 122q-14 1 -23.5 11t-9.5 25q0 14 10 24.5t24 10.5q15 0 24.5 -12t9.5 -34z" />
    <glyph glyph-name="quotedblleft" unicode="&#x201c;" horiz-adv-x="398" 
d="M101 576q14 0 23.5 -10t9.5 -25t-10 -25.5t-24 -10.5t-24 12.5t-10 34.5q0 74 74 156l18 -10q-52 -56 -57 -122zM252 576q14 0 23.5 -10t9.5 -25t-10 -25.5t-24 -10.5q-15 0 -25 12.5t-10 34.5q0 73 75 156l18 -10q-20 -21 -37 -54.5t-20 -67.5z" />
    <glyph glyph-name="quotedblright" unicode="&#x201d;" horiz-adv-x="398" 
d="M124 708q15 0 24.5 -12t9.5 -34q0 -75 -74 -157l-18 10q20 21 37 54.5t20 67.5q-14 0 -23.5 10.5t-9.5 25.5q0 14 10 24.5t24 10.5zM274 708q15 0 25 -12t10 -34q0 -76 -75 -157l-17 10q50 55 57 122q-14 0 -23.5 10.5t-9.5 25.5q0 14 9.5 24.5t23.5 10.5z" />
    <glyph glyph-name="quotedblbase" unicode="&#x201e;" horiz-adv-x="398" 
d="M84 -108l-18 9q52 56 57 122q-14 1 -23.5 11t-9.5 25q0 14 10 24.5t24 10.5t24 -12t10 -34q0 -74 -74 -156zM234 -108l-18 9q51 53 58 122q-14 1 -23.5 11t-9.5 25q0 14 9.5 24.5t23.5 10.5q15 0 25 -12t10 -34q0 -73 -75 -156z" />
    <glyph glyph-name="dagger" unicode="&#x2020;" horiz-adv-x="533" 
d="M248 -126v594h-198v34h198v206h38v-206h197v-34h-197v-594h-38z" />
    <glyph glyph-name="daggerdbl" unicode="&#x2021;" horiz-adv-x="533" 
d="M248 -126v201h-195v35h195v361h-195v36h195v201h38v-201h194v-36h-194v-361h194v-35h-194v-201h-38z" />
    <glyph glyph-name="bullet" unicode="&#x2022;" horiz-adv-x="500" 
d="M250 177q-74 0 -125.5 51.5t-51.5 125.5t51.5 125.5t125.5 51.5t125.5 -51.5t51.5 -125.5t-51.5 -125.5t-125.5 -51.5z" />
    <glyph glyph-name="ellipsis" unicode="&#x2026;" horiz-adv-x="1000" 
d="M166 -6q-14 0 -24.5 10.5t-10.5 25.5q0 14 10.5 25t24.5 11t24.5 -11t10.5 -25q0 -15 -10.5 -25.5t-24.5 -10.5zM501 -6q-15 0 -25 10.5t-10 25.5t10 25.5t25 10.5q14 0 24 -11t10 -25q0 -15 -10 -25.5t-24 -10.5zM834 -6q-14 0 -24 10.5t-10 25.5q0 14 10 25t24 11
q15 0 25 -10.5t10 -25.5t-10.5 -25.5t-24.5 -10.5z" />
    <glyph glyph-name="perthousand" unicode="&#x2030;" horiz-adv-x="1006" 
d="M116 -28l-29 16l442 749l28 -16zM186 419q-62 0 -105.5 43t-43.5 105q0 64 43.5 107.5t105.5 43.5q61 0 104.5 -44t43.5 -107q0 -62 -43.5 -105t-104.5 -43zM186 450q48 0 81.5 34t33.5 83q0 51 -33.5 85t-81.5 34t-81 -34t-33 -85q0 -49 33 -83t81 -34zM479 -7
q-62 0 -105 43t-43 106t43 106.5t105 43.5t105.5 -43.5t43.5 -106.5t-43.5 -106t-105.5 -43zM825 -7q-62 0 -105.5 43t-43.5 106t43.5 106.5t105.5 43.5q61 0 105 -43.5t44 -106.5q0 -62 -44 -105.5t-105 -43.5zM479 25q48 0 82 33.5t34 83.5t-34 84.5t-82 34.5t-81 -34.5
t-33 -84.5t33 -83.5t81 -33.5zM825 25q48 0 81.5 33.5t33.5 83.5t-33.5 84.5t-81.5 34.5t-81 -34.5t-33 -84.5t33 -83.5t81 -33.5z" />
    <glyph glyph-name="guilsinglleft" unicode="&#x2039;" horiz-adv-x="315" 
d="M203 37l-129 201l128 201l27 -19l-114 -182l115 -181z" />
    <glyph glyph-name="guilsinglright" unicode="&#x203a;" horiz-adv-x="315" 
d="M113 38l-27 19l114 181l-115 182l27 20l129 -202z" />
    <glyph glyph-name="uni203D" unicode="&#x203d;" horiz-adv-x="477" 
d="M235 724q80 0 133 -45t53 -123q0 -38 -15.5 -72t-30.5 -51t-50 -51q-48 -46 -62 -77t-14 -83v-23h-39v352h36v-203q22 28 40 46l38 38.5t27.5 33.5t22.5 43.5t6 47.5q0 60 -42 95.5t-105 35.5q-108 0 -173 -79l-19 33q72 82 194 82zM234 66q13 0 23 -11t10 -26
q0 -14 -10 -24.5t-23 -10.5q-15 0 -25 10.5t-10 24.5q0 16 10 26.5t25 10.5z" />
    <glyph glyph-name="fraction" unicode="&#x2044;" horiz-adv-x="100" 
d="M-169 -28l-28 16l442 749l28 -16z" />
    <glyph glyph-name="zero.superior" unicode="&#x2070;" 
d="M315 663q0 -41 -6 -77t-20.5 -70t-42.5 -53.5t-67 -19.5q-40 0 -68 19.5t-42 53.5t-20 69.5t-6 77.5q0 220 136 220q52 0 84 -35.5t42 -81.5t10 -103zM280 663q0 30 -3.5 58.5t-13.5 60.5t-31.5 51.5t-52.5 19.5t-53 -19.5t-31.5 -52t-13 -60.5t-3.5 -58t3.5 -58.5
t13 -60.5t31.5 -51.5t53 -19.5t52.5 19.5t31.5 51.5t13.5 60.5t3.5 58.5z" />
    <glyph glyph-name="four.superior" unicode="&#x2074;" 
d="M225 453v103h-192v33l181 284h44v-286h65l-10 -31h-55v-103h-33zM225 830h-3l-154 -243h157v243z" />
    <glyph glyph-name="five.superior" unicode="&#x2075;" 
d="M308 582q0 -64 -39.5 -101.5t-96.5 -37.5q-88 0 -127 49l8 34q43 -53 119 -53q42 0 72 29t30 79q0 48 -29.5 77.5t-79.5 29.5q-41 0 -86 -26l4 211h207l-10 -30h-167l-3 -137q33 11 63 11q61 0 98 -37.5t37 -97.5z" />
    <glyph glyph-name="six.superior" unicode="&#x2076;" 
d="M184 443q-62 0 -100.5 45t-38.5 131q0 120 46.5 186t131.5 66q41 0 65 -13l-8 -26q-30 12 -57 12q-67 0 -104.5 -54t-41.5 -151h2q37 59 105 59q55 0 91.5 -36t36.5 -92t-35 -91.5t-93 -35.5zM185 472q43 0 68 27.5t25 70.5t-26.5 71t-67.5 28q-45 0 -73.5 -25t-28.5 -62
q0 -42 28.5 -76t74.5 -34z" />
    <glyph glyph-name="seven.superior" unicode="&#x2077;" 
d="M95 453l172 390h-215l10 30h241v-28l-170 -392h-38z" />
    <glyph glyph-name="eight.superior" unicode="&#x2078;" 
d="M311 566q0 -55 -37.5 -89t-93.5 -34q-57 0 -95 34t-38 89q0 37 21 67.5t58 43.5v1q-31 14 -47.5 40.5t-16.5 55.5q0 48 34 78.5t84 30.5q49 0 82.5 -30.5t33.5 -78.5q0 -30 -16.5 -56t-46.5 -40v-1q37 -13 57.5 -43.5t20.5 -67.5zM180 853q-35 0 -59 -22.5t-24 -56.5
q0 -35 23.5 -58.5t59.5 -23.5q34 0 58 24t24 58t-24 56.5t-58 22.5zM180 662q-42 0 -70.5 -27t-28.5 -68q0 -40 27.5 -67t71.5 -27q43 0 70.5 27t27.5 67q0 41 -29 68t-69 27z" />
    <glyph glyph-name="nine.superior" unicode="&#x2079;" 
d="M173 871q61 0 100 -45t39 -131q0 -120 -47 -186t-131 -66q-42 0 -66 13l8 26q30 -12 58 -12q67 0 104.5 54t41.5 151h-2q-36 -58 -106 -58q-54 0 -90.5 36t-36.5 91q0 56 35 91.5t93 35.5zM172 842q-43 0 -68 -27.5t-25 -70.5t26.5 -71t67.5 -28q44 0 73 25.5t29 61.5
q0 42 -29 76t-74 34z" />
    <glyph glyph-name="uni207A" unicode="&#x207a;" 
d="M169 364v133h-132v21h132v133h20v-133h131v-21h-131v-133h-20z" />
    <glyph glyph-name="uni207B" unicode="&#x207b;" 
d="M37 498v19h283v-19h-283z" />
    <glyph glyph-name="uni207C" unicode="&#x207c;" horiz-adv-x="358" 
d="M37 546v20h283v-20h-283zM37 449v20h283v-20h-283z" />
    <glyph glyph-name="uni207D" unicode="&#x207d;" horiz-adv-x="251" 
d="M81 498q0 -80 26 -165t70 -147l-31 -17q-48 66 -75 153t-27 176q0 90 27 177t75 154l31 -18q-43 -61 -69.5 -146.5t-26.5 -166.5z" />
    <glyph glyph-name="uni207E" unicode="&#x207e;" horiz-adv-x="248" 
d="M186 515q0 -88 -27 -175.5t-73 -154.5l-31 18q43 60 69 145.5t26 166.5t-26 167t-69 146l31 18q46 -68 73 -155.5t27 -175.5z" />
    <glyph glyph-name="zero.inferior" unicode="&#x2080;" 
d="M315 73q0 -41 -6 -77t-20.5 -70t-42.5 -53.5t-67 -19.5q-40 0 -68 19.5t-42 53.5t-20 69.5t-6 77.5q0 220 136 220q52 0 84 -35.5t42 -81.5t10 -103zM280 73q0 30 -3.5 58.5t-13.5 60.5t-31.5 51.5t-52.5 19.5t-53 -19.5t-31.5 -52t-13 -60.5t-3.5 -58t3.5 -58.5
t13 -60.5t31.5 -51.5t53 -19.5t52.5 19.5t31.5 51.5t13.5 60.5t3.5 58.5z" />
    <glyph glyph-name="one.inferior" unicode="&#x2081;" 
d="M175 -137v380l-94 -68l-13 32l110 77h33v-421h-36z" />
    <glyph glyph-name="two.inferior" unicode="&#x2082;" 
d="M40 -137v32l154 169q63 68 63 117q0 38 -23.5 60t-61.5 22q-60 0 -106 -57l-17 29q47 58 124 58q55 0 87.5 -30.5t32.5 -78.5q0 -38 -18.5 -70t-61.5 -76l-135 -145h227l-11 -30h-254z" />
    <glyph glyph-name="three.inferior" unicode="&#x2083;" 
d="M167 -147q-82 0 -120 47l12 30q15 -20 46 -33.5t61 -13.5q45 0 71 25t26 68q0 44 -33.5 68t-79.5 24h-20v30h19q47 0 73.5 25t26.5 63q0 37 -24 57.5t-59 20.5q-29 0 -56 -13t-42 -30l-13 26q44 46 112 46q54 0 85 -29t31 -79q0 -37 -22 -63.5t-59 -36.5q44 -7 69 -36.5
t25 -72.5q0 -58 -36.5 -90.5t-92.5 -32.5z" />
    <glyph glyph-name="four.inferior" unicode="&#x2084;" 
d="M225 -137v103h-192v33l181 284h44v-286h65l-10 -31h-55v-103h-33zM225 240h-3l-154 -243h157v243z" />
    <glyph glyph-name="five.inferior" unicode="&#x2085;" 
d="M308 -8q0 -64 -39.5 -101.5t-96.5 -37.5q-88 0 -127 49l8 34q43 -53 119 -53q42 0 72 29t30 79q0 48 -29.5 77.5t-79.5 29.5q-41 0 -86 -26l4 211h207l-10 -30h-167l-3 -137q33 11 63 11q61 0 98 -37.5t37 -97.5z" />
    <glyph glyph-name="six.inferior" unicode="&#x2086;" 
d="M184 -147q-62 0 -100.5 45t-38.5 131q0 120 46.5 186t131.5 66q41 0 65 -13l-8 -26q-30 12 -57 12q-67 0 -104.5 -54t-41.5 -151h2q37 59 105 59q55 0 91.5 -36t36.5 -92t-35 -91.5t-93 -35.5zM185 -118q43 0 68 27.5t25 70.5t-26.5 71t-67.5 28q-45 0 -73.5 -25
t-28.5 -62q0 -42 28.5 -76t74.5 -34z" />
    <glyph glyph-name="seven.inferior" unicode="&#x2087;" 
d="M95 -137l172 390h-215l10 30h241v-28l-170 -392h-38z" />
    <glyph glyph-name="eight.inferior" unicode="&#x2088;" 
d="M311 -24q0 -55 -37.5 -89t-93.5 -34q-57 0 -95 34t-38 89q0 37 21 67.5t58 43.5v1q-31 14 -47.5 40.5t-16.5 55.5q0 48 34 78.5t84 30.5q49 0 82.5 -30.5t33.5 -78.5q0 -30 -16.5 -56t-46.5 -40v-1q37 -13 57.5 -43.5t20.5 -67.5zM180 263q-35 0 -59 -22.5t-24 -56.5
q0 -35 23.5 -58.5t59.5 -23.5q34 0 58 24t24 58t-24 56.5t-58 22.5zM180 72q-42 0 -70.5 -27t-28.5 -68q0 -40 27.5 -67t71.5 -27q43 0 70.5 27t27.5 67q0 41 -29 68t-69 27z" />
    <glyph glyph-name="nine.inferior" unicode="&#x2089;" 
d="M173 281q61 0 100 -45t39 -131q0 -120 -47 -186t-131 -66q-42 0 -66 13l8 26q30 -12 58 -12q67 0 104.5 54t41.5 151h-2q-36 -58 -106 -58q-54 0 -90.5 36t-36.5 91q0 56 35 91.5t93 35.5zM172 252q-43 0 -68 -27.5t-25 -70.5t26.5 -71t67.5 -28q44 0 73 25.5t29 61.5
q0 42 -29 76t-74 34z" />
    <glyph glyph-name="uni208A" unicode="&#x208a;" 
d="M169 77v133h-132v21h132v133h20v-133h131v-21h-131v-133h-20z" />
    <glyph glyph-name="uni208B" unicode="&#x208b;" 
d="M37 211v19h283v-19h-283z" />
    <glyph glyph-name="uni208C" unicode="&#x208c;" horiz-adv-x="358" 
d="M38 260v20h283v-20h-283zM38 163v20h283v-20h-283z" />
    <glyph glyph-name="uni208D" unicode="&#x208d;" horiz-adv-x="251" 
d="M81 201q0 -80 26 -165t70 -147l-31 -17q-48 66 -75 153t-27 176q0 90 27 177t75 154l31 -18q-43 -61 -69.5 -146.5t-26.5 -166.5z" />
    <glyph glyph-name="uni208E" unicode="&#x208e;" horiz-adv-x="248" 
d="M186 221q0 -88 -27 -175.5t-73 -154.5l-31 18q43 60 69 145.5t26 166.5t-26 167t-69 146l31 18q46 -68 73 -155.5t27 -175.5z" />
    <glyph glyph-name="Euro" unicode="&#x20ac;" horiz-adv-x="568" 
d="M537 28q-64 -47 -170 -47q-112 0 -186.5 78t-92.5 196h-70l13 32h52q-3 24 -3 61q0 46 4 73h-64l11 32h59q27 132 104 203t186 71q86 0 145 -32l-15 -35q-56 32 -132 32q-93 0 -158.5 -63t-87.5 -176h325l-10 -32h-320q-5 -33 -5 -73q0 -36 3 -61h281l-10 -32h-268
q17 -109 85.5 -174t161.5 -65q86 0 145 44z" />
    <glyph glyph-name="uni2105" unicode="&#x2105;" horiz-adv-x="811" 
d="M196 -28l-29 16l443 749l29 -17zM205 392q-71 0 -116 46t-45 118t43.5 118.5t113.5 46.5q74 0 121 -39l-15 -31q-45 38 -106 38q-55 0 -87.5 -38t-32.5 -95q0 -56 34 -94t90 -38t100 37l14 -29q-47 -40 -114 -40zM605 -12q-71 0 -115.5 46t-44.5 119q0 72 44.5 117.5
t115.5 45.5q72 0 116.5 -45.5t44.5 -117.5q0 -73 -44.5 -119t-116.5 -46zM605 19q58 0 91.5 38t33.5 96q0 57 -33.5 94.5t-91.5 37.5q-56 0 -90 -38t-34 -94q0 -58 34 -96t90 -38z" />
    <glyph glyph-name="uni2113" unicode="&#x2113;" horiz-adv-x="500" 
d="M398 35q-50 -49 -112 -49q-48 0 -79 29.5t-31 90.5v146l-60 -69h-2l-16 21l77 83v268q0 80 30.5 123t75.5 43q42 0 67 -31.5t25 -87.5q0 -142 -162 -323v-168q0 -52 24.5 -73.5t57.5 -21.5q48 0 88 39h2zM342 599q0 42 -17.5 67.5t-43.5 25.5q-29 0 -49.5 -33t-20.5 -99
v-245q62 73 96.5 148t34.5 136z" />
    <glyph glyph-name="uni2117" unicode="&#x2117;" horiz-adv-x="800" 
d="M20 353q0 157 111.5 267t269.5 110q157 0 268 -110t111 -267q0 -156 -111 -265.5t-268 -109.5q-158 0 -269.5 109.5t-111.5 265.5zM55 353q0 -142 101 -241.5t245 -99.5q143 0 243.5 99.5t100.5 241.5q0 143 -100.5 243t-243.5 100q-144 0 -245 -100t-101 -243zM291 567
h149q67 0 110 -33t43 -98q0 -62 -41 -99.5t-107 -37.5h-117v-171h-37v439zM445 333q49 0 79.5 27t30.5 76q0 48 -32 73.5t-81 25.5h-114v-202h117z" />
    <glyph glyph-name="trademark" unicode="&#x2122;" horiz-adv-x="1000" 
d="M223 296v381h-138l10 31h303l-10 -31h-129v-381h-36zM492 296v412h56l149 -356l150 356h56v-412h-35v374h-2l-158 -374h-22l-157 374h-2v-374h-35z" />
    <glyph glyph-name="uni2126" unicode="&#x2126;" horiz-adv-x="739" 
d="M384 689q-122 0 -200 -83t-78 -221q0 -127 52.5 -207t153.5 -145v-33h-271v34h226q-96 59 -148.5 142t-52.5 210q0 150 89 244.5t229 94.5q146 0 233.5 -90t87.5 -249q0 -129 -52 -212.5t-148 -139.5h225v-34h-272v33q104 60 155.5 142.5t51.5 209.5q0 143 -77.5 223.5
t-203.5 80.5z" />
    <glyph glyph-name="estimated" unicode="&#x212e;" horiz-adv-x="603" 
d="M157 259v-181q59 -59 145 -59q122 0 193 120l35 -21q-46 -72 -98 -103.5t-130 -31.5q-115 0 -186.5 79t-71.5 197q0 119 71 197.5t187 78.5q115 0 186.5 -77t72.5 -199h-404zM448 295v145q-63 60 -147 60t-144 -60v-145h291z" />
    <glyph glyph-name="uni2153" unicode="&#x2153;" horiz-adv-x="815" 
d="M189 -28l-28 16l441 749l29 -16zM170 287v380l-94 -68l-13 31l110 78h33v-421h-36zM611 -10q-82 0 -120 47l12 30q15 -19 46 -32.5t61 -13.5q45 0 71 24.5t26 67.5q0 44 -33.5 68t-79.5 24h-20v30h19q47 0 73.5 25t26.5 63q0 37 -24 57.5t-59 20.5q-29 0 -56 -13t-42 -30
l-13 26q44 46 112 46q54 0 84.5 -29t30.5 -79q0 -37 -21.5 -63.5t-58.5 -36.5q44 -7 69 -36.5t25 -72.5q0 -58 -36.5 -90.5t-92.5 -32.5z" />
    <glyph glyph-name="uni2154" unicode="&#x2154;" horiz-adv-x="808" 
d="M189 -28l-28 16l441 749l29 -16zM40 287v32l154 169q63 68 63 116q0 39 -23.5 60.5t-61.5 21.5q-60 0 -106 -57l-17 30q47 58 124 58q55 0 87.5 -30.5t32.5 -78.5q0 -38 -18.5 -69.5t-61.5 -76.5l-135 -145h226l-10 -30h-254zM611 -10q-82 0 -120 47l12 30
q15 -19 46 -32.5t61 -13.5q45 0 71 24.5t26 67.5q0 44 -33.5 68t-79.5 24h-20v30h19q47 0 73.5 25t26.5 63q0 37 -24 57.5t-59 20.5q-29 0 -56 -13t-42 -30l-13 26q44 46 112 46q54 0 84.5 -29t30.5 -79q0 -37 -21.5 -63.5t-58.5 -36.5q44 -7 69 -36.5t25 -72.5
q0 -58 -36.5 -90.5t-92.5 -32.5z" />
    <glyph glyph-name="oneeighth" unicode="&#x215b;" horiz-adv-x="821" 
d="M189 -28l-28 16l441 749l29 -16zM170 287v380l-94 -68l-13 31l110 78h33v-421h-36zM753 113q0 -55 -37.5 -89t-93.5 -34q-57 0 -95 34t-38 89q0 37 21 67.5t58 43.5v1q-31 14 -47.5 40.5t-16.5 55.5q0 48 34 78.5t84 30.5q49 0 82.5 -30.5t33.5 -78.5q0 -30 -16.5 -56
t-46.5 -40v-1q37 -13 57.5 -43.5t20.5 -67.5zM622 400q-35 0 -59 -22.5t-24 -56.5q0 -35 23.5 -58.5t59.5 -23.5q34 0 58 24t24 58t-24 56.5t-58 22.5zM622 209q-42 0 -70.5 -27t-28.5 -68q0 -40 27.5 -67t71.5 -27q43 0 70.5 27t27.5 67q0 41 -29 68t-69 27z" />
    <glyph glyph-name="threeeighths" unicode="&#x215c;" horiz-adv-x="819" 
d="M188 -28l-28 16l441 749l29 -16zM167 278q-81 0 -120 46l12 31q15 -20 46 -33.5t61 -13.5q45 0 71 25t26 68q0 44 -33.5 68t-79.5 24h-20v29h19q47 0 73.5 25t26.5 63q0 37 -23.5 57.5t-59.5 20.5q-29 0 -56 -12.5t-42 -29.5l-13 26q44 46 112 46q54 0 84.5 -29t30.5 -79
q0 -37 -21.5 -63.5t-58.5 -36.5q44 -7 69 -36.5t25 -72.5q0 -58 -36.5 -90.5t-92.5 -32.5zM751 113q0 -55 -37.5 -89t-93.5 -34q-57 0 -95 34t-38 89q0 37 21 67.5t58 43.5v1q-31 14 -47.5 40.5t-16.5 55.5q0 48 34 78.5t84 30.5q49 0 82.5 -30.5t33.5 -78.5
q0 -30 -16.5 -56t-46.5 -40v-1q37 -13 57.5 -43.5t20.5 -67.5zM620 400q-35 0 -59 -22.5t-24 -56.5q0 -35 23.5 -58.5t59.5 -23.5q34 0 58 24t24 58t-24 56.5t-58 22.5zM620 209q-42 0 -70.5 -27t-28.5 -68q0 -40 27.5 -67t71.5 -27q43 0 70.5 27t27.5 67q0 41 -29 68
t-69 27z" />
    <glyph glyph-name="fiveeighths" unicode="&#x215d;" horiz-adv-x="819" 
d="M188 -28l-28 16l441 749l29 -16zM308 417q0 -64 -39.5 -101.5t-96.5 -37.5q-88 0 -127 49l8 34q43 -53 119 -53q42 0 72 29t30 79q0 47 -29.5 77t-79.5 30q-41 0 -86 -26l4 211h207l-10 -31h-167l-3 -137q31 12 63 12q61 0 98 -38t37 -97zM751 113q0 -55 -37.5 -89
t-93.5 -34q-57 0 -95 34t-38 89q0 37 21 67.5t58 43.5v1q-31 14 -47.5 40.5t-16.5 55.5q0 48 34 78.5t84 30.5q49 0 82.5 -30.5t33.5 -78.5q0 -30 -16.5 -56t-46.5 -40v-1q37 -13 57.5 -43.5t20.5 -67.5zM620 400q-35 0 -59 -22.5t-24 -56.5q0 -35 23.5 -58.5t59.5 -23.5
q34 0 58 24t24 58t-24 56.5t-58 22.5zM620 209q-42 0 -70.5 -27t-28.5 -68q0 -40 27.5 -67t71.5 -27q43 0 70.5 27t27.5 67q0 41 -29 68t-69 27z" />
    <glyph glyph-name="seveneighths" unicode="&#x215e;" horiz-adv-x="819" 
d="M148 -28l-28 16l442 749l28 -16zM95 288l172 389h-215l10 31h241v-28l-170 -392h-38zM751 113q0 -55 -37.5 -89t-93.5 -34q-57 0 -95 34t-38 89q0 37 21 67.5t58 43.5v1q-31 14 -47.5 40.5t-16.5 55.5q0 48 34 78.5t84 30.5q49 0 82.5 -30.5t33.5 -78.5q0 -30 -16.5 -56
t-46.5 -40v-1q37 -13 57.5 -43.5t20.5 -67.5zM620 400q-35 0 -59 -22.5t-24 -56.5q0 -35 23.5 -58.5t59.5 -23.5q34 0 58 24t24 58t-24 56.5t-58 22.5zM620 209q-42 0 -70.5 -27t-28.5 -68q0 -40 27.5 -67t71.5 -27q43 0 70.5 27t27.5 67q0 41 -29 68t-69 27z" />
    <glyph glyph-name="partialdiff" unicode="&#x2202;" horiz-adv-x="485" 
d="M224 -15q-82 0 -134 64.5t-52 157.5q0 97 51.5 154t131.5 57q54 0 101.5 -28.5t76.5 -75.5q2 50 2 72q0 134 -51.5 219t-141.5 85q-57 0 -111 -42l-20 26q59 50 129 50q62 0 107.5 -28.5t72 -79.5t39 -113.5t12.5 -137.5q0 -190 -57 -285t-156 -95zM225 18q45 0 79 26
t52 68t27 82.5t12 82.5q-32 48 -76 77.5t-94 29.5q-70 0 -109 -52.5t-39 -125.5q0 -71 39.5 -129.5t108.5 -58.5z" />
    <glyph glyph-name="uni2206" unicode="&#x2206;" horiz-adv-x="603" 
d="M299 714l265 -700v-14h-560v15l265 699h30zM522 32l-197 524q-11 28 -41 114q-3 -7 -16 -45t-23 -63l-199 -530h476z" />
    <glyph glyph-name="product" unicode="&#x220f;" horiz-adv-x="707" 
d="M85 -214v1000h538v-1000h-39v965h-461v-965h-38z" />
    <glyph glyph-name="summation" unicode="&#x2211;" horiz-adv-x="598" 
d="M39 -214v34l335 469l-321 462v35h495v-35h-448l322 -462l-336 -468h473v-35h-520z" />
    <glyph glyph-name="minus" unicode="&#x2212;" horiz-adv-x="666" 
d="M92 289v33h482v-33h-482z" />
    <glyph glyph-name="uni2215" unicode="&#x2215;" horiz-adv-x="100" 
d="M-169 -28l-28 16l442 749l28 -16z" />
    <glyph glyph-name="uni2219" unicode="&#x2219;" horiz-adv-x="247" 
d="M124 238q-14 0 -24 10.5t-10 24.5q0 15 10 25.5t24 10.5t24 -10.5t10 -25.5q0 -14 -10 -24.5t-24 -10.5z" />
    <glyph glyph-name="radical" unicode="&#x221a;" horiz-adv-x="483" 
d="M229 -215l-166 359l-57 -28l-14 31l89 42l165 -359l199 956h37l-209 -1001h-44z" />
    <glyph glyph-name="infinity" unicode="&#x221e;" horiz-adv-x="730" 
d="M553 110q-75 0 -182 116q-109 -116 -181 -116q-56 0 -91.5 39t-35.5 99q0 61 35 100.5t91 39.5q73 0 182 -118q109 118 181 118q56 0 92 -39t36 -100t-35.5 -100t-91.5 -39zM554 142q43 0 68 30.5t25 74.5q0 46 -25 77.5t-69 31.5q-34 0 -70.5 -26t-90.5 -83
q56 -56 91 -80.5t71 -24.5zM190 142q61 0 160 105q-52 56 -89 82t-72 26q-43 0 -67.5 -31t-24.5 -77q0 -44 24.5 -74.5t68.5 -30.5z" />
    <glyph glyph-name="integral" unicode="&#x222b;" horiz-adv-x="539" 
d="M163 -207q-22 0 -36.5 9t-14.5 27q0 11 7.5 18t17.5 7q11 0 23 -17t22 -17q23 0 35.5 49.5t12.5 119.5v474v33q-1 25 -0.5 50l1 49.5t4 47.5t7.5 43t12 37t19 29.5t26.5 19t34.5 6.5q22 0 38 -9.5t16 -27.5q0 -12 -7.5 -19t-18.5 -7q-13 0 -24 17.5t-22 17.5
q-25 0 -36.5 -52t-11.5 -125v-509q0 -46 -1 -74.5t-4 -63.5t-10 -56t-18.5 -40.5t-29.5 -28t-42 -8.5z" />
    <glyph glyph-name="approxequal" unicode="&#x2248;" horiz-adv-x="666" 
d="M49 279q6 51 35 85.5t85 34.5q45 0 144 -35t135 -35q79 0 94 84h27q-5 -51 -35 -85t-88 -34q-44 0 -141 34.5t-131 34.5q-84 0 -97 -84h-28zM49 95q6 52 35 86.5t85 34.5q46 0 144.5 -35.5t134.5 -35.5q78 0 94 85h27q-6 -51 -35.5 -85.5t-87.5 -34.5q-44 0 -141 35.5
t-131 35.5q-83 0 -97 -86h-28z" />
    <glyph glyph-name="notequal" unicode="&#x2260;" horiz-adv-x="666" 
d="M209 17l-30 16l76 146h-162v35h179l72 143h-251v34h268l74 147l31 -15l-66 -132h172v-34h-190l-73 -143h263v-35h-281z" />
    <glyph glyph-name="lessequal" unicode="&#x2264;" horiz-adv-x="666" 
d="M572 82l-478 213v37l478 213v-36l-441 -196l441 -195v-36zM94 2v34h478v-34h-478z" />
    <glyph glyph-name="greaterequal" unicode="&#x2265;" horiz-adv-x="666" 
d="M94 82v36l441 195l-441 196v36l478 -213v-37zM94 2v34h478v-34h-478z" />
    <glyph glyph-name="lozenge" unicode="&#x25ca;" horiz-adv-x="593" 
d="M276 -35l-163 391l163 391h38l167 -391l-167 -391h-38zM295 -2l146 358l-146 358l-145 -358z" />
    <glyph glyph-name="uniF8FF" unicode="&#xf8ff;" horiz-adv-x="512" 
d="M0 0v718h512v-718h-512zM50 50h412v617h-412v-617zM225 234l-2 17q0 54 11.5 79.5t47.5 60.5q31 31 40.5 47t9.5 36q0 36 -22.5 60.5t-53.5 24.5q-71 0 -82 -95l-50 8q7 69 43 103t92 34q54 0 89 -36t35 -95q0 -33 -13 -60t-50 -60t-43 -50t-6 -74h-46zM222 117v67h56
v-67h-56z" />
    <glyph glyph-name="NULL" horiz-adv-x="0" 
 />
    <glyph glyph-name="zero.denominator" 
d="M315 210q0 -41 -6 -77t-20.5 -70t-42.5 -53.5t-67 -19.5q-40 0 -68 19.5t-42 53.5t-20 69.5t-6 77.5q0 220 136 220q52 0 84 -35.5t42 -81.5t10 -103zM280 210q0 30 -3.5 58.5t-13.5 60.5t-31.5 51.5t-52.5 19.5t-53 -19.5t-31.5 -52t-13 -60.5t-3.5 -58t3.5 -58.5
t13 -60.5t31.5 -51.5t53 -19.5t52.5 19.5t31.5 51.5t13.5 60.5t3.5 58.5z" />
    <glyph glyph-name="one.denominator" 
d="M175 0v380l-94 -68l-13 32l110 77h33v-421h-36z" />
    <glyph glyph-name="two.denominator" 
d="M40 0v32l154 169q63 68 63 117q0 38 -23.5 60t-61.5 22q-60 0 -106 -57l-17 29q47 58 124 58q55 0 87.5 -30.5t32.5 -78.5q0 -38 -18.5 -70t-61.5 -76l-135 -145h227l-11 -30h-254z" />
    <glyph glyph-name="three.denominator" 
d="M167 -10q-82 0 -120 47l12 30q15 -20 46 -33.5t61 -13.5q45 0 71 25t26 68q0 44 -33.5 68t-79.5 24h-20v30h19q47 0 73.5 25t26.5 63q0 37 -24 57.5t-59 20.5q-29 0 -56 -13t-42 -30l-13 26q44 46 112 46q54 0 85 -29t31 -79q0 -37 -22 -63.5t-59 -36.5q44 -7 69 -36.5
t25 -72.5q0 -58 -36.5 -90.5t-92.5 -32.5z" />
    <glyph glyph-name="four.denominator" 
d="M225 0v103h-192v33l181 284h44v-286h65l-10 -31h-55v-103h-33zM225 377h-3l-154 -243h157v243z" />
    <glyph glyph-name="five.denominator" 
d="M308 129q0 -64 -39.5 -101.5t-96.5 -37.5q-88 0 -127 49l8 34q43 -53 119 -53q42 0 72 29t30 79q0 48 -29.5 77.5t-79.5 29.5q-41 0 -86 -26l4 211h207l-10 -30h-167l-3 -137q33 11 63 11q61 0 98 -37.5t37 -97.5z" />
    <glyph glyph-name="six.denominator" 
d="M184 -10q-62 0 -100.5 45t-38.5 131q0 120 46.5 186t131.5 66q41 0 65 -13l-8 -26q-30 12 -57 12q-67 0 -104.5 -54t-41.5 -151h2q37 59 105 59q55 0 91.5 -36t36.5 -92t-35 -91.5t-93 -35.5zM185 19q43 0 68 27.5t25 70.5t-26.5 71t-67.5 28q-45 0 -73.5 -25t-28.5 -62
q0 -42 28.5 -76t74.5 -34z" />
    <glyph glyph-name="seven.denominator" 
d="M95 0l172 390h-215l10 30h241v-28l-170 -392h-38z" />
    <glyph glyph-name="eight.denominator" 
d="M311 113q0 -55 -37.5 -89t-93.5 -34q-57 0 -95 34t-38 89q0 37 21 67.5t58 43.5v1q-31 14 -47.5 40.5t-16.5 55.5q0 48 34 78.5t84 30.5q49 0 82.5 -30.5t33.5 -78.5q0 -30 -16.5 -56t-46.5 -40v-1q37 -13 57.5 -43.5t20.5 -67.5zM180 400q-35 0 -59 -22.5t-24 -56.5
q0 -35 23.5 -58.5t59.5 -23.5q34 0 58 24t24 58t-24 56.5t-58 22.5zM180 209q-42 0 -70.5 -27t-28.5 -68q0 -40 27.5 -67t71.5 -27q43 0 70.5 27t27.5 67q0 41 -29 68t-69 27z" />
    <glyph glyph-name="nine.denominator" 
d="M173 418q61 0 100 -45t39 -131q0 -120 -47 -186t-131 -66q-42 0 -66 13l8 26q30 -12 58 -12q67 0 104.5 54t41.5 151h-2q-36 -58 -106 -58q-54 0 -90.5 36t-36.5 91q0 56 35 91.5t93 35.5zM172 389q-43 0 -68 -27.5t-25 -70.5t26.5 -71t67.5 -28q44 0 73 25.5t29 61.5
q0 42 -29 76t-74 34z" />
    <glyph glyph-name="zero.numerator" 
d="M315 498q0 -41 -6 -77t-20.5 -70t-42.5 -53.5t-67 -19.5q-40 0 -68 19.5t-42 53.5t-20 69.5t-6 77.5q0 220 136 220q52 0 84 -35.5t42 -81.5t10 -103zM280 498q0 30 -3.5 58.5t-13.5 60.5t-31.5 51.5t-52.5 19.5t-53 -19.5t-31.5 -52t-13 -60.5t-3.5 -58t3.5 -58.5
t13 -60.5t31.5 -51.5t53 -19.5t52.5 19.5t31.5 51.5t13.5 60.5t3.5 58.5z" />
    <glyph glyph-name="one.numerator" 
d="M174 287v380l-92 -67l-14 30l110 78h31v-421h-35z" />
    <glyph glyph-name="two.numerator" 
d="M40 287v32l154 169q63 68 63 117q0 38 -23.5 60t-61.5 22q-60 0 -106 -57l-17 29q47 58 124 58q55 0 87.5 -30.5t32.5 -78.5q0 -38 -18.5 -70t-61.5 -76l-135 -145h227l-11 -30h-254z" />
    <glyph glyph-name="three.numerator" 
d="M167 278q-82 0 -120 47l12 30q15 -20 46 -33.5t61 -13.5q45 0 71 25t26 68q0 44 -33.5 68t-79.5 24h-20v30h19q47 0 73.5 25t26.5 63q0 37 -24 57.5t-59 20.5q-29 0 -56 -13t-42 -30l-13 26q44 46 112 46q54 0 85 -29t31 -79q0 -37 -22 -63.5t-59 -36.5q44 -7 69 -36.5
t25 -72.5q0 -58 -36.5 -90.5t-92.5 -32.5z" />
    <glyph glyph-name="four.numerator" 
d="M225 288v103h-192v33l181 284h44v-286h65l-10 -31h-55v-103h-33zM225 665h-3l-154 -243h157v243z" />
    <glyph glyph-name="five.numerator" 
d="M308 417q0 -64 -39.5 -101.5t-96.5 -37.5q-88 0 -127 49l8 34q43 -53 119 -53q42 0 72 29t30 79q0 48 -29.5 77.5t-79.5 29.5q-41 0 -86 -26l4 211h207l-10 -30h-167l-3 -137q33 11 63 11q61 0 98 -37.5t37 -97.5z" />
    <glyph glyph-name="six.numerator" 
d="M184 278q-62 0 -100.5 45t-38.5 131q0 120 46.5 186t131.5 66q41 0 65 -13l-8 -26q-30 12 -57 12q-67 0 -104.5 -54t-41.5 -151h2q37 59 105 59q55 0 91.5 -36t36.5 -92t-35 -91.5t-93 -35.5zM185 307q43 0 68 27.5t25 70.5t-26.5 71t-67.5 28q-45 0 -73.5 -25t-28.5 -62
q0 -42 28.5 -76t74.5 -34z" />
    <glyph glyph-name="seven.numerator" 
d="M95 288l172 390h-215l10 30h241v-28l-170 -392h-38z" />
    <glyph glyph-name="eight.numerator" 
d="M311 401q0 -55 -37.5 -89t-93.5 -34q-57 0 -95 34t-38 89q0 37 21 67.5t58 43.5v1q-31 14 -47.5 40.5t-16.5 55.5q0 48 34 78.5t84 30.5q49 0 82.5 -30.5t33.5 -78.5q0 -30 -16.5 -56t-46.5 -40v-1q37 -13 57.5 -43.5t20.5 -67.5zM180 688q-35 0 -59 -22.5t-24 -56.5
q0 -35 23.5 -58.5t59.5 -23.5q34 0 58 24t24 58t-24 56.5t-58 22.5zM180 497q-42 0 -70.5 -27t-28.5 -68q0 -40 27.5 -67t71.5 -27q43 0 70.5 27t27.5 67q0 41 -29 68t-69 27z" />
    <glyph glyph-name="nine.numerator" 
d="M173 706q61 0 100 -45t39 -131q0 -120 -47 -186t-131 -66q-42 0 -66 13l8 26q30 -12 58 -12q67 0 104.5 54t41.5 151h-2q-36 -58 -106 -58q-54 0 -90.5 36t-36.5 91q0 56 35 91.5t93 35.5zM172 677q-43 0 -68 -27.5t-25 -70.5t26.5 -71t67.5 -28q44 0 73 25.5t29 61.5
q0 42 -29 76t-74 34z" />
    <glyph glyph-name="zero.onum" horiz-adv-x="679" 
d="M613 264q0 -122 -76.5 -200t-197.5 -78q-120 0 -197 78t-77 200q0 121 77 197.5t197 76.5q121 0 197.5 -76.5t76.5 -197.5zM571 264q0 102 -63.5 170.5t-168.5 68.5t-168.5 -68.5t-63.5 -170.5q0 -103 63.5 -172t168.5 -69t168.5 69t63.5 172z" />
    <glyph glyph-name="one.onum" horiz-adv-x="364" 
d="M179 0v474l-105 -90l-24 29l134 111h35v-524h-40z" />
    <glyph glyph-name="two.onum" horiz-adv-x="520" 
d="M424 378q0 -73 -62.5 -138t-248.5 -205h344l-10 -35h-385v39l48 37l86.5 66.5l66.5 53.5t55 50t34.5 42.5t24.5 44.5t6 43q0 58 -41 93t-102 35q-99 0 -162 -89l-20 33q67 90 182 90q79 0 131.5 -45t52.5 -115z" />
    <glyph glyph-name="three.onum" horiz-adv-x="523" 
d="M246 -202q-133 0 -207 82l10 44q31 -40 83.5 -65.5t113.5 -25.5q79 0 125.5 47t46.5 123q0 80 -60 121.5t-135 41.5h-25v35h25q71 0 122 38.5t51 113.5q0 66 -43 106.5t-107 40.5q-52 0 -97.5 -24.5t-74.5 -64.5l-20 33q72 90 192 90q81 0 135 -48.5t54 -129.5
q0 -63 -36 -110t-101 -60v-2q76 -13 118 -63.5t42 -119.5q0 -89 -56 -146t-156 -57z" />
    <glyph glyph-name="four.onum" horiz-adv-x="558" 
d="M372 -179v179h-329v42l312 487h55v-494h124l-10 -35h-114v-179h-38zM82 35h290v449h-3z" />
    <glyph glyph-name="five.onum" horiz-adv-x="521" 
d="M244 -198q-132 0 -207 81l9 45q32 -40 84.5 -65.5t113.5 -25.5q74 0 128.5 52.5t54.5 140.5q0 86 -53 138.5t-142 52.5q-71 0 -136 -36l12 339h330l-10 -36h-283l-11 -254q45 21 111 21q100 0 161 -62t61 -161q0 -105 -65 -167.5t-158 -62.5z" />
    <glyph glyph-name="six.onum" horiz-adv-x="570" 
d="M294 -14q-100 0 -164 77.5t-64 222.5q0 203 77 315.5t217 112.5q65 0 104 -18l-7 -35q-47 20 -98 20q-117 0 -183 -97t-72 -272h3q64 108 188 108q88 0 147 -61.5t59 -155.5q0 -96 -56.5 -156.5t-150.5 -60.5zM295 20q76 0 121 51t45 132q0 79 -47.5 131.5t-119.5 52.5
q-78 0 -131 -50t-53 -114q0 -77 52 -140t133 -63z" />
    <glyph glyph-name="seven.onum" horiz-adv-x="513" 
d="M117 -186l297 672h-367l10 36h396v-41l-291 -667h-45z" />
    <glyph glyph-name="eight.onum" horiz-adv-x="567" 
d="M499 189q0 -91 -61.5 -146.5t-154.5 -55.5t-154 55.5t-61 146.5q0 66 37.5 117.5t106.5 71.5v2q-57 22 -87.5 66t-30.5 98q0 78 54 127.5t135 49.5q82 0 136 -49t54 -127q0 -54 -31 -99.5t-88 -65.5v-2q71 -21 108 -72t37 -117zM283 688q-64 0 -107 -41t-43 -104
q0 -61 43 -104.5t107 -43.5t107 43.5t43 104.5q0 63 -43 104t-107 41zM458 190q0 74 -50.5 123t-124.5 49q-73 0 -123.5 -49t-50.5 -123q0 -73 48 -121t126 -48t126.5 48t48.5 121z" />
    <glyph glyph-name="nine.onum" horiz-adv-x="570" 
d="M278 536q103 0 163 -80.5t60 -231.5q0 -214 -71 -315t-193 -101q-86 0 -131 28l6 36q60 -30 127 -30q100 0 162 91t62 275h-3q-24 -44 -75.5 -75t-111.5 -31q-94 0 -150.5 60.5t-56.5 156.5q0 95 60.5 156t151.5 61zM278 502q-74 0 -123 -52t-49 -131q0 -80 47 -132
t121 -52t130.5 49t56.5 91q0 92 -51.5 159.5t-131.5 67.5z" />
    <glyph glyph-name="uni0326.alt" horiz-adv-x="0" 
d="M-154 564l64 185h32l-55 -185h-41z" />
    <glyph glyph-name="caron.alt" horiz-adv-x="241" 
d="M98 523l56 185h40l-64 -185h-32z" />
    <glyph glyph-name="acute.cap" horiz-adv-x="241" 
d="M80 764l102 144h49l-117 -144h-34z" />
    <glyph glyph-name="breve.cap" horiz-adv-x="241" 
d="M120 773q-55 0 -90.5 33.5t-41.5 94.5h27q9 -46 37 -71t68 -25q86 0 106 96h28q-8 -61 -44 -94.5t-90 -33.5z" />
    <glyph glyph-name="caron.cap" horiz-adv-x="241" 
d="M98 764l-106 144h38l91 -124l90 124h38l-105 -144h-46z" />
    <glyph glyph-name="circumflex.cap" horiz-adv-x="241" 
d="M-8 764l106 144h46l105 -144h-38l-90 124l-91 -124h-38z" />
    <glyph glyph-name="dieresis.cap" horiz-adv-x="241" 
d="M37 821q-14 0 -23.5 9.5t-9.5 24.5q0 14 10 24t23 10q14 0 23.5 -10t9.5 -24q0 -15 -9.5 -24.5t-23.5 -9.5zM204 821q-14 0 -23.5 9.5t-9.5 24.5q0 14 10 24t23 10q14 0 23.5 -10t9.5 -24q0 -15 -9.5 -24.5t-23.5 -9.5z" />
    <glyph glyph-name="dotaccent.cap" horiz-adv-x="241" 
d="M121 822q-13 0 -23 9.5t-10 24.5q0 13 10 23t23 10q12 0 22 -9.5t10 -23.5q0 -15 -10 -24.5t-22 -9.5z" />
    <glyph glyph-name="grave.cap" horiz-adv-x="241" 
d="M128 764l-118 144h50l102 -144h-34z" />
    <glyph glyph-name="hungarumlaut.cap" horiz-adv-x="241" 
d="M8 763l102 145h50l-118 -145h-34zM144 763l103 145h50l-119 -145h-34z" />
    <glyph glyph-name="macron.cap" horiz-adv-x="241" 
d="M-2 815v31h246v-31h-246z" />
    <glyph glyph-name="ring.cap" horiz-adv-x="241" 
d="M121 755q-40 0 -68.5 27.5t-28.5 67.5t28.5 67.5t68.5 27.5q39 0 67.5 -27.5t28.5 -67.5t-28.5 -67.5t-67.5 -27.5zM121 778q30 0 50.5 21t20.5 51t-20.5 51t-50.5 21t-51 -21t-21 -51t21 -51t51 -21z" />
    <glyph glyph-name="tilde.cap" horiz-adv-x="241" 
d="M185 790q-27 0 -66 23q-39 24 -62 24q-33 0 -43 -50h-26q5 37 23 59.5t45 22.5q28 0 68 -24t61 -24q35 0 43 49h26q-11 -80 -69 -80z" />
    <glyph glyph-name="cyrbreve.cap" horiz-adv-x="241" 
d="M121 773q-56 0 -91 34.5t-41 87.5l26 5q21 -95 106 -95q84 0 105 95l27 -5q-6 -53 -41.5 -87.5t-90.5 -34.5z" />
    </font>
</defs>
</svg>
